<?xml version="1.0" encoding="UTF-8"?>
<svg id="Layer_1" data-name="Layer 1" xmlns="http://www.w3.org/2000/svg" viewBox="0 0 595.8 842.4">
  <defs>
    <style>
      .cls-1 {
        fill: #49a7a5;
      }

      .cls-1, .cls-2, .cls-3, .cls-4, .cls-5, .cls-6, .cls-7, .cls-8, .cls-9, .cls-10, .cls-11, .cls-12, .cls-13, .cls-14, .cls-15, .cls-16, .cls-17, .cls-18, .cls-19, .cls-20, .cls-21, .cls-22, .cls-23, .cls-24, .cls-25, .cls-26, .cls-27, .cls-28, .cls-29, .cls-30, .cls-31, .cls-32, .cls-33, .cls-34, .cls-35, .cls-36, .cls-37, .cls-38, .cls-39, .cls-40, .cls-41, .cls-42, .cls-43, .cls-44, .cls-45, .cls-46, .cls-47, .cls-48, .cls-49, .cls-50, .cls-51, .cls-52, .cls-53, .cls-54, .cls-55, .cls-56, .cls-57 {
        stroke-width: 0px;
      }

      .cls-2 {
        fill: #fefefe;
      }

      .cls-3 {
        fill: #40a2a1;
      }

      .cls-4 {
        fill: #4ca8a7;
      }

      .cls-5 {
        fill: #e69792;
      }

      .cls-6 {
        fill: #dabb59;
      }

      .cls-7 {
        fill: #f05345;
      }

      .cls-8 {
        fill: #55acab;
      }

      .cls-9 {
        fill: #cea35e;
      }

      .cls-10 {
        fill: #d8b952;
      }

      .cls-11 {
        fill: #40a3a2;
      }

      .cls-12 {
        fill: #4da9a7;
      }

      .cls-13 {
        fill: #fcfdfd;
      }

      .cls-14 {
        fill: #4faaa8;
      }

      .cls-15 {
        fill: #52abaa;
      }

      .cls-16 {
        fill: #51aba9;
      }

      .cls-17 {
        fill: #d8b850;
      }

      .cls-18 {
        fill: #fdfbfb;
      }

      .cls-19 {
        fill: #f05245;
      }

      .cls-20 {
        fill: #f16256;
      }

      .cls-21 {
        fill: #f05244;
      }

      .cls-22 {
        fill: #52aba9;
      }

      .cls-23 {
        fill: #55adab;
      }

      .cls-24 {
        fill: #ecd2e2;
      }

      .cls-25 {
        fill: #4da8a7;
      }

      .cls-26 {
        fill: #fefdfd;
      }

      .cls-27 {
        fill: #4ea9a8;
      }

      .cls-28 {
        fill: #f4f9f9;
      }

      .cls-29 {
        fill: #e69692;
      }

      .cls-30 {
        fill: #48a6a4;
      }

      .cls-31 {
        fill: #f05446;
      }

      .cls-32 {
        fill: #cea35f;
      }

      .cls-33 {
        fill: #54acab;
      }

      .cls-34 {
        fill: #fdfdfc;
      }

      .cls-35 {
        fill: #4fa9a8;
      }

      .cls-36 {
        fill: #47a6a4;
      }

      .cls-37 {
        fill: #4ca8a6;
      }

      .cls-38 {
        fill: #40a2a0;
      }

      .cls-39 {
        fill: #4ea9a7;
      }

      .cls-40 {
        fill: #4ba8a6;
      }

      .cls-41 {
        fill: #47a5a4;
      }

      .cls-42 {
        fill: #40a3a1;
      }

      .cls-43 {
        fill: #4aa7a5;
      }

      .cls-44 {
        fill: #41a3a1;
      }

      .cls-45 {
        fill: #cea25e;
      }

      .cls-46 {
        fill: #46a6a4;
      }

      .cls-47 {
        fill: #d9ba57;
      }

      .cls-48 {
        fill: #50aaa9;
      }

      .cls-49 {
        fill: #51aaa9;
      }

      .cls-50 {
        fill: #fdfdfd;
      }

      .cls-51 {
        fill: #50aaa8;
      }

      .cls-52 {
        fill: #cfa35f;
      }

      .cls-53 {
        fill: #42a3a2;
      }

      .cls-54 {
        fill: #53acaa;
      }

      .cls-55 {
        fill: #4aa7a6;
      }

      .cls-56 {
        fill: #e69793;
      }

      .cls-57 {
        fill: #48a6a5;
      }
    </style>
  </defs>
  <path class="cls-2" d="m0,112.68V44.64c5.37,2.51,10.97,3.96,16.93,3.53,2.43-.17,4.85-.54,7.26-.95,1.67-.28,3.31-.78,4.97-1.18,1.08,1.85,2.31,3.51,4.69,3.69,8.25,4.71,17.21,6.79,26.63,7.15.32.12.63.34.95.34,2.72.03,5.43.03,8.15,0,.32,0,.64-.21.97-.32,1.1,0,2.2.07,3.29-.05,3.41-.35,6.81-.76,10.21-1.18,2.38-.29,4.75-.63,7.13-.94.05,2.4,0,4.81.17,7.2.2,2.73.05,5.59,1.88,7.95-.04.11-.15.25-.11.33.73,1.52,5.06,2.49,6.34,1.4.09-.08-.05-.43-.09-.65,2.15-.59,3.03-2.26,3.29-4.24.66-5.09,1.01-10.2-.4-15.24.54-.25,1.08-.51,1.63-.73,4.94-2.03,9.95-3.91,14.81-6.12,6.85-3.1,13-7.34,18.84-12.08,4.48-3.64,8.34-7.89,11.72-12.47,2.89-3.92,5.2-8.34,6.74-13.06.38-1.16.55-2.55,2.04-2.99C160.36,3.37,161.87,1.65,163.44,0h59.76C308.4,0,393.6,0,478.8,0c-.5.94-.98,1.89-1.51,2.81-.99,1.74-.42,4.58,1.09,5.36,1.87.97,5.16.25,6.7-1.25,2.05-2,2.3-4.33,1.64-6.92h14.04c.19,3.19,2.79,5.27,5.64,3.23,1.25-.89,2.25-2.14,3.36-3.23,1.8,0,3.6,0,5.4,0,.09.33.09.72.27.99,2.07,3.16,6.33,2.65,8.37-.99h72v65.52c-.64.26-1.33.45-1.92.8-2.4,1.45-3.37,3.81-2.71,6.39.55,2.15,1.45,2.71,4.62,2.89v20.88c-2.36-.12-4.14.86-5.31,2.9-1.34,2.32-.25,5.63,2.12,6.26,1.01.27,2.12.15,3.18.2v50.04c-1.5-2.09-3.44-2.78-5.85-1.74-1.89.81-2.81,2.41-3.25,4.32-.84,3.62,1.66,6.46,5.19,5.56,1.44-.37,2.62-1.8,3.91-2.74v48.6c-.76-.61-1.46-1.34-2.3-1.82-2.65-1.54-8.4,2.27-8.12,6.59-2.3-2.31-4.69-4.53-6.87-6.94-2.79-3.07-5.59-6.15-9.72-7.31-6.15-1.72-7.97,1.97-7.86,6.87.08,3.42.32,6.83.48,10.25-1.07.02-2.18-.15-3.2.1-3.39.83-4.8,3.61-5.86,6.53-.64,1.78-.82,3.7.38,5.42,1.62,2.33,5.33,3.04,8.28,1.53.64-.33,1.17-.76,1.46.31.33,1.47.41,3.05,1.02,4.4,3.83,8.56,10.88,12.63,19.84,13.96,4.5.67,8.94,1.54,12.49,4.73v31.32c-.5.8-.99,1.59-1.49,2.39-.23-1.09-.5-2.18-.67-3.28-1.06-6.68-3.82-12.1-10.18-15.39-4.22-2.19-7.51-5.64-10.65-9.22-2.73-3.1-5.71-5.99-9.75-7.36-3.64-1.24-6.12-.36-7.98,3-2.6,4.7-2.4,9.53.19,14.11,1.32,2.34,3.3,4.31,4.88,6.51,3.07,4.27,5.94,8.69,9.16,12.84,2.38,3.06,5.61,4.97,9.61,5.38,2.78.28,5.19-.9,7.76-1.55,2.04-.52,4.18-.61,6.28-.89-.11.21-.27.4-.33.62-1.63,5.8-2.51,11.7-2.17,17.74-.23,1.42-.46,2.84-.67,4.26-.38,2.53-.75,5.07-1.13,7.6-.39-1.04-.9-2.06-1.15-3.14-2.65-11.16-9.04-18.68-20.56-21.2-3.72-.81-7.54-1.24-11.2-2.26-7.3-2.04-14.48-4.55-21.8-6.52-4.81-1.29-9.75-2.24-14.7-2.83-3.56-.42-5.75,2.79-5.05,6.3.63,3.15,2.74,5.12,5.34,6.34,5.93,2.79,10.18,7.3,14,12.44,7.33,9.86,17.26,14.93,29.51,15.53,2.88.91,5.75.59,8.63-.01,3.09-.13,6.22-.02,9.26-.46,2.03-.3,3.97-.62,5.91.13.55.21,1.24.78,1.35,1.29,1.16,5.32.88,10.64-.13,15.96-.96,5.08-1.66,10.15-.72,15.38.42,2.34-.08,4.85-.16,7.28-4.44-6.6-10.33-11.69-16.96-15.93-3.58-2.29-7.58-3.28-11.89-3.16-4.77.13-9.19,1.55-13.5,3.36-4.55,1.91-8.98,4.13-13.6,5.86-3.53,1.32-7.29,1.98-10.89,3.13-1.57.51-3.24,1.25-4.42,2.36-3.33,3.14-3.23,6.69,1.81,8.85,7.65,3.28,14.53,7.68,20.86,13.03,3.54,3,7.56,4.75,12.27,4.42,4.01-.28,8-.73,12-1.02,2.96-.21,5.75-1.16,8.17-2.67,4.07-2.54,7.89-5.48,11.75-8.34,1.78-1.32,3.42-2.83,5.49-4.57,1.73,5.89,3.32,11.3,4.93,16.81-.83.25-1.34.38-1.83.55-5.08,1.82-10.38,3.22-15.19,5.58-6.28,3.09-12.13,7.07-18.28,10.44-2.71,1.48-3.62,3.83-3.82,6.47-.31,4.06,2.41,8.94,7.38,10.13,2.27.54,4.73.33,7.1.35,5.82.04,11.64.04,17.45,0,3.26-.02,6.51-.15,9.77-.22v15.12c-3.44-.92-6.85-1.99-10.32-2.73-5.48-1.16-11-2.28-16.66-1.22-.48.09-.99.29-1.37.59-1.58,1.25-2.15,3.7-1.04,5.63,2.99,5.21,6.76,9.62,12.42,12.19,2.39,1.09,4.68,2.48,6.82,4.01,3.47,2.48,6.78,5.19,10.15,7.8v56.52c-.74-.67-1.43-1.42-2.23-2-5.64-4.05-8.59-3.75-12.43.14-4.72,4.79-5.68,11.18-6.1,17.45-.33,4.82.27,9.7.55,14.55.32,5.37.69,10.74,1.14,16.09.27,3.21,1.08,6.34,2.91,9.02,1.34,1.96,3.15,3.3,5.7,3.73,4.62.79,8.98-4.78,9.41-8.76.13-1.17.69-2.29,1.05-3.44v158.04h-5.82c-.13.58-.3.9-.23,1.15.99,3.71-.05,7.27-.65,10.88-.38,2.25-.79,4.54-.79,6.8,0,2.3.76,4.66,3.57,5.13,1.28.22,2.62.11,3.93.15v93.24h-33.84c.71-2.68,1.45-5.36,2.11-8.05.16-.66.02-1.21,1.02-1.51,1.12-.33,1.04-1.45.14-2.23-.35-.31-.62-.85-.69-1.32-.45-3.08-.81-6.18-1.28-9.26-.13-.86-1.17-1.64-.09-2.59.05-.04-.46-1.02-.89-1.25-2.51-1.4-4.78-2.99-5.81-5.86-.11-.3-.6-.51-.96-.65-1.06-.41-2.21-.64-3.21-1.17-3.22-1.69-6.37-3.5-10.16-3.54-.95,0-1.9,0-2.85,0-2.98.13-6,0-8.95.43-6.19.89-10.62,4.51-13.88,9.71-2.67,4.26-3.95,8.96-4.18,13.91-.21,4.58.21,9.12,2.15,13.38h-24.48c0-1.44.07-2.88-.01-4.31-.3-5.33-1.9-10.09-6.17-13.63-4.95-4.11-10.61-6.07-17.06-5.89-5.92.17-10.23,2.83-13.01,8.06-2.64,4.94-3.56,10.23-3.34,15.77h-165.96c.73-2.81,1.43-5.62,2.23-8.41.14-.5.79-.83,1.04-1.32.26-.53.56-1.63.45-1.68-1.26-.61-.81-1.7-.9-2.66-.16-1.72-.56-3.43-.55-5.14.01-2.13-2.11-3.86-1.04-6.17.06-.13-.55-.66-.92-.88-.33-.2-.96-.1-1.12-.35-1.31-1.96-4.02-2.73-4.51-5.4-.06-.31-.69-.57-1.1-.73-1.02-.41-2.09-.69-3.1-1.13-2.26-.98-4.47-2.1-6.76-3.02-1.4-.56-2.92-.84-4.39-1.24.18-.64.37-1.29.55-1.93-.56-.03-1.34-.3-1.63-.04-1.14,1.03-.2,1.69.62,2.3-2.32.12-4.64.25-6.97.36-5.18.25-9.83,1.81-13.61,5.52-4.23,4.15-6.49,9.33-7.51,15.02-.48,2.71-.62,5.57-.33,8.3.31,2.9,1.32,5.72,2.03,8.58H102.6c-1.45-4.26-4.49-6.69-8.66-6.1,1.92-2.87,4-5.66,5.74-8.64,3.2-5.49,4.5-11.62,5.57-17.8.65-3.73,1.28-7.46,2.04-11.17,1.11-5.5-2.35-9.31-6.94-10.56-1.73-.47-4.83.26-6.01,2.5-1.12,2.13-2.54,4.1-3.84,6.13-2.16,3.38-4.63,6.61-6.39,10.19-1.73,3.51-3.06,7.29-4,11.09-1.1,4.41-1.44,8.98-.16,13.48.67,2.37,1.79,4.5,3.76,6.05,2.88,2.26,5.88,2.03,8.88.2-.38,1.54-.76,3.08-1.14,4.62H19.44c-6.32-3.19-12.83-3.13-19.44-1.08v-27.36c1.99-4.08,3.25-8.37,3.33-12.91.06-3.07-.53-6.02-3.33-7.97v-498.24c1.34-1.68,1.31-3.36,0-5.04C0,261.36,0,232.92,0,204.48c.73-1.28,1.69-2.48,2.13-3.85.51-1.59.96-3.04,2.82-3.35,2.23-.37,3.92.46,5.03,2.45.5.89,1,1.78,1.55,2.74,1.26-.93,1.52-1.93,1.08-3.23C10.67,193.36,5.04,191.84,0,195.84v-47.88c2.08.07,3.07-1.66,3.72-2.98,2.31-4.74,3.29-9.84,2.54-15.1-.63-4.41-1.79-8.75-2.33-13.16C3.61,114.11,2.71,112.67,0,112.68Zm402.13,726.53c.2.64.4,1.28.55,1.76,1.07-.28,1.89-.58,2.74-.72,1.79-.29,3.61-.45,5.4-.78.39-.07.69-.63,1.03-.96,1.85-.34,2.55-2.16,3.94-3.1.15-.1.02-.61.01-.93.54-2.14,1.64-4.32,1.52-6.42-.34-5.91-3.47-9.36-9.23-11.04-4.43-1.29-8.97-.43-10.88,2.62-1.29,2.07-1.91,4.59-2.62,6.97-.97,3.25-.25,6.25,1.77,8.96,1.41,2.03,3.42,3.12,5.77,3.65ZM40.72,184.68c-1.18-2.41-2.35-4.83-3.42-7.01-1.37,1.42-2.61,2.69-3.83,3.97-.33.35-.64.72-.92,1.1-1.99,2.68-2.01,5.7-2.02,8.92,0,3.57,1.71,5.43,4.62,6.67.61.26,1.4.44,2.02.3,3.19-.7,4.75-2.64,4.89-5.74.08-1.67-.11-3.34-.18-5.02,3.11-.25,2.51,3.09,4.2,4.36.81-1.11,1.23-2.16.73-3.58-.97-2.78-2.72-4-6.11-3.98Zm-22.77-118.44c-.1.24-.21.48-.31.72-.71,2.31-.93,4.6-.73,7.07.48,5.72-.88,11.28-2.19,16.8-.59,2.46.37,5.07,2.7,6.68,1.74,1.2,5.44,1.23,6.81-.5,1.38-1.73,2.52-3.9,3.02-6.05.83-3.55,1.08-7.24,1.54-10.88.53-4.17-.24-8.09-2.7-11.51-1.73-2.4-2.66-4.97-2.68-7.87-2.55-.45-3.26-.18-4.23,1.91-.53,1.15-.83,2.42-1.24,3.63Zm511.66,619.91c.14-.52.39-1.03.4-1.55.05-3.25.11-6.5.05-9.75-.03-1.75-.29-3.49-.45-5.23-.04-.72-.07-1.44-.11-2.15-.22-3.74-.09-7.54-.75-11.2-.67-3.69-2.02-5.92-6.44-4.59-.28.09-.58.25-.86.22-2.11-.25-2.93,1.27-3.65,2.76-.53,1.09-1.07,2.27-1.21,3.45-.45,3.85-.87,7.72-1.03,11.6-.2,4.76-.25,9.53-.13,14.29.17,6.41.28,12.78-1.14,19.1-.6,2.63-1.12,5.32.57,7.93,1.94,3,6.72,3.52,8.76,2.01,2.84-2.1,4.1-5.25,4.45-8.64.63-6.07,1.04-12.17,1.54-18.25Zm-450.51,100.06c.96-1.47,2.01-2.89,2.87-4.42,1.25-2.23,2.26-4.6,2.16-7.22-.31-7.68-9.11-10.44-13.82-7.99-3.09,1.6-6.07,3.4-9.12,5.07-1.77.96-3.59,1.83-5.39,2.74-.21-.42-.38-.86-.64-1.25-1.22-1.88-3.3-2.79-5.19-2.3-2.12.55-3.35,2.4-3.57,4.75-.17,1.82.81,3.11,1.52,4.56-1.96,1.89-4.07,3.64-5.83,5.69-3.71,4.31-5.91,9.16-5.34,15.11.44,4.67,2.13,8.34,6.45,10.52.29,3.78,1.94,5.18,5.91,5.03,2.81-.11,4.42-2.22,3.83-5.03.6-.25,1.19-.52,1.8-.75,2.98-1.11,5.9-2.46,8.1-4.77,3.3-3.46,6.35-7.15,9.51-10.75,1.98,2.07,4.22,3.58,7.04,1.79,3.77-2.39,5.32-5.31,1.76-8.6-.72-.67-1.36-1.44-2.03-2.16Zm-58.22-22.95c2.87,1.24,5.75.94,8.62,0,1.43-.14,2.87-.22,4.29-.43,5.89-.84,11.8-1.6,17.65-2.65,1.85-.33,3.58-1.38,5.31-2.23.73-.36,1.29-1.08,1.93-1.63,1.1,3.64,2.53,4.74,5.91,4.67,2.32-.05,3.71-1.41,4.7-3.27,1-1.87.42-3.52-.84-5.12-1.5-1.9-3.49-2.58-5.77-2.75,1.29-2.89.93-5.68-.91-8.15-2.4-3.23-5.76-5.22-9.6-6.14-4.1-.98-8.27-1.67-12.45-2.26-6.12-.86-12.28-1.12-18.4.12-6.11,1.24-11.87,3.17-16.09,8.17-2.32,2.75-4.08,5.77-3.75,9.43.56,6.33,5.56,10.27,11.39,11.37,2.63.5,5.34.6,8.01.88Zm537.7-180.83c.06-.15.13-.29.19-.44,3.26.04,6.64-2.29,7.65-5.33,1.3-3.93-.27-7.61-1.43-11.17-1.38-4.21-3.47-8.18-5.19-12.28-3.31-7.9-6.91-15.55-13.81-21.14-4.22-3.41-8.7-5.57-14.25-4.66-3.11.51-5.62,1.86-7.2,4.79-.92,1.7-1.38,3.38-1.42,5.31-.07,3.21-.03,6.35,1.01,9.45,1.88,5.59,5.28,10.24,8.97,14.69,6.05,7.3,13.26,13.34,20.98,18.79,1.32.93,3,1.34,4.51,1.99Zm-219.71,234.76c0,1.13-.18,2.3.03,3.39.96,5.03,3.64,8.82,8.24,11.23,3.38,1.77,6.75,3.58,10.71,3.27,2.66-.2,5.33-.55,7.94-1.13,5.28-1.17,8.62-4.67,10.78-9.49,1.98-4.41,2.17-9,1.41-13.67-.65-3.97-2.42-7.4-5.52-9.96-5.63-4.64-12.09-6.85-19.43-5.94-4.08.51-7.44,2.28-9.83,5.79-3.41,5-4.59,10.56-4.32,16.5Zm-282.77-90.98l.14-.46c4.13.19,6.1-1.75,7.12-5.39,1.14-4.07-.21-7.76-2.27-11.11-3.32-5.43-6.8-10.78-10.49-15.96-1.99-2.79-4.23-5.6-6.92-7.65-5.42-4.12-11.44-2.5-17.02-.26-4.44,1.78-6.63,5.61-7.2,10.47-.55,4.63.41,8.78,3.68,12.02,2.84,2.82,5.94,5.49,9.3,7.64,4.44,2.85,9.15,5.34,13.93,7.58,3.06,1.43,6.47,2.1,9.73,3.11Zm523.76-225.35c.88-.13,2.2-.15,3.38-.55,4.56-1.56,7.21-4.08,6.75-8.78-.73-7.52-3.63-14.26-8.12-20.25-3.64-4.86-7.56-9.51-11.43-14.19-1.62-1.96-3.63-3.37-6.22-3.95-6.6-1.47-10.76,2-9.05,8.88,1.07,4.3,1.7,8.71,2.47,13.09.24,1.38.16,2.83.47,4.2.5,2.2,1.22,4.35,1.79,6.53.92,3.49,2.69,6.57,5.15,9.11,3.89,4,8.93,5.49,14.8,5.92Zm-65.08-4.05c.24,1.11.65,3.26,1.18,5.38.98,3.95,6.99,7.43,10.87,6.4,2.1-.56,3.76-1.75,5-3.46,3-4.11,5.87-8.33,8.92-12.41,2.86-3.83,5.36-7.84,7.33-12.2.96-2.12,1.73-4.28,1.15-6.52-.87-3.4-1.53-7.05-3.3-9.98-3-4.98-9.12-5.12-12.11-1.07-4.8,6.52-9.64,13.02-14.48,19.51-2.93,3.93-4.44,8.33-4.58,14.34Zm79.14,199.08c-.17-6.1-1.39-11.98-2.9-17.81-.1-.37-.35-.79-.65-1-3.92-2.55-8.32-.52-9.8,2.95-.46,1.09-.56,2.38-.59,3.59-.08,3.37-.03,6.74-.03,10.12,0,1.48.1,2.96,0,4.43-.3,4.07-.78,8.12-1,12.19-.15,2.84,2.38,5.35,5.03,5.3,3.61-.07,7.76-3.47,8.36-7.18.68-4.17,1.06-8.4,1.58-12.6Zm-42.73,28.06s.02,0,.03,0c0,1.85.05,3.69,0,5.54-.1,3.29-.31,6.57-.38,9.86-.06,2.7-.21,5.44.14,8.1.16,1.22,1.14,2.86,2.19,3.36,4.26,2.01,8.99-.42,9.85-4.65.5-2.49.62-5.09.61-7.64,0-5.66-.05-11.34-.35-16.99-.16-3.07-.86-6.11-1.33-9.16-.21-1.37-1.09-1.54-2.24-1.21-1.61.46-3.23.87-4.82,1.38-2.76.88-3.68,2.18-3.69,5.13-.01,2.1,0,4.2,0,6.29ZM64,172.7c.23.02.64.17.94.05,1.49-.59,3.58-.83,4.3-1.95,2.2-3.44,3.42-7.36,3.47-11.52.06-4.81.02-9.61.01-14.42,0-3.54-1.48-6.31-4.4-8.32-1.73-1.18-3-.57-3.45,1.54-.3,1.42-.67,2.85-1.24,4.17-1.06,2.47-2.66,4.77-3.35,7.32-.83,3.05-1.02,6.29-1.34,9.46-.28,2.79-.36,5.59-.53,8.39-.19,3.14,2.61,5.76,5.59,5.27Zm29.06-42.38c.08,0,.17.01.25.02,0,1.6-.07,3.19.02,4.79.15,2.75,3.48,4.9,6.07,3.98,3.16-1.12,4.43-3.83,4.92-6.72.63-3.71.95-7.51.97-11.27.03-5.33-.22-10.66-.59-15.97-.15-2.21-1.9-3.26-3.99-3.76-1.87-.44-3.01.57-3.85,1.92-1.59,2.53-2.47,5.31-2.54,8.34-.07,2.84-.14,5.68-.34,8.52-.24,3.39-.6,6.78-.91,10.17Zm482.98,651.18c-2.44.05-3.24,1.66-3.5,2.84-.38,1.68-1.09,2.03-2.55,1.97-.44-.02-1.21.24-1.29.53-.23.81-.19,1.7-.26,2.56-.24,3.14-.47,6.28-.72,9.43-.07.82-.24,1.64-.26,2.46-.04,2.3.46,4.64-.74,6.82-.16.28-.04.86.15,1.17,1.65,2.65,4.53,3.72,7.84,3.08.46-.09.98.23,1.49.32.56.09,1.23.32,1.67.11.27-.13.24-.97.26-1.49.01-.35-.27-.74-.18-1.05.58-1.96,1.52-3.87,1.79-5.86.51-3.74.8-7.54.89-11.31.05-2.06-.51-4.14-.82-6.2-.03-.19-.28-.49-.45-.51-2.16-.23-1.86-2.04-2.32-3.42-.2-.62-.77-1.12-1-1.44ZM32.76,124.4c-.6,1.37-1.08,2.18-1.33,3.05-1.02,3.52-1.8,7.12-2.98,10.58-1.43,4.2-2.08,8.5-2.21,12.9-.06,2.07.44,4,1.74,5.76,1.45,1.95,5.28,2.87,7.46,1.23,2.54-1.9,3.13-4.6,3.18-7.5.04-2.62-.15-5.25-.07-7.88.11-3.6.4-7.19.55-10.79.02-.37-.26-.99-.55-1.11-2.69-1.12-4.82-2.77-5.8-6.24Zm40.6-44.77c0-2.42-1.88-3.14-3.61-4.07-1.36-.73-2.35.18-2.93.89-1.08,1.31-2.25,2.86-2.52,4.46-.51,3.03-.41,6.15-.58,9.24-.12,2.16-.12,4.33-.45,6.46-.35,2.27-.24,4.37.81,6.45,1.04,2.05,2.91,3.41,4.89,3.33,2.07-.09,4.1-1.36,6.11-2.21.27-.11.4-.72.46-1.12.63-4.49.81-8.99.07-13.48-.98-5.97-1-5.95-6.54-8.17-.99-.4-1.91-.95-2.95-1.48,2.6-2.82,4.89.89,7.26-.3Zm23.33,96.38c-.19.04-.37.08-.56.12.48,1.96.83,3.97,1.48,5.87.88,2.57,4.93,3.07,6.86,2.25,3.53-1.5,4.86-7.08,4.13-10.84-.61-3.13-1.04-6.28-1.62-9.41-.1-.52-.58-1.38-.87-1.38-2.13.04-4.8-.49-6.28.58-2.73,1.97-3.74,5.33-3.66,8.78.03,1.35.34,2.69.53,4.03ZM230.56,59.84c.87-.15,1.76-.24,2.62-.45,3.27-.79,4.79-6.05,4.02-8.52-.56-1.79-2.65-3.16-4.44-2.92-2.69.36-4.85,1.59-6.14,4-.94,1.76-1.43,3.63-.35,5.59.95,1.73,2.4,2.35,4.3,2.3Zm286.72,135.94c.56.95,1.04,1.95,1.69,2.83,1.39,1.87,3.27,1.04,5.07.84,4.27-.49,6.87-5.45,3.97-9.24-1.36-1.78-3.54-2.84-5.04-2.35-2.58.83-5.4,4.92-5.69,7.93ZM163.41,48.15c5.09-.05,6.61-2.27,7.15-5.57.34-2.12-.44-4.02-2.07-5.44-1.4-1.21-3.18-1.09-4.53-.22-1.45.93-2.65,2.35-3.76,3.71-1.3,1.58-1.53,3.51-.69,5.35.89,1.95,2.81,2.11,3.9,2.16Zm320.91,749.48c-.19,3.63,2.55,5.24,5.01,5.48,3.43.34,6.28-2.43,6.24-5.75-.04-3.35-2.62-5.59-6.23-5.75-3.07-.13-4.77,1.52-5.02,6.02ZM226.08,20.79c0-3.22-2.57-5.25-5.45-4.3-2.96.97-4.93,2.96-5.91,5.9-.75,2.24.64,4.77,2.89,5.22,4.4.89,8.37-2.45,8.48-6.82Zm336.63,8.16c-.03.34-.09.99-.14,1.64-.21,2.67,3.8,5.24,6.05,3.89,2.82-1.69,4.44-4.42,4.03-7.64-.38-2.96-2.86-4.79-5.73-4.14-2.72.61-4.48,2.18-4.21,6.25ZM103.02,776.16c3.3.03,5.9-1.98,5.99-4.64.1-2.85-3.48-6.02-6.76-5.99-2.6.02-4.99,2.63-5.04,5.52-.04,2.55,2.84,5.09,5.8,5.12ZM23.88,311.61c.64-.81,1.41-1.33,1.47-1.93.41-4.31-.58-8.19-3.91-11.22-3.17-2.87-6.37-3.12-9.53-1.54-3.03,1.51-5.13,5.05-4.07,9.22,1.15.41,2.06.48,2.28-1.15.1-.75.35-1.61.83-2.14,1-1.1,2.07-2.53,3.37-2.88,3.06-.83,5.76.63,7.04,3.65,1,2.36,1.57,4.9,2.52,8ZM495.68,89.54c3.58.02,5.99-2.36,6.05-5.97.04-2.79-2.21-5.51-4.65-5.39-3.27.15-5.65,2.69-6,6.52-.22,2.39,2.24,4.83,4.61,4.84Zm74.28-32.33c3.71.05,6.09-3.2,4.93-6.75-.33-1.01-.74-2.01-1.13-3-.95-2.38-1.04-2.42-3.54-1.53-.72.26-1.41.59-2.12.88-2.24.93-3.76,3.67-3.21,6.09.53,2.34,2.45,4.71,5.07,4.32Zm-441.35-5.32c.56-.14,1.13-.24,1.67-.42,2.56-.85,3.53-3.17,4.68-5.27.87-1.59.39-3.24-.71-4.5-1.08-1.23-2.61-1.52-4.27-1.17-3.08.65-4.36,3.07-5.38,5.6-1.09,2.69,1.07,5.59,4.01,5.76Zm371.08,121.95c-.1,3.13.8,4.71,2.72,5.02,2.7.43,6.39-1.24,7.41-4.09.61-1.71,0-4.49-1.48-5.94-1.24-1.2-3.18-1.41-5.03-.56-2.46,1.13-3.8,2.96-3.63,5.57ZM189.72,32.06c-.36,0-.72-.03-1.07,0-3.73.38-6.77,5.39-5.09,8.37.99,1.76,4.38,3.02,6.04,2.24,3.39-1.58,5.18-4.81,4.15-7.49-.82-2.13-2.11-3.14-4.03-3.13Zm-40.2-7.98c.5,1.16.79,2.48,1.55,3.44.78.98,1.89,1.62,3.43.95,3.04-1.33,4.6-3.71,5.31-6.78.44-1.87-.74-3.25-1.95-4.23-.73-.59-2.3-.68-3.27-.34-2.68.94-4.91,4.05-5.08,6.96ZM63.72,820.51c-.3,3.09,2.78,4.83,5.91,4.89,2.63.05,4.74-1.72,4.71-3.84-.04-3.04-3.38-6.94-5.9-6.89-2.63.05-4.75,2.68-4.72,5.83ZM208.28,43.99c-2.99.81-5.33,2.1-6.06,5.25-.6,2.57-.14,4.76,2.57,5.49,3.86,1.04,7.01-1,7.78-5.1.6-3.22-.36-4.1-3.38-3.05-.31-.87-.61-1.75-.91-2.59Zm358.73,128.38c-.05-.18-.13-.78-.39-1.29-1.33-2.57-4.17-3.79-6.56-2.88-2.19.83-4.47,5.08-3.71,7.22.34.95.96,2.04,1.77,2.55,3.05,1.92,8.88-1.55,8.9-5.6ZM175.65,830.14c2.93.52,5.45-2.17,5.59-4.78.13-2.34-3.7-5.84-6.19-5.93-2.4-.09-4.51,2.73-4.5,6.04,0,2.31,2.58,4.67,5.1,4.68Zm-56.17-5.82c0-2.81-2.63-5.69-5.23-5.67-2.99.03-5.04,2.05-5.14,5.46-.08,2.76,2.36,5.27,4.95,5.33,2.77.07,5.42-2.44,5.42-5.12Zm-1.03-27.64c-2.22-.01-3.23.71-4.12,2.97-.88,2.22-.56,4.14.89,5.48,1.85,1.7,5.83,2.26,7.92.93.82-.52,1.93-1.56,1.87-2.28-.09-1.21-.85-2.48-1.61-3.52-1.24-1.69-2.37-3.68-4.95-3.58ZM542.31,150.45c-4.25.3-7.39,4.46-6.01,8.65.39,1.18,1.3,2.3,2.89,2.23,2.93-.13,5.03-1.49,6.58-4.01.97-1.57.59-2.96-.1-4.27-.75-1.43-1.88-2.64-3.36-2.6ZM148.85,802.44c2.02.34,5.47-2.22,5.58-4.52.13-2.7-3.03-5.88-5.91-5.91-3.19-.04-4.76,2.37-4.95,4.82-.2,2.61,2.74,5.55,5.28,5.61Zm48.64,31.93c.02,2.74.99,4.96,3.42,6.4,1.64.98,3.7.72,5.35-.73,1.6-1.4,2.04-3.08,1.19-4.93-1.05-2.3-2.74-3.82-5.32-4.32-2.67-.51-4.66.95-4.64,3.57ZM187.6,14.32c-.05.46-.12.81-.11,1.17.05,1.92,2.9,4.61,4.49,4.26,1.92-.42,5.48-4.71,5.66-6.74.22-2.4-1.55-3.34-3.18-4.29-1.51-.88-3.39-.54-4.71.88-1.24,1.34-2.58,2.71-2.14,4.73Zm-26.12,788.91c-2.14.21-4.08,1.23-4.21,4.92-.12,3.49,3.22,5.78,5.32,5.79,2.5.02,5.06-2.13,5.07-4.15.01-2.77-3.56-6.56-6.18-6.56ZM513.74,68.3c3.9.01,6.03-2.04,6.03-5.81,0-2.7-1.51-4.54-3.74-4.54-3.09,0-6.31,2.95-6.33,5.8-.03,3.24,1.12,4.53,4.04,4.54Zm21.65,115.91c-.23,1.33.22,2.77,1.5,3.15,3.48,1.05,6.27.37,7.89-3.43.86-2.02.54-4.16-.79-5.46-1.38-1.35-3.46-1.89-5.09-.89-2.35,1.44-3.55,3.7-3.51,6.63Zm-42.55-69.39c3.46.2,5.21-1.72,6.09-4.13.63-1.74.26-3.61-1.11-5.06-1.22-1.3-2.72-1.33-4.29-.8-3.53,1.19-5.61,5.67-4.19,9.04.1.23.4.48.64.52,1.04.2,2.09.33,2.87.44Zm10.73,24.61c.05,2.88,2.18,5.17,4.26,4.89,2.72-.37,5.69-1.55,5.91-5.51.18-3.27-1.58-5.48-5.12-5-2.38.32-3,2.47-4.26,3.93-.5.58-.67,1.44-.78,1.69ZM63.27,261.87c.03-2.91-1.07-4.82-3.2-5.89-2.65-1.33-5.48-1.74-7.93,0-3.27,2.32-4.43,5.8-3.8,9.75.1.62.93,1.12,1.42,1.68.56-.6,1.39-1.12,1.63-1.83.36-1.08.2-2.32.47-3.44.33-1.4.78-2.84,2.42-3.29,3.25-.9,5.44.49,6.63,4.07.16.49.61.89.93,1.34.44-.51.94-.99,1.29-1.55.2-.32.15-.79.15-.82Zm23.69,488.36c2.9.23,5.6-2.2,5.81-4.51.23-2.44-3.51-5.88-6.11-5.89-1.92,0-4.53,3.11-4.59,5.49-.06,2.48,2.31,4.87,4.88,4.91Zm-75.62,39.62c-3.07-.03-4.33,1.76-4.48,4.79-.15,2.93,2.25,5.26,5.27,5.29,2.54.03,5.3-2.45,5.36-4.81.06-2.41-3.26-5.25-6.15-5.27ZM519.01,124.88c3.3.03,6.16-2.48,6.2-5.44.03-2.45-2.2-4.98-4.47-4.94-2.4.04-5.64,2.4-5.59,5.95.04,2.35,1.21,4.82,3.85,4.43ZM135.02,831.77c-.03,3.57,2.01,5.9,5.19,5.93,2.57.02,4.48-1.88,4.51-4.5.04-3.34-2.25-5.88-5.34-5.91-2.68-.03-4.34,1.68-4.36,4.48ZM39.18,322.97c-.94.16-2.31.3-3.63.63-3.84.96-5.8,3.61-5.57,7.52.03.45.42.88.65,1.33.48-.24,1.02-.41,1.4-.76.27-.25.32-.75.46-1.14,1.3-3.51,4.94-5.26,8.56-4.23,3.17.9,4.73,3.23,5.8,6.1.29.79.57,2,1.66,1.49.52-.24,1.01-1.72.74-2.27-1.03-2.11-2.23-4.16-3.63-6.04-1.44-1.94-3.69-2.48-6.45-2.63ZM553.95,123.48c-3.04.03-5.78,2.77-5.8,5.8-.02,1.98,2.73,4.77,4.75,4.55,3.08-.35,5.39-2.73,5.38-6.03,0-2.25-2.13-4.34-4.33-4.32Zm-68.63-57.08c-.05,1.31.1,2.56,1.9,3.14,2.16.7,4.29.25,5.71-1,1.85-1.63,2-4.16,1.48-6.64-.39-1.86-1.46-2.55-3.28-2.51-3.4.07-6.1,3.18-5.82,7.01Zm97.06,60.57c2,.49,3.14-.91,4.37-2.05,1.27-1.18,1.57-3.82.8-5.59-.8-1.83-2.12-2.54-4.12-2.34-2.02.19-3.39,1.35-4.53,2.81-1.3,1.66-1.01,3.61-.2,5.31.65,1.36,1.93,2.28,3.68,1.87Zm-15.34,27.47c4.06,0,5.84-1.95,6.05-5.38.17-2.76-1.45-4.72-3.74-4.68-3.83.06-5.49,2.22-5.91,6.16-.27,2.53,1.13,3.87,3.61,3.9ZM11.04,227.01c.37-1.14.77-2.25,1.08-3.37.52-1.9,1.77-2.66,3.68-2.53.65.04,1.31-.04,1.97-.07,3.3-.18,5.95,1.83,6.78,5.01.14.55.84.96,1.28,1.44.44-.52,1.11-.98,1.27-1.57.88-3.27-.79-5.51-3.36-6.57-1.68-.69-3.49-1.27-5.29-1.43-1.93-.18-3.97-.07-5.86.38-2.9.69-4.72,5.08-1.56,8.74ZM541.02,36.72c-3.99,0-6.43,2.35-6.39,6.19.03,2.36,3.15,4.74,5.13,3.78,1.97-.96,3.75-2.25,4.57-4.43,1.04-2.77-.76-6.18-3.31-5.53Zm8.34,160.12c.04,2.32,1.83,4.1,4.04,4.03,3.19-.1,5.74-2.78,5.61-5.9-.12-2.99-1.35-4-4.13-4.23-2.69-.22-5.69,3.71-5.52,6.1Zm32.12-.89c3.01-.47,4.69-2.38,4.87-6.24.11-2.37-1.65-4.37-3.69-4.23-3.5.25-5.32,2.32-5.49,6-.12,2.48,1.23,4.53,4.31,4.46Zm-63.4-100.44c-.18,2.58,1.24,4.36,3.84,4.46,2.32.08,5.53-2.96,5.79-5.81.17-1.81-1.72-3.95-3.46-4.17-3.01-.39-6.5,2.38-6.18,5.52Zm25.51,6.61c.03-3.31-1.14-4.82-3.56-4.52-2.57.33-4.34,1.86-5.3,4.16-1.1,2.65-.03,4.69,2.22,5.54,3.61,1.36,6.88-1.54,6.64-5.18ZM35.27,276.55c.08-1.24.37-2.09.14-2.78-1.04-3.19-5.01-7.06-9.56-6.69-3.49.28-7.06,3.73-6.28,7.98.09.49.56,1.08,1.01,1.29.39.18,1.16.05,1.46-.24.37-.36.49-1.03.6-1.59.88-4.31,5.01-4.73,7.19-2.65,1.6,1.54,3.37,2.91,5.44,4.68ZM497.31,46.03c2.84.56,5.15-2.52,5.21-5.63.04-2.31-1.61-3.96-3.92-3.93-2.85.04-5.72,2.9-5.75,5.76-.03,2.18,1.87,3.79,4.47,3.8Zm19.65,114.72c0,3.36,1.19,4.64,3.52,4.8,2.48.18,5.76-2.65,5.72-5.13-.06-3.5-2.48-5.82-5.67-4.29-2.32,1.11-3.52,3.03-3.57,4.62Zm53.26-58.54c.02-3.38-1.01-4.23-4.35-3.59-.18.03-.36.01-.53.06-2.94.7-5.11,5-3.68,7.27,1.04,1.65,3.08,2.45,5.08,1.99,2.25-.52,3.23-1.66,3.48-4.11.05-.53,0-1.08,0-1.61Zm-36.4-27.01c2.84.02,4.65-1.11,5.54-3.51.76-2.02.05-3.75-1.25-5.25-1.18-1.36-2.66-1-4.12-.46-1.96.71-3.69,3.98-3.35,6.35.32,2.22,1.02,2.86,3.18,2.87Zm11.23-54.11c-.02-3.83-1.07-4.7-4.72-3.91-.12.03-.23.08-.35.08-2.89.09-2.6.42-3.49,3.48-.12.4-.32.85-.23,1.21.3,1.18.39,2.64,1.15,3.43,1.36,1.42,3.25,1.69,4.97.43,1.58-1.14,2.64-2.67,2.67-4.72Zm34.18,60.82c-.16-1.6-.41-3.25-2.16-4.13-1.48-.74-2.81-.12-4.01.67-.79.52-1.46,1.26-2.04,2.01-1.88,2.43-.61,6.09,2.4,6.63,3.34.6,5.62-1.43,5.81-5.18Zm-38.52,134.46c0-2.48-1.65-4.22-4.03-4.34-2.21-.11-4.91,2.41-4.9,4.73.02,3.09,1.42,4.96,3.79,4.96,2.73,0,5.12-2.5,5.13-5.35ZM27.36,788.9c0,2.47,2.24,4.6,4.77,4.54,2.36-.05,4.59-2.07,4.59-4.16,0-2.51-2.7-5.51-5-5.49-2.15.02-4.62,3.12-4.36,5.11Zm9.12,39.46c-2.77-.05-3.71,1.35-3.78,5.57-.03,1.94,2.09,4.21,4.11,4.12,2.76-.13,4.23-1.45,4.5-4.52.23-2.66-2.18-5.12-4.83-5.17Zm-1.03-468.99c1.48-1.05,1.79-2.34,1.16-3.59-.74-1.46-1.63-2.94-2.8-4.04-1.62-1.54-5.49-1.53-7.06-.31-2.17,1.69-3.24,4.04-3.63,6.64-.1.66.86,1.47,1.33,2.22.6-.44,1.37-.78,1.77-1.36.44-.66.51-1.55.8-2.33.54-1.43,1.48-2.57,3.06-2.64,1.43-.07,2.7.56,3.44,1.94.61,1.13,1.25,2.25,1.93,3.48ZM555.94,63.36c-2.95.03-6.22,4.42-5.36,7.1.17.53.6,1.06,1.05,1.38,1.87,1.32,4.48,1.12,6.09-.38,1.53-1.43,2.02-4.68.99-6.46-.65-1.12-1.52-1.83-2.77-1.64ZM100.4,239.76c-3.01.03-5.97,3.57-5.28,6.47.13.56.87,1.2,1.45,1.35.33.09,1.01-.64,1.34-1.13.35-.52.47-1.2.71-1.8.57-1.46,1.73-1.93,3.22-1.39,2.49.92,3.45,2.95,4.08,5.31.13.49,1.02,1.26,1.23,1.16.59-.27,1.45-.92,1.44-1.41-.11-3.94-3.43-8.32-8.19-8.58Zm-22.86,109.36c.34-1.54,1.06-2.87.74-3.86-.46-1.45-1.41-3.03-2.61-3.92-4.18-3.12-9.15-2.69-10.41,3.44-.11.52.37,1.52.81,1.69.47.18,1.23-.33,1.83-.62.15-.07.15-.43.26-.64,1.6-3.04,3.43-3.41,5.87-.94,1.26,1.28,2.14,2.92,3.52,4.85Zm-56.06-90.8c.24,0,.47,0,.71,0,.22-1.34.82-2.74.59-3.99-.57-3.13-3.64-5.2-6.38-4.65-3.08.61-4.85,3.27-4.4,6.72.06.45.56,1.17.87,1.17.52,0,1.2-.34,1.52-.75.5-.63.66-1.52,1.12-2.19,1.21-1.8,2.56-1.73,3.75.13.75,1.18,1.48,2.38,2.22,3.57Zm32.96-17.79c-1.02-1.73-1.87-3.6-3.13-5.12-.74-.88-2.12-1.57-3.28-1.7-2.99-.33-4.96,1.35-6.23,3.93-.89,1.81-.41,3.01,1.69,3.95.7-1.13,1.37-2.31,2.12-3.44,1.23-1.84,2.97-1.78,4.09.11.45.76.89,1.53,1.37,2.28,1.18,1.88,1.49,1.9,3.37,0Zm473.38-103.01c.01,2.5,1.26,3.99,3.32,3.96,2.69-.04,4.48-1.96,4.52-4.82.03-2.21-1.57-3.99-3.65-4.05-2.03-.06-4.2,2.49-4.19,4.91ZM64.73,318.27c2.15-1.45,4.28-2.91,6.7-1.13,1.12.83,1.81,2.24,2.75,3.34.4.47.93.84,1.4,1.25.29-.64.86-1.29.84-1.91-.21-4.63-5.06-8.14-9.49-6.93-2.88.79-4.03,3.47-2.2,5.37Zm-2.5,49.09c1.26-1.33,1.33-2.67.75-4.08-.61-1.48-1.61-2.64-3.34-2.46-1.39.15-2.82.46-4.08,1.03-2.44,1.12-3.31,2.63-2.87,4.7.13.6.68,1.34,1.21,1.55.43.17,1.22-.26,1.7-.61.4-.29.61-.86.86-1.33,1.01-1.91,3.17-2.09,4.49-.37.38.5.8.97,1.29,1.56Zm-5.8-65.51c-1.9-3.83-5.35-4.85-9.28-4.05-1.68.34-3.24,1.2-3.97,2.86-.28.63.08,1.53.14,2.31.69-.14,1.45-.16,2.07-.46,1.92-.94,3.62-2.85,6.05-1.21.63.43,1.27.86,1.87,1.32,1.92,1.48,1.96,1.48,3.13-.77Zm22.23-15.01c.25-.17.49-.35.74-.52-.25-.87-.27-1.93-.8-2.58-1.62-2.01-3.81-3.25-6.38-3.62-3.28-.47-5,1.56-4.1,4.76.16.56.58,1.24,1.06,1.44.3.13,1.05-.42,1.4-.84,1.95-2.29,2.25-2.36,4.82-.73,1.09.69,2.17,1.39,3.25,2.08Zm-17.13-77.31c.39-.9.78-1.75,1.13-2.62,1.18-2.98,3.96-3.56,6.32-1.32.22.21.41.44.64.63.88.74,1.53.28,1.6-.6.06-.75-.17-1.74-.65-2.26-1.53-1.65-3.49-2.49-5.8-2.04-2.49.49-3.93,2.08-4.84,4.43-.71,1.85.4,2.69,1.6,3.77ZM27.36,823.55c.02-1.86-1.64-3.36-3.8-3.43-1.8-.06-3.48,1.52-3.52,3.32-.05,2.11,1.89,4.11,4.04,4.16,1.51.04,3.25-2.12,3.28-4.05Zm-13.5-487.75c.69.95,1.3,1.79,1.91,2.63,1.55-1,2.37-2.19,1.84-3.84-.57-1.8-2.06-2.32-3.81-2.29-2.47.05-4.42,1.14-5.82,3.11-.31.44-.45,1.46-.18,1.73.4.41,1.33.66,1.87.49,1.41-.45,2.73-1.17,4.19-1.83ZM545.34,87.48c1.74.03,3.53-1.73,3.59-3.52.04-1.32-1.57-4.25-2.32-4.23-2.27.07-4.84,2.8-4.81,5.11.02,1.57,1.41,2.61,3.54,2.65Zm45.12-40.09c-1.41.1-2.28.17-3.13.23-.26,2.31,1.07,3.33,3.29,2.61,3.22-1.04,4.36-3.39,3.45-7.47-2.04.42-4.08.82-6.1,1.31-.11.03-.21.97,0,1.2.62.68,1.4,1.21,2.5,2.12Zm-104.45-20.33c-.05,1.41-.2,3.06,1.55,3.44,1.93.42,4.36-1.75,4.4-3.59.04-1.76-1.23-3.42-2.67-3.48-2.72-.11-3.14.36-3.28,3.63Zm-201.6,778.11c.22-.01.43-.03.65-.04.26-.48.82-1.06.7-1.42-.16-.5-.77-1-1.3-1.17-.25-.08-1.13.7-1.07.92.16.62.66,1.15,1.02,1.71Zm308.44-.79c-.79-.48-1.32-1.06-1.82-1.03-.47.02-.9.69-1.35,1.08.41.46.87,1.33,1.22,1.28.6-.08,1.12-.72,1.95-1.33Zm-11-6.84c.16.11.33.22.49.32.59-.34,1.26-.62,1.74-1.08.13-.12-.22-1.03-.56-1.24-.35-.22-1.31-.17-1.38,0-.24.6-.21,1.32-.28,1.99Zm.12,3.9c.73.64,1.19,1.33,1.54,1.28.51-.07.94-.68,1.4-1.05-.45-.44-.83-1.02-1.37-1.26-.23-.1-.77.49-1.57,1.04Zm-289.72-8.93c.55-.85,1.1-1.33,1.07-1.77-.02-.39-.75-1.1-1.06-1.05-.51.09-1.21.62-1.3,1.07-.08.36.62.89,1.29,1.75Zm1.06,36.37c.73-.81,1.44-1.27,1.4-1.64-.05-.47-.73-.87-1.14-1.3-.38.41-.94.76-1.09,1.24-.1.32.38.82.83,1.7Zm267.72-22.07c-.92-.5-1.47-1.04-1.94-.98-.43.06-.77.77-1.15,1.19.43.34.86.97,1.28.96.48-.01.95-.58,1.81-1.17Zm33.82,13.41c-.92-.56-1.4-1.06-1.92-1.1-.31-.03-.99.69-.95,1.01.05.45.6,1.18.96,1.19.49.01,1-.53,1.92-1.09Zm-302.02-19.46c-.75-.56-1.23-1.18-1.52-1.1-.56.16-1.02.71-1.52,1.1.44.39.84,1.04,1.32,1.1.42.05.92-.56,1.72-1.1Zm13.81,29.07c.26.02.52.05.78.07.35-.6.78-1.17,1-1.81.05-.14-.62-.74-.98-.76-.45-.03-1.32.34-1.32.51.03.67.32,1.33.52,1.99Zm-5.07-2.18c.21.04.41.08.62.12.42-.56.92-1.08,1.18-1.71.06-.15-.61-.8-1.03-.91-.33-.09-1.12.28-1.12.46-.01.68.21,1.36.35,2.03Zm-9.01,7.71c.59-.84,1.21-1.34,1.19-1.79-.03-.44-.66-1.05-1.14-1.17-.31-.08-1.18.62-1.15.9.06.58.55,1.11,1.1,2.07Zm22.9-30.94c-.92-.56-1.47-1.16-1.92-1.09-.44.07-.78.81-1.16,1.26.39.33.79.94,1.15.91.52-.04,1.01-.54,1.92-1.08Zm-2.8,22.04c0-.23.02-.45.03-.68-.5-.33-1.02-.95-1.5-.92-.44.03-.83.75-1.24,1.17.44.41.82,1.03,1.33,1.15.38.09.91-.46,1.38-.72Zm264.57-8.66c-.87-.61-1.32-1.13-1.85-1.22-.3-.05-1.06.63-1.02.89.08.49.54,1.22.93,1.27.46.07,1.02-.46,1.94-.94Zm-293.53-10.78c-1.02-.5-1.69-.93-2.43-1.11-.15-.04-.87,1.03-.74,1.3.63,1.28,1.6.88,3.16-.18Zm30.35,1.12c-.83-.47-1.36-1.02-1.78-.95-.46.08-.83.74-1.24,1.14.43.42.84,1.16,1.29,1.18.44.02.92-.68,1.74-1.37Zm-22.85-8.91c.19.03.39.06.58.09.41-.57.9-1.1,1.16-1.72.06-.15-.63-.83-1.03-.88-.42-.06-1.31.37-1.29.54.05.67.37,1.32.59,1.98Zm18.64,20.61c.71-.85,1.27-1.29,1.45-1.85.07-.21-.78-1.03-1.16-.99-.46.05-1.05.63-1.21,1.11-.11.32.43.86.92,1.73Zm-32.02-31.42c.67-.81,1.23-1.26,1.44-1.84.07-.21-.7-1.02-1.07-1.01-.46.01-1.23.55-1.28.94-.06.48.47,1.05.91,1.91Zm11.93,50.52c-.93-.62-1.45-1.23-1.82-1.14-.49.11-.86.76-1.28,1.18.44.41.83,1.04,1.34,1.15.35.08.86-.55,1.76-1.19Zm268.42-38.38c-.84-.49-1.41-1.06-1.7-.94-.53.22-.9.84-1.33,1.3.41.37.9,1.1,1.22,1.03.55-.11.99-.72,1.81-1.4Zm-249.84,7.23c-.92-.63-1.35-1.16-1.79-1.17-.41,0-1.1.51-1.15.87-.06.4.48,1.27.72,1.26.6-.04,1.16-.46,2.23-.96Zm-9.13-16.99c-.95-.62-1.41-1.13-1.91-1.17-.36-.03-1.14.69-1.09.88.15.51.6,1.17,1.04,1.27.41.09.97-.46,1.96-.99Zm284.53,15.15c-.59.83-1.27,1.38-1.17,1.74.12.45.83.94,1.35,1.01.3.04,1.02-.69,1.01-1.06-.02-.46-.59-.9-1.18-1.69Zm-284.21,7.62c.65-.75,1.36-1.23,1.32-1.62-.05-.43-.75-1-1.26-1.1-.31-.06-1.08.61-1.09.98-.02.46.52.94,1.03,1.75Zm283.16,1.69c-.28-1.24-1.09-1.67-2.19-1.18-.3.14-.57,1.22-.38,1.45.87,1.02,1.76.58,2.56-.27Zm-284.84,4.06c.56-.74,1.1-1.2,1.23-1.75.06-.27-.82-1.09-1.01-1.01-.55.23-1.13.71-1.35,1.24-.1.25.59.83,1.14,1.53Zm291.43-1.25c-.8-.53-1.33-1.13-1.77-1.08-.43.05-.78.78-1.17,1.21.44.34.86.91,1.32.94.41.03.86-.54,1.62-1.07Zm-271.93,2.02c-.91-.51-1.42-1.01-1.91-.99-.4.01-.79.64-1.18.99.42.41.8,1.11,1.26,1.16.43.05.95-.57,1.83-1.17Zm-13.29-.8c-.24,1.64-.37,2.71,1.09,2.51.43-.06.76-.87,1.13-1.33-.66-.35-1.32-.7-2.22-1.18Zm-31.38-26.24c-.81-.52-1.29-1.08-1.65-1.01-.51.1-.92.66-1.37,1.03.39.46.79,1.29,1.18,1.29.5,0,1-.67,1.84-1.31Zm306.63,34.64c.25-.02.5-.04.75-.06.21-.65.41-1.3.62-1.96-.68-.21-1.36-.43-2.04-.64-.12.18-.25.36-.37.55.35.7.69,1.41,1.04,2.11Zm-6.6-.72c-.88-.5-1.38-.98-1.88-.99-.31,0-.92.77-.87,1.11.07.46.69,1.21,1.01,1.18.49-.05.93-.65,1.75-1.3Zm-11.22-41.68c.33.1.66.2.98.3.4-.64.81-1.29,1.21-1.93-.62-.21-1.25-.42-1.87-.63-.11.75-.22,1.5-.32,2.25Zm-262.33,43.38c-.76-.51-1.25-1.08-1.63-1.02-.45.07-1.07.67-1.13,1.1-.05.39.54.88.85,1.32.53-.39,1.06-.78,1.91-1.4Zm-8.15-43.71c-.91-.55-1.41-1.06-1.91-1.08-.34,0-.96.69-.96,1.09,0,.37.63,1.08.96,1.07.51-.02,1.01-.53,1.92-1.07Zm15.97,12.03c-.01-.22-.02-.44-.03-.66-.7-.6-1.32-1.77-2.37-.5-.24.28,0,.96.03,1.46.79-.1,1.58-.2,2.37-.3Zm280.42,28.68c-.19.34-.38.68-.57,1.02.56.17,1.19.58,1.66.44.57-.17,1-.8,1.48-1.23-.46-.38-.89-.92-1.41-1.06-.3-.08-.77.53-1.16.83Zm-17.46,9.39c.61-.79.98-1.28,1.35-1.77-.47-.33-.95-.92-1.4-.9-.39.02-.95.71-1.03,1.17-.06.33.54.79,1.08,1.5Zm-268.26-.97c-.49.78-.99,1.23-.96,1.64.02.4.71,1.13.89,1.07.53-.17.96-.67,1.43-1.04-.37-.45-.73-.9-1.36-1.68Zm289.66-37.38c-.87-.6-1.3-1.14-1.69-1.1-.5.04-.95.55-1.43.85.38.41.71,1.07,1.15,1.15.45.08,1-.42,1.97-.9Zm.59,16.17c.25.3.51.6.76.9.64-.35,1.29-.7,1.93-1.05-.46-.45-.92-.89-1.38-1.34-.44.5-.87,1-1.31,1.49Zm-319.04-6.29c.69-.83,1.05-1.26,1.4-1.7-.43-.36-.83-.94-1.3-.99-.36-.05-1.1.54-1.13.89-.04.43.49.92,1.03,1.8Zm272.52-3.99c.68-.78,1.28-1.17,1.32-1.6.03-.34-.68-1.09-.98-1.05-.48.07-1.03.57-1.26,1.03-.11.23.42.78.92,1.62Zm-228.14,10.23c.01-.2.02-.41.04-.61-.48-.27-.96-.76-1.44-.76-.41,0-.83.55-1.24.86.37.41.7,1.08,1.13,1.15.45.08,1.01-.41,1.51-.64Zm-11.84-9.6c1.15-.81,1.74-1.23,2.36-1.67-.69-.9-1.32-1.88-2.31-.83-.34.36-.05,1.31-.05,2.49Zm271.22,25.46c-.94-.55-1.45-1.09-1.86-1.02-.48.09-.86.71-1.29,1.1.45.4.86,1.01,1.37,1.11.36.07.86-.54,1.78-1.19Zm-279.22-16.98c-.39-1.82-1.05-2.48-2.25-1.97-.3.13-.3.96-.44,1.46.8.15,1.6.3,2.69.51Zm257.71-23.43c.87-.64,1.29-.96,2.03-1.51-.64-.48-1.15-.97-1.75-1.25-.18-.09-.92.4-.9.57.07.67.35,1.31.62,2.2Zm11.72,51.18c-.62-1.55-1.37-2.21-2.44-1.42-.25.18-.09.93-.12,1.42h2.56Zm-282.61-53.99c.2.06.4.11.6.17.44-.53.97-1.01,1.28-1.61.09-.17-.44-.91-.75-.96-.42-.07-1.25.2-1.31.46-.13.61.09,1.29.18,1.94Zm-1.5,7.53c-.73.82-1.12,1.26-1.5,1.7.44.39.82.94,1.33,1.09.25.07,1-.56,1.03-.92.04-.46-.41-.97-.85-1.86Zm279.06,1.8c-.92-.6-1.4-1.15-1.88-1.15-.4,0-.81.62-1.22.97.39.41.74,1.08,1.18,1.15.44.07.97-.46,1.92-.97Zm18.96,40.85c-.72-.49-1.28-1.11-1.54-1-.55.22-.94.82-1.4,1.26.5.32.99.84,1.52.9.34.04.76-.59,1.42-1.17Zm-12.37-50.45c-.9-.72-1.32-1.3-1.75-1.32-.41-.02-1.2.57-1.19.88.01.47.49,1.18.92,1.3.4.12.98-.38,2.03-.86Zm-6.55,20.14c.65-.8,1.31-1.26,1.33-1.75.01-.38-.72-.93-1.23-1.11-.2-.07-.96.64-.97,1,0,.51.45,1.03.87,1.86Zm-254.32,27.37c-.9-.39-1.41-.82-1.84-.75-.45.07-.82.63-1.22.97.43.38.87,1.05,1.3,1.05.47,0,.93-.64,1.77-1.28Zm261.54-16.58c-.27.24-.54.48-.81.71.34.65.68,1.29,1.02,1.94.5-.44,1-.89,1.51-1.33-.57-.44-1.15-.88-1.72-1.33Zm-276.62,20.45c.9.53,1.43,1.08,1.72.97.51-.19.86-.77,1.28-1.19-.44-.28-.87-.76-1.34-.79-.39-.03-.81.46-1.67,1.02Zm257.15-32.78c-.12.15-.24.29-.36.44.25.57.4,1.25.81,1.67.16.17,1.01-.12,1.35-.43.24-.21.28-1.12.17-1.17-.62-.26-1.31-.36-1.98-.51Zm-261.48-12.73c0-.19,0-.38.01-.58-.49-.23-1-.67-1.47-.64-.41.03-.8.58-1.19.9.39.39.75,1.05,1.16,1.09.47.04.99-.49,1.49-.77Zm274.98-1.27c-.1.16-.2.31-.3.47.31.55.52,1.23.98,1.59.21.17,1.03-.16,1.35-.49.21-.21.14-1.14-.02-1.2-.62-.24-1.33-.27-2.01-.38Zm-295.08,9.52c-.62.76-1.28,1.32-1.19,1.51.24.48.78,1.01,1.27,1.09.32.05,1.07-.63,1.08-.99,0-.42-.59-.86-1.16-1.6Zm21.65,21.88c-.26.27-.53.54-.79.81.39.52.78,1.04,1.17,1.55.5-.39,1-.78,1.49-1.17-.62-.39-1.25-.79-1.87-1.19Zm258.33-26.78c.32.2.65.39.97.59.24-.61.72-1.25.63-1.8-.07-.46-.77-.93-1.29-1.16-.18-.08-.97.53-.96.8.02.53.41,1.05.64,1.57Zm-234.74,3.03c.13-.22.26-.44.39-.66-.66-.4-1.33-.8-1.99-1.2-.23.41-.73.9-.64,1.23.38,1.38,1.37.87,2.24.64Zm-35.57,3.76c.25.25.51.51.76.76.63-.4,1.26-.8,1.89-1.21-.49-.4-.98-.8-1.47-1.21-.39.55-.79,1.1-1.18,1.65Zm23.56-12.39c.53-.74,1.16-1.3,1.05-1.56-.18-.45-.8-.93-1.28-.98-.34-.04-1.13.72-1.07.93.14.5.68.9,1.29,1.61Zm287.05,20.66c1.24-.33,1.92-.46,2.54-.75.1-.05.02-.95-.23-1.16-.35-.29-1.23-.55-1.36-.39-.39.46-.51,1.14-.95,2.3Zm-18.83,13.1c-.82-.63-1.24-1.2-1.65-1.2-.39,0-1.04.57-1.09.96-.05.38.5,1.17.81,1.18.5.02,1.01-.45,1.93-.93Zm-260.59-11.73c-.56.77-1.12,1.21-1.11,1.64,0,.35.77,1.04,1.05.97.51-.12,1.03-.63,1.29-1.11.09-.17-.59-.75-1.22-1.5Zm254.36-3.33c-.26.27-.52.54-.78.8.39.52.79,1.04,1.18,1.56.5-.4,1-.79,1.49-1.19-.63-.39-1.26-.78-1.89-1.18Zm-7.4-16.25c-.89-.52-1.38-1.02-1.9-1.04-.4-.01-.81.58-1.22.91.44.39.84,1,1.34,1.1.39.08.91-.47,1.78-.97Zm-248.64.41c.98-.57,1.61-.93,2.24-1.3-.38-.43-.72-1.17-1.15-1.23-1.41-.2-1.18.88-1.09,2.53Zm280.12-1.48c-.8-.53-1.27-1.1-1.63-1.03-.51.09-.92.65-1.38,1.01.45.35.87.91,1.37,1,.36.07.84-.47,1.64-.98Zm-6.36,29.81c.56.72.89,1.4,1.43,1.71.21.12,1.31-.59,1.29-.88-.08-1.29-1.02-1.33-2.72-.83Zm2.34,8.79c.27.29.55.58.82.87.6-.42,1.21-.84,1.81-1.26-.44-.39-.89-.78-1.33-1.16-.43.52-.86,1.04-1.3,1.56Zm-292.8-21.84c-.63.71-1.23,1.1-1.31,1.58-.05.28.72,1,1.09.98.45-.03,1.06-.56,1.22-1.01.1-.27-.5-.81-1.01-1.55Zm1.7,8.97c-.61.7-1.17,1.08-1.26,1.56-.06.27.71,1.04.98.98.53-.12,1.06-.59,1.38-1.05.09-.13-.54-.76-1.09-1.49Zm247.77-14.02c-.14.15-.29.3-.43.45.22.6.33,1.28.71,1.74.14.17,1-.12,1.4-.39.21-.15.28-.97.16-1.04-.56-.34-1.22-.51-1.84-.75Zm-253.41,8.44c.48-.7,1.1-1.26.99-1.51-.19-.45-.8-.92-1.28-.97-.35-.03-.77.6-1.16.93.4.43.8.86,1.44,1.55Zm19.08,4.94c-.79-.63-1.21-1.18-1.73-1.29-.3-.07-.76.55-1.15.86.36.41.67,1.03,1.11,1.15.39.11.93-.35,1.77-.72Zm264.47,20.99c.02.23.04.46.06.69.65.19,1.3.47,1.97.51.18.01.59-.72.56-1.08-.02-.31-.56-.86-.8-.82-.62.09-1.19.45-1.79.7Zm-268.71-40.39c-.9-.53-1.36-1.01-1.79-.99-.4.02-1.07.58-1.07.91,0,.39.58,1.11.9,1.11.51,0,1.01-.49,1.96-1.03Zm284.94,18.11c.54-.7,1.18-1.22,1.09-1.49-.15-.45-.75-.98-1.2-1.02-.37-.04-1.17.67-1.12.91.1.49.65.89,1.23,1.61Zm-309.66-24.4c-.57.79-1.06,1.2-1.14,1.69-.05.29.65,1.03.81.97.53-.18,1.11-.55,1.39-1.02.11-.18-.51-.81-1.06-1.64Zm308.15,43.33c-.84-.49-1.29-.98-1.7-.94-.44.04-.84.57-1.25.89.43.4.82.99,1.32,1.12.32.08.82-.51,1.63-1.07Zm-284.74-31.17c-.26.25-.52.5-.78.75.38.55.75,1.1,1.13,1.66.46-.42.91-.85,1.37-1.27-.57-.38-1.14-.76-1.71-1.14Z"/>
  <path class="cls-24" d="m158.05,4.03c-1.49.44-1.66,1.84-2.04,2.99-1.54,4.72-3.85,9.14-6.74,13.06-3.38,4.57-7.24,8.83-11.72,12.47-5.84,4.74-11.99,8.98-18.84,12.08-4.86,2.2-9.87,4.09-14.81,6.12-.55.23-1.09.49-1.63.73-1.31-2.98-2.25-6.17-4.77-8.48-.11.83-.11,1.6.08,2.32.46,1.75-.12,2.74-1.87,3.29-1.89.59-3.04,2-3.65,3.88-.25.76-.58,1.49-.87,2.24-2.38.32-4.75.65-7.13.94-3.4.41-6.8.82-10.21,1.18-1.09.11-2.19.04-3.29.05-3.36,0-6.71-.01-10.07-.02-9.42-.36-18.38-2.44-26.63-7.15,2.45.19,4.38-.81,5.54-2.89.97-1.74,1.76-3.62,2.33-5.53.57-1.93.77-3.97,1.13-5.96,1.68-2.88,3.7-5.61,4.97-8.66,2.98-7.15,3.25-14.63,1.84-22.21-.1-.53.09-1.22.39-1.68C50.68,1.81,51.47.93,52.2,0c6.96,0,13.92,0,20.88,0-.14,3.42,1.24,5.14,4,4.99C80.04,4.82,81.46,3.5,82.44,0h47.16c2.23,4.44,4.43,5.02,8.19,2.08.73-.57,1.26-1.38,1.89-2.08,4.56,0,9.12,0,13.68,0,.51,2.51,2.07,3.86,4.69,4.03Zm-76.81,32.03c3.6,0,7.11-2.84,7.92-6.4.63-2.75-.88-5.97-3.42-7.29-2.31-1.21-5.16-.77-7,1.42-1.17,1.39-2.17,3.04-2.81,4.73-1.65,4.32.71,7.55,5.31,7.54Zm37.92-19.79c.04-3.09-1.94-4.69-4.57-4.05-2.72.66-5.42,3.51-5.78,6.24-.27,2.08.53,4.02,2.32,4.86,1.03.49,2.8.06,3.97-.51,2.78-1.35,3.78-3.97,4.07-6.54Zm20.91,4.95c.06-2.05-1.96-4.12-4.08-3.87-2.77.32-4.41,2.21-5.51,4.62-1.02,2.24-.42,4.25,1.12,5.97.44.49,1.41.85,2.05.75,2.8-.43,6.33-4.66,6.41-7.46Zm-75.95-.63c0-2.38-1.71-4.22-3.94-4.24-2.19-.02-4.99,2.83-5.01,5.11-.02,2.32,1.92,4.5,4.01,4.51,2.59.01,4.94-2.55,4.93-5.37Zm32.65,22.4c.05-.2.09-.4.14-.61-.77-.23-1.95-.88-2.22-.61-.77.76-1.16,1.9-1.7,2.88.17.11.33.22.5.33,1.09-.67,2.19-1.33,3.28-2Z"/>
  <path class="cls-45" d="m52.2,0c-.73.93-1.52,1.81-2.15,2.8-.3.46-.49,1.15-.39,1.68,1.41,7.58,1.14,15.06-1.84,22.21-1.27,3.05-3.29,5.78-4.97,8.65.11-5.73.17-11.46.37-17.19.08-2.44-.91-3.77-3.2-4.6-5.42-1.95-6.73-1.42-7.92,4.18-1.12,5.25-2.16,10.54-2.79,15.87-.48,4.1-1.5,8.27-.15,12.43-1.65.4-3.29.9-4.97,1.18-2.41.41-4.83.78-7.26.95C10.97,48.6,5.37,47.15,0,44.64,0,34.8,0,24.96,0,15.12c.84-.46,2.04-.71,2.45-1.42,1.03-1.76,1.98-3.66,2.46-5.62C5.56,5.45,5.74,2.7,6.12,0,21.48,0,36.84,0,52.2,0Z"/>
  <path class="cls-3" d="m263.72,804.28c1.47.4,2.98.68,4.39,1.24,2.29.91,4.5,2.04,6.76,3.02,1.01.44,2.08.72,3.1,1.13.41.17,1.05.43,1.1.73.49,2.67,3.21,3.44,4.51,5.4.17.25.79.15,1.12.35.37.22.98.75.92.88-1.07,2.3,1.06,4.04,1.04,6.17-.01,1.71.38,3.42.55,5.14.09.95-.36,2.04.9,2.66.11.05-.18,1.15-.45,1.68-.25.49-.89.83-1.04,1.32-.8,2.79-1.5,5.6-2.23,8.41h-47.52c-.7-2.86-1.71-5.68-2.03-8.58-.29-2.73-.16-5.59.33-8.3,1.02-5.7,3.28-10.88,7.51-15.02,3.78-3.71,8.42-5.27,13.61-5.52,2.32-.11,4.65-.24,6.97-.36.15-.11.3-.22.46-.33Z"/>
  <path class="cls-21" d="m595.8,422.28c-3.26.08-6.51.2-9.77.22-5.82.04-11.64.04-17.45,0-2.37-.02-4.83.19-7.1-.35-4.97-1.19-7.69-6.07-7.38-10.13.2-2.64,1.11-4.99,3.82-6.47,6.16-3.37,12-7.35,18.28-10.44,4.81-2.37,10.11-3.76,15.19-5.58.49-.18,1-.3,1.83-.55-1.62-5.51-3.2-10.92-4.93-16.81-2.07,1.74-3.71,3.25-5.49,4.57-3.86,2.86-7.68,5.8-11.75,8.34-2.42,1.51-5.21,2.45-8.17,2.67-4.01.29-8,.74-12,1.02-4.72.32-8.73-1.43-12.27-4.42-6.32-5.35-13.2-9.75-20.86-13.03-5.04-2.16-5.14-5.71-1.81-8.85,1.18-1.11,2.84-1.86,4.42-2.36,3.59-1.16,7.36-1.81,10.89-3.13,4.62-1.73,9.05-3.95,13.6-5.86,4.32-1.81,8.74-3.23,13.5-3.36,4.31-.12,8.31.88,11.89,3.16,6.63,4.24,12.52,9.33,16.96,15.93.47.97.93,1.94,1.4,2.91,1.98,6.29,3.96,12.58,6,19.06.23-.07.72-.21,1.2-.35v33.84Zm-10.5-50.87c.1-2.07-.25-3.01-2.18-3.83-3.87-1.64-6.6-4.46-8.99-7.76-.51-.71-1.18-1.42-1.94-1.8-3.73-1.89-7.69-3.02-11.91-3.03-5.56-.01-10.73,1.64-15.79,3.79-1.6.68-3.2,1.35-4.83,1.93-1.08.39-2.2.44-2.71-.9-.5-1.3.3-2.1,1.33-2.57,1.68-.76,3.4-1.48,5.16-2.04,6.68-2.15,13.5-3.16,20.52-2.35,3.88.45,6.84,2.6,9.99,4.81,4.34,3.04,8.58,6.08,12.14,10.09-.32-1-.64-2.07-1.35-2.75-4.29-4.08-8.43-8.36-13.07-12.01-5.6-4.4-12.18-5.54-19.04-3.41-3.87,1.2-7.66,2.72-11.36,4.39-5.35,2.43-10.72,4.69-16.52,5.9-2.3.48-4.54,1.48-6.67,2.53-1.75.86-3.28,2.28-3.18,4.43.1,2.11,1.98,2.9,3.63,3.58,7.38,3.04,14.05,7.23,20.05,12.48,4.02,3.51,8.59,5.37,14,4.9,2.09-.18,4.19-.22,6.28-.42,5.38-.5,10.53-1.79,14.97-5.03,3.34-2.44,6.53-5.07,9.78-7.63.13-.1.16-.34.39-.87-.89.31-1.43.51-1.98.7-7.2,2.42-14.35,4.99-21.63,7.17-2.69.81-5.65.79-8.5.93-1.01.05-2.31-.41-2.13-1.87.17-1.35,1.35-1.23,2.39-1.3,4.47-.33,8.97-.5,13.4-1.13,4.73-.67,9.22-2.3,14-4.55-.71-.04-.93-.1-1.12-.06-5.37,1.06-10.75.75-16.1-.04-8.35-1.24-16.68-2.59-25.01-3.94-1.13-.18-2.7-.3-2.59-1.91.12-1.73,1.81-1.38,2.97-1.62.23-.05.49-.06.72,0,2.52.7,5.24,1.02,7.52,2.19,5.79,2.98,11.81,3.49,18.16,2.93,3.43-.3,6.93-.02,10.39.21,3.58.24,7.13.82,10.8-.11Zm-28.4-17.33c-.71-.14-.86-.19-1.01-.19-5.57-.15-10.74,1.53-15.8,3.6-.75.31-1.28,1.16-1.9,1.76.87,0,1.86.26,2.61-.05,5.06-2.12,10.09-4.28,16.11-5.12Zm-9.64,16.32c-2.39-2.57-9.66-4.04-11.89-2.09,4.13.72,7.92,1.39,11.89,2.09Zm29.72,2.48c.01-.18.02-.37.03-.55h-14.39c4.76,1.03,9.54,1.35,14.36.55Zm-17.42,7.77h-8.72c0,.17,0,.33.01.5,2.91,1.53,5.78.32,8.71-.5Zm17.29-20.36c-.14.16-.28.31-.42.47,1.7,2.37,3.71,4.36,6.81,5-2.13-1.82-4.26-3.65-6.39-5.47Z"/>
  <path class="cls-21" d="m595.8,567c-.36,1.14-.92,2.27-1.05,3.44-.43,3.98-4.79,9.55-9.41,8.76-2.54-.43-4.36-1.78-5.7-3.73-1.84-2.68-2.64-5.81-2.91-9.02-.46-5.36-.83-10.73-1.14-16.09-.28-4.85-.88-9.74-.55-14.55.43-6.28,1.38-12.66,6.1-17.45,3.84-3.89,6.8-4.19,12.43-.14.81.58,1.49,1.33,2.23,2v46.8Z"/>
  <path class="cls-2" d="m595.8,225.72v10.08c-1.96-3.8-3.82-7.66-5.95-11.37-.74-1.29-2.03-2.34-3.27-3.23-.57-.41-1.61-.16-2.44-.22.12.79.18,1.6.39,2.37.1.37.43.72.73,1,4.41,4.14,6.52,9.48,8.03,15.15.85,3.2,1.67,6.41,2.51,9.62v1.44c-.44-.43-.95-.8-1.3-1.29-.59-.82-.93-1.86-1.63-2.56-3.17-3.18-6.31-6.4-9.7-9.34-2.99-2.6-5.52-5.44-7.03-9.14-.47-1.16-1.01-2.31-1.64-3.39-1.11-1.91-2.25-3.82-3.53-5.62-.36-.51-1.26-.64-1.91-.94-.26.72-.89,1.56-.7,2.14.69,2.19,1.33,4.51,2.57,6.39,1.33,2.01,3.3,3.6,5.02,5.35.96.98,2.17,1.78,2.94,2.89,2.8,4.06,6.38,7.24,10.37,10.1,2.35,1.68,4.09,4,5.54,7.07-4.24-2.7-8.63-3.09-12.92-3.82-10.4-1.75-17.57-9.12-18.51-19.07,3.63-4.05,3.43-7.52-.62-11.18-.15-3.95-.37-7.89-.43-11.84-.06-4.5,2.92-6.63,6.96-4.67,2.52,1.22,4.84,3.06,6.91,4.98,3.32,3.09,6.36,6.49,9.52,9.76.66,1.88,1.81,3.18,3.94,3.28,2.05,2.02,4.1,4.04,6.15,6.06Z"/>
  <path class="cls-29" d="m450.36,842.4c-.22-5.54.71-10.83,3.34-15.77,2.79-5.22,7.09-7.89,13.01-8.06,6.44-.18,12.11,1.78,17.06,5.89,4.27,3.55,5.87,8.3,6.17,13.63.08,1.43.01,2.87.01,4.31h-39.6Z"/>
  <path class="cls-38" d="m514.44,842.4c-1.94-4.26-2.36-8.8-2.15-13.38.23-4.95,1.51-9.65,4.18-13.91,3.26-5.21,7.68-8.82,13.88-9.71,2.94-.42,5.96-.3,8.95-.43.06.09.19.2.17.28-.35,1.62-.76,3.24-1.05,4.87-.43,2.44-.53,4.91-1.14,7.35-.66,2.62-1.66,5.27-.77,8.07.09.29-.15.7-.28,1.23-.16-.48-.24-.74-.43-1.32-1.14,5.92-1.78,11.64-4.08,16.95h-17.28Z"/>
  <path class="cls-38" d="m542.14,804.97c3.79.04,6.94,1.85,10.16,3.54,1,.52,2.15.76,3.21,1.17.36.14.86.35.96.65,1.03,2.88,3.3,4.46,5.81,5.86.42.24.93,1.21.89,1.25-1.08.94-.04,1.73.09,2.59.47,3.08.82,6.18,1.28,9.26.07.47.34,1.01.69,1.32.9.79.98,1.9-.14,2.23-1,.3-.85.84-1.02,1.51-.66,2.69-1.4,5.37-2.11,8.05h-11.88c-.38-2.17-.69-4.36-1.16-6.51-.2-.89-1.13-1.74-1.05-2.54.38-3.55-1.59-6.72-1.42-10.28.11-2.15-.76-4.36-1.24-6.54-.09-.42-.39-1.13-.6-1.13-1.05-.03-.93-.4-.5-1.08.14-.21.13-.57.08-.85-.28-1.61-.28-3.37-.99-4.75-.48-.92.15-2.69-1.68-2.81.21-.32.42-.64.63-.96Z"/>
  <path class="cls-21" d="m595.8,463.68c-3.37-2.61-6.68-5.32-10.15-7.8-2.14-1.53-4.43-2.93-6.82-4.01-5.66-2.57-9.44-6.98-12.42-12.19-1.11-1.93-.54-4.38,1.04-5.63.38-.3.89-.5,1.37-.59,5.65-1.07,11.17.06,16.66,1.22,3.48.73,6.88,1.81,10.32,2.73v26.28Z"/>
  <path class="cls-24" d="m588.59,369.73c-.47-.97-.93-1.94-1.4-2.91.08-2.43.59-4.94.16-7.28-.95-5.23-.25-10.3.72-15.38,1.01-5.32,1.29-10.64.13-15.96-.11-.52-.8-1.08-1.35-1.29-1.93-.75-3.87-.43-5.91-.13-3.05.44-6.17.33-9.26.46-2.88,0-5.75,0-8.63.01-12.25-.6-22.17-5.66-29.51-15.53-3.82-5.14-8.07-9.65-14-12.44-2.61-1.22-4.71-3.19-5.34-6.34-.71-3.51,1.49-6.72,5.05-6.3,4.94.59,9.89,1.54,14.7,2.83,7.32,1.97,14.5,4.48,21.8,6.52,3.66,1.02,7.48,1.45,11.2,2.26,11.53,2.52,17.92,10.04,20.56,21.2.26,1.08.76,2.09,1.15,3.14.21,1.05.41,2.09.62,3.14.37,2.71,1.1,5.42,1.03,8.12-.1,3.84-.77,7.67-1.22,11.5-.35,3.03-.73,6.05-1.09,9.08,1.48-4.05,2.54-8.14,3.95-12.1,1.05-2.96,2.55-5.75,3.85-8.62v2.16c-.12.13-.3.24-.35.39-1.92,5.7-3.89,11.39-5.71,17.13-.52,1.65-.61,3.44-.9,5.16.19.1.38.19.58.29,1.18-1.45,2.47-2.82,3.52-4.36,1.07-1.56,1.92-3.28,2.87-4.93v7.2c-1.72.98-3.44,1.96-5.16,2.93.06.13.12.27.17.4,1.66-.39,3.33-.78,4.99-1.17v1.08c-1.85.36-3.69.93-5.55,1.01-1.64.07-2.08.77-2,2.18.12,2.18.23,4.36.35,6.54Zm-20.45-43.62c-.94-.22-1.89-.45-2.83-.67-2.49-.57-5.17-.71-7.42-1.77-5.12-2.42-10.04-5.28-15.01-8-.32-.17-.57-.75-.56-1.13,0-.22.6-.57.95-.59.58-.03,1.23.03,1.74.28,3.09,1.54,6.22,3.01,9.21,4.74,6.13,3.56,12.33,6.68,19.76,5.74.89-.11,1.8-.02,2.7-.02,3.03,0,6.07,0,9.52,0-.66-.84-1.03-1.43-1.5-1.91-4.06-4.12-9.44-6.28-14.48-8.48-9.94-4.35-20.34-7.63-30.54-11.39-2.02-.74-4.02-1.54-5.95-2.49-.45-.22-.55-1.15-.81-1.76.58-.18,1.2-.59,1.73-.5.8.14,1.55.6,2.29.97,2.42,1.19,4.73,2.67,7.25,3.55,4.39,1.53,8.93,2.63,13.36,4.06,2.91.94,5.74,2.12,8.75,3.25-.91-1.11-1.85-2.05-2.5-3.16-.38-.66-.28-1.59-.39-2.4.69.18,1.5.2,2.07.58,6.86,4.61,13.38,9.64,19.2,15.55.56.56,1.21,1.03,1.82,1.54.14-.09.28-.19.42-.28-.76-2.49-1.35-5.06-2.33-7.46-3-7.36-8.22-12.44-16-14.49-4.26-1.12-8.67-1.64-12.91-2.83-8.11-2.28-16.1-4.98-24.22-7.22-3.88-1.07-7.92-1.75-11.93-2.13-3.32-.32-5.04,2.5-3.99,5.67.89,2.67,2.94,4.15,5.26,5.34,4.16,2.13,7.79,4.83,10.67,8.58,2.94,3.82,5.71,7.79,9.62,10.81,7.98,6.16,17.12,8.35,27.06,8Zm6.98-12.93c-3.5-2.55-7.01-5.1-10.51-7.65l-.32.45c2.52,3.94,6.7,5.54,10.83,7.2Zm-15.2,10.73c.08-.16.17-.31.25-.47-4.73-2.67-9.47-5.33-14.2-8l-.26.5c4.74,2.66,9.47,5.31,14.21,7.97Zm10.35-11.76c-.09.14-.17.28-.26.41,1.74.93,3.49,1.86,5.23,2.8-.95-1.02-2.09-1.7-3.25-2.34-.56-.31-1.15-.58-1.72-.87Z"/>
  <path class="cls-42" d="m542.14,804.97c-.21.32-.42.64-.63.96,1.82.12,1.2,1.89,1.68,2.81.72,1.39.72,3.15.99,4.75.05.27.06.63-.08.85-.43.68-.55,1.05.5,1.08.22,0,.51.71.6,1.13.48,2.17,1.34,4.38,1.24,6.54-.18,3.56,1.79,6.73,1.42,10.28-.08.8.85,1.65,1.05,2.54.47,2.15.79,4.34,1.16,6.51h-18.36c2.3-5.31,2.93-11.03,4.08-16.95.19.58.27.84.43,1.32.13-.54.38-.94.28-1.23-.89-2.81.11-5.45.77-8.07.61-2.43.71-4.91,1.14-7.35.29-1.63.71-3.25,1.05-4.87.02-.08-.11-.19-.17-.28.95,0,1.9,0,2.85,0Z"/>
  <path class="cls-38" d="m0,112.68c2.71,0,3.61,1.43,3.93,4.03.54,4.42,1.69,8.75,2.33,13.16.75,5.26-.23,10.37-2.54,15.1-.64,1.32-1.63,3.05-3.72,2.98v-35.28Z"/>
  <path class="cls-38" d="m595.8,749.16c-1.31-.04-2.65.06-3.93-.15-2.81-.47-3.58-2.83-3.57-5.13,0-2.27.41-4.55.79-6.8.61-3.61,1.65-7.17.65-10.88-.07-.25.11-.57.23-1.15h5.82v24.12Z"/>
  <path class="cls-2" d="m588.59,369.73c-.12-2.18-.23-4.36-.35-6.54-.08-1.41.36-2.11,2-2.18,1.86-.08,3.7-.65,5.55-1.01v28.44c-.49.14-.97.29-1.2.35-2.04-6.48-4.02-12.77-6-19.06Z"/>
  <path class="cls-2" d="m595.8,333.72c-1.3,2.87-2.8,5.66-3.85,8.62-1.41,3.97-2.48,8.06-3.95,12.1.37-3.03.74-6.05,1.09-9.08.44-3.83,1.12-7.66,1.22-11.5.07-2.7-.66-5.41-1.03-8.12.36-1.44.7-2.88,1.08-4.31.17-.61.27-1.34.68-1.77,1.53-1.61,3.16-3.12,4.76-4.67v18.72Z"/>
  <path class="cls-17" d="m563.37,229.33c.94,9.95,8.11,17.31,18.51,19.07,4.29.72,8.68,1.11,12.92,3.82-1.46-3.07-3.2-5.39-5.54-7.07-3.98-2.85-7.56-6.04-10.37-10.1-.77-1.11-1.97-1.91-2.94-2.89-1.72-1.75-3.69-3.34-5.02-5.35-1.24-1.88-1.89-4.2-2.57-6.39-.18-.58.45-1.42.7-2.14.65.3,1.55.43,1.91.94,1.28,1.8,2.42,3.71,3.53,5.62.63,1.08,1.17,2.23,1.64,3.39,1.51,3.7,4.04,6.54,7.03,9.14,3.38,2.94,6.52,6.17,9.7,9.34.7.7,1.04,1.74,1.63,2.56.35.49.86.87,1.3,1.29v3.96c-3.55-3.2-7.98-4.07-12.49-4.73-8.96-1.33-16.01-5.41-19.84-13.96-.6-1.35-.69-2.93-1.02-4.4.3-.7.61-1.39.91-2.09Zm6.27-10.1c-1.23,2.91,2.46,9.05,6.61,11.45-2.04-4.11-3.58-8.13-6.61-11.45Z"/>
  <path class="cls-45" d="m589.65,219.66c-2.14-.11-3.28-1.4-3.94-3.28-.11-.58-.22-1.15-.33-1.73-.28-4.32,5.48-8.13,8.12-6.59.84.49,1.54,1.21,2.3,1.82v3.24c-.24.52-.49,1.05-.73,1.57-.91,1.94-2.15,3.54-4.3,4.2-.37.25-.74.51-1.11.76Z"/>
  <path class="cls-45" d="m595.8,161.28c-1.3.95-2.47,2.38-3.91,2.74-3.53.9-6.03-1.94-5.19-5.56.44-1.91,1.37-3.5,3.25-4.32,2.41-1.04,4.35-.35,5.85,1.74v5.4Z"/>
  <path class="cls-45" d="m486.72,0c.66,2.59.42,4.92-1.64,6.92-1.54,1.5-4.82,2.22-6.7,1.25-1.52-.78-2.08-3.62-1.09-5.36.53-.92,1.01-1.87,1.51-2.81,2.64,0,5.28,0,7.92,0Z"/>
  <path class="cls-38" d="m6.12,0c-.38,2.7-.56,5.45-1.21,8.08-.48,1.97-1.43,3.87-2.46,5.62C2.04,14.41.84,14.66,0,15.12,0,10.08,0,5.04,0,0h6.12Z"/>
  <path class="cls-2" d="m595.8,349.56c-.95,1.65-1.79,3.37-2.87,4.93-1.05,1.53-2.34,2.91-3.52,4.36-.19-.1-.38-.19-.58-.29.29-1.72.38-3.51.9-5.16,1.82-5.74,3.79-11.42,5.71-17.13.05-.15.23-.26.35-.39v13.68Z"/>
  <path class="cls-21" d="m0,195.84c5.04-4,10.67-2.48,12.62,3.4.43,1.3.18,2.3-1.08,3.23-.55-.97-1.05-1.85-1.55-2.74-1.11-1.99-2.8-2.82-5.03-2.45-1.86.31-2.31,1.77-2.82,3.35C1.69,202,.73,203.2,0,204.48c0-2.88,0-5.76,0-8.64Z"/>
  <path class="cls-53" d="m595.8,315c-1.6,1.55-3.23,3.06-4.76,4.67-.4.42-.51,1.16-.68,1.77-.39,1.43-.73,2.87-1.08,4.31-.21-1.05-.41-2.09-.62-3.14.37-2.53.74-5.07,1.13-7.6.21-1.42.45-2.84.67-4.26.36-.61.71-1.21,1.07-1.82.55-.97,1.13-1.92,1.63-2.91.91-1.79,1.76-3.6,2.64-5.4v5.04c-3.19,2.45-3.18,6.23-4.27,9.92,1.62-1.31,2.94-2.38,4.27-3.44v2.88Z"/>
  <path class="cls-56" d="m93.94,836.3c4.17-.6,7.21,1.84,8.66,6.1h-11.16c.38-1.54.76-3.08,1.14-4.62.45-.49.91-.98,1.36-1.47Z"/>
  <path class="cls-10" d="m595.8,249.12c-.84-3.21-1.66-6.42-2.51-9.62-1.5-5.67-3.62-11.01-8.03-15.15-.3-.28-.63-.63-.73-1-.21-.77-.27-1.58-.39-2.37.83.05,1.87-.19,2.44.22,1.24.89,2.53,1.94,3.27,3.23,2.12,3.71,3.98,7.57,5.95,11.37v3.96c-.11-.2-.26-.39-.31-.61-1.31-5.69-3.86-10.8-7.48-15.35-.74-.93-1.9-1.52-2.87-2.27-.14.17-.28.34-.42.51.52.71.95,1.53,1.58,2.13,4.11,3.82,6.1,8.79,7.65,14,.62,2.09,1.23,4.18,1.85,6.27v4.68Z"/>
  <path class="cls-21" d="m0,793.08c2.8,1.95,3.39,4.9,3.33,7.97-.08,4.54-1.35,8.83-3.33,12.91v-20.88Z"/>
  <path class="cls-9" d="m595.8,105.84c-1.06-.06-2.18.07-3.18-.2-2.38-.64-3.46-3.94-2.12-6.26,1.17-2.03,2.95-3.01,5.31-2.9v9.36Z"/>
  <path class="cls-2" d="m595.8,300.6c-.88,1.8-1.73,3.62-2.64,5.4-.5.99-1.09,1.94-1.63,2.91-.25-5.55.73-10.91,2.37-16.18.16-.61.32-1.21.47-1.82.47-.97.95-1.94,1.42-2.91v12.6Z"/>
  <path class="cls-9" d="m595.8,75.6c-3.17-.18-4.07-.74-4.62-2.89-.66-2.58.31-4.94,2.71-6.39.59-.36,1.28-.54,1.92-.8v10.08Z"/>
  <path class="cls-9" d="m82.44,0c-.98,3.5-2.4,4.82-5.36,4.99C74.32,5.14,72.94,3.42,73.08,0h9.36Z"/>
  <path class="cls-7" d="m0,841.32c6.61-2.05,13.12-2.11,19.44,1.08H0v-1.08Z"/>
  <path class="cls-34" d="m595.8,244.44c-.62-2.09-1.23-4.18-1.85-6.27-1.55-5.21-3.54-10.17-7.65-14-.64-.59-1.06-1.41-1.58-2.13.14-.17.28-.34.42-.51.97.75,2.13,1.34,2.87,2.27,3.62,4.55,6.17,9.65,7.48,15.35.05.21.2.4.31.61v4.68Z"/>
  <path class="cls-9" d="m158.05,4.03C155.43,3.86,153.87,2.51,153.36,0h10.08c-1.57,1.65-3.08,3.37-5.39,4.03Z"/>
  <path class="cls-9" d="m139.68,0c-.62.7-1.16,1.51-1.89,2.08C134.03,5.02,131.83,4.44,129.6,0,132.96,0,136.32,0,139.68,0Z"/>
  <path class="cls-9" d="m509.76,0c-1.11,1.09-2.11,2.33-3.36,3.23-2.86,2.04-5.46-.04-5.64-3.23C503.76,0,506.76,0,509.76,0Z"/>
  <path class="cls-26" d="m590.77,218.89c2.15-.66,3.39-2.26,4.3-4.2.24-.52.49-1.05.73-1.57v11.16c-1.41-1.37-2.84-2.71-4.22-4.11-.35-.35-.54-.85-.81-1.28Z"/>
  <path class="cls-52" d="m523.8,0c-2.04,3.64-6.3,4.15-8.37.99-.18-.27-.19-.66-.27-.99,2.88,0,5.76,0,8.64,0Z"/>
  <path class="cls-13" d="m595.8,312.12c-1.32,1.07-2.65,2.14-4.27,3.44,1.08-3.69,1.07-7.47,4.27-9.92v6.48Z"/>
  <path class="cls-47" d="m590.77,218.89c.27.43.46.93.81,1.28,1.38,1.39,2.81,2.74,4.22,4.11v1.44c-2.05-2.02-4.1-4.04-6.15-6.06.37-.25.74-.51,1.11-.76Z"/>
  <path class="cls-18" d="m595.8,358.92c-1.66.39-3.33.78-4.99,1.17-.06-.13-.12-.27-.17-.4,1.72-.98,3.44-1.96,5.16-2.93v2.16Z"/>
  <path class="cls-6" d="m595.8,288c-.47.97-.95,1.94-1.42,2.91-.02-.9-.04-1.79-.06-2.68.5-.8.99-1.59,1.49-2.39v2.16Z"/>
  <path class="cls-20" d="m0,289.8c1.31,1.68,1.34,3.36,0,5.04v-5.04Z"/>
  <path class="cls-21" d="m58.68,756.32c-.64.55-1.19,1.27-1.93,1.63-1.72.85-3.46,1.9-5.31,2.23-5.86,1.04-11.76,1.81-17.65,2.65-1.42.2-2.86.29-4.29.43-2.87,0-5.75,0-8.62,0-2.67-.28-5.38-.38-8.01-.88-5.83-1.1-10.83-5.04-11.39-11.37-.32-3.66,1.43-6.69,3.75-9.43,4.23-5,9.99-6.93,16.09-8.17,6.12-1.25,12.27-.98,18.4-.12,4.17.59,8.35,1.29,12.45,2.26,3.84.91,7.2,2.91,9.6,6.14,1.84,2.47,2.2,5.26.91,8.15-.59,1.03-1.15,2.09-1.78,3.1-.71,1.15-1.48,2.25-2.22,3.38Z"/>
  <path class="cls-21" d="m558.59,582.44c-1.51-.65-3.19-1.06-4.51-1.99-7.71-5.45-14.93-11.49-20.98-18.79-3.69-4.45-7.1-9.1-8.97-14.69-1.04-3.1-1.08-6.24-1.01-9.45.04-1.93.5-3.61,1.42-5.31,1.58-2.93,4.09-4.27,7.2-4.79,5.55-.92,10.04,1.25,14.25,4.66,6.91,5.59,10.51,13.24,13.81,21.14,1.72,4.1,3.81,8.07,5.19,12.28,1.17,3.56,2.74,7.23,1.43,11.17-1.01,3.05-4.39,5.37-7.65,5.33-.06.15-.13.29-.19.44Z"/>
  <path class="cls-21" d="m55.8,774.39c1.8-.91,3.62-1.78,5.39-2.74,3.05-1.66,6.03-3.47,9.12-5.07,4.72-2.44,13.51.31,13.82,7.99.11,2.62-.9,4.99-2.16,7.22-.86,1.53-1.91,2.95-2.87,4.42-2.26,2.99-4.52,5.98-6.77,8.97-3.16,3.59-6.2,7.29-9.51,10.75-2.2,2.31-5.12,3.65-8.1,4.77-.61.23-1.2.5-1.8.75-3.25.98-6.5,1.24-9.74,0-4.32-2.18-6-5.85-6.45-10.52-.57-5.95,1.63-10.8,5.34-15.11,1.77-2.05,3.88-3.8,5.83-5.69,1.75-1.2,3.52-2.36,5.25-3.6.92-.66,1.76-1.43,2.64-2.15Z"/>
  <path class="cls-29" d="m338.87,817.2c-.27-5.94.91-11.5,4.32-16.5,2.39-3.51,5.75-5.28,9.83-5.79,7.34-.92,13.8,1.3,19.43,5.94,3.1,2.55,4.87,5.99,5.52,9.96.77,4.68.57,9.26-1.41,13.67-2.16,4.82-5.49,8.32-10.78,9.49-2.6.58-5.28.92-7.94,1.13-3.96.3-7.33-1.5-10.71-3.27-4.6-2.41-7.28-6.2-8.24-11.23-.21-1.09-.03-2.26-.03-3.39Z"/>
  <path class="cls-21" d="m56.1,726.22c-3.25-1.01-6.66-1.69-9.73-3.11-4.79-2.23-9.49-4.73-13.93-7.58-3.36-2.15-6.46-4.82-9.3-7.64-3.27-3.24-4.23-7.39-3.68-12.02.57-4.86,2.76-8.69,7.2-10.47,5.58-2.23,11.6-3.86,17.02.26,2.7,2.05,4.94,4.86,6.92,7.65,3.69,5.18,7.17,10.53,10.49,15.96,2.05,3.35,3.41,7.04,2.27,11.11-1.02,3.63-2.99,5.58-7.12,5.39l-.14.46Z"/>
  <path class="cls-21" d="m579.86,500.87c-5.86-.44-10.91-1.92-14.8-5.92-2.47-2.54-4.23-5.61-5.15-9.11-.58-2.18-1.3-4.33-1.79-6.53-.31-1.36-.23-2.81-.47-4.2-.77-4.37-1.4-8.79-2.47-13.09-1.72-6.88,2.44-10.34,9.05-8.88,2.59.58,4.6,1.99,6.22,3.95,3.87,4.68,7.79,9.33,11.43,14.19,4.49,5.99,7.39,12.73,8.12,20.25.46,4.7-2.19,7.22-6.75,8.78-1.18.41-2.5.42-3.38.55Z"/>
  <path class="cls-21" d="m514.78,496.82c.14-6.01,1.65-10.41,4.58-14.34,4.84-6.49,9.68-12.99,14.48-19.51,2.98-4.05,9.1-3.91,12.11,1.07,1.77,2.93,2.42,6.58,3.3,9.98.57,2.24-.2,4.4-1.15,6.52-1.97,4.36-4.47,8.38-7.33,12.2-3.05,4.08-5.92,8.29-8.92,12.41-1.25,1.71-2.9,2.91-5,3.46-3.88,1.03-9.88-2.45-10.87-6.4-.53-2.12-.94-4.27-1.18-5.38Z"/>
  <path class="cls-21" d="m93.94,836.3c-.45.49-.91.98-1.36,1.47-3,1.83-6,2.06-8.88-.2-1.97-1.54-3.09-3.67-3.76-6.05-1.28-4.51-.94-9.07.16-13.48.95-3.8,2.27-7.59,4-11.09,1.77-3.58,4.24-6.8,6.39-10.19,1.3-2.03,2.71-4.01,3.84-6.13,1.18-2.23,4.28-2.97,6.01-2.5,4.6,1.25,8.06,5.07,6.94,10.56-.75,3.71-1.39,7.44-2.04,11.17-1.08,6.18-2.37,12.31-5.57,17.8-1.74,2.98-3.81,5.77-5.74,8.64Z"/>
  <path class="cls-38" d="m529.62,686.15c-.5,6.09-.91,12.18-1.54,18.25-.35,3.39-1.61,6.54-4.45,8.64-2.04,1.51-6.83.99-8.76-2.01-1.69-2.62-1.16-5.3-.57-7.93,1.43-6.32,1.31-12.69,1.14-19.1-.13-4.76-.07-9.53.13-14.29.16-3.87.58-7.74,1.03-11.6.14-1.18.68-2.36,1.21-3.45.73-1.5,1.54-3.01,3.65-2.76.27.03.57-.14.86-.22,4.42-1.33,5.77.9,6.44,4.59.66,3.66.53,7.46.75,11.2.04.72.08,1.43.11,2.15v16.54Z"/>
  <path class="cls-38" d="m593.92,695.9c-.51,4.2-.9,8.42-1.58,12.6-.61,3.71-4.76,7.11-8.36,7.18-2.65.05-5.18-2.47-5.03-5.3.22-4.07.7-8.13,1-12.19.11-1.47,0-2.95,0-4.43,0-3.37-.05-6.75.03-10.12.03-1.21.13-2.5.59-3.59,1.48-3.47,5.88-5.5,9.8-2.95.31.2.56.63.65,1,1.51,5.83,2.73,11.7,2.9,17.81Z"/>
  <path class="cls-38" d="m551.19,723.96c0-2.1,0-4.2,0-6.29.02-2.95.93-4.25,3.69-5.13,1.59-.51,3.22-.91,4.82-1.38,1.15-.33,2.03-.16,2.24,1.21.47,3.05,1.17,6.09,1.33,9.16.3,5.65.35,11.33.35,16.99,0,2.55-.11,5.15-.61,7.64-.86,4.24-5.6,6.66-9.85,4.65-1.06-.5-2.03-2.13-2.19-3.36-.34-2.66-.19-5.39-.14-8.1.07-3.29.28-6.57.38-9.86.06-1.84,0-3.69,0-5.54,0,0-.02,0-.03,0Z"/>
  <path class="cls-42" d="m29.15,46.04c-1.35-4.15-.33-8.33.15-12.43.63-5.33,1.68-10.62,2.79-15.87,1.19-5.6,2.49-6.13,7.92-4.18,2.29.82,3.28,2.16,3.2,4.6-.2,5.73-.25,11.46-.37,17.19-.36,1.99-.56,4.03-1.13,5.96-.57,1.91-1.36,3.79-2.33,5.53-1.16,2.08-3.09,3.08-5.54,2.89-2.39-.19-3.62-1.84-4.69-3.69Z"/>
  <path class="cls-38" d="m64,172.7c-2.98.49-5.78-2.13-5.59-5.27.17-2.8.25-5.6.53-8.39.32-3.17.51-6.41,1.34-9.46.69-2.56,2.29-4.85,3.35-7.32.57-1.32.94-2.76,1.24-4.17.45-2.11,1.72-2.73,3.45-1.54,2.92,2,4.4,4.77,4.4,8.32,0,4.81.05,9.62-.01,14.42-.06,4.15-1.27,8.08-3.47,11.52-.71,1.12-2.81,1.36-4.3,1.95-.3.12-.7-.03-.94-.05Z"/>
  <path class="cls-38" d="m93.06,130.32c.31-3.39.68-6.77.91-10.17.2-2.83.27-5.68.34-8.52.07-3.03.95-5.81,2.54-8.34.85-1.35,1.99-2.36,3.85-1.92,2.09.49,3.84,1.55,3.99,3.76.36,5.31.62,10.65.59,15.97-.02,3.76-.34,7.56-.97,11.27-.49,2.89-1.76,5.6-4.92,6.72-2.59.92-5.92-1.23-6.07-3.98-.09-1.59-.02-3.19-.02-4.79-.08,0-.17-.01-.25-.02Zm7.05-21.18c1.4-1.05,1.44-1.45.32-2.81-1.19.83-1.08,1.75-.32,2.81Z"/>
  <path class="cls-38" d="m17.96,66.24c.4-1.21.7-2.48,1.24-3.63.96-2.09,1.68-2.37,4.23-1.91.02,2.89.95,5.47,2.68,7.87,2.47,3.41,3.23,7.34,2.7,11.51-.46,3.64-.71,7.33-1.54,10.88-.5,2.15-1.63,4.32-3.02,6.05-1.37,1.72-5.07,1.7-6.81.5-2.33-1.61-3.29-4.22-2.7-6.68,1.32-5.52,2.67-11.08,2.19-16.8-.21-2.47.01-4.76.73-7.07.52.79.44,2.25,2.08,1.84.68-1.72-1.07-1.78-1.77-2.55Z"/>
  <path class="cls-38" d="m396.36,835.56c-2.01-2.7-2.74-5.71-1.77-8.96.71-2.38,1.33-4.91,2.62-6.97,1.91-3.05,6.45-3.91,10.88-2.62,5.76,1.68,8.89,5.13,9.23,11.04.12,2.1-.98,4.28-1.52,6.42-.45-.42-.9-.83-1.32-1.22-.91-.08-1.9-.17-2.89-.26-1.21.27-2.66.76-3.62.28-2.69-1.35-4.3-.95-5.29,1.82-.12.34-.26.68-.52,1.35-.45-1.06-.76-1.77-.92-2.15-.77,0-1.24-.03-1.7,0-.4.03-.83.05-1.18.21-.69.3-1.33.69-2,1.05Z"/>
  <path class="cls-38" d="m576.04,781.5c.23.32.8.82,1,1.44.45,1.38.16,3.19,2.32,3.42.17.02.42.31.45.51.32,2.06.87,4.14.82,6.2-.09,3.78-.38,7.57-.89,11.31-.27,2-1.21,3.9-1.79,5.86-.09.3.19.7.18,1.05-.02.52,0,1.37-.26,1.49-.44.21-1.11-.02-1.67-.11-.5-.08-1.03-.4-1.49-.32-3.32.64-6.2-.44-7.84-3.08-.19-.31-.31-.89-.15-1.17,1.2-2.19.7-4.53.74-6.82.02-.82.19-1.64.26-2.46.25-3.14.48-6.28.72-9.43.07-.86.02-1.75.26-2.56.08-.29.85-.55,1.29-.53,1.46.06,2.17-.29,2.55-1.97.26-1.18,1.06-2.79,3.5-2.84Zm-.93,10.7c-.66-.43-1.08-.71-2.01-1.32.23,1.23.38,2.04.54,2.85.19,0,.38,0,.57.01.28-.48.56-.95.9-1.54Z"/>
  <path class="cls-38" d="m32.76,124.4c.98,3.47,3.11,5.12,5.8,6.24.3.12.57.74.55,1.11-.16,3.6-.44,7.19-.55,10.79-.08,2.62.12,5.25.07,7.88-.05,2.9-.64,5.6-3.18,7.5-2.19,1.64-6.02.72-7.46-1.23-1.31-1.76-1.8-3.69-1.74-5.76.13-4.39.77-8.69,2.21-12.9,1.18-3.46,1.97-7.06,2.98-10.58.25-.87.72-1.68,1.33-3.05Z"/>
  <path class="cls-38" d="m73.37,79.64c-2.37,1.19-4.66-2.52-7.26.3,1.05.53,1.97,1.08,2.95,1.48,5.53,2.22,5.56,2.21,6.54,8.17.74,4.49.56,8.99-.07,13.48-.06.4-.19,1.01-.46,1.12-2.01.84-4.04,2.12-6.11,2.21-1.98.08-3.85-1.28-4.89-3.33-1.05-2.08-1.17-4.18-.81-6.45.33-2.12.33-4.3.45-6.46.17-3.09.07-6.21.58-9.24.27-1.6,1.43-3.16,2.52-4.46.59-.71,1.57-1.62,2.93-.89,1.73.93,3.62,1.65,3.61,4.07Z"/>
  <path class="cls-42" d="m91.18,54.74c.29-.75.63-1.48.87-2.24.61-1.88,1.76-3.29,3.65-3.88,1.75-.54,2.33-1.54,1.87-3.29-.19-.72-.19-1.49-.08-2.32,2.52,2.3,3.46,5.5,4.77,8.48,1.41,5.05,1.05,10.15.4,15.24-.26,1.98-1.14,3.64-3.29,4.24-2.21.55-4.34.69-6.14-1.08-1.83-2.36-1.68-5.21-1.88-7.95-.18-2.39-.12-4.8-.17-7.2Z"/>
  <path class="cls-38" d="m96.7,176.02c-.18-1.34-.5-2.68-.53-4.03-.08-3.46.93-6.82,3.66-8.78,1.48-1.07,4.14-.54,6.28-.58.29,0,.78.86.87,1.38.58,3.13,1.02,6.29,1.62,9.41.73,3.76-.6,9.34-4.13,10.84-1.93.82-5.98.32-6.86-2.25-.65-1.9-1-3.91-1.48-5.87.19-.04.37-.08.56-.12Z"/>
  <path class="cls-44" d="m594.31,288.23c.02.89.04,1.79.06,2.68-.16.61-.32,1.21-.47,1.82-.31-.12-.63-.24-.94-.36-2.1.28-4.24.37-6.28.89-2.57.65-4.98,1.84-7.76,1.55-4.01-.41-7.24-2.32-9.61-5.38-3.22-4.15-6.09-8.57-9.16-12.84-1.59-2.2-3.56-4.17-4.88-6.51-2.59-4.58-2.79-9.41-.19-14.11,1.86-3.35,4.34-4.23,7.98-3,4.05,1.37,7.03,4.26,9.75,7.36,3.14,3.57,6.43,7.03,10.65,9.22,6.36,3.29,9.13,8.71,10.18,15.39.17,1.1.44,2.19.67,3.28Zm-3.23,2.63c-1.5-1.92-2.72-4.1-4.5-5.62-3.72-3.19-7.77-5.99-11.63-9.02-3.53-2.77-7.03-5.58-10.44-8.49-1.41-1.21-1.38-2.49-.33-3.61.98-1.05,2.43-1.16,3.65.15,1.32,1.42,2.55,3.04,3.41,4.77,1.97,3.96,4.99,6.81,8.59,9.22,2.03,1.36,4.11,2.71,5.92,4.32,2.52,2.24,4.81,4.73,7.2,7.11.22-1.26.1-2.27-.04-3.27-.96-7.03-3.59-12.8-10.32-16.43-3.34-1.8-6.03-4.84-8.92-7.42-1.61-1.43-2.91-3.22-4.57-4.58-1.79-1.47-3.71-2.88-5.79-3.87-3.26-1.55-5.84-.49-7.4,2.79-2.07,4.37-1.91,8.74.59,12.88,1.26,2.09,2.9,3.96,4.32,5.95,2.92,4.09,5.65,8.34,8.76,12.28,4.18,5.27,9.55,6.86,15.12,4.95,2.07-.71,4.16-1.38,6.36-2.11Zm-18.98-17.64c.06-.08.13-.16.19-.24-.97-1.77-1.86-3.6-2.95-5.29-.7-1.09-1.63-2.07-2.61-2.91-.34-.3-1.45-.3-1.67-.01-.34.44-.35,1.26-.25,1.88.07.41.52.79.88,1.1,2.12,1.84,4.27,3.66,6.4,5.48Z"/>
  <path class="cls-3" d="m41.9,187.88c.07,1.67.26,3.35.18,5.02-.15,3.1-1.7,5.04-4.89,5.74-.63.14-1.41-.04-2.02-.3-2.91-1.24-4.63-3.1-4.62-6.67,0-3.22.03-6.24,2.02-8.92.28-.38.59-.75.92-1.1,1.22-1.28,2.46-2.55,3.83-3.97,1.06,2.18,2.24,4.6,3.42,7.01.39,1.06.78,2.13,1.18,3.19Z"/>
  <path class="cls-45" d="m563.37,229.33c-.3.7-.61,1.4-.91,2.09-.29-1.07-.82-.63-1.46-.31-2.94,1.5-6.66.8-8.28-1.53-1.19-1.72-1.02-3.65-.38-5.42,1.06-2.92,2.47-5.7,5.86-6.53,1.01-.25,2.13-.08,3.2-.1.45.21.89.41,1.34.62,4.06,3.66,4.25,7.13.62,11.18Z"/>
  <path class="cls-45" d="m230.56,59.84c-1.91.05-3.35-.57-4.3-2.3-1.08-1.96-.58-3.83.35-5.59,1.29-2.42,3.45-3.65,6.14-4,1.79-.24,3.89,1.13,4.44,2.92.77,2.47-.75,7.73-4.02,8.52-.86.21-1.75.3-2.62.45Z"/>
  <path class="cls-45" d="m517.29,195.79c.29-3,3.11-7.09,5.69-7.93,1.5-.48,3.68.57,5.04,2.35,2.9,3.8.29,8.76-3.97,9.24-1.79.21-3.68,1.04-5.07-.84-.65-.88-1.13-1.88-1.69-2.83Z"/>
  <path class="cls-45" d="m163.41,48.15c-1.09-.05-3.01-.21-3.9-2.16-.84-1.84-.6-3.78.69-5.35,1.12-1.36,2.31-2.78,3.76-3.71,1.35-.87,3.13-.99,4.53.22,1.63,1.41,2.41,3.32,2.07,5.44-.54,3.29-2.06,5.52-7.15,5.57Z"/>
  <path class="cls-38" d="m484.32,797.63c.25-4.5,1.95-6.15,5.02-6.02,3.61.16,6.19,2.4,6.23,5.75.04,3.32-2.8,6.09-6.24,5.75-2.46-.24-5.21-1.86-5.01-5.48Z"/>
  <path class="cls-45" d="m226.08,20.79c-.1,4.37-4.08,7.71-8.48,6.82-2.24-.45-3.64-2.98-2.89-5.22.98-2.94,2.95-4.93,5.91-5.9,2.89-.95,5.46,1.08,5.45,4.3Z"/>
  <path class="cls-45" d="m562.71,28.94c-.27-4.07,1.49-5.64,4.21-6.25,2.87-.65,5.35,1.18,5.73,4.14.41,3.23-1.21,5.95-4.03,7.64-2.25,1.35-6.25-1.22-6.05-3.89.05-.65.11-1.3.14-1.64Z"/>
  <path class="cls-56" d="m103.02,776.16c-2.97-.03-5.85-2.57-5.8-5.12.05-2.88,2.43-5.49,5.04-5.52,3.28-.03,6.85,3.14,6.76,5.99-.09,2.66-2.69,4.68-5.99,4.64Z"/>
  <path class="cls-21" d="m23.88,311.61c-.95-3.09-1.52-5.64-2.52-8-1.28-3.02-3.98-4.48-7.04-3.65-1.3.35-2.36,1.79-3.37,2.88-.48.53-.73,1.39-.83,2.14-.22,1.63-1.13,1.56-2.28,1.15-1.06-4.16,1.05-7.71,4.07-9.22,3.16-1.57,6.36-1.33,9.53,1.54,3.33,3.02,4.32,6.91,3.91,11.22-.06.59-.83,1.12-1.47,1.93Z"/>
  <path class="cls-45" d="m495.68,89.54c-2.36-.01-4.83-2.45-4.61-4.84.35-3.83,2.73-6.37,6-6.52,2.44-.11,4.69,2.61,4.65,5.39-.06,3.61-2.47,5.99-6.05,5.97Z"/>
  <path class="cls-45" d="m569.96,57.21c-2.62.39-4.53-1.98-5.07-4.32-.55-2.42.97-5.16,3.21-6.09.71-.29,1.4-.62,2.12-.88,2.49-.89,2.59-.85,3.54,1.53.4.99.8,1.98,1.13,3,1.16,3.55-1.22,6.8-4.93,6.75Z"/>
  <path class="cls-45" d="m128.61,51.89c-2.94-.17-5.1-3.06-4.01-5.76,1.02-2.52,2.3-4.95,5.38-5.6,1.66-.35,3.19-.05,4.27,1.17,1.11,1.26,1.58,2.91.71,4.5-1.15,2.09-2.11,4.41-4.68,5.27-.54.18-1.11.28-1.67.42Z"/>
  <path class="cls-45" d="m499.69,173.84c-.17-2.62,1.17-4.44,3.63-5.57,1.85-.85,3.79-.64,5.03.56,1.49,1.44,2.09,4.23,1.48,5.94-1.02,2.86-4.72,4.53-7.41,4.09-1.92-.31-2.82-1.89-2.72-5.02Z"/>
  <path class="cls-11" d="m396.36,835.56c.66-.35,1.31-.75,2-1.05.36-.16.78-.18,1.18-.21.46-.03.93,0,1.7,0,.16.38.47,1.09.92,2.15.26-.67.4-1.01.52-1.35,1-2.77,2.6-3.17,5.29-1.82.96.48,2.4-.01,3.62-.28.99.09,1.99.18,2.89.26.42.39.87.81,1.32,1.22,0,.32.13.83-.01.93-1.39.94-2.09,2.75-3.94,3.1-.47,0-1.02-.14-1.4.05-2.7,1.42-5.48,1.37-8.33.66-2.35-.54-4.36-1.63-5.77-3.65Z"/>
  <path class="cls-45" d="m189.72,32.06c1.92-.01,3.21,1,4.03,3.13,1.03,2.68-.76,5.91-4.15,7.49-1.66.77-5.05-.49-6.04-2.24-1.68-2.98,1.36-7.99,5.09-8.37.35-.04.72,0,1.07,0Z"/>
  <path class="cls-45" d="m149.52,24.08c.16-2.91,2.4-6.02,5.08-6.96.97-.34,2.54-.25,3.27.34,1.21.98,2.39,2.36,1.95,4.23-.72,3.07-2.28,5.45-5.31,6.78-1.54.67-2.65.03-3.43-.95-.76-.95-1.05-2.28-1.55-3.44Z"/>
  <path class="cls-56" d="m58.68,756.32c.74-1.12,1.51-2.23,2.22-3.38.63-1.01,1.19-2.06,1.78-3.1,2.28.18,4.27.85,5.77,2.75,1.26,1.6,1.84,3.25.84,5.12-.99,1.86-2.38,3.22-4.7,3.27-3.38.07-4.8-1.03-5.91-4.67Z"/>
  <path class="cls-56" d="m63.72,820.51c-.03-3.15,2.09-5.78,4.72-5.83,2.52-.05,5.86,3.85,5.9,6.89.03,2.12-2.08,3.89-4.71,3.84-3.13-.07-6.21-1.8-5.91-4.89Z"/>
  <path class="cls-45" d="m208.28,43.99c.3.84.6,1.71.91,2.59,3.02-1.05,3.98-.17,3.38,3.05-.77,4.1-3.91,6.14-7.78,5.1-2.71-.73-3.17-2.92-2.57-5.49.73-3.15,3.07-4.45,6.06-5.25Z"/>
  <path class="cls-45" d="m567,172.37c-.02,4.05-5.85,7.52-8.9,5.6-.81-.51-1.43-1.6-1.77-2.55-.76-2.14,1.52-6.39,3.71-7.22,2.4-.91,5.24.31,6.56,2.88.26.51.34,1.11.39,1.29Z"/>
  <path class="cls-56" d="m175.65,830.14c-2.52-.01-5.09-2.37-5.1-4.68-.01-3.3,2.09-6.13,4.5-6.04,2.49.1,6.32,3.59,6.19,5.93-.14,2.61-2.67,5.3-5.59,4.78Z"/>
  <path class="cls-56" d="m119.48,824.32c0,2.68-2.66,5.19-5.42,5.12-2.59-.06-5.03-2.57-4.95-5.33.1-3.4,2.14-5.43,5.14-5.46,2.61-.02,5.23,2.86,5.23,5.67Z"/>
  <path class="cls-56" d="m118.45,796.68c2.58-.11,3.71,1.89,4.95,3.58.76,1.04,1.52,2.31,1.61,3.52.05.72-1.05,1.76-1.87,2.28-2.1,1.33-6.07.77-7.92-.93-1.45-1.33-1.76-3.26-.89-5.48.89-2.26,1.9-2.98,4.12-2.97Z"/>
  <path class="cls-45" d="m542.31,150.45c1.49-.04,2.62,1.17,3.36,2.6.68,1.31,1.06,2.7.1,4.27-1.55,2.52-3.65,3.88-6.58,4.01-1.59.07-2.5-1.05-2.89-2.23-1.39-4.19,1.76-8.34,6.01-8.65Z"/>
  <path class="cls-56" d="m148.85,802.44c-2.54-.06-5.48-3.01-5.28-5.61.19-2.45,1.76-4.86,4.95-4.82,2.88.04,6.05,3.22,5.91,5.91-.11,2.29-3.56,4.85-5.58,4.52Z"/>
  <path class="cls-56" d="m197.49,834.36c-.01-2.62,1.97-4.08,4.64-3.57,2.58.5,4.27,2.01,5.32,4.32.84,1.85.4,3.53-1.19,4.93-1.65,1.45-3.71,1.71-5.35.73-2.43-1.45-3.4-3.66-3.42-6.4Z"/>
  <path class="cls-45" d="m187.6,14.32c-.44-2.01.9-3.39,2.14-4.73,1.32-1.42,3.2-1.76,4.71-.88,1.63.95,3.4,1.9,3.18,4.29-.18,2.03-3.74,6.32-5.66,6.74-1.59.35-4.44-2.34-4.49-4.26-.01-.35.07-.71.11-1.17Z"/>
  <path class="cls-56" d="m161.48,803.22c2.63,0,6.2,3.79,6.18,6.56,0,2.02-2.57,4.17-5.07,4.15-2.1-.02-5.44-2.3-5.32-5.79.13-3.7,2.07-4.72,4.21-4.92Z"/>
  <path class="cls-45" d="m513.74,68.3c-2.92,0-4.07-1.3-4.04-4.54.02-2.85,3.25-5.8,6.33-5.8,2.22,0,3.74,1.84,3.74,4.54,0,3.77-2.13,5.82-6.03,5.81Z"/>
  <path class="cls-9" d="m535.4,184.21c-.03-2.93,1.16-5.18,3.51-6.63,1.64-1,3.71-.47,5.09.89,1.32,1.3,1.65,3.44.79,5.46-1.62,3.8-4.42,4.49-7.89,3.43-1.28-.39-1.73-1.82-1.5-3.15Z"/>
  <path class="cls-9" d="m492.85,114.82c-.77-.11-1.83-.24-2.87-.44-.24-.05-.54-.29-.64-.52-1.42-3.36.67-7.85,4.19-9.04,1.57-.53,3.07-.5,4.29.8,1.37,1.46,1.74,3.33,1.11,5.06-.87,2.42-2.63,4.33-6.09,4.13Z"/>
  <path class="cls-45" d="m503.58,139.44c.11-.26.28-1.12.78-1.69,1.27-1.46,1.89-3.62,4.26-3.93,3.54-.47,5.3,1.73,5.12,5-.21,3.96-3.19,5.15-5.91,5.51-2.08.28-4.22-2.01-4.26-4.89Z"/>
  <path class="cls-21" d="m63.27,261.87s.04.51-.15.82c-.35.57-.85,1.04-1.29,1.55-.32-.44-.77-.84-.93-1.34-1.19-3.58-3.37-4.97-6.63-4.07-1.64.45-2.09,1.89-2.42,3.29-.27,1.12-.11,2.36-.47,3.44-.24.71-1.07,1.23-1.63,1.83-.49-.56-1.32-1.06-1.42-1.68-.62-3.95.54-7.43,3.8-9.75,2.45-1.74,5.29-1.33,7.93,0,2.13,1.07,3.23,2.99,3.2,5.89Z"/>
  <path class="cls-56" d="m86.96,750.22c-2.57-.04-4.94-2.43-4.88-4.91.06-2.37,2.66-5.49,4.59-5.49,2.6,0,6.34,3.45,6.11,5.89-.22,2.3-2.91,4.74-5.81,4.51Z"/>
  <path class="cls-29" d="m11.35,789.84c2.89.02,6.21,2.86,6.15,5.27-.06,2.36-2.82,4.84-5.36,4.81-3.02-.04-5.42-2.36-5.27-5.29.15-3.03,1.42-4.82,4.48-4.79Z"/>
  <path class="cls-9" d="m519.01,124.88c-2.64.39-3.81-2.08-3.85-4.43-.05-3.55,3.18-5.91,5.59-5.95,2.26-.04,4.5,2.49,4.47,4.94-.04,2.96-2.9,5.46-6.2,5.44Z"/>
  <path class="cls-56" d="m135.02,831.77c.03-2.81,1.69-4.51,4.36-4.48,3.08.03,5.38,2.57,5.34,5.91-.03,2.62-1.94,4.53-4.51,4.5-3.19-.03-5.23-2.36-5.19-5.93Z"/>
  <path class="cls-21" d="m39.18,322.97c2.76.15,5.01.69,6.45,2.63,1.4,1.88,2.6,3.94,3.63,6.04.27.55-.22,2.03-.74,2.27-1.08.5-1.36-.71-1.66-1.49-1.07-2.86-2.63-5.2-5.8-6.1-3.62-1.03-7.26.73-8.56,4.23-.14.39-.19.89-.46,1.14-.38.35-.93.52-1.4.76-.23-.44-.62-.87-.65-1.33-.23-3.91,1.73-6.56,5.57-7.52,1.32-.33,2.69-.47,3.63-.63Z"/>
  <path class="cls-9" d="m553.95,123.48c2.19-.02,4.32,2.07,4.33,4.32,0,3.29-2.3,5.68-5.38,6.03-2.01.23-4.76-2.56-4.75-4.55.03-3.03,2.77-5.77,5.8-5.8Z"/>
  <path class="cls-45" d="m485.32,66.4c-.28-3.82,2.42-6.94,5.82-7.01,1.82-.04,2.89.65,3.28,2.51.51,2.48.37,5.01-1.48,6.64-1.42,1.25-3.55,1.69-5.71,1-1.81-.58-1.96-1.83-1.9-3.14Z"/>
  <path class="cls-9" d="m582.38,126.96c-1.75.41-3.02-.51-3.68-1.87-.81-1.69-1.1-3.65.2-5.31,1.14-1.45,2.51-2.61,4.53-2.81,2-.19,3.32.51,4.12,2.34.78,1.77.47,4.4-.8,5.59-1.23,1.14-2.37,2.54-4.37,2.05Z"/>
  <path class="cls-45" d="m567.05,154.44c-2.48-.03-3.88-1.37-3.61-3.9.42-3.93,2.08-6.1,5.91-6.16,2.29-.03,3.91,1.93,3.74,4.68-.21,3.43-1.99,5.37-6.05,5.38Z"/>
  <path class="cls-21" d="m11.04,227.01c-3.16-3.66-1.34-8.05,1.56-8.74,1.88-.45,3.92-.56,5.86-.38,1.8.16,3.61.74,5.29,1.43,2.57,1.06,4.23,3.3,3.36,6.57-.16.6-.83,1.05-1.27,1.57-.44-.48-1.14-.89-1.28-1.44-.83-3.17-3.48-5.19-6.78-5.01-.66.04-1.32.12-1.97.07-1.91-.13-3.16.63-3.68,2.53-.31,1.13-.71,2.23-1.08,3.37Z"/>
  <path class="cls-45" d="m541.02,36.72c2.54-.65,4.35,2.77,3.31,5.53-.82,2.18-2.6,3.47-4.57,4.43-1.98.96-5.1-1.42-5.13-3.78-.04-3.83,2.4-6.19,6.39-6.19Z"/>
  <path class="cls-9" d="m549.36,196.84c-.16-2.39,2.83-6.32,5.52-6.1,2.78.22,4,1.23,4.13,4.23.13,3.12-2.42,5.8-5.61,5.9-2.21.07-4-1.71-4.04-4.03Z"/>
  <path class="cls-9" d="m581.48,195.95c-3.08.07-4.43-1.98-4.31-4.46.17-3.68,1.99-5.75,5.49-6,2.04-.15,3.8,1.86,3.69,4.23-.17,3.86-1.85,5.77-4.87,6.24Z"/>
  <path class="cls-9" d="m518.08,95.51c-.33-3.14,3.17-5.91,6.18-5.52,1.74.22,3.63,2.36,3.46,4.17-.27,2.85-3.47,5.89-5.79,5.81-2.6-.09-4.02-1.88-3.84-4.46Z"/>
  <path class="cls-45" d="m543.6,102.12c.24,3.63-3.04,6.54-6.64,5.18-2.25-.85-3.32-2.89-2.22-5.54.96-2.3,2.73-3.83,5.3-4.16,2.42-.31,3.59,1.21,3.56,4.52Z"/>
  <path class="cls-21" d="m35.27,276.55c-2.08-1.77-3.84-3.14-5.44-4.68-2.18-2.08-6.31-1.66-7.19,2.65-.11.56-.23,1.23-.6,1.59-.3.3-1.07.42-1.46.24-.45-.21-.92-.8-1.01-1.29-.78-4.26,2.79-7.7,6.28-7.98,4.55-.36,8.52,3.5,9.56,6.69.22.69-.06,1.54-.14,2.78Z"/>
  <path class="cls-9" d="m497.31,46.03c-2.6-.02-4.49-1.63-4.47-3.8.04-2.86,2.9-5.72,5.75-5.76,2.31-.03,3.96,1.63,3.92,3.93-.05,3.11-2.37,6.19-5.21,5.63Z"/>
  <path class="cls-9" d="m516.96,160.74c.05-1.59,1.25-3.51,3.57-4.62,3.2-1.53,5.61.78,5.67,4.29.04,2.49-3.24,5.31-5.72,5.13-2.33-.17-3.52-1.45-3.52-4.8Z"/>
  <path class="cls-9" d="m570.22,102.21c0,.54.05,1.08,0,1.61-.25,2.45-1.23,3.59-3.48,4.11-2,.46-4.04-.34-5.08-1.99-1.43-2.27.75-6.57,3.68-7.27.17-.04.36-.02.53-.06,3.34-.64,4.37.2,4.35,3.59Z"/>
  <path class="cls-9" d="m533.82,75.2c-2.16-.01-2.86-.65-3.18-2.87-.34-2.37,1.39-5.64,3.35-6.35,1.46-.53,2.94-.89,4.12.46,1.3,1.5,2.01,3.23,1.25,5.25-.9,2.4-2.7,3.53-5.54,3.51Z"/>
  <path class="cls-9" d="m545.06,21.09c-.03,2.06-1.1,3.58-2.67,4.72-1.73,1.25-3.62.98-4.97-.43-.76-.79-.85-2.25-1.15-3.43-.09-.36.11-.81.23-1.21.89-3.06.6-3.39,3.49-3.48.12,0,.23-.06.35-.08,3.65-.79,4.7.08,4.72,3.91Z"/>
  <path class="cls-29" d="m72.34,795.18c2.26-2.99,4.52-5.98,6.77-8.97.68.72,1.31,1.49,2.03,2.16,3.56,3.29,2.01,6.21-1.76,8.6-2.82,1.79-5.07.28-7.04-1.79Z"/>
  <path class="cls-9" d="m579.23,81.91c-.19,3.75-2.46,5.78-5.81,5.18-3.01-.54-4.28-4.2-2.4-6.63.58-.75,1.26-1.49,2.04-2.01,1.19-.78,2.52-1.41,4.01-.67,1.75.87,2,2.53,2.16,4.13Z"/>
  <path class="cls-9" d="m540.72,216.37c-.01,2.86-2.4,5.35-5.13,5.35-2.38,0-3.77-1.86-3.79-4.96-.02-2.32,2.68-4.85,4.9-4.73,2.37.12,4.04,1.86,4.03,4.34Z"/>
  <path class="cls-56" d="m27.36,788.9c-.26-1.98,2.21-5.09,4.36-5.11,2.29-.02,5,2.98,5,5.49,0,2.09-2.23,4.11-4.59,4.16-2.53.05-4.76-2.07-4.77-4.54Z"/>
  <path class="cls-56" d="m36.49,828.36c2.65.05,5.06,2.51,4.83,5.17-.27,3.06-1.74,4.39-4.5,4.52-2.01.09-4.13-2.18-4.11-4.12.06-4.22,1.01-5.62,3.78-5.57Z"/>
  <path class="cls-21" d="m35.46,359.37c-.69-1.23-1.33-2.34-1.93-3.48-.74-1.38-2-2.01-3.44-1.94-1.58.07-2.52,1.22-3.06,2.64-.29.77-.36,1.67-.8,2.33-.39.59-1.16.92-1.77,1.36-.47-.74-1.43-1.56-1.33-2.22.39-2.6,1.46-4.95,3.63-6.64,1.57-1.22,5.44-1.23,7.06.31,1.17,1.11,2.06,2.59,2.8,4.04.63,1.25.32,2.54-1.16,3.59Z"/>
  <path class="cls-9" d="m555.94,63.36c1.25-.19,2.12.52,2.77,1.64,1.03,1.78.54,5.03-.99,6.46-1.61,1.5-4.21,1.7-6.09.38-.46-.32-.89-.86-1.05-1.38-.86-2.68,2.41-7.07,5.36-7.1Z"/>
  <path class="cls-21" d="m100.4,239.76c4.75.25,8.08,4.63,8.19,8.58.01.48-.84,1.14-1.44,1.41-.21.09-1.09-.67-1.23-1.16-.64-2.36-1.59-4.39-4.08-5.31-1.49-.55-2.66-.08-3.22,1.39-.23.6-.35,1.28-.71,1.8-.33.49-1.01,1.22-1.34,1.13-.58-.16-1.31-.79-1.45-1.35-.69-2.9,2.27-6.45,5.28-6.47Z"/>
  <path class="cls-7" d="m77.54,349.12c-1.38-1.93-2.26-3.58-3.52-4.85-2.43-2.47-4.27-2.1-5.87.94-.11.21-.11.57-.26.64-.6.28-1.36.8-1.83.62-.44-.17-.91-1.17-.81-1.69,1.26-6.12,6.23-6.56,10.41-3.44,1.2.9,2.15,2.47,2.61,3.92.32.99-.4,2.32-.74,3.86Z"/>
  <path class="cls-7" d="m21.48,258.32c-.74-1.19-1.47-2.38-2.22-3.57-1.19-1.86-2.53-1.93-3.75-.13-.46.68-.62,1.56-1.12,2.19-.33.42-1.01.76-1.52.75-.31,0-.81-.72-.87-1.17-.46-3.45,1.32-6.11,4.4-6.72,2.75-.55,5.82,1.52,6.38,4.65.23,1.25-.37,2.66-.59,3.99-.24,0-.47,0-.71,0Z"/>
  <path class="cls-21" d="m54.44,240.53c-1.89,1.89-2.19,1.87-3.37,0-.47-.75-.91-1.52-1.37-2.28-1.12-1.89-2.86-1.95-4.09-.11-.75,1.13-1.43,2.31-2.12,3.44-2.1-.93-2.58-2.14-1.69-3.95,1.27-2.58,3.25-4.26,6.23-3.93,1.16.13,2.54.81,3.28,1.7,1.27,1.52,2.11,3.4,3.13,5.12Z"/>
  <path class="cls-9" d="m527.81,137.52c-.01-2.43,2.16-4.97,4.19-4.91,2.08.06,3.68,1.84,3.65,4.05-.04,2.86-1.83,4.78-4.52,4.82-2.06.03-3.31-1.46-3.32-3.96Z"/>
  <path class="cls-56" d="m55.8,774.39c-.88.72-1.72,1.49-2.64,2.15-1.72,1.23-3.49,2.4-5.25,3.6-.7-1.45-1.69-2.73-1.52-4.56.22-2.35,1.45-4.2,3.57-4.75,1.89-.49,3.97.42,5.19,2.3.25.39.43.83.64,1.25Z"/>
  <path class="cls-21" d="m64.73,318.27c-1.83-1.9-.67-4.59,2.2-5.37,4.42-1.21,9.28,2.29,9.49,6.93.03.62-.54,1.28-.84,1.91-.47-.41-1-.78-1.4-1.25-.94-1.1-1.62-2.51-2.75-3.34-2.42-1.78-4.56-.32-6.7,1.13Z"/>
  <path class="cls-7" d="m62.23,367.35c-.48-.58-.9-1.06-1.29-1.56-1.32-1.72-3.47-1.54-4.49.37-.25.47-.46,1.04-.86,1.33-.48.36-1.27.78-1.7.61-.54-.21-1.09-.95-1.21-1.55-.44-2.07.44-3.59,2.87-4.7,1.26-.58,2.7-.89,4.08-1.03,1.73-.19,2.73.98,3.34,2.46.59,1.41.51,2.74-.75,4.08Z"/>
  <path class="cls-7" d="m56.43,301.84c-1.17,2.24-1.21,2.25-3.13.77-.6-.47-1.24-.89-1.87-1.32-2.43-1.63-4.12.27-6.05,1.21-.62.3-1.37.31-2.07.46-.07-.78-.42-1.68-.14-2.31.73-1.65,2.29-2.52,3.97-2.86,3.93-.8,7.38.22,9.28,4.05Z"/>
  <path class="cls-10" d="m562.74,218.14c-.45-.21-.89-.41-1.34-.62-.17-3.42-.41-6.83-.48-10.25-.11-4.91,1.71-8.59,7.86-6.87,4.14,1.16,6.93,4.24,9.72,7.31,2.19,2.41,4.57,4.63,6.87,6.94.11.58.22,1.15.33,1.73-3.16-3.27-6.2-6.66-9.52-9.76-2.07-1.93-4.39-3.76-6.91-4.98-4.04-1.96-7.02.17-6.96,4.67.05,3.95.28,7.89.43,11.84Z"/>
  <path class="cls-19" d="m78.66,286.83c-1.08-.69-2.16-1.39-3.25-2.08-2.57-1.63-2.87-1.56-4.82.73-.35.41-1.1.96-1.4.84-.48-.21-.91-.88-1.06-1.44-.91-3.2.81-5.23,4.1-4.76,2.56.37,4.75,1.61,6.38,3.62.53.65.55,1.71.8,2.58-.25.17-.49.35-.74.52Z"/>
  <path class="cls-7" d="m61.53,209.52c-1.2-1.08-2.32-1.92-1.6-3.77.91-2.35,2.35-3.95,4.84-4.43,2.31-.45,4.27.39,5.8,2.04.49.52.71,1.51.65,2.26-.07.89-.72,1.34-1.6.6-.23-.19-.42-.42-.64-.63-2.36-2.25-5.14-1.67-6.32,1.32-.34.87-.74,1.72-1.13,2.62Z"/>
  <path class="cls-56" d="m27.36,823.55c-.02,1.93-1.77,4.09-3.28,4.05-2.15-.05-4.1-2.05-4.04-4.16.04-1.79,1.73-3.37,3.52-3.32,2.16.07,3.82,1.56,3.8,3.43Z"/>
  <path class="cls-7" d="m13.86,335.79c-1.46.66-2.78,1.38-4.19,1.83-.54.17-1.47-.08-1.87-.49-.27-.27-.13-1.29.18-1.73,1.41-1.97,3.35-3.06,5.82-3.11,1.75-.03,3.24.49,3.81,2.29.52,1.65-.3,2.85-1.84,3.84-.61-.84-1.22-1.68-1.91-2.63Z"/>
  <path class="cls-9" d="m545.34,87.48c-2.12-.03-3.51-1.07-3.54-2.65-.04-2.31,2.53-5.04,4.81-5.11.75-.02,2.37,2.91,2.32,4.23-.06,1.79-1.86,3.55-3.59,3.52Z"/>
  <path class="cls-9" d="m590.46,47.39c-1.1-.9-1.88-1.44-2.5-2.12-.21-.23-.1-1.18,0-1.2,2.02-.49,4.07-.89,6.1-1.31.9,4.08-.23,6.43-3.45,7.47-2.21.71-3.55-.3-3.29-2.61.85-.06,1.72-.13,3.13-.23Z"/>
  <path class="cls-5" d="m43.19,811.45c3.25,1.24,6.5.97,9.74,0,.59,2.81-1.02,4.92-3.83,5.03-3.98.15-5.62-1.25-5.91-5.03Z"/>
  <path class="cls-32" d="m486.01,27.07c.14-3.27.56-3.74,3.28-3.63,1.44.06,2.71,1.72,2.67,3.48-.04,1.84-2.47,4.01-4.4,3.59-1.75-.38-1.6-2.03-1.55-3.44Z"/>
  <path class="cls-31" d="m41.9,187.88c-.39-1.06-.78-2.13-1.18-3.19,3.39-.02,5.14,1.2,6.11,3.98.5,1.42.07,2.47-.73,3.58-1.69-1.27-1.09-4.61-4.2-4.36Z"/>
  <path class="cls-47" d="m592.96,292.37c.31.12.63.24.94.36-1.65,5.27-2.63,10.63-2.37,16.18-.35.61-.71,1.21-1.07,1.82-.34-6.04.54-11.94,2.17-17.74.06-.22.22-.41.33-.62Z"/>
  <path class="cls-50" d="m402.13,839.21c2.85.72,5.63.76,8.33-.66.37-.2.93-.04,1.4-.05-.34.33-.64.89-1.03.96-1.79.33-3.6.49-5.4.78-.85.14-1.68.43-2.74.72-.15-.48-.35-1.12-.55-1.76Z"/>
  <path class="cls-50" d="m529.62,686.15v-16.54c.16,1.74.42,3.49.45,5.23.06,3.25,0,6.5-.05,9.75,0,.52-.26,1.04-.4,1.55Z"/>
  <path class="cls-57" d="m284.42,805.17c-.36-.56-.86-1.09-1.02-1.71-.06-.22.81-1,1.07-.92.53.17,1.14.67,1.3,1.17.12.36-.44.94-.7,1.42-.22.01-.43.03-.65.04Z"/>
  <path class="cls-50" d="m20.89,763.26c2.87,0,5.75,0,8.62,0-2.87.95-5.75,1.25-8.62,0Z"/>
  <path class="cls-4" d="m592.85,804.39c-.83.61-1.36,1.25-1.95,1.33-.34.04-.81-.83-1.22-1.28.45-.39.88-1.05,1.35-1.08.5-.03,1.03.55,1.82,1.03Z"/>
  <path class="cls-8" d="m581.86,797.55c.07-.67.04-1.39.28-1.99.07-.18,1.03-.23,1.38,0,.34.21.69,1.12.56,1.24-.48.47-1.14.74-1.74,1.08-.16-.11-.33-.22-.49-.32Z"/>
  <path class="cls-51" d="m581.98,801.45c.8-.55,1.34-1.14,1.57-1.04.54.24.92.82,1.37,1.26-.46.38-.89.98-1.4,1.05-.35.05-.81-.64-1.54-1.28Z"/>
  <path class="cls-27" d="m292.26,792.52c-.67-.86-1.36-1.39-1.29-1.75.1-.45.79-.98,1.3-1.07.31-.05,1.03.65,1.06,1.05.02.45-.53.93-1.07,1.77Z"/>
  <path class="cls-14" d="m293.32,828.89c-.45-.88-.93-1.38-.83-1.7.15-.48.71-.83,1.09-1.24.41.43,1.09.83,1.14,1.3.04.37-.68.84-1.4,1.64Z"/>
  <path class="cls-43" d="m561.04,806.83c-.86.59-1.33,1.16-1.81,1.17-.42,0-.85-.62-1.28-.96.38-.42.72-1.14,1.15-1.19.47-.06,1.02.48,1.94.98Z"/>
  <path class="cls-48" d="m594.86,820.24c-.92.56-1.43,1.1-1.92,1.09-.35,0-.9-.73-.96-1.19-.04-.32.64-1.03.95-1.01.52.05,1.01.54,1.92,1.1Z"/>
  <path class="cls-14" d="m292.85,800.78c-.8.55-1.3,1.16-1.72,1.1-.48-.06-.88-.71-1.32-1.1.5-.39.95-.94,1.52-1.1.29-.08.78.53,1.52,1.1Z"/>
  <path class="cls-36" d="m306.66,829.85c-.2-.66-.5-1.32-.52-1.99,0-.17.87-.54,1.32-.51.36.02,1.03.62.98.76-.22.64-.64,1.22-1,1.81-.26-.02-.52-.05-.78-.07Z"/>
  <path class="cls-4" d="m301.59,827.67c-.14-.68-.36-1.36-.35-2.03,0-.18.79-.55,1.12-.46.42.11,1.09.76,1.03.91-.27.62-.77,1.15-1.18,1.71-.21-.04-.41-.08-.62-.12Z"/>
  <path class="cls-36" d="m292.58,835.38c-.55-.96-1.04-1.49-1.1-2.07-.03-.28.84-.98,1.15-.9.47.12,1.11.74,1.14,1.17.03.46-.59.95-1.19,1.79Z"/>
  <path class="cls-22" d="m315.48,804.45c-.91.55-1.4,1.05-1.92,1.08-.36.03-.77-.59-1.15-.91.38-.45.72-1.18,1.16-1.26.44-.07.99.53,1.92,1.09Z"/>
  <path class="cls-55" d="m312.68,826.49c-.47.27-1,.82-1.38.72-.51-.12-.89-.74-1.33-1.15.41-.42.8-1.15,1.24-1.17.48-.03,1,.59,1.5.92,0,.23-.02.45-.03.68Z"/>
  <path class="cls-37" d="m577.25,817.83c-.92.48-1.48,1.01-1.94.94-.39-.06-.85-.79-.93-1.27-.04-.26.72-.94,1.02-.89.52.09.98.61,1.85,1.22Z"/>
  <path class="cls-16" d="m283.72,807.05c-1.56,1.06-2.53,1.46-3.16.18-.13-.27.59-1.33.74-1.3.73.18,1.4.61,2.43,1.11Z"/>
  <path class="cls-57" d="m314.08,808.17c-.82.69-1.3,1.39-1.74,1.37-.45-.02-.86-.76-1.29-1.18.41-.41.78-1.06,1.24-1.14.43-.07.96.48,1.78.95Z"/>
  <path class="cls-36" d="m291.22,799.26c-.22-.66-.54-1.31-.59-1.98-.01-.17.87-.6,1.29-.54.4.05,1.09.74,1.03.88-.26.63-.75,1.16-1.16,1.72-.19-.03-.39-.06-.58-.09Z"/>
  <path class="cls-14" d="m309.86,819.87c-.49-.87-1.03-1.41-.92-1.73.16-.48.75-1.07,1.21-1.11.37-.04,1.23.78,1.16.99-.18.56-.74,1-1.45,1.85Z"/>
  <path class="cls-30" d="m277.84,788.45c-.45-.86-.98-1.43-.91-1.91.05-.39.82-.92,1.28-.94.37-.01,1.14.8,1.07,1.01-.21.58-.77,1.03-1.44,1.84Z"/>
  <path class="cls-30" d="m289.77,838.98c-.9.64-1.41,1.27-1.76,1.19-.51-.11-.9-.74-1.34-1.15.42-.42.79-1.07,1.28-1.18.37-.08.89.53,1.82,1.14Z"/>
  <path class="cls-55" d="m558.18,800.6c-.82.67-1.26,1.29-1.81,1.4-.33.07-.81-.66-1.22-1.03.43-.46.8-1.08,1.33-1.3.29-.12.86.45,1.7.94Z"/>
  <path class="cls-23" d="m308.35,807.83c-1.06.49-1.63.92-2.23.96-.23.02-.78-.86-.72-1.26.06-.36.75-.88,1.15-.87.44,0,.87.54,1.79,1.17Z"/>
  <path class="cls-48" d="m299.22,790.84c-.98.53-1.54,1.08-1.96.99-.44-.1-.89-.77-1.04-1.27-.06-.19.72-.91,1.09-.88.5.03.96.55,1.91,1.17Z"/>
  <path class="cls-27" d="m583.75,805.99c.59.79,1.16,1.23,1.18,1.69.02.36-.7,1.1-1.01,1.06-.51-.07-1.23-.56-1.35-1.01-.09-.35.58-.91,1.17-1.74Z"/>
  <path class="cls-4" d="m299.54,813.61c-.51-.8-1.05-1.29-1.03-1.75.02-.37.78-1.04,1.09-.98.5.1,1.21.67,1.26,1.1.04.4-.67.87-1.32,1.62Z"/>
  <path class="cls-36" d="m582.7,815.3c-.81.85-1.7,1.29-2.56.27-.2-.24.07-1.31.38-1.45,1.09-.49,1.9-.06,2.19,1.18Z"/>
  <path class="cls-25" d="m297.86,819.37c-.54-.7-1.24-1.28-1.14-1.53.22-.53.8-1.01,1.35-1.24.19-.08,1.07.74,1.01,1.01-.12.55-.67,1.01-1.23,1.75Z"/>
  <path class="cls-15" d="m589.3,818.12c-.76.53-1.21,1.1-1.62,1.07-.46-.03-.88-.61-1.32-.94.39-.43.74-1.16,1.17-1.21.44-.05.96.55,1.77,1.08Z"/>
  <path class="cls-39" d="m317.36,820.14c-.88.6-1.39,1.22-1.83,1.17-.46-.05-.84-.75-1.26-1.16.39-.35.77-.98,1.18-.99.49-.02.99.48,1.91.99Z"/>
  <path class="cls-51" d="m304.08,819.34c.9.48,1.56.83,2.22,1.18-.37.46-.7,1.27-1.13,1.33-1.45.2-1.32-.88-1.09-2.51Z"/>
  <path class="cls-30" d="m272.7,793.1c-.84.64-1.34,1.31-1.84,1.31-.39,0-.79-.83-1.18-1.29.45-.36.87-.93,1.37-1.03.36-.07.84.48,1.65,1.01Z"/>
  <path class="cls-12" d="m579.33,827.74c-.35-.7-.69-1.41-1.04-2.11.12-.18.25-.36.37-.55.68.21,1.36.43,2.04.64-.21.65-.41,1.3-.62,1.96-.25.02-.5.04-.75.06Z"/>
  <path class="cls-8" d="m572.72,827.02c-.82.65-1.25,1.26-1.75,1.3-.32.03-.94-.72-1.01-1.18-.05-.34.56-1.12.87-1.11.5,0,1,.49,1.88.99Z"/>
  <path class="cls-40" d="m561.5,785.34c.11-.75.22-1.5.32-2.25.62.21,1.25.42,1.87.63-.4.64-.81,1.29-1.21,1.93-.33-.1-.66-.2-.98-.3Z"/>
  <path class="cls-33" d="m299.17,828.72c-.84.62-1.37,1.01-1.91,1.4-.31-.44-.91-.93-.85-1.32.06-.43.68-1.02,1.13-1.1.38-.06.87.51,1.63,1.02Z"/>
  <path class="cls-8" d="m291.03,785.01c-.91.55-1.4,1.05-1.92,1.07-.33.01-.97-.69-.96-1.07,0-.39.63-1.1.96-1.09.51.01,1,.53,1.91,1.08Z"/>
  <path class="cls-55" d="m307,797.04c-.79.1-1.58.2-2.37.3-.02-.5-.27-1.18-.03-1.46,1.05-1.26,1.67-.1,2.37.5.01.22.02.44.03.66Z"/>
  <path class="cls-51" d="m587.42,825.72c.39-.3.86-.91,1.16-.83.53.13.95.68,1.41,1.06-.49.43-.92,1.07-1.48,1.23-.47.14-1.1-.27-1.66-.44.19-.34.38-.68.57-1.02Z"/>
  <path class="cls-57" d="m569.96,835.11c-.54-.71-1.14-1.16-1.08-1.5.08-.47.65-1.15,1.03-1.17.45-.02.93.57,1.4.9-.37.49-.74.98-1.35,1.77Z"/>
  <path class="cls-48" d="m301.7,834.14c.63.77.99,1.23,1.36,1.68-.47.37-.9.87-1.43,1.04-.19.06-.87-.68-.89-1.07-.02-.42.48-.86.96-1.64Z"/>
  <path class="cls-57" d="m591.36,796.77c-.97.47-1.52.97-1.97.9-.43-.07-.77-.74-1.15-1.15.47-.31.93-.81,1.43-.85.39-.03.83.51,1.69,1.1Z"/>
  <path class="cls-48" d="m591.95,812.93c.44-.5.87-1,1.31-1.49.46.45.92.89,1.38,1.34-.64.35-1.29.7-1.93,1.05-.25-.3-.51-.6-.76-.9Z"/>
  <path class="cls-57" d="m272.91,806.64c-.54-.88-1.06-1.37-1.03-1.8.03-.35.77-.94,1.13-.89.47.06.87.64,1.3.99-.36.43-.72.87-1.4,1.7Z"/>
  <path class="cls-1" d="m545.42,802.65c-.5-.84-1.04-1.39-.92-1.62.23-.46.78-.96,1.26-1.03.3-.04,1.01.7.98,1.05-.04.44-.64.83-1.32,1.6Z"/>
  <path class="cls-57" d="m317.28,812.88c-.51.24-1.06.72-1.51.64-.43-.08-.76-.74-1.13-1.15.41-.31.83-.86,1.24-.86.48,0,.96.48,1.44.76-.01.2-.02.41-.04.61Z"/>
  <path class="cls-12" d="m305.45,803.27c0-1.18-.29-2.13.05-2.49.99-1.05,1.62-.07,2.31.83-.62.44-1.22.86-2.36,1.67Z"/>
  <path class="cls-46" d="m576.66,828.74c-.92.65-1.42,1.27-1.78,1.19-.51-.11-.92-.72-1.37-1.11.42-.39.81-1.01,1.29-1.1.4-.07.92.47,1.86,1.02Z"/>
  <path class="cls-57" d="m297.44,811.76c-1.09-.21-1.89-.36-2.69-.51.14-.51.14-1.33.44-1.46,1.2-.51,1.86.15,2.25,1.97Z"/>
  <path class="cls-4" d="m555.15,788.33c-.27-.88-.54-1.53-.62-2.2-.02-.17.72-.65.9-.57.6.29,1.11.77,1.75,1.25-.75.55-1.17.87-2.03,1.51Z"/>
  <path class="cls-57" d="m566.87,839.51h-2.56c.03-.49-.13-1.24.12-1.42,1.07-.78,1.82-.12,2.44,1.42Z"/>
  <path class="cls-30" d="m284.26,785.52c-.08-.65-.3-1.34-.18-1.94.05-.25.88-.52,1.31-.46.31.05.84.79.75.96-.31.6-.83,1.08-1.28,1.61-.2-.06-.4-.11-.6-.17Z"/>
  <path class="cls-1" d="m282.76,793.05c.44.9.89,1.4.85,1.86-.03.36-.77,1-1.03.92-.51-.15-.89-.7-1.33-1.09.39-.44.77-.87,1.5-1.7Z"/>
  <path class="cls-1" d="m561.83,794.84c-.94.51-1.48,1.04-1.92.97-.44-.07-.79-.74-1.18-1.15.41-.35.82-.97,1.22-.97.48,0,.96.55,1.88,1.15Z"/>
  <path class="cls-4" d="m580.79,835.7c-.66.57-1.08,1.21-1.42,1.17-.54-.06-1.02-.58-1.52-.9.46-.44.85-1.04,1.4-1.26.26-.11.81.51,1.54,1Z"/>
  <path class="cls-14" d="m568.42,785.25c-1.05.48-1.63.98-2.03.86-.42-.13-.9-.84-.92-1.3,0-.31.78-.9,1.19-.88.44.02.85.6,1.75,1.32Z"/>
  <path class="cls-27" d="m561.87,805.39c-.42-.84-.88-1.35-.87-1.86,0-.36.77-1.07.97-1,.51.19,1.24.73,1.23,1.11-.02.49-.68.95-1.33,1.75Z"/>
  <path class="cls-49" d="m307.55,832.76c-.83.64-1.3,1.27-1.77,1.28-.43,0-.87-.67-1.3-1.05.4-.34.77-.9,1.22-.97.43-.07.94.36,1.84.75Z"/>
  <path class="cls-51" d="m569.09,816.18c.57.44,1.15.88,1.72,1.33-.5.44-1,.89-1.5,1.33-.34-.65-.68-1.29-1.02-1.94.27-.24.54-.48.81-.71Z"/>
  <path class="cls-51" d="m292.47,836.63c.87-.56,1.29-1.05,1.67-1.02.46.03.89.51,1.34.79-.42.42-.78,1.01-1.28,1.19-.29.11-.82-.44-1.72-.97Z"/>
  <path class="cls-35" d="m549.61,803.84c.67.15,1.36.25,1.98.51.11.04.07.96-.17,1.17-.34.3-1.19.59-1.35.43-.41-.42-.56-1.09-.81-1.67.12-.15.24-.29.36-.44Z"/>
  <path class="cls-1" d="m288.14,791.12c-.5.28-1.02.81-1.49.77-.41-.03-.78-.7-1.16-1.09.4-.32.78-.88,1.19-.9.48-.03.98.41,1.47.64,0,.19,0,.38-.01.58Z"/>
  <path class="cls-35" d="m563.12,789.85c.68.11,1.38.14,2.01.38.16.06.23.99.02,1.2-.32.32-1.14.66-1.35.49-.46-.36-.67-1.04-.98-1.59.1-.16.2-.31.3-.47Z"/>
  <path class="cls-40" d="m268.04,799.37c.57.74,1.17,1.18,1.16,1.6,0,.36-.76,1.05-1.08.99-.49-.08-1.03-.61-1.27-1.09-.09-.19.57-.75,1.19-1.51Z"/>
  <path class="cls-43" d="m289.69,821.24c.62.4,1.25.79,1.87,1.19-.5.39-1,.78-1.49,1.17-.39-.52-.78-1.04-1.17-1.55.26-.27.53-.54.79-.81Z"/>
  <path class="cls-57" d="m548.02,794.47c-.24-.52-.62-1.04-.64-1.57,0-.28.78-.89.96-.8.52.23,1.21.7,1.29,1.16.09.55-.4,1.2-.63,1.8-.32-.2-.65-.39-.97-.59Z"/>
  <path class="cls-1" d="m313.27,797.49c-.86.24-1.85.75-2.24-.64-.09-.33.41-.82.64-1.23.66.4,1.33.8,1.99,1.2-.13.22-.26.44-.39.66Z"/>
  <path class="cls-14" d="m277.71,801.25c.39-.55.79-1.1,1.18-1.65.49.4.98.8,1.47,1.21-.63.4-1.26.8-1.89,1.21-.25-.25-.51-.51-.76-.76Z"/>
  <path class="cls-30" d="m301.27,788.86c-.62-.72-1.15-1.11-1.29-1.61-.06-.22.72-.97,1.07-.93.48.05,1.1.53,1.28.98.11.26-.53.82-1.05,1.56Z"/>
  <path class="cls-27" d="m588.31,809.52c.44-1.16.57-1.83.95-2.3.13-.16,1.01.1,1.36.39.25.21.33,1.12.23,1.16-.62.28-1.31.41-2.54.75Z"/>
  <path class="cls-55" d="m569.48,822.61c-.92.48-1.44.95-1.93.93-.31-.01-.86-.8-.81-1.18.05-.38.7-.96,1.09-.96.41,0,.83.57,1.65,1.2Z"/>
  <path class="cls-14" d="m308.9,810.89c.63.75,1.31,1.33,1.22,1.5-.25.48-.78.99-1.29,1.11-.28.07-1.04-.62-1.05-.97,0-.43.55-.87,1.11-1.64Z"/>
  <path class="cls-1" d="m263.72,804.28c-.15.11-.3.22-.46.33-.82-.61-1.76-1.27-.62-2.3.29-.26,1.07,0,1.63.04-.18.64-.37,1.29-.55,1.93Z"/>
  <path class="cls-43" d="m563.26,807.56c.63.39,1.26.78,1.89,1.18-.5.4-1,.79-1.49,1.19-.39-.52-.79-1.04-1.18-1.56.26-.27.52-.54.78-.8Z"/>
  <path class="cls-57" d="m555.85,791.31c-.87.51-1.39,1.05-1.78.97-.5-.1-.9-.71-1.34-1.1.41-.32.82-.92,1.22-.91.51.02,1.01.52,1.9,1.04Z"/>
  <path class="cls-54" d="m307.22,791.71c-.09-1.65-.31-2.73,1.09-2.53.43.06.77.8,1.15,1.23-.63.37-1.27.73-2.24,1.3Z"/>
  <path class="cls-36" d="m587.34,790.23c-.8.51-1.28,1.05-1.64.98-.5-.09-.91-.64-1.37-1,.46-.36.88-.92,1.38-1.01.36-.07.83.5,1.63,1.03Z"/>
  <path class="cls-4" d="m580.98,820.04c1.7-.51,2.64-.46,2.72.83.02.29-1.08,1.01-1.29.88-.54-.31-.87-.99-1.43-1.71Z"/>
  <path class="cls-49" d="m583.32,828.84c.43-.52.86-1.04,1.3-1.56.44.39.89.78,1.33,1.16-.6.42-1.21.84-1.81,1.26-.27-.29-.55-.58-.82-.87Z"/>
  <path class="cls-41" d="m290.51,806.99c.51.74,1.11,1.27,1.01,1.55-.17.45-.77.98-1.22,1.01-.37.02-1.14-.7-1.09-.98.08-.48.67-.86,1.31-1.58Z"/>
  <path class="cls-40" d="m292.22,815.97c.55.73,1.18,1.36,1.09,1.49-.32.47-.85.93-1.38,1.05-.26.06-1.03-.71-.98-.98.1-.48.66-.86,1.26-1.56Z"/>
  <path class="cls-22" d="m539.98,801.95c.62.24,1.28.41,1.84.75.13.08.06.9-.16,1.04-.4.27-1.26.56-1.4.39-.38-.46-.5-1.14-.71-1.74.14-.15.29-.3.43-.45Z"/>
  <path class="cls-40" d="m286.58,810.39c-.64-.69-1.04-1.12-1.44-1.55.39-.33.8-.96,1.16-.93.47.05,1.08.52,1.28.97.11.25-.51.81-.99,1.51Z"/>
  <path class="cls-57" d="m305.65,815.32c-.84.37-1.38.83-1.77.72-.44-.12-.75-.75-1.11-1.15.39-.31.85-.93,1.15-.86.52.12.94.66,1.73,1.29Z"/>
  <path class="cls-25" d="m570.12,836.31c.59-.25,1.17-.61,1.79-.7.24-.04.78.51.8.82.03.37-.38,1.09-.56,1.08-.66-.04-1.31-.32-1.97-.51-.02-.23-.04-.46-.06-.69Z"/>
  <path class="cls-48" d="m301.41,795.92c-.95.53-1.45,1.02-1.96,1.03-.32,0-.9-.72-.9-1.11,0-.33.68-.89,1.07-.91.43-.02.89.46,1.79.99Z"/>
  <path class="cls-1" d="m586.35,814.03c-.59-.71-1.13-1.11-1.23-1.61-.05-.24.75-.95,1.12-.91.45.04,1.06.57,1.2,1.02.09.28-.55.79-1.09,1.49Z"/>
  <path class="cls-49" d="m276.69,789.63c.56.83,1.18,1.46,1.06,1.64-.28.47-.86.84-1.39,1.02-.17.06-.86-.68-.81-.97.08-.48.57-.9,1.14-1.69Z"/>
  <path class="cls-57" d="m584.84,832.96c-.81.56-1.31,1.15-1.63,1.07-.5-.13-.88-.72-1.32-1.12.41-.32.81-.85,1.25-.89.41-.04.86.45,1.7.94Z"/>
  <path class="cls-37" d="m300.09,801.79c.57.38,1.14.76,1.71,1.14-.46.42-.91.85-1.37,1.27-.38-.55-.75-1.1-1.13-1.66.26-.25.52-.5.78-.75Z"/>
  <path class="cls-50" d="m93.23,69.89c1.8,1.77,3.93,1.63,6.14,1.08.04.22.18.57.09.65-1.27,1.09-5.61.12-6.34-1.4-.04-.08.07-.22.11-.33Z"/>
  <path class="cls-50" d="m60.48,56.88c3.36,0,6.71.01,10.07.02-.32.11-.64.32-.97.32-2.72.03-5.44.03-8.15,0-.32,0-.63-.22-.95-.34Z"/>
  <path class="cls-50" d="m563.05,327.26c2.88,0,5.75,0,8.63-.01-2.88.6-5.75.92-8.63.01Z"/>
  <path class="cls-28" d="m17.96,66.24c.69.77,2.44.84,1.77,2.55-1.64.41-1.56-1.04-2.08-1.84.1-.24.21-.48.31-.72Z"/>
  <path class="cls-45" d="m81.24,36.05c-4.6,0-6.96-3.22-5.31-7.54.65-1.7,1.65-3.34,2.81-4.73,1.84-2.19,4.69-2.63,7-1.42,2.54,1.33,4.04,4.54,3.42,7.29-.81,3.56-4.32,6.39-7.92,6.4Z"/>
  <path class="cls-45" d="m119.16,16.26c-.29,2.57-1.29,5.19-4.07,6.54-1.17.57-2.94,1-3.97.51-1.79-.84-2.59-2.78-2.32-4.86.36-2.73,3.06-5.58,5.78-6.24,2.63-.64,4.62.96,4.57,4.05Z"/>
  <path class="cls-45" d="m140.07,21.21c-.09,2.81-3.62,7.04-6.41,7.46-.64.1-1.61-.26-2.05-.75-1.54-1.71-2.14-3.72-1.12-5.97,1.1-2.41,2.73-4.3,5.51-4.62,2.12-.24,4.14,1.82,4.08,3.87Z"/>
  <path class="cls-45" d="m64.12,20.58c0,2.83-2.35,5.39-4.93,5.37-2.09,0-4.03-2.19-4.01-4.51.02-2.27,2.81-5.13,5.01-5.11,2.23.02,3.93,1.86,3.94,4.24Z"/>
  <path class="cls-30" d="m96.76,42.97c-1.09.67-2.19,1.33-3.28,2-.17-.11-.33-.22-.5-.33.54-.99.93-2.12,1.7-2.88.27-.27,1.45.38,2.22.61-.05.2-.09.4-.14.61Z"/>
</svg>