<?xml version="1.0" encoding="utf-8"?>
<!-- Generator: Adobe Illustrator 28.0.0, SVG Export Plug-In . SVG Version: 6.00 Build 0)  -->
<svg version="1.1" id="Layer_1" xmlns="http://www.w3.org/2000/svg" xmlns:xlink="http://www.w3.org/1999/xlink" x="0px" y="0px"
	 viewBox="0 0 842.4 595.8" style="enable-background:new 0 0 842.4 595.8;" xml:space="preserve">
<style type="text/css">
	.st0{fill:#ECD2E2;}
	.st1{fill:#CEA25E;}
	.st2{fill:#40A2A1;}
	.st3{fill:#F05244;}
	.st4{fill:#FEFEFE;}
	.st5{fill:#E69692;}
	.st6{fill:#40A2A0;}
	.st7{fill:#40A3A1;}
	.st8{fill:#D8B850;}
	.st9{fill:#42A3A2;}
	.st10{fill:#E69793;}
	.st11{fill:#D8B952;}
	.st12{fill:#CEA35E;}
	.st13{fill:#F05345;}
	.st14{fill:#FDFDFC;}
	.st15{fill:#FEFDFD;}
	.st16{fill:#CFA35F;}
	.st17{fill:#FCFDFD;}
	.st18{fill:#D9BA57;}
	.st19{fill:#FDFBFB;}
	.st20{fill:#DABB59;}
	.st21{fill:#F16256;}
	.st22{fill:#41A3A1;}
	.st23{fill:#40A3A2;}
	.st24{fill:#F05245;}
	.st25{fill:#E69792;}
	.st26{fill:#CEA35F;}
	.st27{fill:#F05446;}
	.st28{fill:#FDFDFD;}
	.st29{fill:#48A6A5;}
	.st30{fill:#4CA8A7;}
	.st31{fill:#55ACAB;}
	.st32{fill:#50AAA8;}
	.st33{fill:#4EA9A8;}
	.st34{fill:#4FAAA8;}
	.st35{fill:#4AA7A5;}
	.st36{fill:#50AAA9;}
	.st37{fill:#47A6A4;}
	.st38{fill:#52ABA9;}
	.st39{fill:#4AA7A6;}
	.st40{fill:#4CA8A6;}
	.st41{fill:#51ABA9;}
	.st42{fill:#48A6A4;}
	.st43{fill:#55ADAB;}
	.st44{fill:#4DA8A7;}
	.st45{fill:#52ABAA;}
	.st46{fill:#4EA9A7;}
	.st47{fill:#4DA9A7;}
	.st48{fill:#4BA8A6;}
	.st49{fill:#54ACAB;}
	.st50{fill:#49A7A5;}
	.st51{fill:#46A6A4;}
	.st52{fill:#51AAA9;}
	.st53{fill:#4FA9A8;}
	.st54{fill:#53ACAA;}
	.st55{fill:#47A5A4;}
	.st56{fill:#F4F9F9;}
</style>
<path class="st0" d="M159.9,5.2c-1.5,0.4-1.7,1.8-2,3c-1.5,4.7-3.9,9.1-6.7,13.1c-3.4,4.6-7.2,8.8-11.7,12.5
	c-5.8,4.7-12,9-18.8,12.1c-4.9,2.2-9.9,4.1-14.8,6.1c-0.6,0.2-1.1,0.5-1.6,0.7c-1.3-3-2.2-6.2-4.8-8.5c-0.1,0.8-0.1,1.6,0.1,2.3
	c0.5,1.8-0.1,2.7-1.9,3.3c-1.9,0.6-3,2-3.7,3.9c-0.2,0.8-0.6,1.5-0.9,2.2c-2.4,0.3-4.8,0.7-7.1,0.9c-3.4,0.4-6.8,0.8-10.2,1.2
	c-1.1,0.1-2.2,0-3.3,0c-3.4,0-6.7,0-10.1,0C53,57.7,44,55.6,35.7,50.9c2.5,0.2,4.4-0.8,5.5-2.9c1-1.7,1.8-3.6,2.3-5.5
	c0.6-1.9,0.8-4,1.1-6c1.7-2.9,3.7-5.6,5-8.7c3-7.1,3.2-14.6,1.8-22.2c-0.1-0.5,0.1-1.2,0.4-1.7c0.6-1,1.4-1.9,2.1-2.8
	c7,0,13.9,0,20.9,0c-0.1,3.4,1.2,5.1,4,5c3-0.2,4.4-1.5,5.4-5h47.2c2.2,4.4,4.4,5,8.2,2.1c0.7-0.6,1.3-1.4,1.9-2.1
	c4.6,0,9.1,0,13.7,0C155.8,3.7,157.3,5,159.9,5.2L159.9,5.2z M83.1,37.2c3.6,0,7.1-2.8,7.9-6.4c0.6-2.8-0.9-6-3.4-7.3
	c-2.3-1.2-5.2-0.8-7,1.4c-1.2,1.4-2.2,3-2.8,4.7C76.2,34,78.5,37.2,83.1,37.2z M121,17.4c0-3.1-1.9-4.7-4.6-4.1
	c-2.7,0.7-5.4,3.5-5.8,6.2c-0.3,2.1,0.5,4,2.3,4.9c1,0.5,2.8,0.1,4-0.5C119.8,22.6,120.8,20,121,17.4L121,17.4z M142,22.4
	c0.1-2-2-4.1-4.1-3.9c-2.8,0.3-4.4,2.2-5.5,4.6c-1,2.2-0.4,4.2,1.1,6c0.4,0.5,1.4,0.9,2.1,0.8C138.3,29.4,141.9,25.2,142,22.4
	L142,22.4z M66,21.8c0-2.4-1.7-4.2-3.9-4.2c-2.2,0-5,2.8-5,5.1c0,2.3,1.9,4.5,4,4.5C63.7,27.1,66,24.6,66,21.8L66,21.8z M98.7,44.2
	c0.1-0.2,0.1-0.4,0.1-0.6c-0.8-0.2-1.9-0.9-2.2-0.6c-0.8,0.8-1.2,1.9-1.7,2.9c0.2,0.1,0.3,0.2,0.5,0.3
	C96.5,45.5,97.6,44.8,98.7,44.2L98.7,44.2z"/>
<path class="st1" d="M54.1,1.2C53.4,2.1,52.6,3,51.9,4c-0.3,0.5-0.5,1.2-0.4,1.7c1.4,7.6,1.1,15.1-1.8,22.2c-1.3,3-3.3,5.8-5,8.6
	c0.1-5.7,0.2-11.5,0.4-17.2c0.1-2.4-0.9-3.8-3.2-4.6c-5.4-1.9-6.7-1.4-7.9,4.2c-1.1,5.2-2.2,10.5-2.8,15.9
	c-0.5,4.1-1.5,8.3-0.1,12.4c-1.6,0.4-3.3,0.9-5,1.2c-2.4,0.4-4.8,0.8-7.3,1c-6,0.4-11.6-1-16.9-3.5c0-9.8,0-19.7,0-29.5
	c0.8-0.5,2-0.7,2.5-1.4c1-1.8,2-3.7,2.5-5.6C7.4,6.6,7.6,3.9,8,1.2C23.4,1.2,38.7,1.2,54.1,1.2z"/>
<path class="st2" d="M265.6,805.4c1.5,0.4,3,0.7,4.4,1.2c2.3,0.9,4.5,2,6.8,3c1,0.4,2.1,0.7,3.1,1.1c0.4,0.2,1,0.4,1.1,0.7
	c0.5,2.7,3.2,3.4,4.5,5.4c0.2,0.2,0.8,0.2,1.1,0.3c0.4,0.2,1,0.8,0.9,0.9c-1.1,2.3,1.1,4,1,6.2c0,1.7,0.4,3.4,0.5,5.1
	c0.1,1-0.4,2,0.9,2.7c0.1,0-0.2,1.2-0.5,1.7c-0.2,0.5-0.9,0.8-1,1.3c-0.8,2.8-1.5,5.6-2.2,8.4h-47.5c-0.7-2.9-1.7-5.7-2-8.6
	c-0.3-2.7-0.2-5.6,0.3-8.3c1-5.7,3.3-10.9,7.5-15c3.8-3.7,8.4-5.3,13.6-5.5c2.3-0.1,4.6-0.2,7-0.4
	C265.3,805.7,265.4,805.6,265.6,805.4L265.6,805.4z"/>
<path class="st3" d="M842.4,426c-3.3,0.1-6.5,0.2-9.8,0.2c-5.8,0-11.6,0-17.5,0c-2.4,0-4.8,0.2-7.1-0.4c-5-1.2-7.7-6.1-7.4-10.1
	c0.2-2.6,1.1-5,3.8-6.5c6.2-3.4,12-7.4,18.3-10.4c4.8-2.4,10.1-3.8,15.2-5.6c0.5-0.2,1-0.3,1.8-0.5c-1.6-5.5-3.2-10.9-4.9-16.8
	c-2.1,1.7-3.7,3.2-5.5,4.6c-3.9,2.9-7.7,5.8-11.8,8.3c-2.4,1.5-5.2,2.5-8.2,2.7c-4,0.3-8,0.7-12,1c-4.7,0.3-8.7-1.4-12.3-4.4
	c-6.3-5.4-13.2-9.8-20.9-13c-5-2.2-5.1-5.7-1.8-8.9c1.2-1.1,2.8-1.9,4.4-2.4c3.6-1.2,7.4-1.8,10.9-3.1c4.6-1.7,9-4,13.6-5.9
	c4.3-1.8,8.7-3.2,13.5-3.4c4.3-0.1,8.3,0.9,11.9,3.2c6.6,4.2,12.5,9.3,17,15.9c0.5,1,0.9,1.9,1.4,2.9c2,6.3,4,12.6,6,19.1
	c0.2-0.1,0.7-0.2,1.2-0.4L842.4,426L842.4,426z M831.9,375.1c0.1-2.1-0.2-3-2.2-3.8c-3.9-1.6-6.6-4.5-9-7.8
	c-0.5-0.7-1.2-1.4-1.9-1.8c-3.7-1.9-7.7-3-11.9-3c-5.6,0-10.7,1.6-15.8,3.8c-1.6,0.7-3.2,1.4-4.8,1.9c-1.1,0.4-2.2,0.4-2.7-0.9
	c-0.5-1.3,0.3-2.1,1.3-2.6c1.7-0.8,3.4-1.5,5.2-2c6.7-2.1,13.5-3.2,20.5-2.4c3.9,0.5,6.8,2.6,10,4.8c4.3,3,8.6,6.1,12.1,10.1
	c-0.3-1-0.6-2.1-1.3-2.8c-4.3-4.1-8.4-8.4-13.1-12c-5.6-4.4-12.2-5.5-19-3.4c-3.9,1.2-7.7,2.7-11.4,4.4c-5.3,2.4-10.7,4.7-16.5,5.9
	c-2.3,0.5-4.5,1.5-6.7,2.5c-1.8,0.9-3.3,2.3-3.2,4.4c0.1,2.1,2,2.9,3.6,3.6c7.4,3,14,7.2,20,12.5c4,3.5,8.6,5.4,14,4.9
	c2.1-0.2,4.2-0.2,6.3-0.4c5.4-0.5,10.5-1.8,15-5c3.3-2.4,6.5-5.1,9.8-7.6c0.1-0.1,0.2-0.3,0.4-0.9c-0.9,0.3-1.4,0.5-2,0.7
	c-7.2,2.4-14.3,5-21.6,7.2c-2.7,0.8-5.7,0.8-8.5,0.9c-1,0-2.3-0.4-2.1-1.9c0.2-1.4,1.3-1.2,2.4-1.3c4.5-0.3,9-0.5,13.4-1.1
	c4.7-0.7,9.2-2.3,14-4.5c-0.7,0-0.9-0.1-1.1-0.1c-5.4,1.1-10.8,0.8-16.1,0c-8.3-1.2-16.7-2.6-25-3.9c-1.1-0.2-2.7-0.3-2.6-1.9
	c0.1-1.7,1.8-1.4,3-1.6c0.2,0,0.5-0.1,0.7,0c2.5,0.7,5.2,1,7.5,2.2c5.8,3,11.8,3.5,18.2,2.9c3.4-0.3,6.9,0,10.4,0.2
	C824.7,375.5,828.2,376.1,831.9,375.1L831.9,375.1z M803.5,357.8c-0.7-0.1-0.9-0.2-1-0.2c-5.6-0.1-10.7,1.5-15.8,3.6
	c-0.8,0.3-1.3,1.2-1.9,1.8c0.9,0,1.9,0.3,2.6,0C792.4,360.8,797.5,358.6,803.5,357.8L803.5,357.8z M793.8,374.1
	c-2.4-2.6-9.7-4-11.9-2.1C786.1,372.7,789.9,373.4,793.8,374.1z M823.6,376.6c0-0.2,0-0.4,0-0.5h-14.4
	C814,377,818.7,377.4,823.6,376.6z M806.1,384.3h-8.7c0,0.2,0,0.3,0,0.5C800.3,386.4,803.2,385.2,806.1,384.3L806.1,384.3z
	 M823.4,364c-0.1,0.2-0.3,0.3-0.4,0.5c1.7,2.4,3.7,4.4,6.8,5C827.7,367.6,825.6,365.8,823.4,364z"/>
<path class="st3" d="M842.4,570.7c-0.4,1.1-0.9,2.3-1,3.4c-0.4,4-4.8,9.5-9.4,8.8c-2.5-0.4-4.4-1.8-5.7-3.7c-1.8-2.7-2.6-5.8-2.9-9
	c-0.5-5.4-0.8-10.7-1.1-16.1c-0.3-4.8-0.9-9.7-0.5-14.5c0.4-6.3,1.4-12.7,6.1-17.5c3.8-3.9,6.8-4.2,12.4-0.1c0.8,0.6,1.5,1.3,2.2,2
	V570.7L842.4,570.7z"/>
<path class="st4" d="M842.4,229.4v10.1c-2-3.8-3.8-7.7-6-11.4c-0.7-1.3-2-2.3-3.3-3.2c-0.6-0.4-1.6-0.2-2.4-0.2
	c0.1,0.8,0.2,1.6,0.4,2.4c0.1,0.4,0.4,0.7,0.7,1c4.4,4.1,6.5,9.5,8,15.1c0.8,3.2,1.7,6.4,2.5,9.6v1.4c-0.4-0.4-1-0.8-1.3-1.3
	c-0.6-0.8-0.9-1.9-1.6-2.6c-3.2-3.2-6.3-6.4-9.7-9.3c-3-2.6-5.5-5.4-7-9.1c-0.5-1.2-1-2.3-1.6-3.4c-1.1-1.9-2.2-3.8-3.5-5.6
	c-0.4-0.5-1.3-0.6-1.9-0.9c-0.3,0.7-0.9,1.6-0.7,2.1c0.7,2.2,1.3,4.5,2.6,6.4c1.3,2,3.3,3.6,5,5.4c1,1,2.2,1.8,2.9,2.9
	c2.8,4.1,6.4,7.2,10.4,10.1c2.3,1.7,4.1,4,5.5,7.1c-4.2-2.7-8.6-3.1-12.9-3.8c-10.4-1.8-17.6-9.1-18.5-19.1
	c3.6-4.1,3.4-7.5-0.6-11.2c-0.2-3.9-0.4-7.9-0.4-11.8c-0.1-4.5,2.9-6.6,7-4.7c2.5,1.2,4.8,3.1,6.9,5c3.3,3.1,6.4,6.5,9.5,9.8
	c0.7,1.9,1.8,3.2,3.9,3.3C838.3,225.4,840.3,227.4,842.4,229.4L842.4,229.4z"/>
<path class="st5" d="M452.2,843.6c-0.2-5.5,0.7-10.8,3.3-15.8c2.8-5.2,7.1-7.9,13-8.1c6.4-0.2,12.1,1.8,17.1,5.9
	c4.3,3.5,5.9,8.3,6.2,13.6c0.1,1.4,0,2.9,0,4.3H452.2L452.2,843.6z"/>
<path class="st6" d="M516.3,843.6c-1.9-4.3-2.4-8.8-2.2-13.4c0.2-5,1.5-9.7,4.2-13.9c3.3-5.2,7.7-8.8,13.9-9.7c2.9-0.4,6-0.3,9-0.4
	c0.1,0.1,0.2,0.2,0.2,0.3c-0.3,1.6-0.8,3.2-1,4.9c-0.4,2.4-0.5,4.9-1.1,7.3c-0.7,2.6-1.7,5.3-0.8,8.1c0.1,0.3-0.2,0.7-0.3,1.2
	c-0.2-0.5-0.2-0.7-0.4-1.3c-1.1,5.9-1.8,11.6-4.1,17H516.3L516.3,843.6z"/>
<path class="st6" d="M544,806.1c3.8,0,6.9,1.8,10.2,3.5c1,0.5,2.2,0.8,3.2,1.2c0.4,0.1,0.9,0.3,1,0.7c1,2.9,3.3,4.5,5.8,5.9
	c0.4,0.2,0.9,1.2,0.9,1.2c-1.1,0.9,0,1.7,0.1,2.6c0.5,3.1,0.8,6.2,1.3,9.3c0.1,0.5,0.3,1,0.7,1.3c0.9,0.8,1,1.9-0.1,2.2
	c-1,0.3-0.8,0.8-1,1.5c-0.7,2.7-1.4,5.4-2.1,8H552c-0.4-2.2-0.7-4.4-1.2-6.5c-0.2-0.9-1.1-1.7-1-2.5c0.4-3.5-1.6-6.7-1.4-10.3
	c0.1-2.2-0.8-4.4-1.2-6.5c-0.1-0.4-0.4-1.1-0.6-1.1c-1,0-0.9-0.4-0.5-1.1c0.1-0.2,0.1-0.6,0.1-0.8c-0.3-1.6-0.3-3.4-1-4.8
	c-0.5-0.9,0.2-2.7-1.7-2.8C543.6,806.8,543.8,806.4,544,806.1L544,806.1z"/>
<path class="st3" d="M842.4,467.4c-3.4-2.6-6.7-5.3-10.2-7.8c-2.1-1.5-4.4-2.9-6.8-4c-5.7-2.6-9.4-7-12.4-12.2
	c-1.1-1.9-0.5-4.4,1-5.6c0.4-0.3,0.9-0.5,1.4-0.6c5.7-1.1,11.2,0.1,16.7,1.2c3.5,0.7,6.9,1.8,10.3,2.7L842.4,467.4L842.4,467.4z"/>
<path class="st0" d="M835.2,373.4c-0.5-1-0.9-1.9-1.4-2.9c0.1-2.4,0.6-4.9,0.2-7.3c-1-5.2-0.2-10.3,0.7-15.4c1-5.3,1.3-10.6,0.1-16
	c-0.1-0.5-0.8-1.1-1.3-1.3c-1.9-0.8-3.9-0.4-5.9-0.1c-3,0.4-6.2,0.3-9.3,0.5c-2.9,0-5.8,0-8.6,0c-12.2-0.6-22.2-5.7-29.5-15.5
	c-3.8-5.1-8.1-9.6-14-12.4c-2.6-1.2-4.7-3.2-5.3-6.3c-0.7-3.5,1.5-6.7,5-6.3c4.9,0.6,9.9,1.5,14.7,2.8c7.3,2,14.5,4.5,21.8,6.5
	c3.7,1,7.5,1.5,11.2,2.3c11.5,2.5,17.9,10,20.6,21.2c0.3,1.1,0.8,2.1,1.2,3.1c0.2,1,0.4,2.1,0.6,3.1c0.4,2.7,1.1,5.4,1,8.1
	c-0.1,3.8-0.8,7.7-1.2,11.5c-0.3,3-0.7,6-1.1,9.1c1.5-4,2.5-8.1,4-12.1c1-3,2.5-5.8,3.8-8.6v2.2c-0.1,0.1-0.3,0.2-0.3,0.4
	c-1.9,5.7-3.9,11.4-5.7,17.1c-0.5,1.6-0.6,3.4-0.9,5.2c0.2,0.1,0.4,0.2,0.6,0.3c1.2-1.5,2.5-2.8,3.5-4.4c1.1-1.6,1.9-3.3,2.9-4.9
	v7.2c-1.7,1-3.4,2-5.2,2.9c0.1,0.1,0.1,0.3,0.2,0.4c1.7-0.4,3.3-0.8,5-1.2v1.1c-1.8,0.4-3.7,0.9-5.5,1c-1.6,0.1-2.1,0.8-2,2.2
	C835,369,835.1,371.2,835.2,373.4L835.2,373.4z M814.7,329.8c-0.9-0.2-1.9-0.5-2.8-0.7c-2.5-0.6-5.2-0.7-7.4-1.8
	c-5.1-2.4-10-5.3-15-8c-0.3-0.2-0.6-0.8-0.6-1.1c0-0.2,0.6-0.6,1-0.6c0.6,0,1.2,0,1.7,0.3c3.1,1.5,6.2,3,9.2,4.7
	c6.1,3.6,12.3,6.7,19.8,5.7c0.9-0.1,1.8,0,2.7,0c3,0,6.1,0,9.5,0c-0.7-0.8-1-1.4-1.5-1.9c-4.1-4.1-9.4-6.3-14.5-8.5
	c-9.9-4.4-20.3-7.6-30.5-11.4c-2-0.7-4-1.5-6-2.5c-0.5-0.2-0.5-1.1-0.8-1.8c0.6-0.2,1.2-0.6,1.7-0.5c0.8,0.1,1.5,0.6,2.3,1
	c2.4,1.2,4.7,2.7,7.2,3.5c4.4,1.5,8.9,2.6,13.4,4.1c2.9,0.9,5.7,2.1,8.8,3.2c-0.9-1.1-1.8-2-2.5-3.2c-0.4-0.7-0.3-1.6-0.4-2.4
	c0.7,0.2,1.5,0.2,2.1,0.6c6.9,4.6,13.4,9.6,19.2,15.5c0.6,0.6,1.2,1,1.8,1.5c0.1-0.1,0.3-0.2,0.4-0.3c-0.8-2.5-1.3-5.1-2.3-7.5
	c-3-7.4-8.2-12.4-16-14.5c-4.3-1.1-8.7-1.6-12.9-2.8c-8.1-2.3-16.1-5-24.2-7.2c-3.9-1.1-7.9-1.8-11.9-2.1c-3.3-0.3-5,2.5-4,5.7
	c0.9,2.7,2.9,4.1,5.3,5.3c4.2,2.1,7.8,4.8,10.7,8.6c2.9,3.8,5.7,7.8,9.6,10.8C795.7,327.9,804.8,330.1,814.7,329.8L814.7,329.8z
	 M821.7,316.9c-3.5-2.5-7-5.1-10.5-7.6l-0.3,0.5C813.4,313.6,817.6,315.2,821.7,316.9L821.7,316.9z M806.5,327.6
	c0.1-0.2,0.2-0.3,0.2-0.5c-4.7-2.7-9.5-5.3-14.2-8l-0.3,0.5C797,322.3,801.8,324.9,806.5,327.6z M816.9,315.8
	c-0.1,0.1-0.2,0.3-0.3,0.4c1.7,0.9,3.5,1.9,5.2,2.8c-1-1-2.1-1.7-3.2-2.3C818,316.4,817.4,316.1,816.9,315.8z"/>
<path class="st7" d="M544,806.1c-0.2,0.3-0.4,0.6-0.6,1c1.8,0.1,1.2,1.9,1.7,2.8c0.7,1.4,0.7,3.2,1,4.8c0,0.3,0.1,0.6-0.1,0.8
	c-0.4,0.7-0.5,1,0.5,1.1c0.2,0,0.5,0.7,0.6,1.1c0.5,2.2,1.3,4.4,1.2,6.5c-0.2,3.6,1.8,6.7,1.4,10.3c-0.1,0.8,0.8,1.7,1,2.5
	c0.5,2.2,0.8,4.3,1.2,6.5h-18.4c2.3-5.3,2.9-11,4.1-17c0.2,0.6,0.3,0.8,0.4,1.3c0.1-0.5,0.4-0.9,0.3-1.2c-0.9-2.8,0.1-5.5,0.8-8.1
	c0.6-2.4,0.7-4.9,1.1-7.3c0.3-1.6,0.7-3.2,1-4.9c0-0.1-0.1-0.2-0.2-0.3C542.1,806.2,543.1,806.2,544,806.1L544,806.1z"/>
<path class="st6" d="M1.9,113.8c2.7,0,3.6,1.4,3.9,4c0.5,4.4,1.7,8.8,2.3,13.2c0.8,5.3-0.2,10.4-2.5,15.1c-0.6,1.3-1.6,3.1-3.7,3
	L1.9,113.8L1.9,113.8z"/>
<path class="st6" d="M597.7,750.3c-1.3,0-2.7,0.1-3.9-0.2c-2.8-0.5-3.6-2.8-3.6-5.1c0-2.3,0.4-4.5,0.8-6.8c0.6-3.6,1.7-7.2,0.7-10.9
	c-0.1-0.2,0.1-0.6,0.2-1.2h5.8L597.7,750.3L597.7,750.3z"/>
<path class="st4" d="M835.2,373.4c-0.1-2.2-0.2-4.4-0.3-6.5c-0.1-1.4,0.4-2.1,2-2.2c1.9-0.1,3.7-0.6,5.5-1v28.4
	c-0.5,0.1-1,0.3-1.2,0.4C839.1,386,837.2,379.7,835.2,373.4z"/>
<path class="st4" d="M842.4,337.4c-1.3,2.9-2.8,5.7-3.8,8.6c-1.4,4-2.5,8.1-4,12.1c0.4-3,0.7-6,1.1-9.1c0.4-3.8,1.1-7.7,1.2-11.5
	c0.1-2.7-0.7-5.4-1-8.1c0.4-1.4,0.7-2.9,1.1-4.3c0.2-0.6,0.3-1.3,0.7-1.8c1.5-1.6,3.2-3.1,4.8-4.7V337.4L842.4,337.4z"/>
<path class="st8" d="M810,233c0.9,9.9,8.1,17.3,18.5,19.1c4.3,0.7,8.7,1.1,12.9,3.8c-1.5-3.1-3.2-5.4-5.5-7.1
	c-4-2.9-7.6-6-10.4-10.1c-0.8-1.1-2-1.9-2.9-2.9c-1.7-1.8-3.7-3.3-5-5.4c-1.2-1.9-1.9-4.2-2.6-6.4c-0.2-0.6,0.5-1.4,0.7-2.1
	c0.7,0.3,1.5,0.4,1.9,0.9c1.3,1.8,2.4,3.7,3.5,5.6c0.6,1.1,1.2,2.2,1.6,3.4c1.5,3.7,4,6.5,7,9.1c3.4,2.9,6.5,6.2,9.7,9.3
	c0.7,0.7,1,1.7,1.6,2.6c0.3,0.5,0.9,0.9,1.3,1.3v4c-3.5-3.2-8-4.1-12.5-4.7c-9-1.3-16-5.4-19.8-14c-0.6-1.4-0.7-2.9-1-4.4
	C809.3,234.4,809.7,233.7,810,233L810,233z M816.2,222.9c-1.2,2.9,2.5,9.1,6.6,11.4C820.8,230.3,819.3,226.2,816.2,222.9z"/>
<path class="st1" d="M836.2,223.3c-2.1-0.1-3.3-1.4-3.9-3.3c-0.1-0.6-0.2-1.1-0.3-1.7c-0.3-4.3,5.5-8.1,8.1-6.6
	c0.8,0.5,1.5,1.2,2.3,1.8v3.2c-0.2,0.5-0.5,1.1-0.7,1.6c-0.9,1.9-2.2,3.5-4.3,4.2C837,222.8,836.6,223.1,836.2,223.3L836.2,223.3z"
	/>
<path class="st1" d="M842.4,165c-1.3,0.9-2.5,2.4-3.9,2.7c-3.5,0.9-6-1.9-5.2-5.6c0.4-1.9,1.4-3.5,3.2-4.3c2.4-1,4.3-0.4,5.8,1.7
	V165z"/>
<path class="st1" d="M733.3,3.7c0.7,2.6,0.4,4.9-1.6,6.9c-1.5,1.5-4.8,2.2-6.7,1.2c-1.5-0.8-2.1-3.6-1.1-5.4c0.5-0.9,1-1.9,1.5-2.8
	C728,3.7,730.7,3.7,733.3,3.7z"/>
<path class="st6" d="M8,1.2C7.6,3.9,7.4,6.6,6.8,9.2c-0.5,2-1.4,3.9-2.5,5.6c-0.4,0.7-1.6,1-2.5,1.4c0-5,0-10.1,0-15.1H8z"/>
<path class="st4" d="M842.4,353.2c-1,1.6-1.8,3.4-2.9,4.9c-1,1.5-2.3,2.9-3.5,4.4c-0.2-0.1-0.4-0.2-0.6-0.3c0.3-1.7,0.4-3.5,0.9-5.2
	c1.8-5.7,3.8-11.4,5.7-17.1c0-0.1,0.2-0.3,0.3-0.4L842.4,353.2L842.4,353.2z"/>
<path class="st3" d="M1.9,197c5-4,10.7-2.5,12.6,3.4c0.4,1.3,0.2,2.3-1.1,3.2c-0.6-1-1.1-1.9-1.6-2.7c-1.1-2-2.8-2.8-5-2.4
	c-1.9,0.3-2.3,1.8-2.8,3.4c-0.4,1.4-1.4,2.6-2.1,3.9C1.9,202.8,1.9,199.9,1.9,197z"/>
<path class="st9" d="M842.4,318.7c-1.6,1.5-3.2,3.1-4.8,4.7c-0.4,0.4-0.5,1.2-0.7,1.8c-0.4,1.4-0.7,2.9-1.1,4.3
	c-0.2-1-0.4-2.1-0.6-3.1c0.4-2.5,0.7-5.1,1.1-7.6c0.2-1.4,0.5-2.8,0.7-4.3c0.4-0.6,0.7-1.2,1.1-1.8c0.5-1,1.1-1.9,1.6-2.9
	c0.9-1.8,1.8-3.6,2.6-5.4v5c-3.2,2.5-3.2,6.2-4.3,9.9c1.6-1.3,2.9-2.4,4.3-3.4V318.7L842.4,318.7z"/>
<path class="st10" d="M95.8,837.5c4.2-0.6,7.2,1.8,8.7,6.1H93.3c0.4-1.5,0.8-3.1,1.1-4.6C94.9,838.5,95.4,838,95.8,837.5L95.8,837.5
	z"/>
<path class="st11" d="M842.4,252.8c-0.8-3.2-1.7-6.4-2.5-9.6c-1.5-5.7-3.6-11-8-15.1c-0.3-0.3-0.6-0.6-0.7-1
	c-0.2-0.8-0.3-1.6-0.4-2.4c0.8,0.1,1.9-0.2,2.4,0.2c1.2,0.9,2.5,1.9,3.3,3.2c2.1,3.7,4,7.6,6,11.4v4c-0.1-0.2-0.3-0.4-0.3-0.6
	c-1.3-5.7-3.9-10.8-7.5-15.4c-0.7-0.9-1.9-1.5-2.9-2.3c-0.1,0.2-0.3,0.3-0.4,0.5c0.5,0.7,1,1.5,1.6,2.1c4.1,3.8,6.1,8.8,7.7,14
	c0.6,2.1,1.2,4.2,1.8,6.3L842.4,252.8L842.4,252.8z"/>
<path class="st3" d="M1.9,794.2c2.8,2,3.4,4.9,3.3,8c-0.1,4.5-1.4,8.8-3.3,12.9V794.2L1.9,794.2z"/>
<path class="st12" d="M842.4,109.5c-1.1-0.1-2.2,0.1-3.2-0.2c-2.4-0.6-3.5-3.9-2.1-6.3c1.2-2,3-3,5.3-2.9L842.4,109.5L842.4,109.5z"
	/>
<path class="st4" d="M842.4,304.3c-0.9,1.8-1.7,3.6-2.6,5.4c-0.5,1-1.1,1.9-1.6,2.9c-0.2-5.5,0.7-10.9,2.4-16.2
	c0.2-0.6,0.3-1.2,0.5-1.8c0.5-1,1-1.9,1.4-2.9L842.4,304.3L842.4,304.3z"/>
<path class="st12" d="M842.4,79.3c-3.2-0.2-4.1-0.7-4.6-2.9c-0.7-2.6,0.3-4.9,2.7-6.4c0.6-0.4,1.3-0.5,1.9-0.8L842.4,79.3
	L842.4,79.3z"/>
<path class="st12" d="M84.3,1.2c-1,3.5-2.4,4.8-5.4,5c-2.8,0.2-4.1-1.6-4-5H84.3z"/>
<path class="st13" d="M1.9,842.5c6.6-2,13.1-2.1,19.4,1.1H1.9V842.5z"/>
<path class="st14" d="M842.4,248.1c-0.6-2.1-1.2-4.2-1.8-6.3c-1.5-5.2-3.5-10.2-7.7-14c-0.6-0.6-1.1-1.4-1.6-2.1
	c0.1-0.2,0.3-0.3,0.4-0.5c1,0.8,2.1,1.3,2.9,2.3c3.6,4.6,6.2,9.6,7.5,15.4c0,0.2,0.2,0.4,0.3,0.6L842.4,248.1L842.4,248.1z"/>
<path class="st12" d="M159.9,5.2c-2.6-0.2-4.2-1.5-4.7-4h10.1C163.8,2.8,162.2,4.5,159.9,5.2z"/>
<path class="st12" d="M141.6,1.2c-0.6,0.7-1.2,1.5-1.9,2.1c-3.8,2.9-6,2.4-8.2-2.1C134.8,1.2,138.2,1.2,141.6,1.2z"/>
<path class="st12" d="M756.4,3.7c-1.1,1.1-2.1,2.3-3.4,3.2c-2.9,2-5.5,0-5.6-3.2C750.4,3.7,753.4,3.7,756.4,3.7z"/>
<path class="st15" d="M837.4,222.6c2.2-0.7,3.4-2.3,4.3-4.2c0.2-0.5,0.5-1.1,0.7-1.6V228c-1.4-1.4-2.8-2.7-4.2-4.1
	C837.8,223.5,837.6,223,837.4,222.6z"/>
<path class="st16" d="M770.4,3.7c-2,3.6-6.3,4.2-8.4,1c-0.2-0.3-0.2-0.7-0.3-1C764.6,3.7,767.5,3.7,770.4,3.7z"/>
<path class="st17" d="M842.4,315.8c-1.3,1.1-2.7,2.1-4.3,3.4c1.1-3.7,1.1-7.5,4.3-9.9V315.8z"/>
<path class="st18" d="M837.4,222.6c0.3,0.4,0.5,0.9,0.8,1.3c1.4,1.4,2.8,2.7,4.2,4.1v1.4c-2-2-4.1-4-6.2-6.1
	C836.6,223.1,837,222.8,837.4,222.6L837.4,222.6z"/>
<path class="st19" d="M842.4,362.6c-1.7,0.4-3.3,0.8-5,1.2c-0.1-0.1-0.1-0.3-0.2-0.4c1.7-1,3.4-2,5.2-2.9V362.6L842.4,362.6z"/>
<path class="st20" d="M842.4,291.7c-0.5,1-1,1.9-1.4,2.9c0-0.9,0-1.8-0.1-2.7c0.5-0.8,1-1.6,1.5-2.4L842.4,291.7L842.4,291.7z"/>
<path class="st21" d="M1.9,291c1.3,1.7,1.3,3.4,0,5V291z"/>
<path class="st3" d="M60.6,757.5c-0.6,0.5-1.2,1.3-1.9,1.6c-1.7,0.8-3.5,1.9-5.3,2.2c-5.9,1-11.8,1.8-17.6,2.7
	c-1.4,0.2-2.9,0.3-4.3,0.4c-2.9,0-5.8,0-8.6,0c-2.7-0.3-5.4-0.4-8-0.9c-5.8-1.1-10.8-5-11.4-11.4c-0.3-3.7,1.4-6.7,3.8-9.4
	c4.2-5,10-6.9,16.1-8.2c6.1-1.2,12.3-1,18.4-0.1c4.2,0.6,8.3,1.3,12.5,2.3c3.8,0.9,7.2,2.9,9.6,6.1c1.8,2.5,2.2,5.3,0.9,8.2
	c-0.6,1-1.2,2.1-1.8,3.1C62.1,755.3,61.3,756.4,60.6,757.5L60.6,757.5z"/>
<path class="st3" d="M805.2,586.1c-1.5-0.7-3.2-1.1-4.5-2c-7.7-5.5-14.9-11.5-21-18.8c-3.7-4.5-7.1-9.1-9-14.7c-1-3.1-1.1-6.2-1-9.5
	c0-1.9,0.5-3.6,1.4-5.3c1.6-2.9,4.1-4.3,7.2-4.8c5.5-0.9,10,1.2,14.2,4.7c6.9,5.6,10.5,13.2,13.8,21.1c1.7,4.1,3.8,8.1,5.2,12.3
	c1.2,3.6,2.7,7.2,1.4,11.2c-1,3-4.4,5.4-7.7,5.3C805.3,585.8,805.2,586,805.2,586.1L805.2,586.1z"/>
<path class="st3" d="M57.7,775.6c1.8-0.9,3.6-1.8,5.4-2.7c3-1.7,6-3.5,9.1-5.1c4.7-2.4,13.5,0.3,13.8,8c0.1,2.6-0.9,5-2.2,7.2
	c-0.9,1.5-1.9,3-2.9,4.4c-2.3,3-4.5,6-6.8,9c-3.2,3.6-6.2,7.3-9.5,10.8c-2.2,2.3-5.1,3.7-8.1,4.8c-0.6,0.2-1.2,0.5-1.8,0.8
	c-3.2,1-6.5,1.2-9.7,0c-4.3-2.2-6-5.8-6.5-10.5c-0.6-6,1.6-10.8,5.3-15.1c1.8-2,3.9-3.8,5.8-5.7c1.8-1.2,3.5-2.4,5.2-3.6
	C56,777,56.8,776.3,57.7,775.6L57.7,775.6z"/>
<path class="st5" d="M340.8,818.4c-0.3-5.9,0.9-11.5,4.3-16.5c2.4-3.5,5.8-5.3,9.8-5.8c7.3-0.9,13.8,1.3,19.4,5.9
	c3.1,2.5,4.9,6,5.5,10c0.8,4.7,0.6,9.3-1.4,13.7c-2.2,4.8-5.5,8.3-10.8,9.5c-2.6,0.6-5.3,0.9-7.9,1.1c-4,0.3-7.3-1.5-10.7-3.3
	c-4.6-2.4-7.3-6.2-8.2-11.2C340.6,820.7,340.7,819.5,340.8,818.4L340.8,818.4z"/>
<path class="st3" d="M58,727.4c-3.2-1-6.7-1.7-9.7-3.1c-4.8-2.2-9.5-4.7-13.9-7.6c-3.4-2.2-6.5-4.8-9.3-7.6c-3.3-3.2-4.2-7.4-3.7-12
	c0.6-4.9,2.8-8.7,7.2-10.5c5.6-2.2,11.6-3.9,17,0.3c2.7,2,4.9,4.9,6.9,7.7c3.7,5.2,7.2,10.5,10.5,16c2,3.3,3.4,7,2.3,11.1
	c-1,3.6-3,5.6-7.1,5.4L58,727.4L58,727.4z"/>
<path class="st3" d="M826.5,504.6c-5.9-0.4-10.9-1.9-14.8-5.9c-2.5-2.5-4.2-5.6-5.2-9.1c-0.6-2.2-1.3-4.3-1.8-6.5
	c-0.3-1.4-0.2-2.8-0.5-4.2c-0.8-4.4-1.4-8.8-2.5-13.1c-1.7-6.9,2.4-10.3,9-8.9c2.6,0.6,4.6,2,6.2,4c3.9,4.7,7.8,9.3,11.4,14.2
	c4.5,6,7.4,12.7,8.1,20.2c0.5,4.7-2.2,7.2-6.8,8.8C828.7,504.4,827.3,504.4,826.5,504.6L826.5,504.6z"/>
<path class="st3" d="M761.4,500.5c0.1-6,1.7-10.4,4.6-14.3c4.8-6.5,9.7-13,14.5-19.5c3-4,9.1-3.9,12.1,1.1c1.8,2.9,2.4,6.6,3.3,10
	c0.6,2.2-0.2,4.4-1.2,6.5c-2,4.4-4.5,8.4-7.3,12.2c-3,4.1-5.9,8.3-8.9,12.4c-1.2,1.7-2.9,2.9-5,3.5c-3.9,1-9.9-2.4-10.9-6.4
	C762,503.8,761.6,501.6,761.4,500.5L761.4,500.5z"/>
<path class="st3" d="M95.8,837.5c-0.4,0.5-0.9,1-1.4,1.5c-3,1.8-6,2.1-8.9-0.2c-2-1.5-3.1-3.7-3.8-6c-1.3-4.5-0.9-9.1,0.2-13.5
	c0.9-3.8,2.3-7.6,4-11.1c1.8-3.6,4.2-6.8,6.4-10.2c1.3-2,2.7-4,3.8-6.1c1.2-2.2,4.3-3,6-2.5c4.6,1.2,8.1,5.1,6.9,10.6
	c-0.8,3.7-1.4,7.4-2,11.2c-1.1,6.2-2.4,12.3-5.6,17.8C99.8,831.8,97.7,834.6,95.8,837.5L95.8,837.5z"/>
<path class="st6" d="M531.5,687.3c-0.5,6.1-0.9,12.2-1.5,18.2c-0.3,3.4-1.6,6.5-4.5,8.6c-2,1.5-6.8,1-8.8-2
	c-1.7-2.6-1.2-5.3-0.6-7.9c1.4-6.3,1.3-12.7,1.1-19.1c-0.1-4.8-0.1-9.5,0.1-14.3c0.2-3.9,0.6-7.7,1-11.6c0.1-1.2,0.7-2.4,1.2-3.5
	c0.7-1.5,1.5-3,3.7-2.8c0.3,0,0.6-0.1,0.9-0.2c4.4-1.3,5.8,0.9,6.4,4.6c0.7,3.7,0.5,7.5,0.8,11.2c0,0.7,0.1,1.4,0.1,2.2L531.5,687.3
	L531.5,687.3z"/>
<path class="st6" d="M595.8,697.1c-0.5,4.2-0.9,8.4-1.6,12.6c-0.6,3.7-4.8,7.1-8.4,7.2c-2.7,0-5.2-2.5-5-5.3c0.2-4.1,0.7-8.1,1-12.2
	c0.1-1.5,0-3,0-4.4c0-3.4,0-6.8,0-10.1c0-1.2,0.1-2.5,0.6-3.6c1.5-3.5,5.9-5.5,9.8-3c0.3,0.2,0.6,0.6,0.7,1
	C594.4,685.1,595.6,691,595.8,697.1L595.8,697.1z"/>
<path class="st6" d="M553.1,725.1c0-2.1,0-4.2,0-6.3c0-3,0.9-4.2,3.7-5.1c1.6-0.5,3.2-0.9,4.8-1.4c1.2-0.3,2-0.2,2.2,1.2
	c0.5,3,1.2,6.1,1.3,9.2c0.3,5.7,0.3,11.3,0.3,17c0,2.5-0.1,5.2-0.6,7.6c-0.9,4.2-5.6,6.7-9.8,4.7c-1.1-0.5-2-2.1-2.2-3.4
	c-0.3-2.7-0.2-5.4-0.1-8.1c0.1-3.3,0.3-6.6,0.4-9.9C553.2,728.8,553.1,727,553.1,725.1C553.1,725.1,553.1,725.1,553.1,725.1
	L553.1,725.1z"/>
<path class="st7" d="M31,47.2c-1.4-4.2-0.3-8.3,0.1-12.4c0.6-5.3,1.7-10.6,2.8-15.9c1.2-5.6,2.5-6.1,7.9-4.2
	c2.3,0.8,3.3,2.2,3.2,4.6c-0.2,5.7-0.2,11.5-0.4,17.2c-0.4,2-0.6,4-1.1,6c-0.6,1.9-1.4,3.8-2.3,5.5c-1.2,2.1-3.1,3.1-5.5,2.9
	C33.3,50.7,32.1,49.1,31,47.2z"/>
<path class="st6" d="M65.9,173.9c-3,0.5-5.8-2.1-5.6-5.3c0.2-2.8,0.2-5.6,0.5-8.4c0.3-3.2,0.5-6.4,1.3-9.5c0.7-2.6,2.3-4.9,3.3-7.3
	c0.6-1.3,0.9-2.8,1.2-4.2c0.4-2.1,1.7-2.7,3.4-1.5c2.9,2,4.4,4.8,4.4,8.3c0,4.8,0.1,9.6,0,14.4c-0.1,4.1-1.3,8.1-3.5,11.5
	c-0.7,1.1-2.8,1.4-4.3,1.9C66.5,174,66.1,173.9,65.9,173.9L65.9,173.9z"/>
<path class="st6" d="M94.9,131.5c0.3-3.4,0.7-6.8,0.9-10.2c0.2-2.8,0.3-5.7,0.3-8.5c0.1-3,0.9-5.8,2.5-8.3c0.8-1.3,2-2.4,3.8-1.9
	c2.1,0.5,3.8,1.6,4,3.8c0.4,5.3,0.6,10.7,0.6,16c0,3.8-0.3,7.6-1,11.3c-0.5,2.9-1.8,5.6-4.9,6.7c-2.6,0.9-5.9-1.2-6.1-4
	c-0.1-1.6,0-3.2,0-4.8C95.1,131.5,95,131.5,94.9,131.5L94.9,131.5z M102,110.3c1.4-1.1,1.4-1.4,0.3-2.8
	C101.1,108.3,101.2,109.2,102,110.3z"/>
<path class="st6" d="M19.8,67.4c0.4-1.2,0.7-2.5,1.2-3.6c1-2.1,1.7-2.4,4.2-1.9c0,2.9,1,5.5,2.7,7.9c2.5,3.4,3.2,7.3,2.7,11.5
	c-0.5,3.6-0.7,7.3-1.5,10.9c-0.5,2.2-1.6,4.3-3,6.1c-1.4,1.7-5.1,1.7-6.8,0.5C17,97.1,16,94.5,16.6,92c1.3-5.5,2.7-11.1,2.2-16.8
	c-0.2-2.5,0-4.8,0.7-7.1c0.5,0.8,0.4,2.2,2.1,1.8C22.3,68.2,20.6,68.2,19.8,67.4L19.8,67.4z"/>
<path class="st6" d="M398.2,836.7c-2-2.7-2.7-5.7-1.8-9c0.7-2.4,1.3-4.9,2.6-7c1.9-3,6.5-3.9,10.9-2.6c5.8,1.7,8.9,5.1,9.2,11
	c0.1,2.1-1,4.3-1.5,6.4c-0.5-0.4-0.9-0.8-1.3-1.2c-0.9-0.1-1.9-0.2-2.9-0.3c-1.2,0.3-2.7,0.8-3.6,0.3c-2.7-1.3-4.3-1-5.3,1.8
	c-0.1,0.3-0.3,0.7-0.5,1.3c-0.5-1.1-0.8-1.8-0.9-2.2c-0.8,0-1.2,0-1.7,0c-0.4,0-0.8,0-1.2,0.2C399.6,836,398.9,836.4,398.2,836.7
	L398.2,836.7z"/>
<path class="st6" d="M577.9,782.7c0.2,0.3,0.8,0.8,1,1.4c0.5,1.4,0.2,3.2,2.3,3.4c0.2,0,0.4,0.3,0.5,0.5c0.3,2.1,0.9,4.1,0.8,6.2
	c-0.1,3.8-0.4,7.6-0.9,11.3c-0.3,2-1.2,3.9-1.8,5.9c-0.1,0.3,0.2,0.7,0.2,1c0,0.5,0,1.4-0.3,1.5c-0.4,0.2-1.1,0-1.7-0.1
	c-0.5-0.1-1-0.4-1.5-0.3c-3.3,0.6-6.2-0.4-7.8-3.1c-0.2-0.3-0.3-0.9-0.2-1.2c1.2-2.2,0.7-4.5,0.7-6.8c0-0.8,0.2-1.6,0.3-2.5
	c0.2-3.1,0.5-6.3,0.7-9.4c0.1-0.9,0-1.8,0.3-2.6c0.1-0.3,0.8-0.5,1.3-0.5c1.5,0.1,2.2-0.3,2.5-2
	C574.7,784.3,575.5,782.7,577.9,782.7L577.9,782.7z M577,793.4c-0.7-0.4-1.1-0.7-2-1.3c0.2,1.2,0.4,2,0.5,2.8c0.2,0,0.4,0,0.6,0
	C576.4,794.4,576.7,794,577,793.4z"/>
<path class="st6" d="M34.6,125.6c1,3.5,3.1,5.1,5.8,6.2c0.3,0.1,0.6,0.7,0.5,1.1c-0.2,3.6-0.4,7.2-0.5,10.8
	c-0.1,2.6,0.1,5.2,0.1,7.9c0,2.9-0.6,5.6-3.2,7.5c-2.2,1.6-6,0.7-7.5-1.2c-1.3-1.8-1.8-3.7-1.7-5.8c0.1-4.4,0.8-8.7,2.2-12.9
	c1.2-3.5,2-7.1,3-10.6C33.6,127.7,34,126.9,34.6,125.6L34.6,125.6z"/>
<path class="st6" d="M75.3,80.8c-2.4,1.2-4.7-2.5-7.3,0.3c1.1,0.5,2,1.1,2.9,1.5c5.5,2.2,5.6,2.2,6.5,8.2c0.7,4.5,0.6,9-0.1,13.5
	c-0.1,0.4-0.2,1-0.5,1.1c-2,0.8-4,2.1-6.1,2.2c-2,0.1-3.8-1.3-4.9-3.3c-1-2.1-1.2-4.2-0.8-6.4c0.3-2.1,0.3-4.3,0.4-6.5
	c0.2-3.1,0.1-6.2,0.6-9.2c0.3-1.6,1.4-3.2,2.5-4.5c0.6-0.7,1.6-1.6,2.9-0.9C73.4,77.7,75.2,78.4,75.3,80.8L75.3,80.8z"/>
<path class="st7" d="M93.1,55.9c0.3-0.8,0.6-1.5,0.9-2.2c0.6-1.9,1.8-3.3,3.7-3.9c1.8-0.5,2.3-1.5,1.9-3.3c-0.2-0.7-0.2-1.5-0.1-2.3
	c2.5,2.3,3.5,5.5,4.8,8.5c1.4,5,1.1,10.2,0.4,15.2c-0.3,2-1.1,3.6-3.3,4.2c-2.2,0.6-4.3,0.7-6.1-1.1c-1.8-2.4-1.7-5.2-1.9-8
	C93.1,60.7,93.1,58.3,93.1,55.9L93.1,55.9z"/>
<path class="st6" d="M98.6,177.2c-0.2-1.3-0.5-2.7-0.5-4c-0.1-3.5,0.9-6.8,3.7-8.8c1.5-1.1,4.1-0.5,6.3-0.6c0.3,0,0.8,0.9,0.9,1.4
	c0.6,3.1,1,6.3,1.6,9.4c0.7,3.8-0.6,9.3-4.1,10.8c-1.9,0.8-6,0.3-6.9-2.2c-0.7-1.9-1-3.9-1.5-5.9C98.2,177.3,98.4,177.2,98.6,177.2
	L98.6,177.2z"/>
<path class="st22" d="M840.9,291.9c0,0.9,0,1.8,0.1,2.7c-0.2,0.6-0.3,1.2-0.5,1.8c-0.3-0.1-0.6-0.2-0.9-0.4
	c-2.1,0.3-4.2,0.4-6.3,0.9c-2.6,0.6-5,1.8-7.8,1.5c-4-0.4-7.2-2.3-9.6-5.4c-3.2-4.1-6.1-8.6-9.2-12.8c-1.6-2.2-3.6-4.2-4.9-6.5
	c-2.6-4.6-2.8-9.4-0.2-14.1c1.9-3.4,4.3-4.2,8-3c4,1.4,7,4.3,9.8,7.4c3.1,3.6,6.4,7,10.7,9.2c6.4,3.3,9.1,8.7,10.2,15.4
	C840.4,289.7,840.7,290.8,840.9,291.9L840.9,291.9z M837.7,294.5c-1.5-1.9-2.7-4.1-4.5-5.6c-3.7-3.2-7.8-6-11.6-9
	c-3.5-2.8-7-5.6-10.4-8.5c-1.4-1.2-1.4-2.5-0.3-3.6c1-1,2.4-1.2,3.7,0.1c1.3,1.4,2.5,3,3.4,4.8c2,4,5,6.8,8.6,9.2
	c2,1.4,4.1,2.7,5.9,4.3c2.5,2.2,4.8,4.7,7.2,7.1c0.2-1.3,0.1-2.3,0-3.3c-1-7-3.6-12.8-10.3-16.4c-3.3-1.8-6-4.8-8.9-7.4
	c-1.6-1.4-2.9-3.2-4.6-4.6c-1.8-1.5-3.7-2.9-5.8-3.9c-3.3-1.6-5.8-0.5-7.4,2.8c-2.1,4.4-1.9,8.7,0.6,12.9c1.3,2.1,2.9,4,4.3,6
	c2.9,4.1,5.7,8.3,8.8,12.3c4.2,5.3,9.5,6.9,15.1,5C833.4,295.9,835.5,295.3,837.7,294.5L837.7,294.5z M818.7,276.9
	c0.1-0.1,0.1-0.2,0.2-0.2c-1-1.8-1.9-3.6-3-5.3c-0.7-1.1-1.6-2.1-2.6-2.9c-0.3-0.3-1.5-0.3-1.7,0c-0.3,0.4-0.3,1.3-0.2,1.9
	c0.1,0.4,0.5,0.8,0.9,1.1C814.4,273.3,816.6,275.1,818.7,276.9L818.7,276.9z"/>
<path class="st2" d="M43.8,189c0.1,1.7,0.3,3.4,0.2,5c-0.2,3.1-1.7,5-4.9,5.7c-0.6,0.1-1.4,0-2-0.3c-2.9-1.2-4.6-3.1-4.6-6.7
	c0-3.2,0-6.2,2-8.9c0.3-0.4,0.6-0.8,0.9-1.1c1.2-1.3,2.5-2.6,3.8-4c1.1,2.2,2.2,4.6,3.4,7C43,186.9,43.4,188,43.8,189L43.8,189z"/>
<path class="st1" d="M810,233c-0.3,0.7-0.6,1.4-0.9,2.1c-0.3-1.1-0.8-0.6-1.5-0.3c-2.9,1.5-6.7,0.8-8.3-1.5c-1.2-1.7-1-3.6-0.4-5.4
	c1.1-2.9,2.5-5.7,5.9-6.5c1-0.2,2.1-0.1,3.2-0.1c0.5,0.2,0.9,0.4,1.3,0.6C813.4,225.5,813.6,229,810,233L810,233z"/>
<path class="st1" d="M232.4,61c-1.9,0-3.4-0.6-4.3-2.3c-1.1-2-0.6-3.8,0.4-5.6c1.3-2.4,3.4-3.7,6.1-4c1.8-0.2,3.9,1.1,4.4,2.9
	c0.8,2.5-0.8,7.7-4,8.5C234.2,60.8,233.3,60.9,232.4,61L232.4,61z"/>
<path class="st1" d="M763.9,199.5c0.3-3,3.1-7.1,5.7-7.9c1.5-0.5,3.7,0.6,5,2.4c2.9,3.8,0.3,8.8-4,9.2c-1.8,0.2-3.7,1-5.1-0.8
	C764.9,201.4,764.4,200.4,763.9,199.5L763.9,199.5z"/>
<path class="st1" d="M165.3,49.3c-1.1,0-3-0.2-3.9-2.2c-0.8-1.8-0.6-3.8,0.7-5.3c1.1-1.4,2.3-2.8,3.8-3.7c1.4-0.9,3.1-1,4.5,0.2
	c1.6,1.4,2.4,3.3,2.1,5.4C171.9,47,170.4,49.3,165.3,49.3L165.3,49.3z"/>
<path class="st6" d="M486.2,798.8c0.2-4.5,2-6.2,5-6c3.6,0.2,6.2,2.4,6.2,5.8c0,3.3-2.8,6.1-6.2,5.8
	C488.8,804,486,802.4,486.2,798.8z"/>
<path class="st1" d="M228,22c-0.1,4.4-4.1,7.7-8.5,6.8c-2.2-0.5-3.6-3-2.9-5.2c1-2.9,2.9-4.9,5.9-5.9C225.4,16.7,228,18.7,228,22
	L228,22z"/>
<path class="st1" d="M809.3,32.6c-0.3-4.1,1.5-5.6,4.2-6.2c2.9-0.6,5.3,1.2,5.7,4.1c0.4,3.2-1.2,5.9-4,7.6c-2.2,1.3-6.2-1.2-6-3.9
	C809.2,33.6,809.3,33,809.3,32.6z"/>
<path class="st10" d="M104.9,777.3c-3,0-5.8-2.6-5.8-5.1c0.1-2.9,2.4-5.5,5-5.5c3.3,0,6.8,3.1,6.8,6
	C110.8,775.3,108.2,777.4,104.9,777.3L104.9,777.3z"/>
<path class="st3" d="M25.8,312.8c-1-3.1-1.5-5.6-2.5-8c-1.3-3-4-4.5-7-3.6c-1.3,0.4-2.4,1.8-3.4,2.9c-0.5,0.5-0.7,1.4-0.8,2.1
	c-0.2,1.6-1.1,1.6-2.3,1.1c-1.1-4.2,1.1-7.7,4.1-9.2c3.2-1.6,6.4-1.3,9.5,1.5c3.3,3,4.3,6.9,3.9,11.2
	C27.2,311.4,26.4,312,25.8,312.8L25.8,312.8z"/>
<path class="st1" d="M742.3,93.2c-2.4,0-4.8-2.4-4.6-4.8c0.3-3.8,2.7-6.4,6-6.5c2.4-0.1,4.7,2.6,4.7,5.4
	C748.2,90.9,745.8,93.2,742.3,93.2L742.3,93.2z"/>
<path class="st1" d="M816.6,60.9c-2.6,0.4-4.5-2-5.1-4.3c-0.5-2.4,1-5.2,3.2-6.1c0.7-0.3,1.4-0.6,2.1-0.9c2.5-0.9,2.6-0.8,3.5,1.5
	c0.4,1,0.8,2,1.1,3C822.6,57.7,820.3,60.9,816.6,60.9L816.6,60.9z"/>
<path class="st1" d="M130.5,53.1c-2.9-0.2-5.1-3.1-4-5.8c1-2.5,2.3-5,5.4-5.6c1.7-0.3,3.2,0,4.3,1.2c1.1,1.3,1.6,2.9,0.7,4.5
	c-1.1,2.1-2.1,4.4-4.7,5.3C131.6,52.8,131.1,52.9,130.5,53.1L130.5,53.1z"/>
<path class="st1" d="M746.3,177.5c-0.2-2.6,1.2-4.4,3.6-5.6c1.8-0.9,3.8-0.6,5,0.6c1.5,1.4,2.1,4.2,1.5,5.9c-1,2.9-4.7,4.5-7.4,4.1
	C747.1,182.2,746.2,180.7,746.3,177.5L746.3,177.5z"/>
<path class="st23" d="M398.2,836.7c0.7-0.3,1.3-0.8,2-1c0.4-0.2,0.8-0.2,1.2-0.2c0.5,0,0.9,0,1.7,0c0.2,0.4,0.5,1.1,0.9,2.2
	c0.3-0.7,0.4-1,0.5-1.3c1-2.8,2.6-3.2,5.3-1.8c1,0.5,2.4,0,3.6-0.3c1,0.1,2,0.2,2.9,0.3c0.4,0.4,0.9,0.8,1.3,1.2
	c0,0.3,0.1,0.8,0,0.9c-1.4,0.9-2.1,2.8-3.9,3.1c-0.5,0-1-0.1-1.4,0c-2.7,1.4-5.5,1.4-8.3,0.7C401.7,839.8,399.6,838.8,398.2,836.7
	L398.2,836.7z"/>
<path class="st1" d="M191.6,33.2c1.9,0,3.2,1,4,3.1c1,2.7-0.8,5.9-4.1,7.5c-1.7,0.8-5.1-0.5-6-2.2c-1.7-3,1.4-8,5.1-8.4
	C190.9,33.2,191.3,33.2,191.6,33.2L191.6,33.2z"/>
<path class="st1" d="M151.4,25.2c0.2-2.9,2.4-6,5.1-7c1-0.3,2.5-0.2,3.3,0.3c1.2,1,2.4,2.4,1.9,4.2c-0.7,3.1-2.3,5.5-5.3,6.8
	c-1.5,0.7-2.6,0-3.4-1C152.2,27.7,151.9,26.4,151.4,25.2L151.4,25.2z"/>
<path class="st10" d="M60.6,757.5c0.7-1.1,1.5-2.2,2.2-3.4c0.6-1,1.2-2.1,1.8-3.1c2.3,0.2,4.3,0.8,5.8,2.8c1.3,1.6,1.8,3.2,0.8,5.1
	c-1,1.9-2.4,3.2-4.7,3.3C63.1,762.2,61.7,761.1,60.6,757.5L60.6,757.5z"/>
<path class="st10" d="M65.6,821.7c0-3.2,2.1-5.8,4.7-5.8c2.5,0,5.9,3.8,5.9,6.9c0,2.1-2.1,3.9-4.7,3.8
	C68.4,826.5,65.3,824.8,65.6,821.7L65.6,821.7z"/>
<path class="st1" d="M210.2,45.2c0.3,0.8,0.6,1.7,0.9,2.6c3-1,4-0.2,3.4,3c-0.8,4.1-3.9,6.1-7.8,5.1c-2.7-0.7-3.2-2.9-2.6-5.5
	C204.8,47.3,207.2,46,210.2,45.2z"/>
<path class="st1" d="M813.6,176.1c0,4.1-5.8,7.5-8.9,5.6c-0.8-0.5-1.4-1.6-1.8-2.6c-0.8-2.1,1.5-6.4,3.7-7.2
	c2.4-0.9,5.2,0.3,6.6,2.9C813.5,175.3,813.5,175.9,813.6,176.1L813.6,176.1z"/>
<path class="st10" d="M177.5,831.3c-2.5,0-5.1-2.4-5.1-4.7c0-3.3,2.1-6.1,4.5-6c2.5,0.1,6.3,3.6,6.2,5.9
	C183,829.1,180.5,831.8,177.5,831.3L177.5,831.3z"/>
<path class="st10" d="M121.4,825.5c0,2.7-2.7,5.2-5.4,5.1c-2.6-0.1-5-2.6-4.9-5.3c0.1-3.4,2.1-5.4,5.1-5.5
	C118.7,819.8,121.4,822.7,121.4,825.5L121.4,825.5z"/>
<path class="st10" d="M120.3,797.8c2.6-0.1,3.7,1.9,4.9,3.6c0.8,1,1.5,2.3,1.6,3.5c0.1,0.7-1.1,1.8-1.9,2.3
	c-2.1,1.3-6.1,0.8-7.9-0.9c-1.4-1.3-1.8-3.3-0.9-5.5C117.1,798.6,118.1,797.8,120.3,797.8L120.3,797.8z"/>
<path class="st1" d="M788.9,154.1c1.5,0,2.6,1.2,3.4,2.6c0.7,1.3,1.1,2.7,0.1,4.3c-1.5,2.5-3.7,3.9-6.6,4c-1.6,0.1-2.5-1.1-2.9-2.2
	C781.5,158.6,784.6,154.4,788.9,154.1L788.9,154.1z"/>
<path class="st10" d="M150.7,803.6c-2.5-0.1-5.5-3-5.3-5.6c0.2-2.5,1.8-4.9,4.9-4.8c2.9,0,6.1,3.2,5.9,5.9
	C156.2,801.4,152.8,803.9,150.7,803.6z"/>
<path class="st10" d="M199.4,835.5c0-2.6,2-4.1,4.6-3.6c2.6,0.5,4.3,2,5.3,4.3c0.8,1.8,0.4,3.5-1.2,4.9c-1.6,1.5-3.7,1.7-5.4,0.7
	C200.4,840.5,199.4,838.3,199.4,835.5L199.4,835.5z"/>
<path class="st1" d="M189.5,15.5c-0.4-2,0.9-3.4,2.1-4.7c1.3-1.4,3.2-1.8,4.7-0.9c1.6,0.9,3.4,1.9,3.2,4.3c-0.2,2-3.7,6.3-5.7,6.7
	c-1.6,0.4-4.4-2.3-4.5-4.3C189.4,16.3,189.4,15.9,189.5,15.5L189.5,15.5z"/>
<path class="st10" d="M163.4,804.4c2.6,0,6.2,3.8,6.2,6.6c0,2-2.6,4.2-5.1,4.2c-2.1,0-5.4-2.3-5.3-5.8
	C159.3,805.6,161.2,804.6,163.4,804.4L163.4,804.4z"/>
<path class="st1" d="M760.3,72c-2.9,0-4.1-1.3-4-4.5c0-2.8,3.2-5.8,6.3-5.8c2.2,0,3.7,1.8,3.7,4.5C766.4,70,764.2,72,760.3,72
	L760.3,72z"/>
<path class="st12" d="M782,187.9c0-2.9,1.2-5.2,3.5-6.6c1.6-1,3.7-0.5,5.1,0.9c1.3,1.3,1.7,3.4,0.8,5.5c-1.6,3.8-4.4,4.5-7.9,3.4
	C782.2,190.7,781.8,189.2,782,187.9z"/>
<path class="st12" d="M739.4,118.5c-0.8-0.1-1.8-0.2-2.9-0.4c-0.2-0.1-0.5-0.3-0.6-0.5c-1.4-3.4,0.7-7.8,4.2-9
	c1.6-0.5,3.1-0.5,4.3,0.8c1.4,1.5,1.7,3.3,1.1,5.1C744.7,116.8,742.9,118.7,739.4,118.5L739.4,118.5z"/>
<path class="st1" d="M750.2,143.1c0.1-0.3,0.3-1.1,0.8-1.7c1.3-1.5,1.9-3.6,4.3-3.9c3.5-0.5,5.3,1.7,5.1,5c-0.2,4-3.2,5.1-5.9,5.5
	C752.3,148.3,750.2,146,750.2,143.1L750.2,143.1z"/>
<path class="st3" d="M65.2,263c0,0,0,0.5-0.2,0.8c-0.3,0.6-0.8,1-1.3,1.5c-0.3-0.4-0.8-0.8-0.9-1.3c-1.2-3.6-3.4-5-6.6-4.1
	c-1.6,0.5-2.1,1.9-2.4,3.3c-0.3,1.1-0.1,2.4-0.5,3.4c-0.2,0.7-1.1,1.2-1.6,1.8c-0.5-0.6-1.3-1.1-1.4-1.7c-0.6-4,0.5-7.4,3.8-9.8
	c2.5-1.7,5.3-1.3,7.9,0C64.1,258.2,65.2,260.1,65.2,263L65.2,263z"/>
<path class="st10" d="M88.8,751.4c-2.6,0-4.9-2.4-4.9-4.9c0.1-2.4,2.7-5.5,4.6-5.5c2.6,0,6.3,3.5,6.1,5.9
	C94.4,749.2,91.8,751.6,88.8,751.4L88.8,751.4z"/>
<path class="st5" d="M13.2,791c2.9,0,6.2,2.9,6.2,5.3c-0.1,2.4-2.8,4.8-5.4,4.8c-3,0-5.4-2.4-5.3-5.3C8.9,792.8,10.2,791,13.2,791
	L13.2,791z"/>
<path class="st12" d="M765.6,128.6c-2.6,0.4-3.8-2.1-3.8-4.4c0-3.6,3.2-5.9,5.6-5.9c2.3,0,4.5,2.5,4.5,4.9
	C771.8,126.1,768.9,128.6,765.6,128.6L765.6,128.6z"/>
<path class="st10" d="M136.9,832.9c0-2.8,1.7-4.5,4.4-4.5c3.1,0,5.4,2.6,5.3,5.9c0,2.6-1.9,4.5-4.5,4.5
	C138.9,838.8,136.9,836.5,136.9,832.9z"/>
<path class="st3" d="M41.1,324.1c2.8,0.1,5,0.7,6.5,2.6c1.4,1.9,2.6,3.9,3.6,6c0.3,0.5-0.2,2-0.7,2.3c-1.1,0.5-1.4-0.7-1.7-1.5
	c-1.1-2.9-2.6-5.2-5.8-6.1c-3.6-1-7.3,0.7-8.6,4.2c-0.1,0.4-0.2,0.9-0.5,1.1c-0.4,0.4-0.9,0.5-1.4,0.8c-0.2-0.4-0.6-0.9-0.6-1.3
	c-0.2-3.9,1.7-6.6,5.6-7.5C38.8,324.4,40.1,324.3,41.1,324.1L41.1,324.1z"/>
<path class="st12" d="M800.5,127.2c2.2,0,4.3,2.1,4.3,4.3c0,3.3-2.3,5.7-5.4,6c-2,0.2-4.8-2.6-4.8-4.6
	C794.8,129.9,797.5,127.2,800.5,127.2z"/>
<path class="st1" d="M731.9,70.1c-0.3-3.8,2.4-6.9,5.8-7c1.8,0,2.9,0.7,3.3,2.5c0.5,2.5,0.4,5-1.5,6.6c-1.4,1.2-3.5,1.7-5.7,1
	C732,72.6,731.9,71.4,731.9,70.1L731.9,70.1z"/>
<path class="st12" d="M829,130.6c-1.8,0.4-3-0.5-3.7-1.9c-0.8-1.7-1.1-3.7,0.2-5.3c1.1-1.4,2.5-2.6,4.5-2.8c2-0.2,3.3,0.5,4.1,2.3
	c0.8,1.8,0.5,4.4-0.8,5.6C832.1,129.7,831,131.1,829,130.6L829,130.6z"/>
<path class="st1" d="M813.6,158.1c-2.5,0-3.9-1.4-3.6-3.9c0.4-3.9,2.1-6.1,5.9-6.2c2.3,0,3.9,1.9,3.7,4.7
	C819.5,156.2,817.7,158.1,813.6,158.1L813.6,158.1z"/>
<path class="st3" d="M12.9,228.2c-3.2-3.7-1.3-8.1,1.6-8.7c1.9-0.4,3.9-0.6,5.9-0.4c1.8,0.2,3.6,0.7,5.3,1.4
	c2.6,1.1,4.2,3.3,3.4,6.6c-0.2,0.6-0.8,1.1-1.3,1.6c-0.4-0.5-1.1-0.9-1.3-1.4c-0.8-3.2-3.5-5.2-6.8-5c-0.7,0-1.3,0.1-2,0.1
	c-1.9-0.1-3.2,0.6-3.7,2.5C13.7,225.9,13.3,227,12.9,228.2L12.9,228.2z"/>
<path class="st1" d="M787.6,40.4c2.5-0.7,4.3,2.8,3.3,5.5c-0.8,2.2-2.6,3.5-4.6,4.4c-2,1-5.1-1.4-5.1-3.8
	C781.2,42.8,783.6,40.4,787.6,40.4L787.6,40.4z"/>
<path class="st12" d="M796,200.5c-0.2-2.4,2.8-6.3,5.5-6.1c2.8,0.2,4,1.2,4.1,4.2c0.1,3.1-2.4,5.8-5.6,5.9
	C797.8,204.6,796,202.8,796,200.5L796,200.5z"/>
<path class="st12" d="M828.1,199.6c-3.1,0.1-4.4-2-4.3-4.5c0.2-3.7,2-5.8,5.5-6c2-0.1,3.8,1.9,3.7,4.2
	C832.8,197.3,831.1,199.2,828.1,199.6L828.1,199.6z"/>
<path class="st12" d="M764.7,99.2c-0.3-3.1,3.2-5.9,6.2-5.5c1.7,0.2,3.6,2.4,3.5,4.2c-0.3,2.8-3.5,5.9-5.8,5.8
	C765.9,103.6,764.5,101.8,764.7,99.2L764.7,99.2z"/>
<path class="st1" d="M790.2,105.8c0.2,3.6-3,6.5-6.6,5.2c-2.2-0.8-3.3-2.9-2.2-5.5c1-2.3,2.7-3.8,5.3-4.2
	C789,101,790.2,102.5,790.2,105.8z"/>
<path class="st3" d="M37.2,277.7c-2.1-1.8-3.8-3.1-5.4-4.7c-2.2-2.1-6.3-1.7-7.2,2.6c-0.1,0.6-0.2,1.2-0.6,1.6
	c-0.3,0.3-1.1,0.4-1.5,0.2c-0.5-0.2-0.9-0.8-1-1.3c-0.8-4.3,2.8-7.7,6.3-8c4.5-0.4,8.5,3.5,9.6,6.7
	C37.5,275.6,37.2,276.5,37.2,277.7L37.2,277.7z"/>
<path class="st12" d="M743.9,49.7c-2.6,0-4.5-1.6-4.5-3.8c0-2.9,2.9-5.7,5.8-5.8c2.3,0,4,1.6,3.9,3.9
	C749.1,47.2,746.7,50.3,743.9,49.7L743.9,49.7z"/>
<path class="st12" d="M763.6,164.4c0-1.6,1.2-3.5,3.6-4.6c3.2-1.5,5.6,0.8,5.7,4.3c0,2.5-3.2,5.3-5.7,5.1
	C764.7,169.1,763.6,167.8,763.6,164.4z"/>
<path class="st12" d="M816.8,105.9c0,0.5,0,1.1,0,1.6c-0.2,2.4-1.2,3.6-3.5,4.1c-2,0.5-4-0.3-5.1-2c-1.4-2.3,0.8-6.6,3.7-7.3
	c0.2,0,0.4,0,0.5-0.1C815.8,101.7,816.8,102.5,816.8,105.9L816.8,105.9z"/>
<path class="st12" d="M780.4,78.9c-2.2,0-2.9-0.7-3.2-2.9c-0.3-2.4,1.4-5.6,3.3-6.3c1.5-0.5,2.9-0.9,4.1,0.5c1.3,1.5,2,3.2,1.2,5.2
	C785,77.8,783.2,78.9,780.4,78.9z"/>
<path class="st12" d="M791.7,24.8c0,2.1-1.1,3.6-2.7,4.7c-1.7,1.2-3.6,1-5-0.4c-0.8-0.8-0.8-2.2-1.2-3.4c-0.1-0.4,0.1-0.8,0.2-1.2
	c0.9-3.1,0.6-3.4,3.5-3.5c0.1,0,0.2-0.1,0.3-0.1C790.6,20.1,791.6,20.9,791.7,24.8L791.7,24.8z"/>
<path class="st5" d="M74.2,796.3c2.3-3,4.5-6,6.8-9c0.7,0.7,1.3,1.5,2,2.2c3.6,3.3,2,6.2-1.8,8.6C78.4,799.9,76.2,798.4,74.2,796.3z
	"/>
<path class="st12" d="M825.8,85.6c-0.2,3.8-2.5,5.8-5.8,5.2c-3-0.5-4.3-4.2-2.4-6.6c0.6-0.8,1.3-1.5,2-2c1.2-0.8,2.5-1.4,4-0.7
	C825.4,82.3,825.7,84,825.8,85.6L825.8,85.6z"/>
<path class="st12" d="M787.3,220.1c0,2.9-2.4,5.4-5.1,5.4c-2.4,0-3.8-1.9-3.8-5c0-2.3,2.7-4.9,4.9-4.7
	C785.7,215.8,787.3,217.6,787.3,220.1L787.3,220.1z"/>
<path class="st10" d="M29.2,790.1c-0.3-2,2.2-5.1,4.4-5.1c2.3,0,5,3,5,5.5c0,2.1-2.2,4.1-4.6,4.2C31.5,794.7,29.3,792.5,29.2,790.1z
	"/>
<path class="st10" d="M38.4,829.5c2.7,0,5.1,2.5,4.8,5.2c-0.3,3.1-1.7,4.4-4.5,4.5c-2,0.1-4.1-2.2-4.1-4.1
	C34.7,830.9,35.6,829.5,38.4,829.5z"/>
<path class="st3" d="M37.3,360.5c-0.7-1.2-1.3-2.3-1.9-3.5c-0.7-1.4-2-2-3.4-1.9c-1.6,0.1-2.5,1.2-3.1,2.6c-0.3,0.8-0.4,1.7-0.8,2.3
	c-0.4,0.6-1.2,0.9-1.8,1.4c-0.5-0.7-1.4-1.6-1.3-2.2c0.4-2.6,1.5-5,3.6-6.6c1.6-1.2,5.4-1.2,7.1,0.3c1.2,1.1,2.1,2.6,2.8,4
	C39.1,358.2,38.8,359.5,37.3,360.5L37.3,360.5z"/>
<path class="st12" d="M802.5,67c1.2-0.2,2.1,0.5,2.8,1.6c1,1.8,0.5,5-1,6.5c-1.6,1.5-4.2,1.7-6.1,0.4c-0.5-0.3-0.9-0.9-1-1.4
	C796.3,71.5,799.6,67.1,802.5,67z"/>
<path class="st3" d="M102.3,240.9c4.8,0.2,8.1,4.6,8.2,8.6c0,0.5-0.8,1.1-1.4,1.4c-0.2,0.1-1.1-0.7-1.2-1.2
	c-0.6-2.4-1.6-4.4-4.1-5.3c-1.5-0.6-2.7-0.1-3.2,1.4c-0.2,0.6-0.3,1.3-0.7,1.8c-0.3,0.5-1,1.2-1.3,1.1c-0.6-0.2-1.3-0.8-1.4-1.4
	C96.3,244.5,99.3,241,102.3,240.9L102.3,240.9z"/>
<path class="st13" d="M79.4,350.3c-1.4-1.9-2.3-3.6-3.5-4.9c-2.4-2.5-4.3-2.1-5.9,0.9c-0.1,0.2-0.1,0.6-0.3,0.6
	c-0.6,0.3-1.4,0.8-1.8,0.6c-0.4-0.2-0.9-1.2-0.8-1.7c1.3-6.1,6.2-6.6,10.4-3.4c1.2,0.9,2.2,2.5,2.6,3.9
	C80.5,347.4,79.8,348.7,79.4,350.3L79.4,350.3z"/>
<path class="st13" d="M23.4,259.5c-0.7-1.2-1.5-2.4-2.2-3.6c-1.2-1.9-2.5-1.9-3.8-0.1c-0.5,0.7-0.6,1.6-1.1,2.2
	c-0.3,0.4-1,0.8-1.5,0.8c-0.3,0-0.8-0.7-0.9-1.2c-0.5-3.5,1.3-6.1,4.4-6.7c2.8-0.6,5.8,1.5,6.4,4.6c0.2,1.3-0.4,2.7-0.6,4
	C23.8,259.5,23.6,259.5,23.4,259.5L23.4,259.5z"/>
<path class="st3" d="M56.3,241.7c-1.9,1.9-2.2,1.9-3.4,0c-0.5-0.8-0.9-1.5-1.4-2.3c-1.1-1.9-2.9-1.9-4.1-0.1
	c-0.8,1.1-1.4,2.3-2.1,3.4c-2.1-0.9-2.6-2.1-1.7-3.9c1.3-2.6,3.2-4.3,6.2-3.9c1.2,0.1,2.5,0.8,3.3,1.7
	C54.5,238.1,55.3,240,56.3,241.7L56.3,241.7z"/>
<path class="st12" d="M774.4,141.2c0-2.4,2.2-5,4.2-4.9c2.1,0.1,3.7,1.8,3.7,4.1c0,2.9-1.8,4.8-4.5,4.8
	C775.7,145.2,774.4,143.7,774.4,141.2z"/>
<path class="st10" d="M57.7,775.6c-0.9,0.7-1.7,1.5-2.6,2.2c-1.7,1.2-3.5,2.4-5.2,3.6c-0.7-1.5-1.7-2.7-1.5-4.6
	c0.2-2.3,1.5-4.2,3.6-4.8c1.9-0.5,4,0.4,5.2,2.3C57.3,774.7,57.5,775.1,57.7,775.6L57.7,775.6z"/>
<path class="st3" d="M66.6,319.4c-1.8-1.9-0.7-4.6,2.2-5.4c4.4-1.2,9.3,2.3,9.5,6.9c0,0.6-0.5,1.3-0.8,1.9c-0.5-0.4-1-0.8-1.4-1.2
	c-0.9-1.1-1.6-2.5-2.8-3.3C70.9,316.5,68.8,318,66.6,319.4L66.6,319.4z"/>
<path class="st13" d="M64.1,368.5c-0.5-0.6-0.9-1.1-1.3-1.6c-1.3-1.7-3.5-1.5-4.5,0.4c-0.2,0.5-0.5,1-0.9,1.3
	c-0.5,0.4-1.3,0.8-1.7,0.6c-0.5-0.2-1.1-1-1.2-1.5c-0.4-2.1,0.4-3.6,2.9-4.7c1.3-0.6,2.7-0.9,4.1-1c1.7-0.2,2.7,1,3.3,2.5
	C65.4,365.9,65.4,367.2,64.1,368.5L64.1,368.5z"/>
<path class="st13" d="M58.3,303c-1.2,2.2-1.2,2.2-3.1,0.8c-0.6-0.5-1.2-0.9-1.9-1.3c-2.4-1.6-4.1,0.3-6,1.2
	c-0.6,0.3-1.4,0.3-2.1,0.5c-0.1-0.8-0.4-1.7-0.1-2.3c0.7-1.6,2.3-2.5,4-2.9C53,298.2,56.4,299.2,58.3,303L58.3,303z"/>
<path class="st11" d="M809.3,221.8c-0.5-0.2-0.9-0.4-1.3-0.6c-0.2-3.4-0.4-6.8-0.5-10.2c-0.1-4.9,1.7-8.6,7.9-6.9
	c4.1,1.2,6.9,4.2,9.7,7.3c2.2,2.4,4.6,4.6,6.9,6.9c0.1,0.6,0.2,1.1,0.3,1.7c-3.2-3.3-6.2-6.7-9.5-9.8c-2.1-1.9-4.4-3.8-6.9-5
	c-4-2-7,0.2-7,4.7C808.9,213.9,809.2,217.9,809.3,221.8L809.3,221.8z"/>
<path class="st24" d="M80.5,288c-1.1-0.7-2.2-1.4-3.2-2.1c-2.6-1.6-2.9-1.6-4.8,0.7c-0.3,0.4-1.1,1-1.4,0.8
	c-0.5-0.2-0.9-0.9-1.1-1.4c-0.9-3.2,0.8-5.2,4.1-4.8c2.6,0.4,4.8,1.6,6.4,3.6c0.5,0.6,0.6,1.7,0.8,2.6C81,287.7,80.8,287.8,80.5,288
	L80.5,288z"/>
<path class="st13" d="M63.4,210.7c-1.2-1.1-2.3-1.9-1.6-3.8c0.9-2.4,2.3-3.9,4.8-4.4c2.3-0.4,4.3,0.4,5.8,2c0.5,0.5,0.7,1.5,0.7,2.3
	c-0.1,0.9-0.7,1.3-1.6,0.6c-0.2-0.2-0.4-0.4-0.6-0.6c-2.4-2.2-5.1-1.7-6.3,1.3C64.2,208.9,63.8,209.8,63.4,210.7L63.4,210.7z"/>
<path class="st10" d="M29.2,824.7c0,1.9-1.8,4.1-3.3,4c-2.1,0-4.1-2-4-4.2c0-1.8,1.7-3.4,3.5-3.3C27.6,821.4,29.3,822.8,29.2,824.7z
	"/>
<path class="st13" d="M15.7,337c-1.5,0.7-2.8,1.4-4.2,1.8c-0.5,0.2-1.5-0.1-1.9-0.5c-0.3-0.3-0.1-1.3,0.2-1.7c1.4-2,3.3-3.1,5.8-3.1
	c1.8,0,3.2,0.5,3.8,2.3c0.5,1.6-0.3,2.9-1.8,3.8C17,338.7,16.4,337.9,15.7,337z"/>
<path class="st12" d="M791.9,91.2c-2.1,0-3.5-1.1-3.5-2.7c0-2.3,2.5-5,4.8-5.1c0.8,0,2.4,2.9,2.3,4.2
	C795.5,89.4,793.7,91.2,791.9,91.2L791.9,91.2z"/>
<path class="st12" d="M837.1,51.1c-1.1-0.9-1.9-1.4-2.5-2.1c-0.2-0.2-0.1-1.2,0-1.2c2-0.5,4.1-0.9,6.1-1.3c0.9,4.1-0.2,6.4-3.5,7.5
	c-2.2,0.7-3.5-0.3-3.3-2.6C834.8,51.2,835.6,51.2,837.1,51.1L837.1,51.1z"/>
<path class="st25" d="M45.1,812.6c3.2,1.2,6.5,1,9.7,0c0.6,2.8-1,4.9-3.8,5C47,817.8,45.4,816.4,45.1,812.6z"/>
<path class="st26" d="M732.6,30.8c0.1-3.3,0.6-3.7,3.3-3.6c1.4,0.1,2.7,1.7,2.7,3.5c0,1.8-2.5,4-4.4,3.6
	C732.4,33.8,732.6,32.2,732.6,30.8L732.6,30.8z"/>
<path class="st27" d="M43.8,189c-0.4-1.1-0.8-2.1-1.2-3.2c3.4,0,5.1,1.2,6.1,4c0.5,1.4,0.1,2.5-0.7,3.6
	C46.3,192.1,46.9,188.8,43.8,189L43.8,189z"/>
<path class="st18" d="M839.6,296.1c0.3,0.1,0.6,0.2,0.9,0.4c-1.7,5.3-2.6,10.6-2.4,16.2c-0.3,0.6-0.7,1.2-1.1,1.8
	c-0.3-6,0.5-11.9,2.2-17.7C839.3,296.5,839.4,296.3,839.6,296.1z"/>
<path class="st28" d="M404,840.4c2.9,0.7,5.6,0.8,8.3-0.7c0.4-0.2,0.9,0,1.4,0c-0.3,0.3-0.6,0.9-1,1c-1.8,0.3-3.6,0.5-5.4,0.8
	c-0.9,0.1-1.7,0.4-2.7,0.7C404.4,841.6,404.2,841,404,840.4L404,840.4z"/>
<path class="st28" d="M531.5,687.3v-16.5c0.2,1.7,0.4,3.5,0.5,5.2c0.1,3.2,0,6.5,0,9.8C531.9,686.3,531.6,686.8,531.5,687.3
	L531.5,687.3z"/>
<path class="st29" d="M286.3,806.3c-0.4-0.6-0.9-1.1-1-1.7c-0.1-0.2,0.8-1,1.1-0.9c0.5,0.2,1.1,0.7,1.3,1.2c0.1,0.4-0.4,0.9-0.7,1.4
	C286.7,806.3,286.5,806.3,286.3,806.3L286.3,806.3z"/>
<path class="st28" d="M22.8,764.4c2.9,0,5.8,0,8.6,0C28.5,765.4,25.6,765.7,22.8,764.4z"/>
<path class="st30" d="M594.7,805.6c-0.8,0.6-1.4,1.2-2,1.3c-0.3,0-0.8-0.8-1.2-1.3c0.5-0.4,0.9-1,1.3-1.1
	C593.4,804.5,593.9,805.1,594.7,805.6z"/>
<path class="st31" d="M583.7,798.7c0.1-0.7,0-1.4,0.3-2c0.1-0.2,1-0.2,1.4,0c0.3,0.2,0.7,1.1,0.6,1.2c-0.5,0.5-1.1,0.7-1.7,1.1
	C584.1,798.9,583.9,798.8,583.7,798.7L583.7,798.7z"/>
<path class="st32" d="M583.9,802.6c0.8-0.5,1.3-1.1,1.6-1c0.5,0.2,0.9,0.8,1.4,1.3c-0.5,0.4-0.9,1-1.4,1
	C585.1,803.9,584.6,803.2,583.9,802.6L583.9,802.6z"/>
<path class="st33" d="M294.1,793.7c-0.7-0.9-1.4-1.4-1.3-1.8c0.1-0.5,0.8-1,1.3-1.1c0.3,0,1,0.7,1.1,1
	C295.2,792.4,294.7,792.8,294.1,793.7L294.1,793.7z"/>
<path class="st34" d="M295.2,830.1c-0.5-0.9-0.9-1.4-0.8-1.7c0.1-0.5,0.7-0.8,1.1-1.2c0.4,0.4,1.1,0.8,1.1,1.3
	C296.6,828.8,295.9,829.3,295.2,830.1L295.2,830.1z"/>
<path class="st35" d="M562.9,808c-0.9,0.6-1.3,1.2-1.8,1.2c-0.4,0-0.8-0.6-1.3-1c0.4-0.4,0.7-1.1,1.2-1.2
	C561.5,807,562,807.5,562.9,808L562.9,808z"/>
<path class="st36" d="M596.7,821.4c-0.9,0.6-1.4,1.1-1.9,1.1c-0.3,0-0.9-0.7-1-1.2c0-0.3,0.6-1,1-1
	C595.3,820.3,595.8,820.8,596.7,821.4L596.7,821.4z"/>
<path class="st34" d="M294.7,801.9c-0.8,0.5-1.3,1.2-1.7,1.1c-0.5-0.1-0.9-0.7-1.3-1.1c0.5-0.4,1-0.9,1.5-1.1
	C293.5,800.8,294,801.4,294.7,801.9L294.7,801.9z"/>
<path class="st37" d="M308.5,831c-0.2-0.7-0.5-1.3-0.5-2c0-0.2,0.9-0.5,1.3-0.5c0.4,0,1,0.6,1,0.8c-0.2,0.6-0.6,1.2-1,1.8
	C309.1,831.1,308.8,831,308.5,831L308.5,831z"/>
<path class="st30" d="M303.5,828.8c-0.1-0.7-0.4-1.4-0.4-2c0-0.2,0.8-0.5,1.1-0.5c0.4,0.1,1.1,0.8,1,0.9c-0.3,0.6-0.8,1.2-1.2,1.7
	C303.9,828.9,303.7,828.9,303.5,828.8L303.5,828.8z"/>
<path class="st37" d="M294.5,836.5c-0.5-1-1-1.5-1.1-2.1c0-0.3,0.8-1,1.1-0.9c0.5,0.1,1.1,0.7,1.1,1.2
	C295.7,835.2,295.1,835.7,294.5,836.5L294.5,836.5z"/>
<path class="st38" d="M317.4,805.6c-0.9,0.5-1.4,1-1.9,1.1c-0.4,0-0.8-0.6-1.1-0.9c0.4-0.5,0.7-1.2,1.2-1.3
	C315.9,804.5,316.4,805.1,317.4,805.6L317.4,805.6z"/>
<path class="st39" d="M314.6,827.7c-0.5,0.3-1,0.8-1.4,0.7c-0.5-0.1-0.9-0.7-1.3-1.2c0.4-0.4,0.8-1.2,1.2-1.2c0.5,0,1,0.6,1.5,0.9
	C314.6,827.2,314.6,827.4,314.6,827.7L314.6,827.7z"/>
<path class="st40" d="M579.1,819c-0.9,0.5-1.5,1-1.9,0.9c-0.4-0.1-0.8-0.8-0.9-1.3c0-0.3,0.7-0.9,1-0.9
	C577.8,817.9,578.3,818.4,579.1,819L579.1,819z"/>
<path class="st41" d="M285.6,808.2c-1.6,1.1-2.5,1.5-3.2,0.2c-0.1-0.3,0.6-1.3,0.7-1.3C283.9,807.3,284.6,807.7,285.6,808.2
	L285.6,808.2z"/>
<path class="st29" d="M316,809.3c-0.8,0.7-1.3,1.4-1.7,1.4c-0.5,0-0.9-0.8-1.3-1.2c0.4-0.4,0.8-1.1,1.2-1.1
	C314.6,808.3,315.1,808.9,316,809.3L316,809.3z"/>
<path class="st37" d="M293.1,800.4c-0.2-0.7-0.5-1.3-0.6-2c0-0.2,0.9-0.6,1.3-0.5c0.4,0,1.1,0.7,1,0.9c-0.3,0.6-0.8,1.2-1.2,1.7
	C293.5,800.5,293.3,800.4,293.1,800.4L293.1,800.4z"/>
<path class="st34" d="M311.7,821c-0.5-0.9-1-1.4-0.9-1.7c0.2-0.5,0.8-1.1,1.2-1.1c0.4,0,1.2,0.8,1.2,1
	C313,819.7,312.5,820.2,311.7,821L311.7,821z"/>
<path class="st42" d="M279.7,789.6c-0.5-0.9-1-1.4-0.9-1.9c0-0.4,0.8-0.9,1.3-0.9c0.4,0,1.1,0.8,1.1,1
	C281,788.4,280.4,788.8,279.7,789.6L279.7,789.6z"/>
<path class="st42" d="M291.7,840.1c-0.9,0.6-1.4,1.3-1.8,1.2c-0.5-0.1-0.9-0.7-1.3-1.2c0.4-0.4,0.8-1.1,1.3-1.2
	C290.2,838.9,290.7,839.5,291.7,840.1z"/>
<path class="st39" d="M560.1,801.8c-0.8,0.7-1.3,1.3-1.8,1.4c-0.3,0.1-0.8-0.7-1.2-1c0.4-0.5,0.8-1.1,1.3-1.3
	C558.7,800.7,559.2,801.3,560.1,801.8L560.1,801.8z"/>
<path class="st43" d="M310.2,809c-1.1,0.5-1.6,0.9-2.2,1c-0.2,0-0.8-0.9-0.7-1.3c0.1-0.4,0.8-0.9,1.1-0.9
	C308.9,807.8,309.3,808.4,310.2,809L310.2,809z"/>
<path class="st36" d="M301.1,792c-1,0.5-1.5,1.1-2,1c-0.4-0.1-0.9-0.8-1-1.3c-0.1-0.2,0.7-0.9,1.1-0.9
	C299.7,790.9,300.2,791.4,301.1,792L301.1,792z"/>
<path class="st33" d="M585.6,807.2c0.6,0.8,1.2,1.2,1.2,1.7c0,0.4-0.7,1.1-1,1.1c-0.5-0.1-1.2-0.6-1.3-1
	C584.4,808.5,585,808,585.6,807.2L585.6,807.2z"/>
<path class="st30" d="M301.4,814.8c-0.5-0.8-1-1.3-1-1.8c0-0.4,0.8-1,1.1-1c0.5,0.1,1.2,0.7,1.3,1.1
	C302.8,813.5,302.1,814,301.4,814.8L301.4,814.8z"/>
<path class="st37" d="M584.6,816.5c-0.8,0.8-1.7,1.3-2.6,0.3c-0.2-0.2,0.1-1.3,0.4-1.5C583.5,814.8,584.3,815.2,584.6,816.5
	L584.6,816.5z"/>
<path class="st44" d="M299.7,820.5c-0.5-0.7-1.2-1.3-1.1-1.5c0.2-0.5,0.8-1,1.4-1.2c0.2-0.1,1.1,0.7,1,1
	C300.8,819.3,300.3,819.8,299.7,820.5L299.7,820.5z"/>
<path class="st45" d="M591.2,819.3c-0.8,0.5-1.2,1.1-1.6,1.1c-0.5,0-0.9-0.6-1.3-0.9c0.4-0.4,0.7-1.2,1.2-1.2
	C589.9,818.2,590.4,818.8,591.2,819.3z"/>
<path class="st46" d="M319.2,821.3c-0.9,0.6-1.4,1.2-1.8,1.2c-0.5,0-0.8-0.8-1.3-1.2c0.4-0.3,0.8-1,1.2-1
	C317.8,820.3,318.3,820.8,319.2,821.3L319.2,821.3z"/>
<path class="st32" d="M306,820.5c0.9,0.5,1.6,0.8,2.2,1.2c-0.4,0.5-0.7,1.3-1.1,1.3C305.6,823.2,305.7,822.1,306,820.5z"/>
<path class="st42" d="M274.6,794.3c-0.8,0.6-1.3,1.3-1.8,1.3c-0.4,0-0.8-0.8-1.2-1.3c0.5-0.4,0.9-0.9,1.4-1
	C273.3,793.2,273.8,793.7,274.6,794.3z"/>
<path class="st47" d="M581.2,828.9c-0.3-0.7-0.7-1.4-1-2.1c0.1-0.2,0.2-0.4,0.4-0.5c0.7,0.2,1.4,0.4,2,0.6c-0.2,0.7-0.4,1.3-0.6,2
	C581.7,828.9,581.5,828.9,581.2,828.9L581.2,828.9z"/>
<path class="st31" d="M574.6,828.2c-0.8,0.7-1.2,1.3-1.8,1.3c-0.3,0-0.9-0.7-1-1.2c0-0.3,0.6-1.1,0.9-1.1
	C573.2,827.2,573.7,827.7,574.6,828.2L574.6,828.2z"/>
<path class="st48" d="M563.4,786.5c0.1-0.8,0.2-1.5,0.3-2.2c0.6,0.2,1.2,0.4,1.9,0.6c-0.4,0.6-0.8,1.3-1.2,1.9
	C564,786.7,563.7,786.6,563.4,786.5L563.4,786.5z"/>
<path class="st49" d="M301.1,829.9c-0.8,0.6-1.4,1-1.9,1.4c-0.3-0.4-0.9-0.9-0.9-1.3c0.1-0.4,0.7-1,1.1-1.1
	C299.8,828.8,300.3,829.4,301.1,829.9L301.1,829.9z"/>
<path class="st31" d="M292.9,786.2c-0.9,0.5-1.4,1-1.9,1.1c-0.3,0-1-0.7-1-1.1c0-0.4,0.6-1.1,1-1.1
	C291.5,785.1,292,785.6,292.9,786.2L292.9,786.2z"/>
<path class="st39" d="M308.9,798.2c-0.8,0.1-1.6,0.2-2.4,0.3c0-0.5-0.3-1.2,0-1.5c1-1.3,1.7-0.1,2.4,0.5
	C308.9,797.8,308.9,798,308.9,798.2L308.9,798.2z"/>
<path class="st32" d="M589.3,826.9c0.4-0.3,0.9-0.9,1.2-0.8c0.5,0.1,1,0.7,1.4,1.1c-0.5,0.4-0.9,1.1-1.5,1.2
	c-0.5,0.1-1.1-0.3-1.7-0.4C588.9,827.6,589.1,827.2,589.3,826.9L589.3,826.9z"/>
<path class="st29" d="M571.8,836.3c-0.5-0.7-1.1-1.2-1.1-1.5c0.1-0.5,0.7-1.2,1-1.2c0.5,0,0.9,0.6,1.4,0.9
	C572.8,835,572.5,835.5,571.8,836.3L571.8,836.3z"/>
<path class="st36" d="M303.6,835.3c0.6,0.8,1,1.2,1.4,1.7c-0.5,0.4-0.9,0.9-1.4,1c-0.2,0.1-0.9-0.7-0.9-1.1
	C302.6,836.5,303.1,836.1,303.6,835.3L303.6,835.3z"/>
<path class="st29" d="M593.2,797.9c-1,0.5-1.5,1-2,0.9c-0.4-0.1-0.8-0.7-1.2-1.2c0.5-0.3,0.9-0.8,1.4-0.8
	C591.9,796.8,592.4,797.3,593.2,797.9z"/>
<path class="st36" d="M593.8,814.1c0.4-0.5,0.9-1,1.3-1.5c0.5,0.5,0.9,0.9,1.4,1.3c-0.6,0.3-1.3,0.7-1.9,1
	C594.3,814.7,594.1,814.4,593.8,814.1z"/>
<path class="st29" d="M274.8,807.8c-0.5-0.9-1.1-1.4-1-1.8c0-0.3,0.8-0.9,1.1-0.9c0.5,0.1,0.9,0.6,1.3,1
	C275.8,806.5,275.5,807,274.8,807.8z"/>
<path class="st50" d="M547.3,803.8c-0.5-0.8-1-1.4-0.9-1.6c0.2-0.5,0.8-1,1.3-1c0.3,0,1,0.7,1,1C548.6,802.7,548,803,547.3,803.8
	L547.3,803.8z"/>
<path class="st29" d="M319.2,814c-0.5,0.2-1.1,0.7-1.5,0.6c-0.4-0.1-0.8-0.7-1.1-1.2c0.4-0.3,0.8-0.9,1.2-0.9c0.5,0,1,0.5,1.4,0.8
	C319.2,813.6,319.2,813.8,319.2,814L319.2,814z"/>
<path class="st47" d="M307.3,804.4c0-1.2-0.3-2.1,0-2.5c1-1,1.6-0.1,2.3,0.8C309.1,803.2,308.5,803.6,307.3,804.4L307.3,804.4z"/>
<path class="st51" d="M578.5,829.9c-0.9,0.7-1.4,1.3-1.8,1.2c-0.5-0.1-0.9-0.7-1.4-1.1c0.4-0.4,0.8-1,1.3-1.1
	C577.1,828.8,577.6,829.4,578.5,829.9L578.5,829.9z"/>
<path class="st29" d="M299.3,812.9c-1.1-0.2-1.9-0.4-2.7-0.5c0.1-0.5,0.1-1.3,0.4-1.5C298.3,810.4,298.9,811.1,299.3,812.9
	L299.3,812.9z"/>
<path class="st30" d="M557,789.5c-0.3-0.9-0.5-1.5-0.6-2.2c0-0.2,0.7-0.7,0.9-0.6c0.6,0.3,1.1,0.8,1.8,1.2
	C558.3,788.5,557.9,788.8,557,789.5L557,789.5z"/>
<path class="st29" d="M568.8,840.7h-2.6c0-0.5-0.1-1.2,0.1-1.4C567.4,838.5,568.1,839.1,568.8,840.7z"/>
<path class="st42" d="M286.1,786.7c-0.1-0.7-0.3-1.3-0.2-1.9c0-0.2,0.9-0.5,1.3-0.5c0.3,0,0.8,0.8,0.8,1c-0.3,0.6-0.8,1.1-1.3,1.6
	C286.5,786.8,286.3,786.7,286.1,786.7z"/>
<path class="st50" d="M284.6,794.2c0.4,0.9,0.9,1.4,0.9,1.9c0,0.4-0.8,1-1,0.9c-0.5-0.2-0.9-0.7-1.3-1.1
	C283.5,795.5,283.9,795,284.6,794.2L284.6,794.2z"/>
<path class="st50" d="M563.7,796c-0.9,0.5-1.5,1-1.9,1s-0.8-0.7-1.2-1.2c0.4-0.3,0.8-1,1.2-1C562.3,794.9,562.8,795.4,563.7,796z"/>
<path class="st30" d="M582.7,836.9c-0.7,0.6-1.1,1.2-1.4,1.2c-0.5-0.1-1-0.6-1.5-0.9c0.5-0.4,0.8-1,1.4-1.3
	C581.4,835.8,581.9,836.4,582.7,836.9L582.7,836.9z"/>
<path class="st34" d="M570.3,786.4c-1,0.5-1.6,1-2,0.9c-0.4-0.1-0.9-0.8-0.9-1.3c0-0.3,0.8-0.9,1.2-0.9
	C569,785.1,569.4,785.7,570.3,786.4L570.3,786.4z"/>
<path class="st33" d="M563.8,806.6c-0.4-0.8-0.9-1.3-0.9-1.9c0-0.4,0.8-1.1,1-1c0.5,0.2,1.2,0.7,1.2,1.1
	C565.1,805.3,564.4,805.8,563.8,806.6L563.8,806.6z"/>
<path class="st52" d="M309.4,833.9c-0.8,0.6-1.3,1.3-1.8,1.3c-0.4,0-0.9-0.7-1.3-1c0.4-0.3,0.8-0.9,1.2-1
	C308,833.1,308.5,833.5,309.4,833.9L309.4,833.9z"/>
<path class="st32" d="M571,817.3c0.6,0.4,1.2,0.9,1.7,1.3c-0.5,0.4-1,0.9-1.5,1.3c-0.3-0.7-0.7-1.3-1-1.9
	C570.4,817.8,570.7,817.6,571,817.3L571,817.3z"/>
<path class="st32" d="M294.4,837.8c0.9-0.6,1.3-1,1.7-1c0.5,0,0.9,0.5,1.3,0.8c-0.4,0.4-0.8,1-1.3,1.2
	C295.8,838.9,295.3,838.3,294.4,837.8L294.4,837.8z"/>
<path class="st53" d="M551.5,805c0.7,0.2,1.4,0.2,2,0.5c0.1,0,0.1,1-0.2,1.2c-0.3,0.3-1.2,0.6-1.3,0.4c-0.4-0.4-0.6-1.1-0.8-1.7
	C551.3,805.3,551.4,805.2,551.5,805L551.5,805z"/>
<path class="st50" d="M290,792.3c-0.5,0.3-1,0.8-1.5,0.8c-0.4,0-0.8-0.7-1.2-1.1c0.4-0.3,0.8-0.9,1.2-0.9c0.5,0,1,0.4,1.5,0.6
	C290,791.9,290,792.1,290,792.3z"/>
<path class="st53" d="M565,791c0.7,0.1,1.4,0.1,2,0.4c0.2,0.1,0.2,1,0,1.2c-0.3,0.3-1.1,0.7-1.3,0.5c-0.5-0.4-0.7-1-1-1.6
	C564.8,791.3,564.9,791.2,565,791L565,791z"/>
<path class="st48" d="M269.9,800.5c0.6,0.7,1.2,1.2,1.2,1.6c0,0.4-0.8,1-1.1,1c-0.5-0.1-1-0.6-1.3-1.1
	C268.6,801.8,269.3,801.3,269.9,800.5L269.9,800.5z"/>
<path class="st35" d="M291.6,822.4c0.6,0.4,1.2,0.8,1.9,1.2c-0.5,0.4-1,0.8-1.5,1.2c-0.4-0.5-0.8-1-1.2-1.5
	C291,822.9,291.3,822.7,291.6,822.4z"/>
<path class="st29" d="M549.9,795.6c-0.2-0.5-0.6-1-0.6-1.6c0-0.3,0.8-0.9,1-0.8c0.5,0.2,1.2,0.7,1.3,1.2c0.1,0.5-0.4,1.2-0.6,1.8
	C550.6,796,550.2,795.8,549.9,795.6L549.9,795.6z"/>
<path class="st50" d="M315.2,798.7c-0.9,0.2-1.9,0.8-2.2-0.6c-0.1-0.3,0.4-0.8,0.6-1.2c0.7,0.4,1.3,0.8,2,1.2
	C315.4,798.2,315.3,798.4,315.2,798.7L315.2,798.7z"/>
<path class="st34" d="M279.6,802.4c0.4-0.5,0.8-1.1,1.2-1.7c0.5,0.4,1,0.8,1.5,1.2c-0.6,0.4-1.3,0.8-1.9,1.2
	C280.1,802.9,279.8,802.7,279.6,802.4L279.6,802.4z"/>
<path class="st42" d="M303.2,790c-0.6-0.7-1.1-1.1-1.3-1.6c-0.1-0.2,0.7-1,1.1-0.9c0.5,0,1.1,0.5,1.3,1
	C304.3,788.7,303.7,789.3,303.2,790L303.2,790z"/>
<path class="st33" d="M590.2,810.7c0.4-1.2,0.6-1.8,1-2.3c0.1-0.2,1,0.1,1.4,0.4c0.2,0.2,0.3,1.1,0.2,1.2
	C592.1,810.2,591.4,810.3,590.2,810.7z"/>
<path class="st39" d="M571.4,823.8c-0.9,0.5-1.4,1-1.9,0.9c-0.3,0-0.9-0.8-0.8-1.2s0.7-1,1.1-1C570.1,822.6,570.5,823.1,571.4,823.8
	L571.4,823.8z"/>
<path class="st34" d="M310.8,812.1c0.6,0.8,1.3,1.3,1.2,1.5c-0.2,0.5-0.8,1-1.3,1.1c-0.3,0.1-1-0.6-1-1
	C309.7,813.3,310.2,812.8,310.8,812.1L310.8,812.1z"/>
<path class="st50" d="M265.6,805.4c-0.1,0.1-0.3,0.2-0.5,0.3c-0.8-0.6-1.8-1.3-0.6-2.3c0.3-0.3,1.1,0,1.6,0
	C266,804.2,265.8,804.8,265.6,805.4L265.6,805.4z"/>
<path class="st35" d="M565.1,808.7c0.6,0.4,1.3,0.8,1.9,1.2c-0.5,0.4-1,0.8-1.5,1.2c-0.4-0.5-0.8-1-1.2-1.6
	C564.6,809.3,564.9,809,565.1,808.7L565.1,808.7z"/>
<path class="st29" d="M557.7,792.5c-0.9,0.5-1.4,1-1.8,1c-0.5-0.1-0.9-0.7-1.3-1.1c0.4-0.3,0.8-0.9,1.2-0.9
	C556.3,791.5,556.8,792,557.7,792.5L557.7,792.5z"/>
<path class="st54" d="M309.1,792.9c-0.1-1.7-0.3-2.7,1.1-2.5c0.4,0.1,0.8,0.8,1.1,1.2C310.7,791.9,310.1,792.3,309.1,792.9
	L309.1,792.9z"/>
<path class="st37" d="M589.2,791.4c-0.8,0.5-1.3,1-1.6,1c-0.5-0.1-0.9-0.6-1.4-1c0.5-0.4,0.9-0.9,1.4-1
	C588,790.3,588.4,790.9,589.2,791.4z"/>
<path class="st30" d="M582.9,821.2c1.7-0.5,2.6-0.5,2.7,0.8c0,0.3-1.1,1-1.3,0.9C583.8,822.6,583.4,821.9,582.9,821.2z"/>
<path class="st52" d="M585.2,830c0.4-0.5,0.9-1,1.3-1.6c0.4,0.4,0.9,0.8,1.3,1.2c-0.6,0.4-1.2,0.8-1.8,1.3
	C585.8,830.6,585.5,830.3,585.2,830L585.2,830z"/>
<path class="st55" d="M292.4,808.2c0.5,0.7,1.1,1.3,1,1.5c-0.2,0.5-0.8,1-1.2,1c-0.4,0-1.1-0.7-1.1-1
	C291.2,809.3,291.8,808.9,292.4,808.2L292.4,808.2z"/>
<path class="st48" d="M294.1,817.1c0.5,0.7,1.2,1.4,1.1,1.5c-0.3,0.5-0.9,0.9-1.4,1c-0.3,0.1-1-0.7-1-1
	C292.9,818.2,293.5,817.8,294.1,817.1L294.1,817.1z"/>
<path class="st38" d="M541.9,803.1c0.6,0.2,1.3,0.4,1.8,0.8c0.1,0.1,0.1,0.9-0.2,1c-0.4,0.3-1.3,0.6-1.4,0.4
	c-0.4-0.5-0.5-1.1-0.7-1.7C541.6,803.4,541.7,803.3,541.9,803.1L541.9,803.1z"/>
<path class="st48" d="M288.5,811.6c-0.6-0.7-1-1.1-1.4-1.5c0.4-0.3,0.8-1,1.2-0.9c0.5,0,1.1,0.5,1.3,1
	C289.6,810.3,289,810.9,288.5,811.6L288.5,811.6z"/>
<path class="st29" d="M307.5,816.5c-0.8,0.4-1.4,0.8-1.8,0.7c-0.4-0.1-0.8-0.8-1.1-1.2c0.4-0.3,0.9-0.9,1.1-0.9
	C306.3,815.3,306.7,815.9,307.5,816.5L307.5,816.5z"/>
<path class="st44" d="M572,837.5c0.6-0.2,1.2-0.6,1.8-0.7c0.2,0,0.8,0.5,0.8,0.8c0,0.4-0.4,1.1-0.6,1.1c-0.7,0-1.3-0.3-2-0.5
	C572,837.9,572,837.7,572,837.5z"/>
<path class="st36" d="M303.3,797.1c-1,0.5-1.5,1-2,1c-0.3,0-0.9-0.7-0.9-1.1c0-0.3,0.7-0.9,1.1-0.9
	C301.9,796.1,302.4,796.6,303.3,797.1L303.3,797.1z"/>
<path class="st50" d="M588.2,815.2c-0.6-0.7-1.1-1.1-1.2-1.6c0-0.2,0.8-1,1.1-0.9c0.5,0,1.1,0.6,1.2,1
	C589.4,814,588.8,814.5,588.2,815.2L588.2,815.2z"/>
<path class="st52" d="M278.6,790.8c0.6,0.8,1.2,1.5,1.1,1.6c-0.3,0.5-0.9,0.8-1.4,1c-0.2,0.1-0.9-0.7-0.8-1
	C277.5,792,278,791.6,278.6,790.8L278.6,790.8z"/>
<path class="st29" d="M586.7,834.1c-0.8,0.6-1.3,1.2-1.6,1.1c-0.5-0.1-0.9-0.7-1.3-1.1c0.4-0.3,0.8-0.8,1.2-0.9
	C585.4,833.1,585.9,833.6,586.7,834.1z"/>
<path class="st40" d="M302,803c0.6,0.4,1.1,0.8,1.7,1.1c-0.5,0.4-0.9,0.8-1.4,1.3c-0.4-0.5-0.8-1.1-1.1-1.7
	C301.4,803.5,301.7,803.2,302,803L302,803z"/>
<path class="st28" d="M95.1,71.1c1.8,1.8,3.9,1.6,6.1,1.1c0,0.2,0.2,0.6,0.1,0.7c-1.3,1.1-5.6,0.1-6.3-1.4
	C95,71.3,95.1,71.2,95.1,71.1z"/>
<path class="st28" d="M62.4,58c3.4,0,6.7,0,10.1,0c-0.3,0.1-0.6,0.3-1,0.3c-2.7,0-5.4,0-8.1,0C63,58.4,62.7,58.2,62.4,58z"/>
<path class="st28" d="M809.6,330.9c2.9,0,5.8,0,8.6,0C815.4,331.5,812.5,331.9,809.6,330.9z"/>
<path class="st56" d="M19.8,67.4c0.7,0.8,2.4,0.8,1.8,2.6c-1.6,0.4-1.6-1-2.1-1.8C19.6,67.9,19.7,67.6,19.8,67.4L19.8,67.4z"/>
<path class="st1" d="M83.1,37.2c-4.6,0-7-3.2-5.3-7.5c0.7-1.7,1.7-3.3,2.8-4.7c1.8-2.2,4.7-2.6,7-1.4c2.5,1.3,4,4.5,3.4,7.3
	C90.2,34.4,86.7,37.2,83.1,37.2z"/>
<path class="st1" d="M121,17.4c-0.3,2.6-1.3,5.2-4.1,6.5c-1.2,0.6-2.9,1-4,0.5c-1.8-0.8-2.6-2.8-2.3-4.9c0.4-2.7,3.1-5.6,5.8-6.2
	C119.1,12.7,121.1,14.3,121,17.4L121,17.4z"/>
<path class="st1" d="M142,22.4c-0.1,2.8-3.6,7-6.4,7.5c-0.6,0.1-1.6-0.3-2.1-0.8c-1.5-1.7-2.1-3.7-1.1-6c1.1-2.4,2.7-4.3,5.5-4.6
	C140,18.3,142,20.3,142,22.4L142,22.4z"/>
<path class="st1" d="M66,21.7c0,2.8-2.3,5.4-4.9,5.4c-2.1,0-4-2.2-4-4.5c0-2.3,2.8-5.1,5-5.1C64.3,17.5,66,19.4,66,21.7L66,21.7z"/>
<path class="st42" d="M98.6,44.1c-1.1,0.7-2.2,1.3-3.3,2c-0.2-0.1-0.3-0.2-0.5-0.3c0.5-1,0.9-2.1,1.7-2.9c0.3-0.3,1.4,0.4,2.2,0.6
	C98.7,43.7,98.7,43.9,98.6,44.1L98.6,44.1z"/>
</svg>
