<?xml version="1.0" encoding="UTF-8"?>
<svg id="Layer_1" data-name="Layer 1" xmlns="http://www.w3.org/2000/svg" viewBox="0 0 713.97 530.57">
  <defs>
    <style>
      .cls-1 {
        fill: #49a7a5;
      }

      .cls-1, .cls-2, .cls-3, .cls-4, .cls-5, .cls-6, .cls-7, .cls-8, .cls-9, .cls-10, .cls-11, .cls-12, .cls-13, .cls-14, .cls-15, .cls-16, .cls-17, .cls-18, .cls-19, .cls-20, .cls-21, .cls-22, .cls-23, .cls-24, .cls-25, .cls-26, .cls-27, .cls-28, .cls-29, .cls-30, .cls-31, .cls-32, .cls-33, .cls-34, .cls-35, .cls-36, .cls-37, .cls-38, .cls-39 {
        stroke-width: 0px;
      }

      .cls-2 {
        fill: #49a6a5;
      }

      .cls-3 {
        fill: #e9a19d;
      }

      .cls-4 {
        fill: #4ca8a7;
      }

      .cls-5 {
        fill: #55acab;
      }

      .cls-6 {
        fill: #40a3a2;
      }

      .cls-7 {
        fill: #4da9a7;
      }

      .cls-8 {
        fill: #4faaa8;
      }

      .cls-9 {
        fill: #52abaa;
      }

      .cls-10 {
        fill: #e89c98;
      }

      .cls-11 {
        fill: #edf5f5;
      }

      .cls-12 {
        fill: #e89e9a;
      }

      .cls-13 {
        fill: #e9a3a0;
      }

      .cls-14 {
        fill: #52aba9;
      }

      .cls-15 {
        fill: #4da8a7;
      }

      .cls-16 {
        fill: #eca8a4;
      }

      .cls-17 {
        fill: #4ea9a8;
      }

      .cls-18 {
        fill: #e69692;
      }

      .cls-19 {
        fill: #5aafae;
      }

      .cls-20 {
        fill: #5aafad;
      }

      .cls-21 {
        fill: #54acab;
      }

      .cls-22 {
        fill: #4fa9a8;
      }

      .cls-23 {
        fill: #47a6a4;
      }

      .cls-24 {
        fill: #4ca8a6;
      }

      .cls-25 {
        fill: #40a2a0;
      }

      .cls-26 {
        fill: #df978e;
      }

      .cls-27 {
        fill: #4ba8a6;
      }

      .cls-28 {
        fill: #e69b97;
      }

      .cls-29 {
        fill: #40a3a1;
      }

      .cls-30 {
        fill: #4aa7a5;
      }

      .cls-31 {
        fill: #46a6a4;
      }

      .cls-32 {
        fill: #de988d;
      }

      .cls-33 {
        fill: #eaa5a1;
      }

      .cls-34 {
        fill: #50aaa9;
      }

      .cls-35 {
        fill: #e79d99;
      }

      .cls-36 {
        fill: #51aaa9;
      }

      .cls-37 {
        fill: #50aaa8;
      }

      .cls-38 {
        fill: #4aa7a6;
      }

      .cls-39 {
        fill: #48a6a5;
      }
    </style>
  </defs>
  <path class="cls-18" d="m310.22,530.57c-.61-15.38,1.97-30.06,9.29-43.78,7.73-14.5,19.68-21.89,36.12-22.36,17.89-.51,33.62,4.94,47.35,16.35,11.85,9.84,16.28,23.05,17.13,37.84.23,3.97.04,7.97.04,11.96h-109.93Z"/>
  <path class="cls-25" d="m488.11,530.57c-5.38-11.83-6.56-24.43-5.97-37.14.64-13.75,4.19-26.79,11.61-38.62,9.05-14.45,21.39-24.1,38.5-27.14,8.26-1.47,16.57-.89,24.86-1.03.17.26.43.51.5.79,1.14,4.97-2.39,8.9-3.01,13.5-.92,6.81-1.4,13.66-3.09,20.4-1.83,7.27-4.61,14.62-2.13,22.41.26.82-.42,1.93-.79,3.42-.43-1.33-.67-2.04-1.2-3.66-3.17,16.42-4.93,32.31-11.31,47.05h-47.97Z"/>
  <path class="cls-25" d="m628.02,497.4c3.91,2.72,3.95,5,.01,7.06-.79.42-1.89.07-2,1.51-.65,8.53-4.19,16.36-6.01,24.61h-32.98c1.86-6.54-2.71-12-3.01-18.11-.15-3.07-3.55-4.43-3.22-7.03,1.24-9.85-3.79-18.72-4.05-28.5-.15-5.8-2.54-12.02-3.12-18.19-.14-1.47-.76-3.11-1.77-3.15-2.91-.12-2.73-1.18-1.32-2.92.68-.84.22-1.78.36-2.36,1.21-4.96-2.55-8.74-3.12-13.33-.25-2.05.36-6.67-4.42-7.99-2.24-.62.25-2.01,1.66-2.35,10.66.13,19.61,5.1,28.51,10.14,2.69,1.52,4.93,3.87,8.53,2.96,1.37-.34,2.41.64,2.91,2.12,1.67,4.95,10.76,13.87,15.84,15.85,2.09.81,3.54,2.24,1.75,4.62-.83,1.1-.75,2.18-.18,3.24,2.85,5.34,3.41,11.31,4.77,17.06.44,4.91-.87,9.93.87,14.77Z"/>
  <path class="cls-29" d="m565.02,426.65c-1.42.34-3.9,1.73-1.66,2.35,4.79,1.33,4.17,5.94,4.42,7.99.57,4.59,4.32,8.37,3.12,13.33-.14.57.32,1.52-.36,2.36-1.4,1.73-1.59,2.8,1.32,2.92,1.01.04,1.63,1.68,1.77,3.15.59,6.17,2.97,12.38,3.12,18.19.26,9.78,5.29,18.65,4.05,28.5-.33,2.6,3.07,3.96,3.22,7.03.31,6.11,4.88,11.57,3.01,18.11h-50.97c6.38-14.74,8.14-30.63,11.31-47.05.53,1.62.76,2.33,1.2,3.66.37-1.49,1.05-2.61.79-3.42-2.48-7.79.3-15.13,2.13-22.41,1.69-6.75,2.17-13.59,3.09-20.4.62-4.6,4.15-8.54,3.01-13.5-.07-.29-.33-.53-.5-.79,2.64-1.2,5.28-1.34,7.92,0Z"/>
  <path class="cls-25" d="m713.97,271.72c-3.78-.74-7.48,1.07-11.49-.35-5.4-1.91-7.96-5.35-8.66-10.68,0-4.31,0-8.61,0-12.92.67-7.58,2.59-14.92,4.07-22.35,1.01-5.06.72-10.45-.4-15.58-.72-3.27-.3-5.04,3.55-4.94,4.31.11,8.62-.08,12.93-.14v66.96Z"/>
  <path class="cls-13" d="m211.28,530.57c-.7-1.6-2.2-3.31.2-4.67,1.05-.59,2.29-.39,3.16.66,1.71,2.06-.56,2.79-1.36,4.01h-2Z"/>
  <path class="cls-16" d="m222.27,530.57c.23-1.63-.6-4.08,2.35-3.84,2.58.21,2.77,1.84,1.65,3.84h-4Z"/>
  <path class="cls-33" d="m235.26,530.57c.01-1.48-.02-3.33,1.77-3.51,2.18-.22,2.9,1.63,3.23,3.51h-5Z"/>
  <path class="cls-18" d="m110.42,454.5c-.09,17.44-4.92,31.69-16.8,43.2-7,6.79-15.68,9.48-24.98,10.68-3.11.4-6.25.34-9.35,1.08-13.22,3.18-24.41-2.36-35.62-8.24-12.97-6.81-20.99-17.5-22.87-31.67-1.55-11.69-.93-23.66,2.75-35.2,3.67-11.51,8.45-22.34,18.96-29.27,9.01-5.94,19.05-7.36,29.8-6.68,12.99.83,24.59,5.05,35.32,12.02,12,7.79,19.5,18.67,21.67,32.95.62,4.09,1.58,8.17,1.12,11.12Z"/>
  <path class="cls-25" d="m530.25,96.79c-1.05,16.92-1.9,33.87-4.23,50.68-1.3,9.39-4.54,18.15-12.42,23.99-5.67,4.2-18.95,2.75-24.33-5.59-4.69-7.26-3.23-14.71-1.58-22.03,3.97-17.55,3.65-35.23,3.18-53.02-.35-13.22-.82-26.55.54-39.65,1.12-10.74-.98-21.74,2.57-32.24,1.09-3.22,1.99-6.54,3.47-9.57,2.02-4.16,4.28-8.36,10.14-7.67.76.09,1.59-.38,2.38-.62,12.27-3.69,16.02,2.5,17.87,12.75,1.84,10.16,1.48,20.71,2.09,31.09.12,1.99.21,3.98.32,5.98v45.91Z"/>
  <path class="cls-25" d="m670.82,104.84c.21-3.13,0-6.16-.61-9.31-1.01-5.16-.55-10.7,1.37-15.46,4.03-10.02,16.64-15.51,27.56-8.36,1.07.7,1.37,1.75,1.68,2.91,5.03,18.78,8.3,37.82,6.93,57.32-.75,10.73-1.24,21.57-5.42,31.8-3.86,9.45-11.43,13.66-20.86,14.92-7.3.98-14.22-6.64-14.34-14.82-.12-8.28,1.75-16.4,1.89-24.61.1-5.73,1.81-11.32,1.09-17.08,1.38-5.73.74-11.54.72-17.32Z"/>
  <path class="cls-25" d="m624.2,257.73c-.94,10.98-6.29,18.17-18.91,20.86-7.43,1.58-14.92-4-16.12-11.62-.94-6.03-1.08-11.88-.18-18.05,1.53-10.48,1.96-21.09,1.33-31.78-.65-11.06-.25-22.19-.2-33.28.04-7.77,2.74-11.43,10.15-13.79,4.57-1.45,9.24-2.6,13.86-3.92,3.1-.89,4.83.08,5.89,3.29,2.94,8.93,2.69,18.26,3.88,27.4.17,1.31.2,2.65.3,3.97.04,6.35-.47,12.72.62,19.03.03,8.18.07,16.36.1,24.55-1.24,4.4-.67,8.89-.72,13.35Z"/>
  <path class="cls-25" d="m160.31,511.59c-5.59-7.51-6.73-15.68-5.18-24.92,1.19-7.13,3.42-13.66,7.44-19.37,5.77-8.2,18.04-10.77,30.33-7.19,15.99,4.66,24.43,14.25,25.76,30.64.5,6.14-1.61,12.2-4.36,17.84-.74-.3-2.02-.46-2.14-.92-.6-2.28-1.34-4.23-4.07-2.45-2.6,1.69-4.58-2.87-6.11-1.01-2.79,3.4-5.17.79-7.73.4-.65-.13-1.3-.26-1.96-.39-6.34-3.1-11.5-1.14-13.91,5.29-.22.59-.33,1.23-.58,1.8-.31.7-.34,1.74-1.53,1.61-1.68-.17-1.04-1.2-.75-2.09-1.77.11-.52-6.01-4.25-2.03-.66.7-1.42-.43-2.15-.69-1.15-.41-2.4-1.36-3.31.53-1.09,2.26-3.53,2.21-5.5,2.95Z"/>
  <path class="cls-25" d="m672.18,402.61c-.75,10.54-2.07,21-4.34,31.33-.42,1.9-.87,3.88-2.19,5.47-1.41,1.71-2.53,3.29-.39,5.49,1.28,1.31.23,2.97-1.16,3.72-1.37.74-3.25,1.67-4.34-.31-1.06-1.93-2.21-1.89-4.07-1.34-9.25,2.71-16.08-1.35-21.89-8.1-1.02-1.18-1.11-2.57-.49-3.7,3.23-5.91,1.77-12.26,1.97-18.46.08-2.45.29-4.93.79-7.32,1.78-8.48,1.58-17.11,1.83-25.69.08-2.59,1.5-4.85.94-7.65-.29-1.47,2.24-1.37,3.73-1.25,3.84.33,6.25-.61,6.62-5.21.25-3.1,3.02-5.5,5.24-7.44,2.82-2.47,6.73.18,7.69,4.04.86,3.47.22,8.35,6.01,8.72,1.15.07,2.15,1.61,1.59,2.69-2.25,4.39,1.26,7.43,2.27,11.05.07,4.65.14,9.31.2,13.96Zm-19.88-14.43c-1.7,2.85-1.75,5.09.7,6.81,1.07.75,1.67-.38,2.23-1.16,2.43-3.45-1.21-3.86-2.92-5.65Z"/>
  <path class="cls-25" d="m404.51,406.03c.61-11.69,5.24-16.82,13.68-16.48,10.31.42,17.67,6.84,17.55,16.22-.12,9.09-7.51,16.32-17.07,15.73-6.59-.41-14.84-4.98-14.16-15.47Z"/>
  <path class="cls-6" d="m160.31,511.59c1.97-.74,4.41-.69,5.5-2.95.91-1.88,2.16-.94,3.31-.53.73.26,1.49,1.39,2.15.69,3.73-3.98,2.48,2.15,4.25,2.03-.29.89-.93,1.91.75,2.09,1.18.12,1.21-.92,1.53-1.61.26-.57.36-1.21.58-1.8,2.41-6.44,7.57-8.4,13.91-5.29-1.18.87-2.61,1.65-1.27,3.44.67.9,1.67,1.2,2.56.69,1.56-.91,1.47-2.31.67-3.74,2.57.39,4.94,3.01,7.73-.4,1.53-1.87,3.51,2.7,6.11,1.01,2.73-1.78,3.47.17,4.07,2.45.12.46,1.4.62,2.14.92,1.53,1.21.76,1.78-.35,2.94-1.28,1.33-3.72,1.65-3.86,4.04-1.97-.12-3.55.35-3.93,2.62-.95.53-1.89,1.06-2.84,1.58-1.02-.08-2.03-.16-3.05-.24.77-1.5.79-2.9-.89-3.73-.99-.48-2-.1-2.5.91-.93,1.88.11,3.05,1.61,4-7.29,2.57-14.66,3.16-22.16,1.01-2.19-.08-4.02-1.15-5.87-2.14-.34-3.16-2.54-3.2-4.93-2.93-2-1.42-3.96-2.89-5.22-5.07Z"/>
  <path class="cls-5" d="m677.66,399.83c2.44.11,4.02,1.19,4.04,3.22.02,2.38-1.79,3.24-4.04,3.35-2.89.13-2.56-2.39-2.76-3.83-.24-1.71,1.04-2.97,2.76-2.74Z"/>
  <path class="cls-4" d="m704.69,425.08c-.62,2.15-2.51,3.48-4.25,3.69-1.68.2-3.28-1.64-3.36-3.55-.09-2.16,1.59-3.24,3.59-3.22,1.97.02,3.29,1.3,4.03,3.08Z"/>
  <path class="cls-30" d="m616,432c-.45,2.32-1.97,3.13-4.17,3.34-2.4.23-2.78-1.54-2.93-3.05-.21-2.12,1.44-3.17,3.27-3.36,2.08-.23,3.21,1.19,3.83,3.07Z"/>
  <path class="cls-37" d="m683.86,417.25c-.71,1.67-1.42,3.36-3.66,3.4-2.36.04-3.15-1.29-3.03-3.48.11-1.99.45-3.64,3.05-3.36,2.09.22,3.23,1.38,3.64,3.44Z"/>
  <path class="cls-34" d="m705.82,472.33c-2.28.37-2.57-1.37-2.61-3.06-.03-1.6-.13-3.42,2.37-3.47,2.36-.05,4.03,1.02,4.07,3.29.04,2.02-1.56,3.14-3.83,3.24Z"/>
  <path class="cls-24" d="m660.98,461.95c-.31,1.92-1.44,3.16-3.23,3.19-1.79.04-3.58-.35-3.46-2.97.08-1.75-.05-3.29,2.39-3.37,2.38-.09,3.6,1.13,4.31,3.15Z"/>
  <path class="cls-37" d="m697.84,484.67c.06,2.54-1.96,3.35-3.53,3.66-1.44.29-3.23-.58-3.07-2.8.13-1.78-.14-3.8,2.67-3.78,2.17.02,3.29,1.2,3.93,2.92Z"/>
  <path class="cls-7" d="m672.57,485.8c-.79,1.69-1.85,3.67-3.68,3.55-2.19-.14-2.89-2.23-2.98-4.39-.11-2.73,2.01-2.23,3.43-2.29,1.94-.08,2.85,1.33,3.23,3.14Z"/>
  <path class="cls-17" d="m680.82,437.48c-1.91-.51-3.7-1.29-3.74-3.33-.04-2.12,1.66-3.19,3.64-3.08,1.62.09,3.15.67,3.32,2.86.19,2.52-1.64,2.83-3.22,3.55Z"/>
  <path class="cls-5" d="m648.41,487c-.24,3.44-1.7,4.71-3.57,4.74-2.14.03-2.8-1.76-2.8-3.73,0-1.94.78-3.3,2.88-3.02,1.8.24,3.55.9,3.49,2.02Z"/>
  <path class="cls-27" d="m624.87,367.78c.24,3.39-1.83,3.88-3.77,4.28-2.35.49-2.44-1.59-2.65-2.97-.26-1.7.04-3.45,2.46-3.33,1.83.1,3.57.44,3.96,2.01Z"/>
  <path class="cls-39" d="m645.99,505.13c-.06,3.52-2.55,3.71-4.22,3.88-1.63.17-2.7-1.44-2.75-3.29-.07-2.43,1.46-3.03,3.49-3.08,2.19-.05,3.3,1.07,3.48,2.48Z"/>
  <path class="cls-38" d="m604.85,411.71c1.9.19,3.24.94,3.17,3.02-.08,2.3-1.47,3.83-3.62,3.77-1.88-.05-3.46-1.64-3.2-3.61.23-1.74,1.59-3.13,3.65-3.19Z"/>
  <path class="cls-23" d="m673.78,451.62c2.29-.31,3.64,1.56,3.57,3.14-.09,2.04-2.1,2.94-4.29,2.81-1.98-.12-3.08-1.01-3.05-3.07.03-2.48,1.63-2.97,3.77-2.89Z"/>
  <path class="cls-9" d="m691.02,459.97c1.95.22,3.46,1.34,3.51,3.28.05,2.08-1.49,3.17-3.6,3.06-1.73-.09-3.24-.67-3.15-2.78.09-1.98,1.06-3.34,3.23-3.56Z"/>
  <path class="cls-4" d="m605.93,376.98c-1.21.77-2.65,2.42-4.05,2.39-1.84-.05-2.88-1.89-2.73-4,.16-2.11,1.34-2.93,3.33-2.67,2.14.28,3.04,1.76,3.45,4.29Z"/>
  <path class="cls-31" d="m658.99,493.26c.6,2.74-2.12,2.76-3.38,2.81-1.79.08-3.39-1.75-3.36-3.5.03-1.81,1.54-3.06,3.7-2.97,2.31.1,3.18,1.33,3.04,3.66Z"/>
  <path class="cls-34" d="m710.83,448.52c-.45,2.19-2.18,2.11-3.82,2.09-1.92-.03-3.09-.74-2.97-2.99.11-2.05.96-3.06,3.02-3.01,2.52.06,3.31,1.77,3.77,3.91Z"/>
  <path class="cls-39" d="m697.24,406.58c-2.98.01-4.33-.8-4.25-3.15.07-2.1,1.31-2.75,3.22-2.8,2.06-.06,3.66.47,3.71,2.82.05,2.29-1.54,3.01-2.67,3.13Z"/>
  <path class="cls-1" d="m578.02,415.89c-.11,2.6-2,2.59-3.87,2.6-1.67.01-2.87-.36-2.8-2.47.08-2.56,1.34-3.51,3.77-3.4,2.12.1,2.81,1.36,2.9,3.27Z"/>
  <path class="cls-4" d="m668.08,515.41c-1.9-.11-3.76-.92-3.83-2.91-.07-1.81,1.43-3.34,3.41-3.42,1.92-.07,3.48.71,3.37,3.15-.08,1.92-.83,3.1-2.95,3.19Z"/>
  <path class="cls-1" d="m614.43,401.45c-2.25.16-3.19-1.4-3.31-3.22-.13-1.91,1.56-2.98,3.15-2.97,1.71,0,3.82.65,3.66,3-.13,1.85-1.12,3.4-3.5,3.19Z"/>
  <path class="cls-39" d="m630.01,517.73c1.51.13,3.48,1.51,3.49,3.35,0,1.54-2.03,2.64-4.14,2.55-2.18-.1-3.42-.87-3.34-3.2.08-2.16,1.44-2.73,3.98-2.7Z"/>
  <path class="cls-17" d="m620.04,426.6c-1.78-.74-2.97-1.83-2.87-3.97.09-1.94.85-3.09,2.97-2.96,2.11.12,3.59,1.32,3.46,3.3-.12,1.82-1.73,2.99-3.56,3.63Z"/>
  <path class="cls-8" d="m633.18,368.07c1.61.36,3.09,1.01,2.89,3.44-.2,2.37-1.57,2.95-3.62,3.01-2.28.06-2.96-2.11-2.96-3.23,0-1.58,1.02-3.5,3.69-3.21Z"/>
  <path class="cls-39" d="m585.97,393.86c-.18,2.72-2.38,3.11-3.97,3.14-2.13.04-2.55-1.96-2.66-3.84-.12-2.16,1.32-2.43,2.9-2.4,2.15.04,3.17,1.44,3.72,3.1Z"/>
  <path class="cls-22" d="m629.67,387.65c-.4,1.8-1.65,2.82-3.73,2.93-2.68.14-2.71-1.86-2.95-3.63-.3-2.23,1.44-2.09,2.84-2.32,2.21-.36,3.39.69,3.84,3.02Z"/>
  <path class="cls-22" d="m591.86,426.28c-.37,1.86-1.5,3.07-3.53,3.3-2.08.24-2.88-.88-3.11-2.81-.3-2.47.97-3.13,3.11-3.18,1.88-.04,3.16.58,3.54,2.69Z"/>
  <path class="cls-38" d="m633.05,474.89c-.26-1.72,1.06-2.69,2.88-2.74,1.75-.05,3.37.79,3.37,2.85,0,2.07-1.1,3.33-3.36,3.46-2.34.13-2.77-1.29-2.89-3.57Z"/>
  <path class="cls-17" d="m700.82,435.91c-.35,2.09-1.6,2.82-3.49,2.75-1.69-.06-3.36-.02-3.16-2.53.15-1.97.46-3.61,3.01-3.45,2.14.14,3.11,1.48,3.64,3.24Z"/>
  <path class="cls-30" d="m625.24,434.63c1.99-.16,3.64.41,3.57,2.48-.09,2.33-1.8,3.27-4.07,3.31-1.94.04-2.44-.91-2.52-2.73-.11-2.41.86-3.32,3.02-3.06Z"/>
  <path class="cls-37" d="m644.58,461.47c-.16,2.28-2.21,3.3-4.01,3.44-1.78.14-2.4-1.78-2.49-3.57-.11-2.26,1.12-2.7,3.06-2.81,2.08-.11,3.01.89,3.44,2.94Z"/>
  <path class="cls-14" d="m564.67,421.59c-.58,2.07-1.93,2.99-4.03,2.93-2.41-.06-2.43-1.81-2.48-3.49-.08-2.44,1.66-2.36,3.39-2.46,2.24-.13,2.73,1.34,3.12,3.01Z"/>
  <path class="cls-23" d="m689.01,385.31c-.09,2.52-1.25,3.24-3.19,3.37-2.3.16-3.59-1.28-3.57-3.04.02-1.84,1.57-3.06,3.72-2.96,2.02.09,2.93,1.16,3.03,2.63Z"/>
  <path class="cls-15" d="m646.97,517.44c-1.92-.03-3.55-1.21-3.68-3-.1-1.39.94-3.01,3.12-2.91,1.91.1,3.67,0,3.64,2.7-.02,2.06-1.06,2.95-3.08,3.21Z"/>
  <path class="cls-1" d="m690.98,447.13c.07,2.32-1.14,3.2-2.99,3.38-2.13.21-3.64-1.04-3.74-2.9-.08-1.44.82-3.04,3-3.02,2.04.02,3.58.4,3.73,2.54Z"/>
  <path class="cls-36" d="m682.91,488.59c2.14.04,3.64,1.19,3.61,3.23-.03,1.73-1.25,2.95-3.35,2.83-1.85-.11-3.26-.41-3.07-2.79.14-1.86.57-3.28,2.81-3.27Z"/>
  <path class="cls-39" d="m597.8,385.68c2.46-.35,3.55,1.46,3.68,3.18.13,1.77-1.64,2.53-3.39,2.77-2.53.35-3.35-1.7-3.52-3.28-.18-1.65,1.22-2.92,3.23-2.67Z"/>
  <path class="cls-4" d="m680.54,471.13c-.24,1.48-1.42,2.19-3.25,2.35-2.4.2-3.2-.98-3.29-3.17-.1-2.24,1.04-2.64,3.01-2.78,2.5-.18,3.02,1.37,3.53,3.6Z"/>
  <path class="cls-39" d="m678.62,501.58c2.28-.02,3.37.88,3.37,2.96,0,2.1-1.21,2.82-3.12,3.03-2.61.28-3.25-2.01-3.38-3.41-.14-1.48,1.34-2.92,3.14-2.58Z"/>
  <path class="cls-20" d="m571,400.77c-.02,1.67-.98,2.52-2.41,2.62-1.41.1-2.83.24-2.86-2.16-.03-1.76.45-2.35,1.97-2.54,1.71-.21,2.81.49,3.3,2.08Z"/>
  <path class="cls-19" d="m590.95,405.46c.16,1.76-1.26,2.59-2.37,2.61-1.39.03-2.7-.83-2.56-2.78.1-1.45.24-2.61,2.1-2.5,1.74.09,2.71.92,2.82,2.67Z"/>
  <path class="cls-21" d="m664.96,501.71c-.09,1.61-.91,2.56-2.47,2.57-1.48,0-2.82-.92-2.88-2.24-.05-1.1.69-2.48,2.47-2.45,1.59.02,2.46.72,2.88,2.13Z"/>
  <path class="cls-36" d="m631.59,449.6c1.44-.03,2.41.35,2.42,1.91,0,1.88-1.44,2.73-2.81,2.87-1.43.15-2.33-1.29-2.22-2.64.12-1.4,1.04-2.42,2.61-2.14Z"/>
  <path class="cls-19" d="m614.53,384.44c-2.79.31-3.53-.54-3.45-2.15.05-1.13-.05-2.35,1.66-2.45,1.72-.11,3.01.46,3.15,2.25.12,1.54-.98,2.3-1.36,2.36Z"/>
  <path class="cls-5" d="m650.22,473.51c-1.65-.18-1.93-1.44-1.8-2.79.12-1.21.69-2.21,2.19-2,1.44.2,2.47.91,2.38,2.52-.09,1.64-1.28,2.09-2.77,2.28Z"/>
  <path class="cls-2" d="m628.2,404.42c.16,2.86-.81,3.3-2.1,3.21-1.22-.09-2.82.35-3.04-1.64-.21-1.87,1.07-2.17,2.48-2.31,1.5-.14,2.71.13,2.67.74Z"/>
  <path class="cls-10" d="m229.75,514.65c1.34.19,2.51.81,2.36,2.41-.14,1.52-1.54,2.21-2.78,2.22-1.57.02-2.05-1.33-2.01-2.77.04-1.54,1.14-1.77,2.44-1.86Z"/>
  <path class="cls-35" d="m165.52,516.66c2.38-.27,4.58-.23,4.93,2.93-4.35,2.67-4.61,2.51-4.93-2.93Z"/>
  <path class="cls-34" d="m619.56,448.57c-.12,1.2-.73,2.03-2.11,2.05-1.55.03-3.11-.32-3.2-2.1-.07-1.27,1.32-1.69,2.45-1.87,1.44-.23,2.55.22,2.86,1.92Z"/>
  <path class="cls-12" d="m177.41,524.61c1.59-1.34,3.19-1.41,4.78,0-.21,1.96-1.12,3.84-3.14,3.66-1.46-.13-2.9-1.62-1.65-3.66Z"/>
  <path class="cls-3" d="m159.17,522.52c-.44,1.43-1.4,2.06-2.89,1.99-1.51-.08-1.88-.98-1.74-2.28.17-1.51,1.28-1.67,2.47-1.65,1.26.03,2.21.42,2.15,1.94Z"/>
  <path class="cls-28" d="m206.16,518.18c.38-2.27,1.95-2.74,3.93-2.62.46,1.13,1.65,2.37.1,3.41-1.46.98-3.02,1.18-4.02-.78Z"/>
  <path class="cls-26" d="m194.24,504.61c.8,1.43.9,2.84-.67,3.74-.89.51-1.89.21-2.56-.69-1.34-1.79.09-2.57,1.27-3.44.65.13,1.3.26,1.96.39Z"/>
  <path class="cls-11" d="m652.29,388.18c1.71,1.79,5.36,2.2,2.92,5.65-.55.79-1.16,1.92-2.23,1.16-2.45-1.73-2.39-3.96-.7-6.81Z"/>
  <path class="cls-32" d="m200.27,519.53c-.59.4-1.19.79-1.78,1.19-1.5-.95-2.54-2.12-1.61-4,.5-1.02,1.52-1.4,2.5-.91,1.68.82,1.67,2.23.89,3.73Z"/>
</svg>