<?xml version="1.0" encoding="UTF-8"?>
<svg id="Layer_1" data-name="Layer 1" xmlns="http://www.w3.org/2000/svg" viewBox="0 0 880.48 442.12">
  <defs>
    <style>
      .cls-1 {
        fill: #49a7a5;
      }

      .cls-1, .cls-2, .cls-3, .cls-4, .cls-5, .cls-6, .cls-7, .cls-8, .cls-9, .cls-10, .cls-11, .cls-12, .cls-13, .cls-14, .cls-15, .cls-16, .cls-17, .cls-18, .cls-19, .cls-20, .cls-21, .cls-22, .cls-23, .cls-24, .cls-25, .cls-26, .cls-27, .cls-28, .cls-29, .cls-30, .cls-31, .cls-32, .cls-33 {
        stroke-width: 0px;
      }

      .cls-2 {
        fill: #40a2a1;
      }

      .cls-3 {
        fill: #4ca8a7;
      }

      .cls-4 {
        fill: #e69792;
      }

      .cls-5 {
        fill: #f05345;
      }

      .cls-6 {
        fill: #55acab;
      }

      .cls-7 {
        fill: #5db0af;
      }

      .cls-8 {
        fill: #53abaa;
      }

      .cls-9 {
        fill: #4da9a7;
      }

      .cls-10 {
        fill: #4faaa8;
      }

      .cls-11 {
        fill: #51aba9;
      }

      .cls-12 {
        fill: #f05244;
      }

      .cls-13 {
        fill: #52aba9;
      }

      .cls-14 {
        fill: #55adab;
      }

      .cls-15 {
        fill: #4da8a7;
      }

      .cls-16 {
        fill: #4ea9a8;
      }

      .cls-17 {
        fill: #e69692;
      }

      .cls-18 {
        fill: #48a6a4;
      }

      .cls-19 {
        fill: #54acab;
      }

      .cls-20 {
        fill: #47a6a4;
      }

      .cls-21 {
        fill: #4ca8a6;
      }

      .cls-22 {
        fill: #4ea9a7;
      }

      .cls-23 {
        fill: #4ba8a6;
      }

      .cls-24 {
        fill: #47a5a4;
      }

      .cls-25 {
        fill: #4aa7a5;
      }

      .cls-26 {
        fill: #5fb1b0;
      }

      .cls-27 {
        fill: #50aaa9;
      }

      .cls-28 {
        fill: #51aaa9;
      }

      .cls-29 {
        fill: #50aaa8;
      }

      .cls-30 {
        fill: #53acaa;
      }

      .cls-31 {
        fill: #4aa7a6;
      }

      .cls-32 {
        fill: #e69793;
      }

      .cls-33 {
        fill: #48a6a5;
      }
    </style>
  </defs>
  <path class="cls-2" d="m657.71,442.05c-2.63-7.77-4.91-15.66-5.78-23.81-.83-7.69-.44-15.52,1-23.07,3.01-15.79,9.16-30.18,20.9-41.7,10.5-10.3,23.38-14.7,37.78-15.29,6.45-.27,12.95.38,19.34-1.03.42-.31.85-.61,1.27-.92,3.59,2.87,8.24,1.73,12.24,3.28,6.42,2.49,12.89,4.77,18.7,8.57,2.62,1.72,5.13,3.69,8.64,3.11,1.5-.25,2.87.79,3.09,2.03,1.3,7.42,8.9,9.53,12.42,15.04.75,1.17,2.09.84,3.22.85,1.75.02,2.85,1.85,2.54,2.52-2.95,6.41,2.74,11.23,2.94,17.11.16,4.73,1.43,9.45,1.5,14.27.04,2.66-.88,5.41,2.44,7.37,1.29.76,1.69,3.77-1.16,4.68-1.86.59-2.82,2.04-2.97,3.65-.75,8.15-3.78,15.66-6.18,23.36h-131.92Z"/>
  <path class="cls-32" d="m260.9,425.13c11.57-1.66,20.02,5.11,24.04,16.92h-30.98c.14-4.5,1.67-8.66,3.17-12.83,1.26-1.36,2.51-2.73,3.77-4.09Z"/>
  <path class="cls-12" d="m.12,305.13c7.77,5.42,9.41,13.6,9.25,22.14-.23,12.6-3.73,24.51-9.25,35.83v-57.97Z"/>
  <path class="cls-5" d="m.12,439.05c18.36-5.69,36.41-5.85,53.97,3-17.01,0-34.01-.07-51.02.07-2.54.02-3.4-.66-2.95-3.07Z"/>
  <path class="cls-12" d="m58.11,222.35c-7.42-.81-14.89-.55-22.28-2.24-16.05-3.68-30.02-14.19-31.58-31.76-.9-10.17,3.96-18.57,10.41-26.19,11.74-13.87,27.73-19.23,44.68-22.68,16.98-3.46,34.01-2.28,51.09-.5,11.71,1.22,23.24,3.26,34.55,6.36,10.58,2.9,19.97,8.16,26.62,17.12,5.1,6.86,6.1,14.59,2.53,22.63-1.17,3.14-3.12,5.82-4.84,8.66-1.94,3.22-5.35,5.44-6.27,9.32-3.26-.17-3.26,3.31-5.23,4.73-4.52,3.25-9.72,4.79-14.84,6.06-16.08,3.97-32.39,6.72-49,7.39-3.97.16-7.86,1.61-11.91,1.08-7.98,0-15.95.01-23.93.02Z"/>
  <path class="cls-12" d="m155.02,253.23c5.75-1.03,9.96-5.12,14.94-7.67,8.59-4.39,16.78-9.57,25.35-14.01,13.09-6.78,37.51.86,38.37,22.19.29,7.29-2.16,14.11-6.11,19.96-2.74,4.06-4.21,8.91-7.85,12.36-5.73,8.71-12.15,16.89-18.8,24.9-8.6,10.12-16.02,21.26-26.26,29.96-6.77,5.75-14.33,10.02-22.62,13.11-1.69.63-3.33,1.39-4.99,2.09-9.02,2.71-18.03,3.45-27.05.01-11.99-6.05-16.66-16.24-17.9-29.2-1.57-16.51,4.72-29.82,14.75-42.02,4.82-5.86,9.46-11.92,16.28-15.71,4.59-3.72,9.61-6.8,14.55-10.01,2.62-1.71,6.06-2.54,7.33-5.95Z"/>
  <path class="cls-12" d="m149.03,117.24c-7.21-.53-13.72-3.65-20.19-6.31-13.61-5.6-26.73-12.31-38.76-20.9-9.09-6.5-18.5-12.62-25.88-21.24-8.33-9.74-11.56-20.68-10.04-33.55,1.59-13.48,7.66-24.13,19.99-29.07,15.48-6.2,31.83-10.24,47.41.53,8.03,5.55,13.14,13.93,19.18,21.36,11.2,13.77,20.08,29.13,29.04,44.37,5.72,9.73,9.59,20.24,6.1,31.85-1.85,6.14-5.08,11.26-11.84,13.08-5-.04-9.99-.08-14.99-.11Z"/>
  <path class="cls-12" d="m260.9,425.13c-1.26,1.37-2.51,2.73-3.77,4.09-8.34,5.08-16.66,5.72-24.66-.57-5.46-4.29-8.57-10.2-10.44-16.79-3.55-12.51-2.07-25.04.29-37.47,2.06-10.83,5.72-21.25,11.14-30.81,5.49-9.67,11.89-18.83,17.87-28.23,3.6-5.65,7.54-11.12,10.65-17.03,3.27-6.2,11.87-8.25,16.68-6.94,12.76,3.47,22.37,14.07,19.28,29.32-2.09,10.3-3.85,20.66-5.65,31.01-2.99,17.16-7.21,33.85-15.22,49.55-4.45,8.71-10.54,16.07-16.17,23.85Z"/>
  <path class="cls-32" d="m286.22,258.15c-8.29-.07-16.2-6.94-16.22-14.1-.03-8.1,7.02-15.66,14.36-15.42,9.15.3,18.44,8.65,18.38,16.51-.06,7.3-7.4,13.08-16.51,13.01Z"/>
  <path class="cls-32" d="m163.02,203.08c.92-3.88,4.33-6.1,6.27-9.32,1.71-2.84,3.67-5.52,4.84-8.66,6.32.49,11.86,2.36,16.02,7.65,3.49,4.44,5.1,9.02,2.33,14.22-2.75,5.17-6.61,8.95-13.05,9.08-9.39.19-13.33-2.86-16.4-12.96Z"/>
  <path class="cls-32" d="m177.02,381.47c-.09-9.09,5.92-16.42,13.4-16.37,6.84.04,15.68,10.53,15.99,18.97.22,5.89-5.58,10.91-12.82,10.81-8.97-.13-17.31-5.06-16.58-13.41Z"/>
  <path class="cls-32" d="m487.73,408.02c-6.99-.03-14.12-6.6-14.14-13.01-.03-9.18,5.82-17.02,12.49-16.75,6.93.27,17.55,9.98,17.19,16.48-.4,7.24-7.4,14.72-15.54,13.28Z"/>
  <path class="cls-32" d="m331.81,391.74c.06,7.47-7.18,14.42-14.94,14.33-7.16-.08-13.99-6.96-13.85-14.67.17-9.29,5.69-15.12,14.14-15.27,7.25-.13,14.58,7.8,14.65,15.62Z"/>
  <path class="cls-32" d="m328.67,315.11c3.72-.21,6.88,1.19,9.27,3.89,2.73,3.08,5.23,6.38,7.63,9.72,3.79,5.29,1.37,12.24-5.04,13.13-4.89.68-9.8,2.17-15.04.23-5.74-2.13-10.28-8.09-9.53-14.29.93-7.73,5.85-12.64,12.71-12.68Z"/>
  <path class="cls-32" d="m413.51,331.11c-7.31-.11-15.5-8.53-14.76-15.9.73-7.36,5.52-13.1,13.49-13.08,7.96.03,16.8,8.68,16.59,16.25-.17,6.05-8.34,12.83-15.32,12.73Z"/>
  <path class="cls-32" d="m564.11,438.99c-12.03-.53-17.1-12.73-15.44-21.97,1.12-6.25,6.22-8.24,13.47-7.09,8.17,1.29,17.85,13.14,14.46,20.34-2.26,4.81-7.97,9.13-12.48,8.73Z"/>
  <path class="cls-32" d="m448.23,333.29c7.23-.15,17.11,10.14,17.32,18.04.14,5.59-6.76,11.54-13.87,11.71-5.88.15-14.88-6.67-14.92-14.91-.05-11.32,5.33-14.13,11.47-14.85Z"/>
  <path class="cls-32" d="m241.56,186.15c-7.15-.1-13.71-6.68-13.58-13.6.13-6.56,7.37-15.25,12.7-15.26,7.2-.01,17.57,9.51,16.98,16.31-.55,6.37-8.04,13.17-16.11,12.55Z"/>
  <path class="cls-17" d="m33.84,324.11c-8.39-.09-15.06-6.52-14.67-14.66.41-8.44,3.94-13.38,12.41-13.33,8.02.05,17.24,7.9,17.11,14.59-.12,6.51-7.84,13.47-14.86,13.4Z"/>
  <path class="cls-32" d="m401.88,415.79c.03,7.79-5.03,13.21-12.31,13.2-8.7-.01-14.59-6.36-14.62-15.77-.03-8.31,4.35-13.15,11.91-13.15,8.42,0,14.99,6.88,15.02,15.72Z"/>
  <path class="cls-17" d="m200.93,310.96c6.66-8,13.08-16.19,18.8-24.9.81,3,3.73,4.08,5.7,5.94,9.76,9.26,5.52,17.28-4.95,23.92-7.84,4.97-14.06.79-19.55-4.97Z"/>
  <path class="cls-32" d="m76.08,293.5c-.73-5.5,6.13-14.13,12.11-14.17,6.37-.04,13.87,8.3,13.86,15.25,0,5.8-6.19,11.4-12.75,11.54-7.02.15-13.21-5.76-13.23-12.62Z"/>
  <path class="cls-32" d="m91.08,415.06c.26-8.64,3.57-12.31,10.81-11.99,7.08.31,13.55,7.16,12.93,14.33-.74,8.5-4.81,12.26-12.48,12.54-6.8.25-11.51-6.38-11.26-14.88Z"/>
  <path class="cls-32" d="m155.02,253.23c-1.27,3.41-4.71,4.24-7.33,5.95-4.94,3.22-9.96,6.29-14.55,10.01-1.95-4.02-4.69-7.59-4.21-12.65.62-6.51,4.04-11.65,9.91-13.18,5.24-1.36,10.99,1.19,14.43,6.38.73,1.1,1.7,2.05,1.74,3.49Z"/>
  <path class="cls-32" d="m76.07,389.37c.09,5.27-4.63,11.52-8.76,11.59-5.8.1-11.47-5.39-11.6-11.25-.11-4.86,4.51-9.5,9.49-9.51,5.9-.02,10.78,4.1,10.87,9.17Z"/>
  <path class="cls-4" d="m120.01,356.14c9.02,3.44,18.04,2.7,27.05-.01,1.63,7.8-2.84,13.67-10.64,13.97-11.04.43-15.61-3.46-16.41-13.96Z"/>
  <path class="cls-33" d="m788.49,331.19c3.81-.05,5.16.97,5.13,3.46-.02,2.07-.76,3.58-3.12,3.43-2.23-.14-3.6-1.45-3.84-3.66-.24-2.3,1.1-3.24,1.82-3.23Z"/>
  <path class="cls-16" d="m810.77,295.42c2.08.41,3.93.73,3.87,3.25-.05,1.93-.85,3.11-2.94,3.27-2.47.19-3.81-1.15-3.98-3.33-.16-2.02,1.68-2.6,3.06-3.19Z"/>
  <path class="cls-10" d="m815.1,396.35c1.9.45,3.62,1.32,3.35,3.56-.24,1.96-1.48,3.09-3.8,2.99-2.2-.1-2.72-1-2.81-3.07-.11-2.52,1.36-3.05,3.26-3.48Z"/>
  <path class="cls-20" d="m809.78,322.07c-1.74-.74-3.12-1.74-3.15-3.9-.03-2.09,1.06-2.93,3.06-3.03,2.1-.1,3.67.47,3.87,2.8.22,2.62-2.12,3.02-3.78,4.12Z"/>
  <path class="cls-33" d="m867.27,351.15c-1.99-.46-3.55-1.56-3.56-3.55,0-1.84.94-3.43,3.27-3.43,2.15,0,3.61.85,3.55,3.13-.05,2.04-1.48,3.14-3.26,3.86Z"/>
  <path class="cls-31" d="m864.11,393.16c2.25.64,3.8,1.51,3.51,4.08-.22,2.02-1.21,2.95-3.18,2.83-2.28-.14-3.81-1.54-3.71-3.67.08-1.78,1.57-3.04,3.38-3.24Z"/>
  <path class="cls-13" d="m874.32,336.5c-.25,2.05-1.48,3.06-3.53,3.39-2.1.34-3.3-.85-3.4-2.54-.11-1.8.77-3.78,2.95-3.82,1.77-.03,3.59.66,3.99,2.98Z"/>
  <path class="cls-20" d="m852.79,407.02c-1.76-.69-3.12-1.7-3.2-3.84-.07-2.06.96-2.99,2.99-3.08,2.07-.09,3.7.45,3.94,2.76.28,2.61-2.08,3.04-3.74,4.16Z"/>
  <path class="cls-10" d="m808.72,329.82c-2.05-.17-3.91-.88-3.96-2.98-.06-2.12,1.43-3.39,3.7-3.6,2.15-.19,3.05.99,3.13,2.83.08,1.96-.75,3.45-2.86,3.75Z"/>
  <path class="cls-10" d="m860.91,377.87c-2.31.15-3.17-.89-3.38-2.91-.25-2.52,1.44-3.28,3.26-3.47,2.07-.22,3.69,1.05,3.68,3.15,0,2.15-1.83,2.95-3.56,3.23Z"/>
  <path class="cls-20" d="m813.05,414.13c1.3.54,2.98.64,2.98,3.5,0,3.04-2.31,3.02-3.69,3.24-2.77.44-2.87-2.55-3.1-4.12-.18-1.24,1.41-2.77,3.82-2.63Z"/>
  <path class="cls-11" d="m786.17,344.79c-.88,1.16-2.43,1.99-4.22,1.89-1.76-.1-3.38-1.16-3.22-3.08.16-1.94,1.75-3.22,3.71-3.19,2.31.03,3.37,1.7,3.73,4.39Z"/>
  <path class="cls-3" d="m842.53,396.72c.02,2.69-1.96,3.82-3.76,4.08-1.85.27-2.7-1.64-2.8-3.42-.1-1.79.26-3.26,2.62-3.33,2.14-.06,3.51.64,3.94,2.67Z"/>
  <path class="cls-18" d="m775.6,286.89c.07,2.69-2.04,3.78-3.77,3.95-1.83.18-3.12-1.53-3.18-3.64-.06-2.07,1.03-2.95,3.03-3.04,2.12-.1,3.51.65,3.92,2.73Z"/>
  <path class="cls-29" d="m846.66,379.09c2.26-.17,3.84.5,3.67,2.54-.13,1.57-.39,3.79-2.9,3.57-1.89-.17-3.85-.23-3.7-3.25.12-2.48,1.11-3.17,2.93-2.86Z"/>
  <path class="cls-27" d="m825.06,295.42c1.99.35,3.87.89,3.86,3.12-.01,1.93-1.03,3.34-3.34,3.35-2.42.01-2.85-1.55-3.21-3.45-.46-2.45,1.41-2.45,2.69-3.02Z"/>
  <path class="cls-15" d="m830.74,374.02c.43,2.18-2.23,2.44-3.81,2.79-1.69.37-3.06-1.33-3.19-3.01-.15-2.01,1.45-3.24,3.25-3.53,2.02-.32,3.49.64,3.75,3.74Z"/>
  <path class="cls-6" d="m803.15,285.91c-2.46,0-3.24-1.17-3.33-3.12-.09-2.07,1.09-3.24,2.86-3.17,1.75.06,3.83.73,3.74,3.05-.07,2.06-1.63,3.07-3.27,3.24Z"/>
  <path class="cls-19" d="m825.57,408.05c-1.38-.81-2.88-1.39-2.82-3.5.05-2.12.57-3.47,3.05-3.55,2.12-.07,3.31,1.15,3.42,2.82.14,2.21-1.64,3.4-3.65,4.23Z"/>
  <path class="cls-31" d="m848.15,311.33c2.07.42,4.13,2.03,3.96,3.29-.22,1.67-2.15,3.17-4.44,3.17-2.09,0-2.96-1.51-2.97-3.1-.02-2.08,1.75-2.86,3.45-3.35Z"/>
  <path class="cls-3" d="m831.51,360.8c-2.07-.19-2.8-1.75-2.86-3.63-.08-2.21,1.89-2.66,3.37-2.72,1.94-.09,3.6,1.14,3.49,3.26-.1,2.12-1.85,2.89-4,3.09Z"/>
  <path class="cls-14" d="m851.05,348.92c-3.12.15-3.2-1.6-3.35-3.3-.19-2.22,1.3-3.12,3.03-2.98,1.73.14,3.87.67,3.55,3.21-.27,2.15-1.91,2.95-3.23,3.07Z"/>
  <path class="cls-22" d="m876.03,377.21c1.77.55,3.7.93,3.51,3.35-.15,1.88-1.46,3.05-3.23,3.07-1.9.02-3.46-1.01-3.7-3.11-.29-2.5,1.88-2.61,3.42-3.31Z"/>
  <path class="cls-27" d="m841.46,423.48c-.36,2.06-1.59,3.12-3.64,3.39-2.23.29-2.87-.96-3.03-2.87-.17-2,.74-3.34,2.64-3.4,1.84-.06,3.58.64,4.03,2.88Z"/>
  <path class="cls-18" d="m752.7,309.06c-2.71.17-3.34-2.01-3.7-3.48-.48-1.96,1.11-3.16,3.13-3.34,1.85-.17,3.27.45,3.49,2.52.25,2.35-1.28,3.49-2.93,4.3Z"/>
  <path class="cls-33" d="m825.61,355.02c-1.18,1.29-2.56,2.11-4.49,2.05-1.98-.07-3-.98-2.97-2.97.04-2.2,1.27-2.97,3.38-3.04,2.69-.09,2.98,2.1,4.07,3.96Z"/>
  <path class="cls-33" d="m757.99,335.1c2.08-.12,3.62.54,3.62,2.91,0,2.34-1.61,3.01-3.63,3.03-1.84.01-3.22-.61-3.31-2.74-.1-2.32,1.14-3.25,3.32-3.2Z"/>
  <path class="cls-1" d="m787.64,309.89c.29,2.11-.78,2.94-3.05,3.13-2.57.21-3.27-1.84-3.49-3.27-.24-1.53,1.26-2.94,3.1-3.04,1.99-.11,3.55.54,3.44,3.18Z"/>
  <path class="cls-33" d="m876.85,356.1c2.1-.1,3.61.7,3.63,2.96.02,2.27-1.55,3.02-3.61,3.03-1.87,0-3.19-.62-3.28-2.74-.1-2.28,1.05-3.3,3.26-3.25Z"/>
  <path class="cls-9" d="m849.76,332.09c-1.42-.67-2.95-1.62-3.05-3.29-.13-2.1,1.6-3.29,3.45-3.4,1.94-.12,3.92,1.28,3.94,3.05.02,2.13-2.57,2.59-4.33,3.65Z"/>
  <path class="cls-18" d="m794.61,279.54c.1,3.31-2.11,4.08-3.87,4.33-2.02.29-2.69-2.21-2.83-3.48-.21-1.88,1.33-3.21,3.51-3.17,1.95.03,3.12.91,3.2,2.32Z"/>
  <path class="cls-18" d="m835.95,286.14c2.23-.09,3.55.63,3.62,2.75.08,2.39-1.44,3.16-3.52,3.16-2.26,0-3.31-1.56-3.35-3.46-.04-2.17,1.73-2.53,3.24-2.45Z"/>
  <path class="cls-29" d="m816.74,428.9c-2.36.3-2.8-1.21-2.93-3.03-.15-2.19,1.01-2.85,3.03-2.87,1.91-.02,3.48.49,3.48,2.56,0,2.12-1.54,3.14-3.58,3.34Z"/>
  <path class="cls-28" d="m848.04,419.1c-1.79.23-2.44-1.65-2.51-3.12-.11-2.16,1.72-2.85,3.64-2.93,1.95-.08,3.37.88,3.15,2.84-.21,1.93-1.64,3.12-4.28,3.21Z"/>
  <path class="cls-10" d="m774.48,329.12c-1.87.17-2.95-.52-2.7-2.78.2-1.8.56-3.22,2.82-3.14,2.13.07,3.56,1.18,3.7,3.17.16,2.39-1.66,2.87-3.82,2.74Z"/>
  <path class="cls-25" d="m805.8,384.09c1.95-.19,3.64.36,3.64,2.38,0,2.3-1.66,3.35-3.94,3.4-1.81.04-2.59-.64-2.62-2.59-.03-2.25.62-3.45,2.93-3.19Z"/>
  <path class="cls-1" d="m795.85,302.01c-2.48-.02-3.29-1.18-3.22-3.12.09-2.44,1.7-2.8,3.7-2.79,1.94.01,3.25.81,3.22,2.79-.04,2.6-2.15,2.83-3.7,3.12Z"/>
  <path class="cls-23" d="m744.02,324.1c2.09-.11,3.65.45,3.63,2.93-.02,2.14-1.43,2.74-3.25,2.98-2.44.32-3.32-1.47-3.59-3.16-.34-2.13,1.34-2.75,3.21-2.75Z"/>
  <path class="cls-10" d="m857.21,356.18c2.68-.52,3.9.83,3.91,2.82.01,1.81-1.46,2.78-3.3,3.02-2.07.27-3.47-1.04-3.45-2.62.02-1.47.24-4.06,2.84-3.22Z"/>
  <path class="cls-1" d="m732.22,336.22c-.42.31-.85.61-1.27.92-2.28-1.7-4.85-3.49-1.77-6.44,1.18-1.13,3.23-1.17,4.54.19,2.39,2.48-.5,3.69-1.5,5.34Z"/>
  <path class="cls-1" d="m867.92,317.76c-3.65.87-4.66-1.32-4.86-3.07-.18-1.56,1.36-2.63,3.39-2.63,2.84,0,3.16,1.93,3.45,3.92.34,2.36-1.72,1.65-1.97,1.78Z"/>
  <path class="cls-30" d="m855.7,300.14c-1.9.04-3.14-.47-3-2.75.12-2.14.85-3.43,3.2-3.26,1.9.13,3.23,1.33,3.27,2.99.04,1.93-1.21,3.3-3.46,3.02Z"/>
  <path class="cls-23" d="m795.07,346.08c2.11-.1,3.63.55,3.53,2.99-.08,2.01-1.25,2.95-3.23,2.88-2.1-.08-3.41-1.44-3.62-3.26-.25-2.15,1.5-2.64,3.32-2.61Z"/>
  <path class="cls-33" d="m843.42,363.12c2.72-.34,3.54,1.8,3.73,3.58.13,1.21-1.16,2.48-3.04,2.41-2.08-.09-3.47-.56-3.47-3,0-1.97.64-3.16,2.78-2.99Z"/>
  <path class="cls-23" d="m811.32,375.92c-3.04.03-3.82-1.2-3.68-3.13.18-2.46,2.04-2.62,3.9-2.7,1.74-.07,3.05.78,2.95,2.51-.14,2.32-1.85,3.26-3.17,3.33Z"/>
  <path class="cls-24" d="m806.16,345.12c1.86-.07,3.26.52,3.43,2.62.19,2.26-.93,3.23-3.17,3.4-2.08.15-3.36-1.22-3.53-2.66-.22-1.83,1.06-3.31,3.27-3.35Z"/>
  <path class="cls-27" d="m832.21,316.07c-2.99.06-3.44-1.41-3.51-3.23-.09-2.23,1.22-2.7,3.13-2.79,2.13-.1,3.22,1.12,3.28,2.85.08,2.19-1.7,2.94-2.9,3.17Z"/>
  <path class="cls-21" d="m834.55,336c-2.22.19-2.76-1.18-2.88-3.03-.14-2.1.79-2.88,2.87-2.92,1.93-.03,3.36.49,3.36,2.53,0,2.02-1.12,3.37-3.36,3.42Z"/>
  <path class="cls-28" d="m768,297.09c2.25-.35,3.21,1.28,3.25,2.82.05,1.98-1.48,3.08-3.56,3.21-1.89.12-2.62-.94-2.8-2.62-.25-2.34,1.12-3.18,3.1-3.42Z"/>
  <path class="cls-18" d="m796.69,433.9c-.32-4.62.96-5.46,5.76-3.8.47,1.64.92,3.38-.75,4.55-1.79,1.25-3.47.45-5-.75Z"/>
  <path class="cls-7" d="m823.42,382.2c-.13,1.66-.8,2.53-2.38,2.78-1.94.31-2.75-.96-3.16-2.33-.49-1.66.76-2.27,2.21-2.47,1.74-.24,2.78.58,3.34,2.02Z"/>
  <path class="cls-29" d="m821.63,342.05c-.98-.03-2.11-.81-1.95-2.66.14-1.53,1.13-2.34,2.72-2.08,1.64.27,2.83,1.42,2.87,2.93.05,1.64-1.51,1.81-3.65,1.8Z"/>
  <path class="cls-10" d="m801.77,366.22c-1.31-.94-2.94-1.19-3.12-2.97-.19-1.89,1.17-2.04,2.53-2.17,1.41-.13,2.78.11,2.97,1.74.19,1.69-1.27,2.42-2.37,3.39Z"/>
  <path class="cls-13" d="m829.6,413.23c-.14-1.76,1.22-2.01,2.55-2.14,1.57-.15,2.49.54,2.47,2.23-.02,1.67-1.07,2.36-2.51,2.35-1.43,0-2.53-.64-2.51-2.44Z"/>
  <path class="cls-9" d="m738.42,314.89c-2.02.3-2.21-1.07-2.4-2.39-.21-1.42.53-2.12,1.88-2.26,1.57-.16,2.5.61,2.71,2.11.23,1.67-.94,2.24-2.19,2.54Z"/>
  <path class="cls-8" d="m783.04,291.23c1.46.2,2.57.8,2.57,2.39,0,1.54-.95,2.42-2.45,2.34-1.44-.07-2.68-1.24-2.66-2.38.02-.91.86-2.49,2.53-2.35Z"/>
  <path class="cls-20" d="m798.55,317.96c-.31,1.47-1.21,2.3-2.77,2.08-1.59-.22-2.06-1.39-2.09-2.87-.03-1.46.61-2.09,2.08-2.05,1.86.04,2.64,1.06,2.79,2.84Z"/>
  <path class="cls-29" d="m822.52,283.12c-1.66.03-2.68-.15-2.77-1.73-.09-1.48.25-2.75,1.92-2.7,1.2.04,2.74.32,2.85,2.01.11,1.61-1.1,2.14-2,2.42Z"/>
  <path class="cls-26" d="m758.33,319.01c-1.53-.25-2.44-1.11-2.37-2.66.06-1.39,1.17-2.05,2.36-2.02,1.47.03,2.46.9,2.32,2.55-.12,1.38-1.13,1.88-2.31,2.13Z"/>
  <path class="cls-20" d="m784.35,359.83c-.06-1.29.91-1.63,2.12-1.72,1.48-.11,2.78.35,2.91,1.93.11,1.33-.98,1.95-2.29,2.05-1.54.12-2.63-.35-2.74-2.26Z"/>
</svg>