<?xml version="1.0" encoding="UTF-8"?>
<svg id="Layer_1" data-name="Layer 1" xmlns="http://www.w3.org/2000/svg" viewBox="0 0 660 1026">
  <defs>
    <style>
      .cls-1 {
        fill: #40a2a1;
      }

      .cls-1, .cls-2, .cls-3, .cls-4, .cls-5, .cls-6, .cls-7, .cls-8, .cls-9, .cls-10, .cls-11, .cls-12, .cls-13, .cls-14, .cls-15 {
        stroke-width: 0px;
      }

      .cls-2 {
        fill: #f1665a;
      }

      .cls-3 {
        fill: #f05345;
      }

      .cls-4 {
        fill: #cea35e;
      }

      .cls-5 {
        fill: #f05245;
      }

      .cls-6 {
        fill: #f16256;
      }

      .cls-7 {
        fill: #f05244;
      }

      .cls-8 {
        fill: #ecd2e2;
      }

      .cls-9 {
        fill: #48a6a4;
      }

      .cls-10 {
        fill: #f05446;
      }

      .cls-11 {
        fill: #40a2a0;
      }

      .cls-12 {
        fill: #40a3a1;
      }

      .cls-13 {
        fill: #cea25e;
      }

      .cls-14 {
        fill: #cfa35f;
      }

      .cls-15 {
        fill: #f0f7f7;
      }
    </style>
  </defs>
  <path class="cls-8" d="m168.57,158.41c-26.15-.99-51.02-6.77-73.93-19.84,6.79.52,11.75-2.49,15.5-7.96,3.22-4.7,5.62-9.68,6.5-15.39.85-5.55,1.98-11.06,2.98-16.59,6.37-6.99,10.57-15.28,13.95-23.97,7.81-20.05,8.92-40.7,4.84-61.71-.36-1.84-1.06-3.52,1.11-4.75,3.06-1.73,4.54-4.75,6.07-7.71h57.96c-.39,9.5,3.44,14.28,11.1,13.84,8.23-.47,12.15-4.12,14.88-13.84h130.92c6.18,12.32,12.23,13.84,22.81,5.86,2.16-1.63,3.92-3.48,5.17-5.86h37.98c1.4,6.98,5.74,10.71,13.01,11.17-4.15,1.21-4.6,5.09-5.65,8.29-4.31,13.08-10.64,25.35-18.68,36.2-9.38,12.65-20.02,24.48-32.43,34.59-17.33,14.13-36,25.97-56.09,35.76-5.95,2.9-12.25,4.89-18.1,7.95-4.21,1.16-8.4,2.39-12.04,4.93-4.22.58-8.12,2.09-11.88,4.03-3.64-8.27-6.23-17.14-13.23-24.31-1.07,3.13-.13,5.26.29,7.21,1.05,4.9-.42,7.63-5.27,9.14-5.25,1.63-8.28,5.62-10.2,10.75-.77,2.07.1,4.82-2.34,6.24-6.84-.93-13.22,1.72-19.76,2.8-9.43,1.55-18.87,2.67-28.38,2.98-3.02.1-6.07,2.19-9.13.22-9.32-.02-18.64-.03-27.96-.05Zm57.32-57.83c9.93,1.17,20.54-9.19,22.36-17.94,1.57-7.55-2.39-16.12-9.28-19.91-6.5-3.58-14.28-2.11-19.93,3.81-3.74,3.92-6.28,8.59-7.93,13.7-3.77,11.66,2.53,20.27,14.79,20.34Zm105.58-54.75c.27-8.9-5.71-13.79-13.32-11.26-8.29,2.75-13.81,8.62-15.37,17.33-.98,5.5,1.66,10.13,6.03,13.39,3.87,2.9,7.72.58,11.16-1.23,7.62-3.99,10.61-10.99,11.5-18.24Zm58.05,13.19c0-5.66-5.88-11.27-11.67-10.38-7.6,1.16-12.14,6.38-15.07,13.15-2.63,6.07-.83,11.39,3.08,16.21,1.42,1.75,3.4,2.7,5.75,2.29,7.84-1.35,17.9-13.31,17.92-21.26Zm-210.84-1.23c.03-6.68-4.56-11.75-10.78-11.93-6.06-.17-13.87,7.63-14.04,14.02-.17,6.38,5.19,12.58,10.97,12.68,7.19.12,13.82-6.94,13.85-14.77Zm80.8,68.06c3.49-2.16,5.98-3.71,8.49-5.24.84-.51,1.93-.95.98-2.16-1.15-1.46-2.69-2.62-4.57-2.5-1.63.11-3.27.86-3.69,2.75-.45,2.04-.71,4.13-1.2,7.15Z"/>
  <path class="cls-13" d="m145.58.49c-1.53,2.96-3.01,5.98-6.07,7.71-2.17,1.23-1.47,2.91-1.11,4.75,4.09,21.01,2.97,41.66-4.84,61.71-3.38,8.68-7.59,16.98-13.95,23.96,1.44-15.89,2.17-31.76,1.13-47.75-.43-6.68-2.63-10.46-8.99-12.75-15.05-5.4-18.38-3.88-22.06,11.59-3.46,14.53-6.5,29.19-7.74,44.07-.96,11.45-4.1,22.98-.35,34.52-4.59,1.12-9.3,1.89-13.75,3.43-6.6,2.3-13.34,2.36-20.18,2.65-16.58.7-32.11-3-47.01-9.97V42.47c3.13.18,5.29-1.43,7-3.82,3.39-4.74,5.99-9.83,6.82-15.68,1.07-7.49,2.11-14.98,3.17-22.48h127.92Z"/>
  <path class="cls-11" d="m.67,313.32c7.51-.02,9.94,3.98,10.91,11.19,1.64,12.24,5.59,24.09,6.65,36.52,1.24,14.71-.84,28.81-7.24,41.95-1.79,3.67-4.54,8.48-10.31,8.28v-97.94Z"/>
  <path class="cls-11" d="m17.66.49c-1.05,7.49-2.1,14.99-3.17,22.48-.83,5.85-3.43,10.94-6.82,15.68-1.71,2.39-3.87,4-7,3.82,0-13.16.06-26.32-.06-39.48C.59.84,1.01.33,3.17.43c4.82.21,9.66.07,14.49.07Z"/>
  <path class="cls-7" d="m.67,544.18c13.99-11.12,29.65-6.89,35.02,9.45.59,1.78,1.12,3.61.19,5.31-.67,1.22-1.09,2.98-2.86,3.12-1.9.14-1.6-1.87-2.21-2.85-1.81-2.91-3.12-6.09-5.83-8.42-7.16-6.14-15.25-3.18-17.98,5.86-1.22,4.04-1.27,9.35-6.34,11.52v-23.99Z"/>
  <path class="cls-4" d="m229.53.49c-2.73,9.72-6.65,13.37-14.88,13.84-7.66.44-11.5-4.34-11.1-13.84h25.98Z"/>
  <path class="cls-4" d="m439.42,11.67c-7.27-.47-11.61-4.2-13.01-11.17h27.98c-4.35,4.59-8.55,9.37-14.97,11.17Z"/>
  <path class="cls-4" d="m388.44.49c-1.25,2.37-3.01,4.23-5.17,5.86-10.58,7.98-16.64,6.47-22.81-5.86h27.98Z"/>
  <path class="cls-6" d="m.67,805.04c3.63,4.66,3.73,9.33,0,13.99v-13.99Z"/>
  <path class="cls-2" d="m.67,766.06c1.48,3,5.28,6,0,8.99v-8.99Z"/>
  <path class="cls-14" d="m620.29.49c-2,1.61-4,1.5-6,0h6Z"/>
  <path class="cls-12" d="m81.61,128.31c-3.75-11.53-.61-23.07.35-34.52,1.24-14.88,4.28-29.53,7.74-44.07,3.68-15.48,7-16.99,22.06-11.59,6.37,2.28,8.56,6.06,8.99,12.75,1.04,15.99.31,31.86-1.13,47.75-1.01,5.53-2.13,11.04-2.98,16.59-.88,5.71-3.28,10.69-6.5,15.39-3.75,5.47-8.7,8.48-15.5,7.96-.58-.08-1.16-.17-1.74-.25-4.01-1.94-6.97-5.2-10.28-8.04-.34-.66-.68-1.31-1.01-1.97Z"/>
  <path class="cls-11" d="m203.35,413.34c-.27,9.18-.7,18.37-.75,27.55-.07,12.11-3.92,23.1-9.23,33.74-1.63,3.26-5.01,3.52-7.89,4.37-12.97,3.81-23.55-1.6-22.71-15.89.41-6.95.98-13.88,1.57-20.82.77-8.98,1.54-17.95,3.34-26.83,1.55-7.66,7.32-13.06,9.95-20.14,1.37-3.68,2.54-7.35,3.19-11.19,1.09-6.36,4.43-7.83,9.69-4.48,6.94,4.41,9.98,11.22,12.19,18.65.45,5-.61,10.06.64,15.03Z"/>
  <path class="cls-11" d="m259.7,362.15c-.17-9.48,1.06-18.87,1.64-28.3.48-7.84,1.87-15.65,1.33-23.64-.57-8.35,2.52-16.08,6.99-23.09,2.3-3.61,5.39-6.31,10.29-5.26,5.79,1.24,10.2,4.14,11.45,10.21,2.06,10.02,2.09,20.22,1.93,30.39-.24,15.14,0,30.36-2.97,45.26-1.59,8.01-4.73,15.58-13.52,18.77-7.48,2.72-16.72-3.14-17.11-11.06-.21-4.42-.04-8.86-.04-13.28Zm19.3-58.75c1.84-.62,2.53-2.02,2.58-3.78.04-1.49,0-3.42-1.67-3.64-1.94-.25-2.86,1.62-2.88,3.3-.02,1.52.06,3.35,1.98,4.12Z"/>
  <path class="cls-11" d="m80.82,228.33c-1.65,12.62-2.88,25.27-9.04,36.87-2.51,4.73-6.07,7.44-10.94,8-6.03.7-11.66-.38-15.87-5.76-4.86-6.22-4.6-12.48-2.52-19.71,3.9-13.59,6.33-27.59,5.17-41.76-.56-6.83,0-13.19,2.02-19.58,1.25.72.72,2.1,1.17,3.11.68,1.57,2.03,2.1,3.59,2.24.76.07,1.23-.34,1.36-1.1.29-1.62-.19-2.96-1.56-3.9-1.2-.82-2.46-1.57-3.69-2.36.41-4.5,2.52-8.36,4.6-12.24,1.98-3.7,5.35-3.99,8.95-3.72,1.47.11,1.69.89,1.73,2.34.23,7.28,2.6,13.77,7.07,19.64,4.04,5.31,6.1,11.65,7.94,18.01,0,6.64,0,13.27.01,19.91Z"/>
  <path class="cls-11" d="m91.84,346.49c2.48,8.93,8.31,13.67,15.86,16.53,2.25.85,1.61,2.61,1.59,4.16-.15,11.5-.86,22.97-1.78,34.43-.45,5.6.4,11.26.42,16.85.02,8.98-2.59,17.18-11.24,22.03-4.85,2.72-14.15.01-18.22-4.97-3.86-4.72-5.2-10.19-4.97-15.95.48-12.17,1.29-24.45,6.39-35.7,4.29-9.47,5.75-19.54,7.98-29.48.58-2.59,1.89-4.8,3.97-7.9Z"/>
  <path class="cls-11" d="m211.69,276.31c-.41,3.28-.75,6.57-1.28,9.83-.21,1.28-.52,2.78-1.34,3.67-8.75,9.5-24.08,7.87-30.44-3.22-3.22-5.61-3.31-11.57-2.32-17.88.93-5.9.91-11.95,1.24-17.93.48-8.57.85-17.14,1.35-25.7.31-5.28,3.74-9.06,7.18-12.4,5.18-5.03,16.55-.71,18.16,6.56.37,1.68.31,3.05-1.98,2.93-1.78-.1-3.57.42-5.27-.84-1.27-.94-2.85-1.88-4.36-2.01-2.74-.25-6.52-.72-7.42,2.35-.67,2.31,2.85,3.05,4.88,3.98,2.84,1.3,5.64,3.07,8.63,3.61,7.54,1.36,9.93,6.43,10.74,13.12.65,5.35,1.49,10.68,2.24,16.01,0,5.98-.02,11.95-.03,17.93Z"/>
  <path class="cls-12" d="m253.8,152.45c2.45-1.43,1.57-4.17,2.34-6.24,1.91-5.13,4.95-9.11,10.2-10.75,4.85-1.51,6.33-4.24,5.27-9.14-.42-1.95-1.36-4.08-.29-7.21,6.99,7.17,9.59,16.04,13.23,24.31,3.91,14.01,2.93,28.18,1.1,42.32-.71,5.5-3.16,10.12-9.13,11.76-6.12,1.52-12.04,1.91-17.04-2.99-5.08-6.56-4.21-14.52-5.35-22.05-1.01-6.68-.21-13.34-.34-20Z"/>
  <path class="cls-11" d="m268.73,488.76c-.66-3.12.26-6.69-.96-10.36-1.92-5.8,4.24-22.9,9.85-24.94,5.36-1.96,11.71-1.4,17.63-1.5,1.55-.03,2.56,2.06,2.46,3.87-.46,8.88,1.79,17.28,4.16,25.72,2.93,10.45-1.58,26.56-11.19,30.52-5.33,2.2-16.12.72-19.19-6.23-1.99-4.51-2.94-8.23-2.76-17.07Z"/>
  <path class="cls-1" d="m116.99,522.08c.95,4.61.78,9.29.52,13.93-.49,8.59-4.75,13.94-13.6,15.97-1.85.42-3.7.26-5.7-.71-7.91-3.83-12.86-8.74-12.73-18.68.12-8.71-.22-16.99,5.33-24.35,1.71-2.27,3.44-4.39,5.85-5.98,2.36-1.55,4.56-3.38,5.03-6.41.17-1.11.59-2.12,1.55-2.32,1.62-.34,1.65,1.43,2.09,2.3,2.89,5.75,5.62,11.58,8.41,17.38.37,3.22,2.11,5.93,3.26,8.86Z"/>
  <path class="cls-13" d="m639.89,166.27c-4.45.51-8.45-1.22-11.09-6.01-3.01-5.45-1.63-10.63.97-15.52,3.57-6.71,9.57-10.14,17.04-11.12,4.98-.66,10.79,3.12,12.35,8.09,2.15,6.86-2.1,21.31-11.11,23.77-2.48.68-4.89.78-8.16.79Z"/>
  <path class="cls-13" d="m456.64,134.2c-5.19-.13-10.55-.56-13.08-5.89-2.5-5.27-1.48-10.62,2-15.32,1.67-2.25,3.38-4.54,5.41-6.45,4.11-3.87,8.82-6.52,14.68-4.29,6.28,2.39,8.45,7.89,8.54,13.84.15,9.92-5.31,18.25-17.55,18.11Z"/>
  <path class="cls-13" d="m628.29,58.18c-.27,12.11-11.27,21.44-23.51,18.97-6.21-1.25-10.12-8.28-8.05-14.48,2.73-8.16,8.17-13.68,16.39-16.39,8.02-2.65,15.18,2.96,15.17,11.9Z"/>
  <path class="cls-7" d="m71.15,856.79c0,.91.06,2.11-.01,3.31-.13,2.18-1.19,3.64-3.43,4.07-2.97.57-2.08-2.3-2.4-3.31-1.49-4.7-2.2-9.66-3.65-14.37-1.76-5.71-5.64-9.7-10.96-12.56-7.48-4.02-16.9.9-19.85,7.58-.99,2.25-1.68,4.64-2.35,7.02-.54,1.94-1.64,2.65-3.62,2.5-1.93-.15-2.87-.77-3.1-2.94-.94-8.64,1.95-15.86,8.62-21.07,6.81-5.32,14.68-6.32,22.7-2.69,11.55,5.23,19.21,19.05,18.05,32.46Z"/>
  <path class="cls-13" d="m357.96,144.15c-8.57-.06-14.56-8.24-11.29-15.98,2.85-6.74,6.34-13.39,14.75-15.13,4.62-.95,8.86-.19,11.87,3.18,3.08,3.46,4.43,8.03,2.05,12.47-3.14,5.84-5.95,12.08-12.9,14.75-1.63.63-3.11.93-4.49.71Z"/>
  <path class="cls-13" d="m519.4,118.6c-9.31-2.14-12.33-7.43-9.37-16.4,2.92-8.85,10.15-13.61,19.4-12.75,5.12.47,10.55,7.88,9.85,13.73-.61,5.06-2.24,9.63-7.16,12.27-1.01.54-1.86,1.39-2.78,2.09-3.24,1.03-6.58,1.14-9.94,1.06Z"/>
  <path class="cls-13" d="m416.63,66.85c.07-8.69,6.53-16.69,13.73-19.13,7.39-2.51,15.68,5.33,13.93,13.09-1.92,8.52-6.3,15.15-14.81,18.74-4.52,1.91-7.61-.14-9.74-3.14-1.98-2.78-4.23-6.04-3.11-9.55Z"/>
  <path class="cls-13" d="m561.58,141.69c-.04-9.23,6.49-17,15.74-18.71,2.95-.55,2.57,2.02,2.85,3.46.62,3.2,1.45,4.37,4.69,2.1,2.83-1.99,6.2.29,6.3,4.72.12,5.35-.58,11.04-4.6,14.92-5.33,5.15-11.96,6.73-19.17,4-3.68-1.4-5.78-5.31-5.8-10.49Z"/>
  <path class="cls-13" d="m521.46,40.05c-1.22-5.56,2.52-9.43,6.08-12.99,3.4-3.39,7.88-5.2,12.62-2.53,4.57,2.58,9.55,5.07,9.18,11.69-.33,5.83-10.42,18.11-15.83,19.15-4.4.85-12.22-6.75-12.32-12-.02-.98.16-1.97.27-3.32Z"/>
  <path class="cls-7" d="m176.43,725.77c-.13,1.86.15,3.32-.38,4.35-.81,1.56-1.19,3.82-3.63,3.94-2.59.13-2.29-2.09-2.7-3.58-1.01-3.66-2.83-6.43-5.7-9.22-6.42-6.26-17.73-3.31-19.44,6.85-.53,3.18-.74,6.41-1.07,9.62-.3,2.84-1.88,4.65-4.63,5.09-3.43.55-3.7-2.8-3.99-4.54-1.79-10.97,1.4-20.62,10.45-27.09,6.8-4.86,14.59-3.68,22.03-.13,6.55,3.13,8.55,8.7,9.05,14.72Z"/>
  <path class="cls-7" d="m83.85,917.01c-.49-7.36,5.62-15.73,13.82-17.84,19.47-5.02,29.71-.67,39.32,19.83.48,1.03.74,2.18.97,3.3.47,2.29.06,4.47-2.28,5.39-2.78,1.09-4.02-1.34-4.6-3.18-1.04-3.3-2.58-6.27-4.36-9.19-6.98-11.49-23.28-12.55-32.29-3.72-1.82,1.78-2.63,4.12-3.39,6.38-.87,2.61-1.77,5.75-4.73,5.45-3.61-.37-2.25-3.99-2.47-6.41Z"/>
  <path class="cls-7" d="m43.63,614.09c-4.67.37-8.09,2.25-9.32,7.2-.79,3.16-1.97,6.23-3,9.4-8.98-10.19-3.36-22.57,4.8-24.44,5.07-1.17,10.27-1.68,15.34-.96,7.84,1.11,15.69,2.49,21.6,8.73,4.09,4.32,3.85,9.49,3.1,14.63-.21,1.43-1.91,3.12-3.97,3.35-2.36.27-3.07-2.15-3.11-3.2-.44-11.37-9.3-12.59-17.37-14.82-2.71-1.16-5.39-.88-8.07.11Z"/>
  <path class="cls-7" d="m75.09,742.07c9.65.02,22.06,9.75,24.28,19.01.51,2.11.02,4.41-1.33,5.53-1.17.97-2.83-.98-4.01-1.93-3.71-3-7.03-6.45-10.62-9.59-6.04-5.28-17.22-4.59-19.81,7.19-.64,2.89-.65,6.24-5.04,5.62-3.92-.55-3.18-3.67-3.63-6.39-1.68-10.37,10.31-21.05,20.16-19.44Z"/>
  <path class="cls-7" d="m84.52,973.97c9.39-1.5,17.48,8.9,18.63,17.83.33,2.57-1.43,4.92-3.28,5.67-2.14.87-2.23-2.23-3.15-3.6-1.86-2.78-2.72-6.16-5.62-8.33-6.91-5.14-12.87-1.45-15.29,4.72-.9,2.28-1.49,4.68-2.22,7.02-.73,2.35-2.25,3.85-4.76,3.34-2.47-.5-3.89-2.42-4.15-4.88-.61-5.67,6.5-18.08,11.74-20.55,2.6-1.23,5.42-1.46,8.1-1.22Z"/>
  <path class="cls-7" d="m302.31,689.92c-.11,1.94-1.01,3.74-3.63,4.1-2.93.4-3.81-1.04-4.32-3.87-1.19-6.51-4.26-11.86-11.01-14.3-4.16-1.5-7.33-.21-8.91,3.9-.65,1.68-1.62,3.33-1.81,5.06-.3,2.63-1.72,3.15-3.98,3.32-3.11.24-3.58-2.26-3.97-4.07-1.91-8.98,7.66-19.09,16.75-17.93,10.19,1.3,20.84,13.19,20.89,23.79Z"/>
  <path class="cls-3" d="m60.85,717.74c-3.46-2.84-4.29-6.92-6.63-10.08-3.63-4.91-6.95-5.15-10.59-.33-1.45,1.92-2.02,4.14-2.86,6.26-.88,2.24-2.46,2.3-4.4,2.21-2.41-.12-2.33-1.76-2.51-3.48-1.04-9.61,3.79-16.97,12.34-18.67,7.63-1.52,15.58,4.36,17.98,12.88,1.26,4.48-.88,7.65-3.34,11.21Z"/>
  <path class="cls-3" d="m214.86,968.41c-3.38-3.74-4.72-8.9-8.66-12.36-7.27-6.39-11.88-5.65-16.39,2.92-.3.57-.34,1.33-.73,1.8-1.35,1.64-3.17,2.79-5.18,1.71-1.74-.94-2.94-2.61-2.22-4.96,1.67-5.44,3.37-11.03,9.24-13.32,7.54-2.95,14.26-.46,20.35,4.17,3.42,2.59,5.29,6.31,6.82,10.2,1.57,4-.28,7-3.24,9.85Z"/>
  <path class="cls-7" d="m133.25,649.13c4.61-.4,7.83,1.7,10.39,5.4,2.55,3.68,4.77,7.52,6.79,11.51,1.41,2.79-.11,4.39-2.08,5.53-2.1,1.22-4,.75-5.24-1.75-1.31-2.63-2.95-5.1-4.42-7.66-3.28-5.68-7.95-5.85-11.56-.34-1.35,2.07-2.44,4.31-3.73,6.41-2.32,3.77-4.49,3.64-6.78-.35-2.15-3.73-.13-10.02,4.58-14.3,3.14-2.85,7.45-4.45,12.04-4.47Z"/>
  <path class="cls-7" d="m177.42,878.51c.46-2.86,1.81-5.39,4.22-6.9,6.5-4.05,13.31-4.42,20-.49,7.05,4.13,10.96,10.36,11.13,18.62.03,1.46.02,3.36-2.2,3.97-2.36.65-2.74-1.21-3.6-2.5-1.09-1.63-2.36-3.18-3.2-4.94-4.46-9.27-12.94-8.78-20.32-4.49-1.2.7-1.78,3.14-4.08,1.57-1.85-1.26-1.18-3.28-1.96-4.84Z"/>
  <path class="cls-3" d="m176.44,1013.76c-.07.49-.07,1.52-.39,2.43-.47,1.35-.62,3.19-2.39,3.45-1.51.22-2.37-1.31-2.9-2.36-1.04-2.06-2.65-3.63-4.62-4.1-3.62-.86-7.14-1.01-8.8,3.76-1.14,3.28-3.25,7.14-7.46,5.36-4.24-1.8-3.57-6.19-2.67-10,.71-2.99,3.31-4.35,5.52-6.03,4.27-3.25,9.32-4.1,14.41-4.09,5.07.02,9.27,5.39,9.3,11.57Z"/>
  <path class="cls-3" d="m119.85,838.57c-.33-4.49,2.71-7.19,5.88-8.96,9.39-5.25,23.49-4.31,30.2,6.23,1.92,3.02.58,5.03-1,6.83-1.78,2.02-3.54.05-5.11-1.03-.41-.28-.71-.69-1.1-1-9.15-7.16-12.91-7.22-22.25.11-1.7,1.33-3.28,1.51-5.02,1.06-1.51-.39-1.75-1.82-1.58-3.23Z"/>
  <path class="cls-5" d="m200.68,778.05c7.16,1.2,14.64,4.31,19.39,12.24,1.17,1.95,1.29,4.12-.12,5.22-1.48,1.17-3.94.86-5.34-.95-1.77-2.29-4.45-3.18-6.59-4.84-4.22-3.27-7.37-1.62-10.23,1.69-1.58,1.83-2.73,5.18-5.51,3.87-3.19-1.5-3.74-5.51-3.44-8.59.59-6.14,4.06-8.65,11.84-8.64Z"/>
  <path class="cls-3" d="m171.27,582.02c-3.15-2.85-6.21-5.21-4.22-10.35,2.53-6.53,6.54-10.94,13.45-12.28,6.4-1.24,11.6,1.33,16.23,5.57,2.01,1.84,2.2,4.17,1.71,6.41-.53,2.44-2.1,3.72-4.54,1.62-.63-.54-1.17-1.18-1.77-1.75-6.56-6.24-14.43-4.65-17.43,3.75-.9,2.53-2.31,4.66-3.44,7.05Z"/>
  <path class="cls-3" d="m39.58,922.98c4.44.08,8.21,1.53,9.89,5.96,1.27,3.34.32,6.38-2.25,9-2,2.04-3.51,2.38-4.72-.61-1.9-4.69-4.79-4.96-8.73-2.25-1.87,1.28-4.39,1.64-6.23,2.96-2.4,1.73-3.85-.07-5.02-1.22-1.55-1.52-1.21-3.52.24-5.33,4.33-5.39,9.72-8.58,16.82-8.5Z"/>
  <path class="cls-10" d="m116.99,522.08c-1.16-2.93-2.9-5.64-3.26-8.86,9.41-.06,14.27,3.32,16.97,11.04,1.38,3.95.2,6.86-2.04,9.94-4.7-3.54-3.03-12.81-11.67-12.12Z"/>
  <path class="cls-13" d="m225.89,100.58c-12.26-.06-18.57-8.68-14.79-20.34,1.66-5.11,4.19-9.78,7.93-13.7,5.66-5.93,13.43-7.39,19.93-3.81,6.89,3.79,10.85,12.36,9.28,19.91-1.82,8.75-12.43,19.11-22.36,17.94Z"/>
  <path class="cls-13" d="m331.47,45.82c-.9,7.25-3.88,14.24-11.5,18.24-3.45,1.81-7.29,4.12-11.16,1.23-4.37-3.27-7.01-7.89-6.03-13.39,1.55-8.71,7.07-14.58,15.37-17.33,7.62-2.53,13.59,2.36,13.32,11.26Z"/>
  <path class="cls-13" d="m389.52,59.01c-.01,7.94-10.08,19.9-17.92,21.26-2.35.41-4.33-.53-5.75-2.29-3.91-4.82-5.7-10.13-3.08-16.21,2.93-6.77,7.47-11.99,15.07-13.15,5.79-.88,11.68,4.73,11.67,10.38Z"/>
  <path class="cls-13" d="m178.67,57.78c-.03,7.83-6.65,14.89-13.85,14.77-5.78-.1-11.14-6.3-10.97-12.68.17-6.39,7.98-14.19,14.04-14.02,6.22.18,10.81,5.25,10.78,11.93Z"/>
  <path class="cls-9" d="m259.47,125.84c.5-3.02.75-5.11,1.2-7.15.42-1.89,2.06-2.64,3.69-2.75,1.88-.12,3.42,1.04,4.57,2.5.95,1.21-.14,1.65-.98,2.16-2.5,1.53-4.99,3.08-8.49,5.24Z"/>
  <path class="cls-15" d="m279,303.4c-1.92-.76-2-2.59-1.98-4.12.02-1.68.94-3.55,2.88-3.3,1.67.22,1.72,2.15,1.67,3.64-.05,1.76-.73,3.16-2.58,3.78Z"/>
</svg>