<?xml version="1.0" encoding="UTF-8"?>
<svg id="Layer_1" data-name="Layer 1" xmlns="http://www.w3.org/2000/svg" viewBox="0 0 330 1616">
  <defs>
    <style>
      .cls-1 {
        fill: #fefefe;
      }

      .cls-1, .cls-2, .cls-3, .cls-4, .cls-5, .cls-6, .cls-7, .cls-8, .cls-9, .cls-10, .cls-11, .cls-12, .cls-13, .cls-14, .cls-15, .cls-16, .cls-17, .cls-18 {
        stroke-width: 0px;
      }

      .cls-2 {
        fill: #dabb59;
      }

      .cls-3 {
        fill: #cea35e;
      }

      .cls-4 {
        fill: #d8b952;
      }

      .cls-5 {
        fill: #fcfdfd;
      }

      .cls-6 {
        fill: #d8b850;
      }

      .cls-7 {
        fill: #fdfbfb;
      }

      .cls-8 {
        fill: #f05244;
      }

      .cls-9 {
        fill: #ecd2e2;
      }

      .cls-10 {
        fill: #fefdfd;
      }

      .cls-11 {
        fill: #cea35f;
      }

      .cls-12 {
        fill: #fdfdfc;
      }

      .cls-13 {
        fill: #41a3a1;
      }

      .cls-14 {
        fill: #cea25e;
      }

      .cls-15 {
        fill: #d9ba57;
      }

      .cls-16 {
        fill: #fdfbfc;
      }

      .cls-17 {
        fill: #cfa35f;
      }

      .cls-18 {
        fill: #42a3a2;
      }
    </style>
  </defs>
  <path class="cls-8" d="m330.4,1172.8c-9,1.77-18.09.45-27.13.58-16.15.25-32.31-.22-48.45.21-6.66.18-13.32.73-19.74-1.01-13.7-3.72-21.33-16.99-20.45-28.25.57-7.33,3-13.96,10.62-17.94,17.13-8.95,32.84-20.39,50.17-29.07,13.65-6.84,27.93-11.87,42.75-15.45,2.91-.7,4.5-.89,3.56-5.29-2.79-13.06-6.81-25.69-11.11-38.28-1.16-3.39-2.61-3.48-5-1.46-6.23,5.27-12.2,10.89-18.73,15.75-9.95,7.41-19.48,15.62-31.33,20.05-18.59,6.94-38.03,7.88-57.51,6.93-10.06-.49-18.75-5.59-26.44-12.12-17.53-14.88-36.65-27.07-57.89-36.18-14-6-14.19-15.78-5.07-24.62,3.31-3.21,7.69-5.34,12.26-6.63,10.1-2.84,20.32-5.29,30.31-8.49,13.09-4.19,25.08-11.07,37.72-16.36,11.99-5.03,24.25-8.97,37.49-9.34,11.96-.33,23.07,2.44,33,8.79,18.41,11.77,34.75,25.9,47.08,44.22,1.3,2.69,2.59,5.38,3.89,8.07,5.23,16.88,12.04,33.28,15.11,50.81.63,3.61,2.97,1.98,4.89,1.12v93.95Zm-109.98-189.05c4.47-.38,8.93-.76,13.4-1.14-5.94-.54-11.86-1.52-17.71.16-14.76.85-28.67,5.05-42.18,10.8-.61.26-1.18.6-1.75.95-1.2.72-2.25,1.64-1.76,3.19.55,1.75,2.17,1.51,3.35,1.16,3.01-.88,6.04-1.82,8.89-3.13,12.1-5.55,24.55-9.93,37.75-12Zm64.19,54.64c-2.33-.84-3.9-.26-5.48-.02-9.08,1.36-18.15,1.65-27.35.94-18.6-1.43-36.87-5.09-55.3-7.65-9.87-1.37-19.69-3.16-29.48-4.99-2.84-.53-6.48-1.18-6.17-5.21.31-4.03,4.07-4.03,6.92-4.25,8.54-.66,16.6,1.73,23.95,5.7,16.07,8.67,33.04,10.13,50.83,8.32,9.56-.97,19.22-1.06,28.87.48,8.69,1.39,17.51,2.19,26.31.6,4.11-.75,5.07-2.95,2.95-6.55-1.48-2.51-3.69-4.4-6.36-5.43-9.93-3.81-16.77-11.14-22.87-19.43-1.75-2.38-3.33-5.02-6.17-6.4-7.51-3.66-15.32-6.38-23.61-7.69-17.06-2.7-32.99,1.64-48.69,7.62-6.21,2.37-12.01,5.73-18.47,7.49-3.13.85-6.13,1.05-7.48-2.66-1.32-3.61.95-5.8,3.81-7.09,4.68-2.11,9.44-4.11,14.32-5.67,18.54-5.93,37.49-8.78,56.96-6.47,10.56,1.25,18.69,7.01,27.31,13.1,12.12,8.56,24.05,17,33.8,28.88.55-3.93-1.73-6.18-3.54-8.38-10.45-12.64-22.49-23.61-35.79-33.17-16.24-11.67-34.03-14.97-53.47-9.7-10.65,2.88-20.7,7.17-30.59,11.91-15.02,7.19-30.26,13.64-46.76,16.77-6.68,1.27-13.2,3.4-18.96,7.28-4.4,2.96-8.6,6.41-8.27,12.18.32,5.64,5.28,7.9,9.7,9.7,20.86,8.51,39.56,20.4,56.51,35.16,10.89,9.48,23.32,14.25,38,13.31,8.47-.54,16.91-1.22,25.33-2.19,25.74-2.94,43.58-19.55,62.44-35.38-2.6-1.22-4.16.15-5.73.78-19.59,7.92-39.6,14.54-59.98,20.09-7.6,2.07-15.26,3.57-23.15,2.46-2.92-.41-6.5-.97-6.35-4.95.16-4.18,3.67-4.05,6.74-3.96,14.2.43,28.24-.86,42.09-4.06,11.28-2.61,22.22-6.2,33.2-11.45Zm-89.66-9.76c-8.01-5.7-16.84-9.2-26.86-8.74-1.6.07-3.97-.21-4.13,1.72-.17,2.02,2.3,1.96,3.8,2.24,9.05,1.65,18.12,3.2,27.18,4.78Zm43.36,5.94c13.27,2.16,26.54,3.46,39.94.66-6.07-.97-12.15-1.84-18.26-2.28-7.26-.52-14.45.72-21.68,1.62Zm-8.51,22.09c-7.08,0-14.15-.02-21.23.02-1.05,0-2.67-.52-2.87,1.04-.23,1.75,1.49,1.85,2.72,2.15,7.36,1.79,14.29-.35,21.38-3.22Zm66.38-39.5c-6.34-6.71-12.04-12.06-19.13-15.7,4.16,7.22,9.95,12.46,19.13,15.7Z"/>
  <path class="cls-8" d="m330.4,1574.57c-3.05,2.53-2.57,6.28-2.92,9.54-1.19,11.06-13.3,26.5-26.12,24.32-7.06-1.2-12.1-4.93-15.82-10.36-5.1-7.45-7.33-16.14-8.09-25.05-1.26-14.88-1.87-29.81-3.29-44.67-1.29-13.46-2.56-27.01-1.47-40.41,1.42-17.43,3.89-35.16,17-48.45,10.66-10.8,18.87-11.62,34.51-.39,2.24,1.61,4.14,3.69,6.2,5.55v129.93Z"/>
  <path class="cls-1" d="m330.4,627.11v27.98c-4.7-10.94-9.38-21.89-16.33-31.68-2.53-3.56-5.32-6.82-9.14-9.01-2.17-1.24-4.63-2.64-6.84-.4-2.32,2.35-.71,4.54.95,6.55.74.89,1.28,1.97,2.12,2.75,12.23,11.48,18.11,26.32,22.28,42.06,2.36,8.89,4.65,17.8,6.97,26.7v4c-2.42.05-2.81-2.03-3.64-3.56-1.34-2.48-2.27-5.27-4.44-7.17-9.39-8.23-17.01-18.28-26.88-25.99-8.7-6.79-15.41-15.01-19.6-25.28-1.32-3.22-2.98-6.31-4.53-9.44-2.74-5.53-6.02-10.73-9.72-15.66-1.33-1.76-2.92-3.6-5.39-2.47-2.5,1.14-2.52,3.4-2.23,5.95.73,6.65,3.42,12.44,7.17,17.83,3.93,5.65,9.07,10.15,14.14,14.73,2.83,2.56,6.05,4.91,8.18,7.99,7.78,11.27,17.72,20.11,28.78,28.03,6.51,4.66,11.34,11.1,15.39,19.63-11.76-7.51-23.96-8.59-35.87-10.6-28.87-4.87-48.78-25.32-51.39-52.94,10.07-11.24,9.53-20.88-1.73-31.05-.41-10.96-1.03-21.91-1.18-32.87-.17-12.48,7.8-17.74,19.44-13.2,7.62,2.97,13.62,8.17,19.18,13.95,8.74,9.1,16.42,19.22,26.32,27.2,1.83,5.22,5.02,8.82,10.95,9.11,5.69,5.61,11.38,11.22,17.07,16.84Z"/>
  <path class="cls-8" d="m330.4,1287.73c-10.96-5.2-18.45-14.86-28.04-21.85-6.01-4.37-12.49-7.88-19.09-10.92-15.67-7.21-26.18-19.4-34.47-33.87-3.07-5.36-1.34-11.99,2.8-15.74,1.25-1.14,2.45-1.33,3.9-1.59,15.72-2.85,31.03.23,46.25,3.45,9.66,2.04,19.11,5.01,28.66,7.57v72.96Z"/>
  <path class="cls-9" d="m310.4,1026.92c-1.3-2.69-2.59-5.38-3.89-8.07.23-6.74,1.64-13.69.46-20.17-2.63-14.49-.49-28.51,1.88-42.65,1-6.01,1.73-12.06,2.58-18.09,1.57-4.34,1.55-8.68.02-13.02-.67-4.35-1.57-8.68-1.93-13.06-.24-2.87-1.92-3.31-4.12-3.98-5.49-1.68-10.8-1.71-16.36-.04-8.38,2.52-17.07.6-25.6,1.12-7.98.01-15.97.02-23.95.03-34-1.65-61.56-15.73-81.92-43.1-10.61-14.26-22.39-26.78-38.87-34.52-7.23-3.4-13.07-8.85-14.83-17.61-1.96-9.75,4-17.75,14.05-17.71,14.09.05,27.46,4.09,40.81,7.94,20.23,5.84,39.97,13.36,60.46,18.3,10.27,2.48,20.78,3.96,31.11,6.21,31.99,6.98,49.76,27.87,57.05,58.86.71,3.03,1.15,6.18,3.24,8.7,1.38,2.75-.68,6.17,1.72,8.72,1.03,7.51,2.52,15,2.97,22.55.65,10.78-1.51,21.39-3.56,31.91-2.17,11.12-2.97,19.73-1.61,25.55,2.19-11.7,5.34-23.01,9.58-33.93,3.15-8.13,5.53-16.68,10.71-23.92v6c-.33.36-.8.66-.98,1.09-6.68,15.38-12.34,31.12-15.84,47.54-1.01,4.7-2.85,9.45-1.86,15.15,4.24-3.97,8.37-7.13,10.85-12.01,2.39-4.71,5.2-9.19,7.83-13.78v12.99c-2.57,2.31-6.15,3.56-8.28,8.1,3.41-1.69,5.85-2.89,8.28-4.1v3c-4.78,2.71-9.55,5.43-14.33,8.14,5.12.17,9.79-.65,14.33-2.15v3c-5.04,1.48-10.2,2.78-15.4,2.84-4.59.05-5.5,2.11-5.63,6.02-.2,6.1,1.72,12.06,1.03,18.16Zm-56.99-120.45c-2.7-1.64-5.62-2.39-8.75-2.52-8.95-.36-17.39-2.84-25.17-7.09-11.64-6.35-22.39-14.3-34.79-19.32-1.65-.67-3.77-1.49-2.85-3.9.83-2.18,3.08-1.96,4.78-1.57,4.85,1.13,9.54,2.77,13.89,5.29,9.2,5.32,18.22,11.01,27.7,15.77,7.51,3.77,15.11,8.36,23.69,8.65,15.97.54,31.97.17,47.95.14.91,0,2.16.52,2.67-.59.46-1-.35-1.88-.98-2.64-.64-.77-1.36-1.46-2.06-2.17-11.47-11.46-26.57-17.37-40.68-23.75-27.6-12.49-56.15-23-85.26-31.73-5.38-1.61-10.77-3.45-15.64-6.41-1.86-1.13-3.05-2.81-2-5.02.99-2.09,3.05-1.9,4.81-1.37,2.21.66,4.32,1.59,6.38,2.74,10.9,6.05,21.91,11.99,34.2,14.77,11.03,2.5,21.82,5.76,32.46,9.51,4.84,1.7,9.45,4.03,14.17,6.07-1.8-3.52-4.86-5.69-6.59-8.95-1.08-2.03-3.07-4.15-1.07-6.31,2.25-2.43,4.24.02,6.05,1.25,18.99,12.88,37.1,26.83,53.25,43.22,1.53,1.56,2.76,3.78,5.76,3.64-1.15-6.16-2.87-12-4.92-17.74-8.98-25.18-26.86-39.99-52.83-45.47-15.37-3.25-30.94-5.5-46-10.3-19.6-6.24-38.96-13.28-58.99-18.1-8.05-1.94-16.07-4.04-24.5-3.58-8.5.46-13.01,6.99-10.73,15.12,2.18,7.81,7.85,12.21,14.48,15.48,13.56,6.69,24.72,16.01,33.35,28.44,12.48,17.99,28.05,32.19,48.81,40.23,15.93,6.17,32.37,8.81,49.42,8.23Zm19.15-36c-9.36-7.54-18.58-15.36-29.34-20.96,6.65,11.35,18.25,15.76,29.34,20.96Zm-80.62,5.94c-.2.44-.4.88-.6,1.32,4.51,2.39,9.09,4.67,13.52,7.2,4.44,2.54,8.75,5.32,13.09,8.03,5.08,3.17,10.21,5.21,15.13,5.35-15.63-5.68-27.21-16.04-41.15-21.91Zm67.59-9.41c4.01,4.34,8.92,6.75,14.45,7.96-4.82-2.65-9.63-5.3-14.45-7.96Zm-100.04-36.03c-.24.37-.49.74-.73,1.11,3.07,2.72,7,3.54,11.05,4.12-3.44-1.74-6.88-3.48-10.32-5.22Z"/>
  <path class="cls-1" d="m310.4,1026.92c.69-6.11-1.23-12.06-1.03-18.16.13-3.91,1.04-5.97,5.63-6.02,5.2-.06,10.36-1.36,15.4-2.84v78.96c-1.92.85-4.26,2.49-4.89-1.12-3.07-17.53-9.89-33.93-15.11-50.81Z"/>
  <path class="cls-1" d="m330.4,926.94c-5.18,7.24-7.56,15.79-10.71,23.92-4.23,10.92-7.39,22.23-9.58,33.93-1.36-5.82-.56-14.42,1.61-25.55,2.05-10.52,4.2-21.14,3.56-31.91-.45-7.55-1.95-15.03-2.97-22.55,1-3.99,2.03-7.97,2.97-11.97.41-1.74.16-3.99,1.88-4.9,5.74-3.03,9.05-8.43,13.25-12.95v51.97Z"/>
  <path class="cls-6" d="m240.36,637.12c2.61,27.61,22.52,48.07,51.39,52.94,11.91,2.01,24.11,3.09,35.87,10.6-4.05-8.53-8.88-14.96-15.39-19.63-11.06-7.92-21-16.76-28.78-28.03-2.13-3.08-5.35-5.43-8.18-7.99-5.06-4.58-10.2-9.08-14.14-14.73-3.75-5.38-6.44-11.17-7.17-17.83-.28-2.55-.26-4.81,2.23-5.95,2.47-1.13,4.06.71,5.39,2.47,3.71,4.93,6.98,10.13,9.72,15.66,1.55,3.13,3.21,6.21,4.53,9.44,4.19,10.27,10.9,18.49,19.6,25.28,9.87,7.7,17.5,17.76,26.88,25.99,2.17,1.9,3.1,4.68,4.44,7.17.83,1.54,1.22,3.62,3.64,3.56v10.99c-9.85-8.88-22.16-11.29-34.66-13.14-24.87-3.7-44.44-15.01-55.07-38.77-1.68-3.74-1.92-8.13-2.83-12.22,1.32-1.73-.29-4.73,2.52-5.81Zm34.99,4.19c-.11-1.31.02-2.02-.24-2.54-4.45-9.05-8.35-18.4-14.54-26.48-.83-1.08-1.48-3.16-3.12-2.45-1.59.69-.76,2.6-.52,4.04,1.93,11.71,9.47,19.61,18.42,27.43Z"/>
  <path class="cls-14" d="m313.33,610.27c-5.93-.29-9.12-3.89-10.95-9.11-.31-1.6-.61-3.2-.92-4.79-.78-11.99,15.01-22.18,22.66-18.51,2.75,1.32,4.18,3.54,6.27,5.27v8.99c-1.43,1.1-1.34,2.91-2.02,4.36-2.55,5.37-5.97,9.82-11.95,11.66-1.13.57-2.43.88-3.09,2.12Z"/>
  <path class="cls-14" d="m330.4,448.21c-3.29,3.05-6.05,6.97-10.81,7.84-9.98,1.82-16.8-5.61-14.47-15.66,1.23-5.29,3.79-9.73,9.02-11.99,6.7-2.89,12.07-.97,16.25,4.82v14.99Z"/>
  <path class="cls-14" d="m27.59.46c1.84,7.19,1.16,13.66-4.54,19.21-4.27,4.16-13.39,6.16-18.59,3.47C.25,20.97-1.47,13.01,1.47,8.3,3.05,5.77,4.54,3.24,5.6.46h21.99Z"/>
  <path class="cls-1" d="m330.4,970.91c-2.63,4.58-5.44,9.07-7.83,13.78-2.48,4.88-6.61,8.05-10.85,12.01-.99-5.7.85-10.44,1.86-15.15,3.51-16.41,9.16-32.16,15.84-47.54.18-.43.65-.73.98-1.09v37.98Z"/>
  <path class="cls-18" d="m330.4,874.96c-4.21,4.52-7.52,9.92-13.25,12.95-1.72.91-1.47,3.16-1.88,4.9-.94,4-1.97,7.98-2.97,11.97-2.4-2.55-.35-5.97-1.72-8.72,3.51-6.67,2.34-14.02,3.15-21.09.46-3.96,1.22-7.89,1.85-11.84,2.65-.71,2.08-3.3,2.96-5.05,2.15-2.34,3.49-5.11,4.58-8.07,1.94-5.24,3.93-10.46,7.28-15.02v13.99c-8.87,6.82-8.83,17.29-11.18,26.9,3.93-2.86,6.96-6.62,11.18-8.91v8Z"/>
  <path class="cls-4" d="m330.4,692.07c-2.32-8.9-4.61-17.81-6.97-26.7-4.17-15.74-10.05-30.58-22.28-42.06-.83-.78-1.38-1.86-2.12-2.75-1.66-2.01-3.28-4.19-.95-6.55,2.21-2.23,4.67-.84,6.84.4,3.83,2.19,6.62,5.45,9.14,9.01,6.95,9.79,11.63,20.73,16.33,31.68v10.99c-.29-.56-.72-1.09-.86-1.68-3.63-15.81-10.74-29.95-20.74-42.63-2.14-2.72-4.65-5.55-8.94-5.42.61,2.92,2.45,4.81,4.18,6.44,11.38,10.65,16.82,24.44,21.26,38.86,1.78,5.79,2.49,11.88,5.09,17.43v12.99Z"/>
  <path class="cls-3" d="m330.4,294.29c-2.95-.15-6.04.19-8.84-.56-6.6-1.77-9.6-10.94-5.89-17.39,3.25-5.64,8.18-8.36,14.73-8.04v25.99Z"/>
  <path class="cls-1" d="m330.4,834.99c-3.35,4.56-5.34,9.78-7.28,15.02-1.09,2.96-2.43,5.73-4.58,8.07-.71-15.4,2.01-30.3,6.59-44.92,1.33-1.45,1.03-3.33,1.32-5.06,1.32-2.7,2.64-5.39,3.95-8.09v34.98Z"/>
  <path class="cls-3" d="m330.4,210.34c-8.81-.5-11.3-2.05-12.84-8.02-1.84-7.16.85-13.74,7.53-17.72,1.61-.96,3.22-2.28,5.31-2.25v27.98Z"/>
  <path class="cls-12" d="m330.4,679.08c-2.6-5.54-3.31-11.64-5.09-17.43-4.44-14.43-9.88-28.22-21.26-38.86-1.74-1.62-3.58-3.52-4.18-6.44,4.29-.13,6.8,2.7,8.94,5.42,9.99,12.68,17.11,26.82,20.74,42.63.14.59.57,1.12.86,1.68v12.99Z"/>
  <path class="cls-3" d="m70.58,9.52c-2.33-2.58-4.19-5.37-4.01-9.06h24.98c-2.15,3.45-4.69,6.56-7.99,8.99-4.32,1.13-8.64,1.71-12.98.07Z"/>
  <path class="cls-10" d="m316.43,608.15c5.98-1.84,9.4-6.29,11.95-11.66.69-1.45.59-3.26,2.02-4.36v30.98c-3.92-3.79-7.86-7.56-11.74-11.39-1-.99-2.62-1.68-2.23-3.57Z"/>
  <path class="cls-17" d="m130.52.46c-5.65,10.11-17.48,11.53-23.23,2.76-.5-.76-.52-1.83-.76-2.76,8,0,15.99,0,23.99,0Z"/>
  <path class="cls-5" d="m330.4,866.97c-4.22,2.28-7.25,6.04-11.18,8.91,2.35-9.6,2.31-20.08,11.18-26.9v17.99Z"/>
  <path class="cls-15" d="m316.43,608.15c-.38,1.89,1.23,2.58,2.23,3.57,3.88,3.83,7.82,7.6,11.74,11.39v4c-5.69-5.61-11.38-11.22-17.07-16.84.67-1.24,1.97-1.56,3.09-2.12Z"/>
  <path class="cls-7" d="m330.4,996.9c-4.54,1.49-9.21,2.32-14.33,2.15,4.78-2.71,9.55-5.43,14.33-8.14v6Z"/>
  <path class="cls-2" d="m330.4,800.01c-1.32,2.7-2.64,5.39-3.95,8.09-.06-2.48-.11-4.97-.17-7.45,1.82-1.94,1.18-5.4,4.12-6.63v6Z"/>
  <path class="cls-16" d="m330.4,987.9c-2.43,1.2-4.87,2.41-8.28,4.1,2.13-4.54,5.71-5.78,8.28-8.1v4Z"/>
  <path class="cls-8" d="m227.54,1616.2c-4.58.41-8.69-.99-12.32-3.62-21.49-15.57-41.94-32.35-58.95-52.88-10.97-13.25-21.82-26.96-25.71-44.04-3.09-13.57-5.26-27.68,3.93-40.6,4.61-6.48,10.9-9.1,18.12-10.35,15.43-2.66,27.84,3.51,39.55,12.96,19.07,15.38,28.97,36.52,38.19,58.23,4.89,11.52,10.75,22.71,14.55,34.57,3.2,10.01,7.82,20.31,3.77,31.47-2.88,7.92-12.11,14.36-21.12,14.27Z"/>
  <path class="cls-8" d="m284.41,1390.63c-14.87-1.01-28.71-5.12-39.35-16.12-6.84-7.06-11.14-15.81-14.51-25.21-2.15-6.01-2.81-12.25-4.77-18.23-1.21-3.7-.62-7.79-.98-11.67-1.15-12.4-4.08-24.37-7.14-36.31-4.93-19.21,6.67-28.4,24.62-24.75,7.49,1.52,12.96,6.04,18.09,11.47,11.51,12.19,21.87,25.27,31.5,38.97,11.96,17.01,20.37,35.45,22.4,56.32,1.27,13.05-6.15,19.95-18.74,24.41-3.55,1.26-7.27,1.73-11.12,1.13Z"/>
  <path class="cls-8" d="m201.47,1320.97c.48,4.48-1.45,8.68-3.28,12.89-5.36,12.33-12.45,23.6-20.51,34.36-8.48,11.31-16.43,23.02-24.78,34.44-3.46,4.72-7.94,8.12-13.82,9.72-10.67,2.9-26.99-6.88-30.48-17.47-4.59-13.96-3.7-27.66,1.34-40.9,3.55-9.34,10.37-17.06,16.42-25.05,10.48-13.86,21.71-27.25,31.05-41.85,7.41-11.58,25.05-13.18,34.63,1.36,5.27,8,9.68,21.38,9.42,32.52Z"/>
  <path class="cls-13" d="m326.28,800.64c.06,2.48.11,4.97.17,7.45-.29,1.73.01,3.6-1.32,5.06-.87-.33-1.74-.67-2.61-1-6.08-1.15-11.79.35-17.47,2.32-6.96,2.42-13.79,5.25-21.5,4.46-11.13-1.14-19.51-6.9-26.83-14.82-10-10.82-16.42-24.16-25.34-35.71-4.61-5.97-10.1-11.3-13.63-18.04-6.78-12.96-7.62-26.2-.4-39.24,5.15-9.31,12.04-11.75,22.16-8.32,11.24,3.81,19.5,11.82,27.08,20.43,8.72,9.92,17.86,19.52,29.57,25.59,17.66,9.15,25.34,24.19,28.27,42.73.48,3.06,1.23,6.07,1.86,9.1Zm-2.8,3.96c-.73-8.87-2.64-16.83-4.69-24.81-2.9-11.25-9.24-19.7-19.14-25.67-8.84-5.33-17.57-10.83-24.79-18.36-5.99-6.25-11.81-12.67-18.03-18.69-5.51-5.33-11.63-9.93-19.16-12.25-5.89-1.82-10.77-.47-14.85,4.14-2.6,2.94-4.2,6.39-5.28,10.08-4.24,14.37-.21,26.96,8.87,38.16,8.19,10.1,15.5,20.79,22.63,31.63,2.73,4.16,5.69,8.26,9.08,11.88,10.12,10.82,21.72,18.36,37.5,14.23,7.29-1.91,14.07-5.46,22.04-6.49-4.45-5.73-7.79-11.79-12.72-15.99-10.22-8.72-20.25-17.76-31.85-24.81-10.7-6.51-20.24-14.58-29.14-23.38-4.17-4.12-4.4-7.61-1.13-10.81,2.95-2.88,6.45-2.5,10.66,1.05,4.2,3.54,6.68,8.27,8.96,13.08,5.17,10.93,13.58,18.74,23.49,25.21,5.56,3.63,12.09,6.21,16.1,11.61,5.84,7.88,13.78,13.29,21.44,20.2Zm-57.64-45.1c-2.87-5.17-5.14-9.15-7.29-13.2-1.96-3.7-4.13-7.22-7.41-9.91-1.95-1.61-4.02-3.4-6.47-.84-2.29,2.39-1.18,4.71.7,6.58,6.04,6.04,12.6,11.48,20.47,17.37Z"/>
  <path class="cls-14" d="m240.36,637.12c-2.82,1.08-1.2,4.08-2.52,5.81-.8-2.97-2.27-1.76-4.05-.85-8.17,4.17-18.48,2.23-22.97-4.25-3.32-4.79-2.83-10.12-1.04-15.05,2.94-8.11,6.89-15.69,16.25-18.23,2.94-.8,5.93-.31,8.89-.2,1.24.57,2.48,1.15,3.72,1.72,11.26,10.17,11.8,19.8,1.73,31.05Z"/>
  <path class="cls-14" d="m145.64,538.69c-1.09,8.53-5.26,14.12-16.17,15.95-5.89.98-10.86.63-14.29-4.73-3.35-5.22-2.3-10.46.67-15.44,1.68-2.82,3.59-5.42,5.85-7.91,6.99-7.74,13.29-5.69,19.28.85,2.86,3.12,5.11,6.72,4.67,11.28Z"/>
  <path class="cls-14" d="m265.69,77.27c.35,10.97-3.37,15.33-12.6,19.61-5.28,2.45-15.19-3.88-14.93-11.51.09-2.64.5-5.29.35-7.91-.57-9.71,7.91-14.44,15.09-14.68,6.9-.23,11.55,5.63,12.09,14.48Z"/>
  <path class="cls-14" d="m52.72,249.05c-6.71-.03-13.5-6.42-13.02-13.19.72-10.08,6.69-17.62,16.39-18.36,6.79-.51,13.05,6.81,13.15,14.72.13,9.77-6.84,16.87-16.53,16.83Z"/>
  <path class="cls-14" d="m259.04,159.3c-8.09,1.12-13.32-5.9-14.39-12.12-1.22-7.1,3.11-14.77,8.93-16.91,14.72-5.41,11.98-6.86,17.85,8.11,3.76,9.59,1.94,14.52-6.33,19.73q-1.94,1.22-6.07,1.19Z"/>
  <path class="cls-14" d="m63.59,483.42c-.35-7.22,2.89-12.55,9.88-15.67,5.3-2.37,10.43-2.01,13.98,1.27,4.09,3.76,6.06,11.78,4.38,16.44-3.01,8.35-13.16,12.82-20.94,11.56-5.06-.82-7.58-5.43-7.31-13.58Z"/>
  <path class="cls-14" d="m231.83,495.98c-6.67.08-11.36-4.64-11.36-11.45,0-8.84,7.95-18.17,15.49-18.19,6.46-.02,14.33,7.23,14.49,13.33.2,7.64-9.57,16.2-18.62,16.31Z"/>
  <path class="cls-14" d="m193.3,432.6c-1.5,5.5-4.81,10.13-9.79,13.09-2.83,1.68-6.44,2.68-9.74,2.78-5.14.15-9.9-5.49-9.68-10.94.31-7.73,3.6-14.04,10.53-17.71,10.36-5.48,17.83,3.28,18.68,12.78Z"/>
  <path class="cls-14" d="m102.31,190.09c-7.73.04-10.79-3.46-10.85-12.42-.05-7.98,8.73-16.24,17.32-16.29,6.28-.04,10.74,4.88,10.49,12.4-.27,8.25-3.05,16.8-16.96,16.32Z"/>
  <path class="cls-3" d="m162.7,511.24c.27-7.67,3.23-14.1,10.07-17.81,4.97-2.69,10.85-.97,14.42,3.08,3.46,3.93,3.84,10.44,1.14,15.8-4.77,9.44-12.09,10.81-21.3,8.5-2.73-.69-4.33-4.57-4.33-9.57Z"/>
  <path class="cls-3" d="m45.12,319.28c-2.5-.36-5.92-.11-8.57-1.42-3.49-1.73-2.73-6.22-2.66-9.12.17-7.44,3.69-13.33,10.99-16.49,4.56-1.97,8.9-2.67,12.91.87,4.4,3.88,5.11,9.21,3.9,14.37-1.61,6.86-8.88,11.76-16.58,11.79Z"/>
  <path class="cls-14" d="m74.41,388.87c-.62-2.28.75-4.44,2.16-6.01,3.47-3.87,5.01-9.66,11.37-10.79,8.43-1.49,15.88,4.88,14.92,13.34-1.21,10.68-7.6,14.42-16.68,15.73-5.76.83-11.67-5.58-11.77-12.27Z"/>
  <path class="cls-3" d="m117,347.15c-7.17.37-9-3.18-10.3-10.05-1.54-8.12,4.66-16.66,12.61-18.57,4.96-1.19,8.55,1.21,11.77,4.75,3.19,3.51,4.19,7.51,2.91,11.89-2.17,7.38-9.06,12.09-16.98,11.98Z"/>
  <path class="cls-3" d="m293.31,353.05c-7.93-.06-12.92-5.16-12.33-13.6.49-6.98,9.02-14.67,17.42-14.4,5.14.16,10.23,4.64,10.58,13.65.28,7.24-7.86,14.41-15.67,14.35Z"/>
  <path class="cls-3" d="m209.46,371.2c-9.27-2.11-12.3-8.76-10.77-16.78,1.05-5.55,11.72-12.11,18-11.13,7.91,1.24,12.12,13.4,7.19,20.84-.72,1.09-1.61,2.07-2.42,3.1-3.44,3.03-7.43,4.38-12,3.96Z"/>
  <path class="cls-14" d="m250.66,429.21c-6.91-.07-10.81-3.74-10.09-10.76,1.13-10.97,5.8-16.98,16.34-17.17,6.39-.12,10.89,5.27,10.46,12.93-.53,9.53-5.49,14.98-16.71,15Z"/>
  <path class="cls-14" d="m26.58,192.34c-5.1-5.17-3.89-16.9,2.45-22.35,1.84-1.58,3.86-2.96,6.22-3.86,7.09-2.72,12.49,0,14.1,7.25,2.16,9.72-2.22,17.87-10.81,20.12-4.03.1-8.02-.22-11.96-1.16Z"/>
  <path class="cls-14" d="m178.11,102.4c7.88-1.81,12.19,8.55,9.26,15.58-2.41,5.8-7.01,9.35-12.31,12.03-5.36,2.71-14.32-3.76-14.49-10.22-.27-10.55,6.61-17.37,17.53-17.4Z"/>
  <path class="cls-3" d="m201.48,546.65c-.09-6.73,7.68-17.48,16.62-16.72,7.5.64,9.74,5.13,10.09,12.08.45,8.75-7.15,16.23-15.77,16.11-6.26-.09-10.95-5.01-10.94-11.47Z"/>
  <path class="cls-3" d="m290.76,544.39c-8.11.28-12.21-4.49-12.05-12.21.2-9.91,5.24-16.01,15.09-16.78,5.65-.45,10.31,5.03,10.43,11.62.16,8.96-6.25,17.23-13.47,17.37Z"/>
  <path class="cls-3" d="m114.67,265.43c-.81-8.64,8.9-16.1,16.82-15.17,5.12.6,10.52,6.53,9.89,11.79-.93,7.81-9.15,15.78-15.76,15.94-7.12.17-11.44-5.19-10.96-12.55Z"/>
  <path class="cls-14" d="m185.48,283.94c.67,10.15-8.5,18.18-18.43,14.4-6.25-2.38-9.23-7.96-6.18-15.35,2.64-6.4,7.57-10.64,14.69-11.56,6.74-.88,9.98,3.33,9.92,12.51Z"/>
  <path class="cls-3" d="m56.8,128.23c-7.13-.06-12.38-4.66-12.22-10.73.21-7.94,8.33-15.89,16.15-15.81,6.27.06,10.65,4.38,10.7,10.61.07,8.45-6.32,17.62-14.63,15.93Z"/>
  <path class="cls-3" d="m259.4,284.25c0,1.49.13,3-.02,4.48-.72,6.81-3.44,9.97-9.69,11.4-5.56,1.27-11.21-.96-14.09-5.56-3.94-6.3,2.15-18.24,10.29-20.16.48-.11,1-.06,1.48-.16,9.24-1.78,12.08.57,12.03,10Z"/>
  <path class="cls-3" d="m111.46,449.47c.2-7.02,3.46-12.34,9.88-15.51,8.61-4.25,16.21,1.79,15.67,11.7-.5,9.24-9.37,16.53-19,13.99-4.42-1.17-6.54-5.22-6.56-10.19Z"/>
  <path class="cls-3" d="m158.37,209.22c-6.02-.04-7.97-1.79-8.84-7.96-.93-6.59,3.87-15.67,9.29-17.65,4.05-1.48,8.17-2.49,11.44,1.27,3.62,4.16,5.59,8.96,3.5,14.58-2.49,6.65-7.51,9.81-15.38,9.76Z"/>
  <path class="cls-3" d="m189.49,58.85c.29,6.89-5.45,13.9-12.2,15.43-6.77,1.54-13.94-6.54-12.08-13.23.22-.79.34-1.61.53-2.41,2.37-10.06,2.34-10.18,10.08-10.34.16,0,.32-.1.48-.13,10.3-2.19,13.1.08,13.18,10.68Z"/>
  <path class="cls-3" d="m259.69,231.12c-1.49-6.82,8.77-15.8,15.51-15.62,3.32.09,5.57,2.16,7.32,4.61,2.96,4.12,2.14,13.67-1.32,18.38-2.38,3.24-10.81,5.13-15.46,3.47-3.74-1.33-6.04-5.45-6.06-10.84Z"/>
  <path class="cls-3" d="m152.72,603.56c0-7.64,6.22-14.4,13.26-14.42,6.62-.02,11.48,4.92,11.5,11.69.03,8.22-6.62,15.23-14.42,15.17-6.01-.04-10.34-5.25-10.34-12.44Z"/>
  <path class="cls-3" d="m215.79,202.35c-10.27-.96-13.92-6.62-9.55-15.24,1.78-3.51,4.06-6.51,7.04-8.88,5.67-4.5,13.38-1.7,15.16,5.31,2.41,9.48-3.93,18.9-12.65,18.81Z"/>
  <path class="cls-3" d="m144.52,390.51c-3.72-4.5-3.98-10.95-.64-15.9,3.29-4.87,7.5-6.71,12.05-5.36,4.91,1.46,7.21,4.92,7.49,9.84.34,5.97-2.87,11.26-7.95,13.27-3.76,0-7.53.09-10.95-1.85Z"/>
  <path class="cls-4" d="m238.63,606.08c-1.24-.57-2.48-1.15-3.72-1.72-.44-9.48-.66-18.98-1.21-28.47-.79-13.58,4.64-23.85,21.7-19.07,11.48,3.21,19.2,11.82,27,20.28,6.12,6.63,10.96,14.59,19.06,19.27.31,1.6.61,3.2.92,4.79-9.89-7.98-17.57-18.11-26.32-27.21-5.56-5.78-11.56-10.98-19.18-13.95-11.64-4.54-19.61.72-19.44,13.2.15,10.96.77,21.92,1.18,32.87Z"/>
  <path class="cls-3" d="m200.29,233.39c-.05,4.93-5.01,9.94-9.82,9.93-6.1-.01-10.15-3.14-9.97-7.7.26-6.58,7.79-14.22,13.68-13.9,1.87.1,6.15,8.26,6.11,11.66Z"/>
  <path class="cls-3" d="m314.39,131.52c-.94-2.5-3.82-2.93-5.33-4.81-.73-.9-1.71-1.43-1.44-2.8.33-1.63,1.68-1.41,2.76-1.47,3.18-.17,5.95-.11,8.93-2.59,3.33-2.79,7.07,0,7.1,4.52.05,8.98-2.46,12.84-10.18,15.44-2.55.86-5.16,1.18-7.59-.54-1.8-1.28-2.5-3.03-2.16-5.15.41-2.57,2.55-1.42,4-1.72,1.22-.26,2.63.47,3.91-.87Z"/>
  <path class="cls-11" d="m25.62,75.87c.36-9.36,1.44-10.62,8.84-10.36,4.32.15,7.89,4.8,7.57,9.87-.32,5.09-6.36,10.6-11.85,9.78-5.13-.76-4.61-5.39-4.57-9.29Z"/>
  <path class="cls-15" d="m322.52,812.15c.87.33,1.74.67,2.61,1-4.57,14.63-7.3,29.52-6.59,44.92-.88,1.75-.31,4.34-2.96,5.05-.95-16.78,1.51-33.15,6.02-49.26.17-.61.61-1.14.92-1.71Z"/>
</svg>